{
	"asset":{
		"generator":"Khronos glTF Blender I/O v4.1.63",
		"version":"2.0"
	},
	"scene":0,
	"scenes":[
		{
			"name":"Scene",
			"nodes":[
				0
			]
		}
	],
	"nodes":[
		{
			"mesh":0,
			"name":"\u7acb\u65b9\u4f53"
		}
	],
	"materials":[
		{
			"doubleSided":true,
			"name":"Material",
			"pbrMetallicRoughness":{
				"baseColorFactor":[
					0.800000011920929,
					0.800000011920929,
					0.800000011920929,
					1
				],
				"metallicFactor":0,
				"roughnessFactor":0.5
			}
		}
	],
	"meshes":[
		{
			"name":"\u7acb\u65b9\u4f53.012",
			"primitives":[
				{
					"attributes":{
						"POSITION":0,
						"NORMAL":1,
						"TEXCOORD_0":2
					},
					"indices":3,
					"material":0
				}
			]
		}
	],
	"accessors":[
		{
			"bufferView":0,
			"componentType":5126,
			"count":1844,
			"max":[
				0.9659997820854187,
				0.5399999618530273,
				0.10000029951334
			],
			"min":[
				-0.9739999175071716,
				-0.38400012254714966,
				-0.10000033676624298
			],
			"type":"VEC3"
		},
		{
			"bufferView":1,
			"componentType":5126,
			"count":1844,
			"type":"VEC3"
		},
		{
			"bufferView":2,
			"componentType":5126,
			"count":1844,
			"type":"VEC2"
		},
		{
			"bufferView":3,
			"componentType":5123,
			"count":3612,
			"type":"SCALAR"
		}
	],
	"bufferViews":[
		{
			"buffer":0,
			"byteLength":22128,
			"byteOffset":0,
			"target":34962
		},
		{
			"buffer":0,
			"byteLength":22128,
			"byteOffset":22128,
			"target":34962
		},
		{
			"buffer":0,
			"byteLength":14752,
			"byteOffset":44256,
			"target":34962
		},
		{
			"buffer":0,
			"byteLength":7224,
			"byteOffset":59008,
			"target":34963
		}
	],
	"buffers":[
		{
			"byteLength":66232,
			"uri":"title.bin"
		}
	]
}
