{
	"asset":{
		"generator":"Khronos glTF Blender I/O v4.1.63",
		"version":"2.0"
	},
	"scene":0,
	"scenes":[
		{
			"name":"Scene",
			"nodes":[
				0,
				1,
				2,
				3,
				4,
				5,
				6,
				7
			]
		}
	],
	"nodes":[
		{
			"mesh":0,
			"name":"Ground"
		},
		{
			"mesh":1,
			"name":"\u7acb\u65b9\u4f53.001"
		},
		{
			"mesh":2,
			"name":"\u7acb\u65b9\u4f53.002"
		},
		{
			"mesh":3,
			"name":"\u7acb\u65b9\u4f53.003"
		},
		{
			"mesh":4,
			"name":"\u7acb\u65b9\u4f53.005"
		},
		{
			"mesh":5,
			"name":"\u7acb\u65b9\u4f53.006"
		},
		{
			"mesh":6,
			"name":"\u7acb\u65b9\u4f53.007"
		},
		{
			"mesh":7,
			"name":"\u7acb\u65b9\u4f53.004"
		}
	],
	"materials":[
		{
			"doubleSided":true,
			"name":"\u30de\u30c6\u30ea\u30a2\u30eb",
			"pbrMetallicRoughness":{
				"baseColorTexture":{
					"index":0
				},
				"metallicFactor":0,
				"roughnessFactor":0.5
			}
		},
		{
			"doubleSided":true,
			"name":"Material",
			"pbrMetallicRoughness":{
				"baseColorFactor":[
					0.800000011920929,
					0.800000011920929,
					0.800000011920929,
					1
				],
				"metallicFactor":0,
				"roughnessFactor":0.5
			}
		}
	],
	"meshes":[
		{
			"name":"\u7acb\u65b9\u4f53.002",
			"primitives":[
				{
					"attributes":{
						"POSITION":0,
						"NORMAL":1,
						"TEXCOORD_0":2
					},
					"indices":3,
					"material":0
				}
			]
		},
		{
			"name":"\u7acb\u65b9\u4f53.004",
			"primitives":[
				{
					"attributes":{
						"POSITION":4,
						"NORMAL":5,
						"TEXCOORD_0":6
					},
					"indices":7,
					"material":1
				}
			]
		},
		{
			"name":"\u7acb\u65b9\u4f53.005",
			"primitives":[
				{
					"attributes":{
						"POSITION":8,
						"NORMAL":9,
						"TEXCOORD_0":10
					},
					"indices":7,
					"material":1
				}
			]
		},
		{
			"name":"\u7acb\u65b9\u4f53.006",
			"primitives":[
				{
					"attributes":{
						"POSITION":11,
						"NORMAL":12,
						"TEXCOORD_0":13
					},
					"indices":7,
					"material":1
				}
			]
		},
		{
			"name":"\u7acb\u65b9\u4f53.008",
			"primitives":[
				{
					"attributes":{
						"POSITION":14,
						"NORMAL":15,
						"TEXCOORD_0":16
					},
					"indices":7,
					"material":1
				}
			]
		},
		{
			"name":"\u7acb\u65b9\u4f53.009",
			"primitives":[
				{
					"attributes":{
						"POSITION":17,
						"NORMAL":18,
						"TEXCOORD_0":19
					},
					"indices":7,
					"material":1
				}
			]
		},
		{
			"name":"\u7acb\u65b9\u4f53.010",
			"primitives":[
				{
					"attributes":{
						"POSITION":20,
						"NORMAL":21,
						"TEXCOORD_0":22
					},
					"indices":7,
					"material":1
				}
			]
		},
		{
			"name":"\u7acb\u65b9\u4f53.011",
			"primitives":[
				{
					"attributes":{
						"POSITION":23,
						"NORMAL":24,
						"TEXCOORD_0":25
					},
					"indices":7,
					"material":1
				}
			]
		}
	],
	"textures":[
		{
			"sampler":0,
			"source":0
		}
	],
	"images":[
		{
			"mimeType":"image/png",
			"name":"load",
			"uri":"load.png"
		}
	],
	"accessors":[
		{
			"bufferView":0,
			"componentType":5126,
			"count":78,
			"max":[
				40,
				-1.4901161193847656e-08,
				40
			],
			"min":[
				-40,
				-0.3999999761581421,
				-40
			],
			"type":"VEC3"
		},
		{
			"bufferView":1,
			"componentType":5126,
			"count":78,
			"type":"VEC3"
		},
		{
			"bufferView":2,
			"componentType":5126,
			"count":78,
			"type":"VEC2"
		},
		{
			"bufferView":3,
			"componentType":5123,
			"count":240,
			"type":"SCALAR"
		},
		{
			"bufferView":4,
			"componentType":5126,
			"count":24,
			"max":[
				5,
				20,
				5
			],
			"min":[
				-5,
				0,
				-5
			],
			"type":"VEC3"
		},
		{
			"bufferView":5,
			"componentType":5126,
			"count":24,
			"type":"VEC3"
		},
		{
			"bufferView":6,
			"componentType":5126,
			"count":24,
			"type":"VEC2"
		},
		{
			"bufferView":7,
			"componentType":5123,
			"count":36,
			"type":"SCALAR"
		},
		{
			"bufferView":8,
			"componentType":5126,
			"count":24,
			"max":[
				35.14657211303711,
				15,
				-27.330177307128906
			],
			"min":[
				27.14657211303711,
				0,
				-35.330177307128906
			],
			"type":"VEC3"
		},
		{
			"bufferView":9,
			"componentType":5126,
			"count":24,
			"type":"VEC3"
		},
		{
			"bufferView":10,
			"componentType":5126,
			"count":24,
			"type":"VEC2"
		},
		{
			"bufferView":11,
			"componentType":5126,
			"count":24,
			"max":[
				24.14657211303711,
				15,
				-26.330177307128906
			],
			"min":[
				14.14657211303711,
				0,
				-36.330177307128906
			],
			"type":"VEC3"
		},
		{
			"bufferView":12,
			"componentType":5126,
			"count":24,
			"type":"VEC3"
		},
		{
			"bufferView":13,
			"componentType":5126,
			"count":24,
			"type":"VEC2"
		},
		{
			"bufferView":14,
			"componentType":5126,
			"count":24,
			"max":[
				10.346571922302246,
				10,
				-27.330177307128906
			],
			"min":[
				2.346572160720825,
				0,
				-35.330177307128906
			],
			"type":"VEC3"
		},
		{
			"bufferView":15,
			"componentType":5126,
			"count":24,
			"type":"VEC3"
		},
		{
			"bufferView":16,
			"componentType":5126,
			"count":24,
			"type":"VEC2"
		},
		{
			"bufferView":17,
			"componentType":5126,
			"count":24,
			"max":[
				-0.6534278392791748,
				13,
				-26.330177307128906
			],
			"min":[
				-10.653428077697754,
				0,
				-36.330177307128906
			],
			"type":"VEC3"
		},
		{
			"bufferView":18,
			"componentType":5126,
			"count":24,
			"type":"VEC3"
		},
		{
			"bufferView":19,
			"componentType":5126,
			"count":24,
			"type":"VEC2"
		},
		{
			"bufferView":20,
			"componentType":5126,
			"count":24,
			"max":[
				38.77870178222656,
				1.9315245151519775,
				-21.5
			],
			"min":[
				36.77870178222656,
				-0.06847548484802246,
				-23.5
			],
			"type":"VEC3"
		},
		{
			"bufferView":21,
			"componentType":5126,
			"count":24,
			"type":"VEC3"
		},
		{
			"bufferView":22,
			"componentType":5126,
			"count":24,
			"type":"VEC2"
		},
		{
			"bufferView":23,
			"componentType":5126,
			"count":24,
			"max":[
				38.77870178222656,
				1.9315245151519775,
				-18.879886627197266
			],
			"min":[
				36.77870178222656,
				-0.06847548484802246,
				-20.879886627197266
			],
			"type":"VEC3"
		},
		{
			"bufferView":24,
			"componentType":5126,
			"count":24,
			"type":"VEC3"
		},
		{
			"bufferView":25,
			"componentType":5126,
			"count":24,
			"type":"VEC2"
		}
	],
	"bufferViews":[
		{
			"buffer":0,
			"byteLength":936,
			"byteOffset":0,
			"target":34962
		},
		{
			"buffer":0,
			"byteLength":936,
			"byteOffset":936,
			"target":34962
		},
		{
			"buffer":0,
			"byteLength":624,
			"byteOffset":1872,
			"target":34962
		},
		{
			"buffer":0,
			"byteLength":480,
			"byteOffset":2496,
			"target":34963
		},
		{
			"buffer":0,
			"byteLength":288,
			"byteOffset":2976,
			"target":34962
		},
		{
			"buffer":0,
			"byteLength":288,
			"byteOffset":3264,
			"target":34962
		},
		{
			"buffer":0,
			"byteLength":192,
			"byteOffset":3552,
			"target":34962
		},
		{
			"buffer":0,
			"byteLength":72,
			"byteOffset":3744,
			"target":34963
		},
		{
			"buffer":0,
			"byteLength":288,
			"byteOffset":3816,
			"target":34962
		},
		{
			"buffer":0,
			"byteLength":288,
			"byteOffset":4104,
			"target":34962
		},
		{
			"buffer":0,
			"byteLength":192,
			"byteOffset":4392,
			"target":34962
		},
		{
			"buffer":0,
			"byteLength":288,
			"byteOffset":4584,
			"target":34962
		},
		{
			"buffer":0,
			"byteLength":288,
			"byteOffset":4872,
			"target":34962
		},
		{
			"buffer":0,
			"byteLength":192,
			"byteOffset":5160,
			"target":34962
		},
		{
			"buffer":0,
			"byteLength":288,
			"byteOffset":5352,
			"target":34962
		},
		{
			"buffer":0,
			"byteLength":288,
			"byteOffset":5640,
			"target":34962
		},
		{
			"buffer":0,
			"byteLength":192,
			"byteOffset":5928,
			"target":34962
		},
		{
			"buffer":0,
			"byteLength":288,
			"byteOffset":6120,
			"target":34962
		},
		{
			"buffer":0,
			"byteLength":288,
			"byteOffset":6408,
			"target":34962
		},
		{
			"buffer":0,
			"byteLength":192,
			"byteOffset":6696,
			"target":34962
		},
		{
			"buffer":0,
			"byteLength":288,
			"byteOffset":6888,
			"target":34962
		},
		{
			"buffer":0,
			"byteLength":288,
			"byteOffset":7176,
			"target":34962
		},
		{
			"buffer":0,
			"byteLength":192,
			"byteOffset":7464,
			"target":34962
		},
		{
			"buffer":0,
			"byteLength":288,
			"byteOffset":7656,
			"target":34962
		},
		{
			"buffer":0,
			"byteLength":288,
			"byteOffset":7944,
			"target":34962
		},
		{
			"buffer":0,
			"byteLength":192,
			"byteOffset":8232,
			"target":34962
		}
	],
	"samplers":[
		{
			"magFilter":9729,
			"minFilter":9987
		}
	],
	"buffers":[
		{
			"byteLength":8424,
			"uri":"map_town.bin"
		}
	]
}
