# Blender 4.2.2 LTS
# www.blender.org
mtllib Collision.mtl
o 立方体
v 10.000000 -1.000000 -10.000000
v 10.000000 0.000000 -10.000000
v 10.000000 -1.000000 79.999992
v 10.000000 0.000000 79.999992
v -10.000000 -1.000000 -10.000000
v -10.000000 0.000000 -10.000000
v -10.000000 -1.000000 79.999992
v -10.000000 0.000000 79.999992
vn 1.0000 -0.0000 -0.0000
vn -0.0000 -0.0000 1.0000
vn -1.0000 -0.0000 -0.0000
vn -0.0000 -0.0000 -1.0000
vn -0.0000 -1.0000 -0.0000
vn -0.0000 1.0000 -0.0000
vt 0.625000 0.000000
vt 0.375000 0.250000
vt 0.375000 0.000000
vt 1.182342 -0.307342
vt -0.182342 1.057342
vt -0.182342 -0.307342
vt 0.625000 0.500000
vt 0.375000 0.750000
vt 0.375000 0.500000
vt 0.625000 0.750000
vt 0.375000 1.000000
vt 0.125000 0.750000
vt 0.125000 0.500000
vt 1.000000 -5.000000
vt 0.000000 1.000000
vt 0.000000 -5.000000
vt 0.625000 0.250000
vt 1.182342 1.057342
vt 0.625000 1.000000
vt 1.000000 1.000000
s 0
usemtl Material
f 2/1/1 3/2/1 1/3/1
f 4/4/2 7/5/2 3/6/2
f 8/7/3 5/8/3 7/9/3
f 6/10/4 1/11/4 5/8/4
f 7/9/5 1/12/5 3/13/5
f 4/14/6 6/15/6 8/16/6
f 2/1/1 4/17/1 3/2/1
f 4/4/2 8/18/2 7/5/2
f 8/7/3 6/10/3 5/8/3
f 6/10/4 2/19/4 1/11/4
f 7/9/5 5/8/5 1/12/5
f 4/14/6 2/20/6 6/15/6
o 立方体.001
v 10.000000 0.000000 10.000000
v 10.000000 15.000000 10.000000
v 10.000000 0.000000 79.999992
v 10.000000 15.000000 79.999992
v 8.000000 0.000000 10.000000
v 8.000000 15.000000 10.000000
v 8.000000 0.000000 79.999992
v 8.000000 15.000000 79.999992
vn 1.0000 -0.0000 -0.0000
vn -0.0000 -0.0000 1.0000
vn -1.0000 -0.0000 -0.0000
vn -0.0000 -0.0000 -1.0000
vn -0.0000 -1.0000 -0.0000
vn -0.0000 1.0000 -0.0000
vt 0.625000 0.000000
vt 0.375000 0.250000
vt 0.375000 0.000000
vt 0.625000 0.250000
vt 0.375000 0.500000
vt 0.625000 0.500000
vt 0.375000 0.750000
vt 0.625000 0.750000
vt 0.375000 1.000000
vt 0.125000 0.750000
vt 0.125000 0.500000
vt 0.875000 0.500000
vt 0.625000 1.000000
vt 0.875000 0.750000
s 0
usemtl マテリアル
f 10/21/7 11/22/7 9/23/7
f 12/24/8 15/25/8 11/22/8
f 16/26/9 13/27/9 15/25/9
f 14/28/10 9/29/10 13/27/10
f 15/25/11 9/30/11 11/31/11
f 12/32/12 14/28/12 16/26/12
f 10/21/7 12/24/7 11/22/7
f 12/24/8 16/26/8 15/25/8
f 16/26/9 14/28/9 13/27/9
f 14/28/10 10/33/10 9/29/10
f 15/25/11 13/27/11 9/30/11
f 12/32/12 10/34/12 14/28/12
o 立方体.002
v -8.000000 0.000000 10.000000
v -8.000000 15.000000 10.000000
v -8.000000 0.000000 79.999992
v -8.000000 15.000000 79.999992
v -10.000000 0.000000 10.000000
v -10.000000 15.000000 10.000000
v -10.000000 0.000000 79.999992
v -10.000000 15.000000 79.999992
vn 1.0000 -0.0000 -0.0000
vn -0.0000 -0.0000 1.0000
vn -1.0000 -0.0000 -0.0000
vn -0.0000 -0.0000 -1.0000
vn -0.0000 -1.0000 -0.0000
vn -0.0000 1.0000 -0.0000
vt 0.625000 0.000000
vt 0.375000 0.250000
vt 0.375000 0.000000
vt 0.625000 0.250000
vt 0.375000 0.500000
vt 0.625000 0.500000
vt 0.375000 0.750000
vt 0.625000 0.750000
vt 0.375000 1.000000
vt 0.125000 0.750000
vt 0.125000 0.500000
vt 0.875000 0.500000
vt 0.625000 1.000000
vt 0.875000 0.750000
s 0
usemtl マテリアル
f 18/35/13 19/36/13 17/37/13
f 20/38/14 23/39/14 19/36/14
f 24/40/15 21/41/15 23/39/15
f 22/42/16 17/43/16 21/41/16
f 23/39/17 17/44/17 19/45/17
f 20/46/18 22/42/18 24/40/18
f 18/35/13 20/38/13 19/36/13
f 20/38/14 24/40/14 23/39/14
f 24/40/15 22/42/15 21/41/15
f 22/42/16 18/47/16 17/43/16
f 23/39/17 21/41/17 17/44/17
f 20/46/18 18/48/18 22/42/18
o 立方体.003
v 12.000000 -1.000000 -10.000000
v 12.000000 15.000000 -10.000000
v 12.000000 -1.000000 10.000000
v 12.000000 15.000000 10.000000
v 10.000000 -1.000000 -10.000000
v 10.000000 15.000000 -10.000000
v 10.000000 -1.000000 10.000000
v 10.000000 15.000000 10.000000
vn 1.0000 -0.0000 -0.0000
vn -0.0000 -0.0000 1.0000
vn -1.0000 -0.0000 -0.0000
vn -0.0000 -0.0000 -1.0000
vn -0.0000 -1.0000 -0.0000
vn -0.0000 1.0000 -0.0000
vt 0.625000 0.000000
vt 0.375000 0.250000
vt 0.375000 0.000000
vt 0.625000 0.250000
vt 0.375000 0.500000
vt 0.625000 0.500000
vt 0.375000 0.750000
vt 0.625000 0.750000
vt 0.375000 1.000000
vt 0.125000 0.750000
vt 0.125000 0.500000
vt 0.875000 0.500000
vt 0.625000 1.000000
vt 0.875000 0.750000
s 0
usemtl マテリアル
f 26/49/19 27/50/19 25/51/19
f 28/52/20 31/53/20 27/50/20
f 32/54/21 29/55/21 31/53/21
f 30/56/22 25/57/22 29/55/22
f 31/53/23 25/58/23 27/59/23
f 28/60/24 30/56/24 32/54/24
f 26/49/19 28/52/19 27/50/19
f 28/52/20 32/54/20 31/53/20
f 32/54/21 30/56/21 29/55/21
f 30/56/22 26/61/22 25/57/22
f 31/53/23 29/55/23 25/58/23
f 28/60/24 26/62/24 30/56/24
o 立方体.004
v -10.000000 -1.000000 -10.000000
v -10.000000 15.000000 -10.000000
v -10.000000 -1.000000 10.000000
v -10.000000 15.000000 10.000000
v -12.000000 -1.000000 -10.000000
v -12.000000 15.000000 -10.000000
v -12.000000 -1.000000 10.000000
v -12.000000 15.000000 10.000000
vn 1.0000 -0.0000 -0.0000
vn -0.0000 -0.0000 1.0000
vn -1.0000 -0.0000 -0.0000
vn -0.0000 -0.0000 -1.0000
vn -0.0000 -1.0000 -0.0000
vn -0.0000 1.0000 -0.0000
vt 0.625000 0.000000
vt 0.375000 0.250000
vt 0.375000 0.000000
vt 0.625000 0.250000
vt 0.375000 0.500000
vt 0.625000 0.500000
vt 0.375000 0.750000
vt 0.625000 0.750000
vt 0.375000 1.000000
vt 0.125000 0.750000
vt 0.125000 0.500000
vt 0.875000 0.500000
vt 0.625000 1.000000
vt 0.875000 0.750000
s 0
usemtl マテリアル
f 34/63/25 35/64/25 33/65/25
f 36/66/26 39/67/26 35/64/26
f 40/68/27 37/69/27 39/67/27
f 38/70/28 33/71/28 37/69/28
f 39/67/29 33/72/29 35/73/29
f 36/74/30 38/70/30 40/68/30
f 34/63/25 36/66/25 35/64/25
f 36/66/26 40/68/26 39/67/26
f 40/68/27 38/70/27 37/69/27
f 38/70/28 34/75/28 33/71/28
f 39/67/29 37/69/29 33/72/29
f 36/74/30 34/76/30 38/70/30
o 立方体.005
v -10.000000 -1.000000 -12.000000
v -10.000000 15.000000 -12.000000
v 10.000000 -1.000000 -12.000001
v 10.000000 15.000000 -12.000001
v -10.000000 -1.000000 -10.000000
v -10.000000 15.000000 -10.000000
v 10.000000 -1.000000 -10.000001
v 10.000000 15.000000 -10.000001
vn -0.0000 -0.0000 -1.0000
vn 1.0000 -0.0000 -0.0000
vn -0.0000 -0.0000 1.0000
vn -1.0000 -0.0000 -0.0000
vn -0.0000 -1.0000 -0.0000
vn -0.0000 1.0000 -0.0000
vt 0.625000 0.000000
vt 0.375000 0.250000
vt 0.375000 0.000000
vt 0.625000 0.250000
vt 0.375000 0.500000
vt 0.625000 0.500000
vt 0.375000 0.750000
vt 0.625000 0.750000
vt 0.375000 1.000000
vt 0.125000 0.750000
vt 0.125000 0.500000
vt 0.875000 0.500000
vt 0.625000 1.000000
vt 0.875000 0.750000
s 0
usemtl マテリアル
f 42/77/31 43/78/31 41/79/31
f 44/80/32 47/81/32 43/78/32
f 48/82/33 45/83/33 47/81/33
f 46/84/34 41/85/34 45/83/34
f 47/81/35 41/86/35 43/87/35
f 44/88/36 46/84/36 48/82/36
f 42/77/31 44/80/31 43/78/31
f 44/80/32 48/82/32 47/81/32
f 48/82/33 46/84/33 45/83/33
f 46/84/34 42/89/34 41/85/34
f 47/81/35 45/83/35 41/86/35
f 44/88/36 42/90/36 46/84/36
o 立方体.009
v 8.000000 0.000000 19.000000
v 8.000000 0.000000 21.000000
v -8.000000 0.000000 19.000000
v -8.000000 0.000000 21.000000
v 8.000000 2.900000 19.000000
v 8.000000 3.000000 19.100000
v 8.000000 3.000000 20.900000
v 8.000000 2.900000 21.000000
v -8.000000 3.000000 19.100000
v -8.000000 2.900000 19.000000
v -8.000000 2.900000 21.000000
v -8.000000 3.000000 20.900000
vn -0.0000 1.0000 -0.0000
vn -1.0000 -0.0000 -0.0000
vn 1.0000 -0.0000 -0.0000
vn -0.0000 -1.0000 -0.0000
vn -0.0000 -0.0000 1.0000
vn -0.0000 0.7071 0.7071
vn -0.0000 0.7071 -0.7071
vn -0.0000 -0.0000 -1.0000
vt 0.875000 0.512500
vt 0.625000 0.737500
vt 0.625000 0.512500
vt 0.616667 0.750000
vt 0.375000 0.750000
vt 0.616667 0.500000
vt 0.616667 0.250000
vt 0.375000 0.250000
vt 0.616667 0.000000
vt 0.375000 0.500000
vt 0.125000 0.750000
vt 0.125000 0.500000
vt 0.616667 0.250000
vt 0.625000 0.500000
vt 0.625000 0.250000
vt 0.625000 1.000000
vt 0.616667 0.750000
vt 0.625000 0.750000
vt 0.375000 1.000000
vt 0.875000 0.737500
vt 0.375000 0.000000
vt 0.625000 0.012500
vt 0.625000 0.237500
vt 0.616667 0.500000
vt 0.616667 1.000000
s 0
usemtl マテリアル
f 55/91/37 57/92/37 60/93/37
f 58/94/38 51/95/38 59/96/38
f 56/97/39 50/98/39 53/99/39
f 52/100/40 49/101/40 50/102/40
f 56/103/41 52/100/41 50/98/41
f 60/104/42 56/103/42 55/105/42
f 54/106/43 58/107/43 57/108/43
f 58/107/44 49/109/44 51/95/44
f 55/91/37 54/110/37 57/92/37
f 51/95/38 52/100/38 59/96/38
f 59/96/38 60/93/38 57/92/38
f 57/92/38 58/94/38 59/96/38
f 50/98/39 49/111/39 53/99/39
f 53/99/39 54/112/39 55/113/39
f 55/113/39 56/97/39 53/99/39
f 52/100/40 51/95/40 49/101/40
f 56/103/41 59/114/41 52/100/41
f 60/104/42 59/114/42 56/103/42
f 54/106/43 53/115/43 58/107/43
f 58/107/44 53/115/44 49/109/44
o 立方体.006
v 2.000000 -0.100000 43.000000
v 2.000000 2.000000 43.000000
v 2.000000 -0.100000 47.000000
v 2.000000 2.000000 47.000000
v -2.000000 -0.100000 43.000000
v -2.000000 2.000000 43.000000
v -2.000000 -0.100000 47.000000
v -2.000000 2.000000 47.000000
vn 1.0000 -0.0000 -0.0000
vn -0.0000 -0.0000 1.0000
vn -1.0000 -0.0000 -0.0000
vn -0.0000 -0.0000 -1.0000
vn -0.0000 -1.0000 -0.0000
vn -0.0000 1.0000 -0.0000
vt 0.375000 0.000000
vt 0.625000 0.000000
vt 0.625000 0.250000
vt 0.375000 0.250000
vt 0.625000 0.500000
vt 0.375000 0.500000
vt 0.625000 0.750000
vt 0.375000 0.750000
vt 0.625000 1.000000
vt 0.375000 1.000000
vt 0.125000 0.500000
vt 0.125000 0.750000
vt 0.875000 0.500000
vt 0.875000 0.750000
s 0
usemtl マテリアル
f 61/116/45 62/117/45 64/118/45 63/119/45
f 63/119/46 64/118/46 68/120/46 67/121/46
f 67/121/47 68/120/47 66/122/47 65/123/47
f 65/123/48 66/122/48 62/124/48 61/125/48
f 63/126/49 67/121/49 65/123/49 61/127/49
f 68/120/50 64/128/50 62/129/50 66/122/50
o 立方体.011
v -2.000000 -0.100000 51.000000
v -2.000000 4.000000 51.000000
v -2.000000 -0.100000 55.000000
v -2.000000 4.000000 55.000000
v -6.000000 -0.100000 51.000000
v -6.000000 4.000000 51.000000
v -6.000000 -0.100000 55.000000
v -6.000000 4.000000 55.000000
vn 1.0000 -0.0000 -0.0000
vn -0.0000 -0.0000 1.0000
vn -1.0000 -0.0000 -0.0000
vn -0.0000 -0.0000 -1.0000
vn -0.0000 -1.0000 -0.0000
vn -0.0000 1.0000 -0.0000
vt 0.375000 0.000000
vt 0.625000 0.000000
vt 0.625000 0.250000
vt 0.375000 0.250000
vt 0.625000 0.500000
vt 0.375000 0.500000
vt 0.625000 0.750000
vt 0.375000 0.750000
vt 0.625000 1.000000
vt 0.375000 1.000000
vt 0.125000 0.500000
vt 0.125000 0.750000
vt 0.875000 0.500000
vt 0.875000 0.750000
s 0
usemtl マテリアル
f 69/130/51 70/131/51 72/132/51 71/133/51
f 71/133/52 72/132/52 76/134/52 75/135/52
f 75/135/53 76/134/53 74/136/53 73/137/53
f 73/137/54 74/136/54 70/138/54 69/139/54
f 71/140/55 75/135/55 73/137/55 69/141/55
f 76/134/56 72/142/56 70/143/56 74/136/56
o 立方体.014
v 6.000000 -0.100000 51.000000
v 6.000000 4.000000 51.000000
v 6.000000 -0.100000 55.000000
v 6.000000 4.000000 55.000000
v 2.000000 -0.100000 51.000000
v 2.000000 4.000000 51.000000
v 2.000000 -0.100000 55.000000
v 2.000000 4.000000 55.000000
vn 1.0000 -0.0000 -0.0000
vn -0.0000 -0.0000 1.0000
vn -1.0000 -0.0000 -0.0000
vn -0.0000 -0.0000 -1.0000
vn -0.0000 -1.0000 -0.0000
vn -0.0000 1.0000 -0.0000
vt 0.375000 0.000000
vt 0.625000 0.000000
vt 0.625000 0.250000
vt 0.375000 0.250000
vt 0.625000 0.500000
vt 0.375000 0.500000
vt 0.625000 0.750000
vt 0.375000 0.750000
vt 0.625000 1.000000
vt 0.375000 1.000000
vt 0.125000 0.500000
vt 0.125000 0.750000
vt 0.875000 0.500000
vt 0.875000 0.750000
s 0
usemtl マテリアル
f 77/144/57 78/145/57 80/146/57 79/147/57
f 79/147/58 80/146/58 84/148/58 83/149/58
f 83/149/59 84/148/59 82/150/59 81/151/59
f 81/151/60 82/150/60 78/152/60 77/153/60
f 79/154/61 83/149/61 81/151/61 77/155/61
f 84/148/62 80/156/62 78/157/62 82/150/62
o 立方体.015
v 2.000000 -0.100000 59.000000
v 2.000000 6.000000 59.000000
v 2.000000 -0.100000 63.000000
v 2.000000 6.000000 63.000000
v -2.000000 -0.100000 59.000000
v -2.000000 6.000000 59.000000
v -2.000000 -0.100000 63.000000
v -2.000000 6.000000 63.000000
vn 1.0000 -0.0000 -0.0000
vn -0.0000 -0.0000 1.0000
vn -1.0000 -0.0000 -0.0000
vn -0.0000 -0.0000 -1.0000
vn -0.0000 -1.0000 -0.0000
vn -0.0000 1.0000 -0.0000
vt 0.375000 0.000000
vt 0.625000 0.000000
vt 0.625000 0.250000
vt 0.375000 0.250000
vt 0.625000 0.500000
vt 0.375000 0.500000
vt 0.625000 0.750000
vt 0.375000 0.750000
vt 0.625000 1.000000
vt 0.375000 1.000000
vt 0.125000 0.500000
vt 0.125000 0.750000
vt 0.875000 0.500000
vt 0.875000 0.750000
s 0
usemtl マテリアル
f 85/158/63 86/159/63 88/160/63 87/161/63
f 87/161/64 88/160/64 92/162/64 91/163/64
f 91/163/65 92/162/65 90/164/65 89/165/65
f 89/165/66 90/164/66 86/166/66 85/167/66
f 87/168/67 91/163/67 89/165/67 85/169/67
f 92/162/68 88/170/68 86/171/68 90/164/68
o 立方体.016
v 8.000000 0.000000 67.999992
v 8.000000 6.000000 67.999992
v 8.000000 0.000000 69.999992
v 8.000000 6.000000 69.999992
v -8.000000 0.000000 67.999992
v -8.000000 6.000000 67.999992
v -8.000000 0.000000 69.999992
v -8.000000 6.000000 69.999992
vn 1.0000 -0.0000 -0.0000
vn -0.0000 -0.0000 1.0000
vn -1.0000 -0.0000 -0.0000
vn -0.0000 -0.0000 -1.0000
vn -0.0000 -1.0000 -0.0000
vn -0.0000 1.0000 -0.0000
vt 0.625000 0.000000
vt 0.375000 0.250000
vt 0.375000 0.000000
vt 0.625000 0.250000
vt 0.375000 0.500000
vt 0.625000 0.500000
vt 0.375000 0.750000
vt 0.625000 0.750000
vt 0.375000 1.000000
vt 0.125000 0.750000
vt 0.125000 0.500000
vt 0.875000 0.500000
vt 0.625000 1.000000
vt 0.875000 0.750000
s 0
usemtl マテリアル
f 94/172/69 95/173/69 93/174/69
f 96/175/70 99/176/70 95/173/70
f 100/177/71 97/178/71 99/176/71
f 98/179/72 93/180/72 97/178/72
f 99/176/73 93/181/73 95/182/73
f 96/183/74 98/179/74 100/177/74
f 94/172/69 96/175/69 95/173/69
f 96/175/70 100/177/70 99/176/70
f 100/177/71 98/179/71 97/178/71
f 98/179/72 94/184/72 93/180/72
f 99/176/73 97/178/73 93/181/73
f 96/183/74 94/185/74 98/179/74
o 立方体.017
v -10.000000 -1.000000 79.999992
v -10.000000 15.000000 79.999992
v 10.000000 -1.000000 79.999992
v 10.000000 15.000000 79.999992
v -10.000000 -1.000000 81.999992
v -10.000000 15.000000 81.999992
v 10.000000 -1.000000 81.999992
v 10.000000 15.000000 81.999992
vn -0.0000 -0.0000 -1.0000
vn 1.0000 -0.0000 -0.0000
vn -0.0000 -0.0000 1.0000
vn -1.0000 -0.0000 -0.0000
vn -0.0000 -1.0000 -0.0000
vn -0.0000 1.0000 -0.0000
vt 0.625000 0.000000
vt 0.375000 0.250000
vt 0.375000 0.000000
vt 0.625000 0.250000
vt 0.375000 0.500000
vt 0.625000 0.500000
vt 0.375000 0.750000
vt 0.625000 0.750000
vt 0.375000 1.000000
vt 0.125000 0.750000
vt 0.125000 0.500000
vt 0.875000 0.500000
vt 0.625000 1.000000
vt 0.875000 0.750000
s 0
usemtl マテリアル
f 102/186/75 103/187/75 101/188/75
f 104/189/76 107/190/76 103/187/76
f 108/191/77 105/192/77 107/190/77
f 106/193/78 101/194/78 105/192/78
f 107/190/79 101/195/79 103/196/79
f 104/197/80 106/193/80 108/191/80
f 102/186/75 104/189/75 103/187/75
f 104/189/76 108/191/76 107/190/76
f 108/191/77 106/193/77 105/192/77
f 106/193/78 102/198/78 101/194/78
f 107/190/79 105/192/79 101/195/79
f 104/197/80 102/199/80 106/193/80
o 立方体.018
v 8.000000 0.000000 34.000000
v 8.000000 15.000000 34.000000
v 8.000000 0.000000 36.000000
v 8.000000 15.000000 36.000000
v 1.000000 0.000000 34.000000
v 1.000000 15.000000 34.000000
v 1.000000 0.000000 36.000000
v 1.000000 15.000000 36.000000
vn 1.0000 -0.0000 -0.0000
vn -0.0000 -0.0000 1.0000
vn -1.0000 -0.0000 -0.0000
vn -0.0000 -0.0000 -1.0000
vn -0.0000 -1.0000 -0.0000
vn -0.0000 1.0000 -0.0000
vt 0.375000 0.000000
vt 0.625000 0.000000
vt 0.625000 0.250000
vt 0.375000 0.250000
vt 0.625000 0.500000
vt 0.375000 0.500000
vt 0.625000 0.750000
vt 0.375000 0.750000
vt 0.625000 1.000000
vt 0.375000 1.000000
vt 0.125000 0.500000
vt 0.125000 0.750000
vt 0.875000 0.500000
vt 0.875000 0.750000
s 0
usemtl マテリアル
f 109/200/81 110/201/81 112/202/81 111/203/81
f 111/203/82 112/202/82 116/204/82 115/205/82
f 115/205/83 116/204/83 114/206/83 113/207/83
f 113/207/84 114/206/84 110/208/84 109/209/84
f 111/210/85 115/205/85 113/207/85 109/211/85
f 116/204/86 112/212/86 110/213/86 114/206/86
o 立方体.019
v -1.000000 0.000000 34.000000
v -1.000000 15.000000 34.000000
v -1.000000 0.000000 36.000000
v -1.000000 15.000000 36.000000
v -8.000000 0.000000 34.000000
v -8.000000 15.000000 34.000000
v -8.000000 0.000000 36.000000
v -8.000000 15.000000 36.000000
vn 1.0000 -0.0000 -0.0000
vn -0.0000 -0.0000 1.0000
vn -1.0000 -0.0000 -0.0000
vn -0.0000 -0.0000 -1.0000
vn -0.0000 -1.0000 -0.0000
vn -0.0000 1.0000 -0.0000
vt 0.375000 0.000000
vt 0.625000 0.000000
vt 0.625000 0.250000
vt 0.375000 0.250000
vt 0.625000 0.500000
vt 0.375000 0.500000
vt 0.625000 0.750000
vt 0.375000 0.750000
vt 0.625000 1.000000
vt 0.375000 1.000000
vt 0.125000 0.500000
vt 0.125000 0.750000
vt 0.875000 0.500000
vt 0.875000 0.750000
s 0
usemtl マテリアル
f 117/214/87 118/215/87 120/216/87 119/217/87
f 119/217/88 120/216/88 124/218/88 123/219/88
f 123/219/89 124/218/89 122/220/89 121/221/89
f 121/221/90 122/220/90 118/222/90 117/223/90
f 119/224/91 123/219/91 121/221/91 117/225/91
f 124/218/92 120/226/92 118/227/92 122/220/92
o 立方体.020
v 1.000000 1.600000 34.000000
v 1.000000 15.000000 34.000000
v 1.000000 1.600000 36.000000
v 1.000000 15.000000 36.000000
v -1.000000 1.600000 34.000000
v -1.000000 15.000000 34.000000
v -1.000000 1.600000 36.000000
v -1.000000 15.000000 36.000000
vn 1.0000 -0.0000 -0.0000
vn -0.0000 -0.0000 1.0000
vn -1.0000 -0.0000 -0.0000
vn -0.0000 -0.0000 -1.0000
vn -0.0000 -1.0000 -0.0000
vn -0.0000 1.0000 -0.0000
vt 0.375000 0.000000
vt 0.625000 0.000000
vt 0.625000 0.250000
vt 0.375000 0.250000
vt 0.625000 0.500000
vt 0.375000 0.500000
vt 0.625000 0.750000
vt 0.375000 0.750000
vt 0.625000 1.000000
vt 0.375000 1.000000
vt 0.125000 0.500000
vt 0.125000 0.750000
vt 0.875000 0.500000
vt 0.875000 0.750000
s 0
usemtl マテリアル
f 125/228/93 126/229/93 128/230/93 127/231/93
f 127/231/94 128/230/94 132/232/94 131/233/94
f 131/233/95 132/232/95 130/234/95 129/235/95
f 129/235/96 130/234/96 126/236/96 125/237/96
f 127/238/97 131/233/97 129/235/97 125/239/97
f 132/232/98 128/240/98 126/241/98 130/234/98
