# Blender 4.2.2 LTS
# www.blender.org
mtllib Model.mtl
o 立方体
v 10.000000 -1.000000 -10.000000
v 10.000000 0.000000 -10.000000
v 10.000000 -1.000000 79.999992
v 10.000000 0.000000 79.999992
v -10.000000 -1.000000 -10.000000
v -10.000000 0.000000 -10.000000
v -10.000000 -1.000000 79.999992
v -10.000000 0.000000 79.999992
vn 1.0000 -0.0000 -0.0000
vn -0.0000 -0.0000 1.0000
vn -1.0000 -0.0000 -0.0000
vn -0.0000 -0.0000 -1.0000
vn -0.0000 -1.0000 -0.0000
vn -0.0000 1.0000 -0.0000
vt 0.625000 0.000000
vt 0.375000 0.250000
vt 0.375000 0.000000
vt 1.182342 -0.307342
vt -0.182342 1.057342
vt -0.182342 -0.307342
vt 0.625000 0.500000
vt 0.375000 0.750000
vt 0.375000 0.500000
vt 0.625000 0.750000
vt 0.375000 1.000000
vt 0.125000 0.750000
vt 0.125000 0.500000
vt 1.000000 -5.000000
vt 0.000000 1.000000
vt 0.000000 -5.000000
vt 0.625000 0.250000
vt 1.182342 1.057342
vt 0.625000 1.000000
vt 1.000000 1.000000
s 0
usemtl Material
f 2/1/1 3/2/1 1/3/1
f 4/4/2 7/5/2 3/6/2
f 8/7/3 5/8/3 7/9/3
f 6/10/4 1/11/4 5/8/4
f 7/9/5 1/12/5 3/13/5
f 4/14/6 6/15/6 8/16/6
f 2/1/1 4/17/1 3/2/1
f 4/4/2 8/18/2 7/5/2
f 8/7/3 6/10/3 5/8/3
f 6/10/4 2/19/4 1/11/4
f 7/9/5 5/8/5 1/12/5
f 4/14/6 2/20/6 6/15/6
o 立方体.001
v 10.000000 0.000000 10.000000
v 10.000000 15.000000 10.000000
v 10.000000 0.000000 79.999992
v 10.000000 15.000000 79.999992
v 8.000000 0.000000 10.000000
v 8.000000 15.000000 10.000000
v 8.000000 0.000000 79.999992
v 8.000000 15.000000 79.999992
vn 1.0000 -0.0000 -0.0000
vn -0.0000 -0.0000 1.0000
vn -1.0000 -0.0000 -0.0000
vn -0.0000 -0.0000 -1.0000
vn -0.0000 -1.0000 -0.0000
vn -0.0000 1.0000 -0.0000
vt 0.625000 0.000000
vt 0.375000 0.250000
vt 0.375000 0.000000
vt 0.625000 0.250000
vt 0.375000 0.500000
vt 0.625000 0.500000
vt 0.375000 0.750000
vt 0.625000 0.750000
vt 0.375000 1.000000
vt 0.125000 0.750000
vt 0.125000 0.500000
vt 0.875000 0.500000
vt 0.625000 1.000000
vt 0.875000 0.750000
s 0
usemtl マテリアル
f 10/21/7 11/22/7 9/23/7
f 12/24/8 15/25/8 11/22/8
f 16/26/9 13/27/9 15/25/9
f 14/28/10 9/29/10 13/27/10
f 15/25/11 9/30/11 11/31/11
f 12/32/12 14/28/12 16/26/12
f 10/21/7 12/24/7 11/22/7
f 12/24/8 16/26/8 15/25/8
f 16/26/9 14/28/9 13/27/9
f 14/28/10 10/33/10 9/29/10
f 15/25/11 13/27/11 9/30/11
f 12/32/12 10/34/12 14/28/12
o 立方体.002
v -8.000000 0.000000 10.000000
v -8.000000 15.000000 10.000000
v -8.000000 0.000000 79.999992
v -8.000000 15.000000 79.999992
v -10.000000 0.000000 10.000000
v -10.000000 15.000000 10.000000
v -10.000000 0.000000 79.999992
v -10.000000 15.000000 79.999992
vn 1.0000 -0.0000 -0.0000
vn -0.0000 -0.0000 1.0000
vn -1.0000 -0.0000 -0.0000
vn -0.0000 -0.0000 -1.0000
vn -0.0000 -1.0000 -0.0000
vn -0.0000 1.0000 -0.0000
vt 0.625000 0.000000
vt 0.375000 0.250000
vt 0.375000 0.000000
vt 0.625000 0.250000
vt 0.375000 0.500000
vt 0.625000 0.500000
vt 0.375000 0.750000
vt 0.625000 0.750000
vt 0.375000 1.000000
vt 0.125000 0.750000
vt 0.125000 0.500000
vt 0.875000 0.500000
vt 0.625000 1.000000
vt 0.875000 0.750000
s 0
usemtl マテリアル
f 18/35/13 19/36/13 17/37/13
f 20/38/14 23/39/14 19/36/14
f 24/40/15 21/41/15 23/39/15
f 22/42/16 17/43/16 21/41/16
f 23/39/17 17/44/17 19/45/17
f 20/46/18 22/42/18 24/40/18
f 18/35/13 20/38/13 19/36/13
f 20/38/14 24/40/14 23/39/14
f 24/40/15 22/42/15 21/41/15
f 22/42/16 18/47/16 17/43/16
f 23/39/17 21/41/17 17/44/17
f 20/46/18 18/48/18 22/42/18
o 立方体.003
v 12.000000 -1.000000 -10.000000
v 12.000000 15.000000 -10.000000
v 12.000000 -1.000000 10.000000
v 12.000000 15.000000 10.000000
v 10.000000 -1.000000 -10.000000
v 10.000000 15.000000 -10.000000
v 10.000000 -1.000000 10.000000
v 10.000000 15.000000 10.000000
vn 1.0000 -0.0000 -0.0000
vn -0.0000 -0.0000 1.0000
vn -1.0000 -0.0000 -0.0000
vn -0.0000 -0.0000 -1.0000
vn -0.0000 -1.0000 -0.0000
vn -0.0000 1.0000 -0.0000
vt 0.625000 0.000000
vt 0.375000 0.250000
vt 0.375000 0.000000
vt 0.625000 0.250000
vt 0.375000 0.500000
vt 0.625000 0.500000
vt 0.375000 0.750000
vt 0.625000 0.750000
vt 0.375000 1.000000
vt 0.125000 0.750000
vt 0.125000 0.500000
vt 0.875000 0.500000
vt 0.625000 1.000000
vt 0.875000 0.750000
s 0
usemtl マテリアル
f 26/49/19 27/50/19 25/51/19
f 28/52/20 31/53/20 27/50/20
f 32/54/21 29/55/21 31/53/21
f 30/56/22 25/57/22 29/55/22
f 31/53/23 25/58/23 27/59/23
f 28/60/24 30/56/24 32/54/24
f 26/49/19 28/52/19 27/50/19
f 28/52/20 32/54/20 31/53/20
f 32/54/21 30/56/21 29/55/21
f 30/56/22 26/61/22 25/57/22
f 31/53/23 29/55/23 25/58/23
f 28/60/24 26/62/24 30/56/24
o 立方体.004
v -10.000000 -1.000000 -10.000000
v -10.000000 15.000000 -10.000000
v -10.000000 -1.000000 10.000000
v -10.000000 15.000000 10.000000
v -12.000000 -1.000000 -10.000000
v -12.000000 15.000000 -10.000000
v -12.000000 -1.000000 10.000000
v -12.000000 15.000000 10.000000
vn 1.0000 -0.0000 -0.0000
vn -0.0000 -0.0000 1.0000
vn -1.0000 -0.0000 -0.0000
vn -0.0000 -0.0000 -1.0000
vn -0.0000 -1.0000 -0.0000
vn -0.0000 1.0000 -0.0000
vt 0.625000 0.000000
vt 0.375000 0.250000
vt 0.375000 0.000000
vt 0.625000 0.250000
vt 0.375000 0.500000
vt 0.625000 0.500000
vt 0.375000 0.750000
vt 0.625000 0.750000
vt 0.375000 1.000000
vt 0.125000 0.750000
vt 0.125000 0.500000
vt 0.875000 0.500000
vt 0.625000 1.000000
vt 0.875000 0.750000
s 0
usemtl マテリアル
f 34/63/25 35/64/25 33/65/25
f 36/66/26 39/67/26 35/64/26
f 40/68/27 37/69/27 39/67/27
f 38/70/28 33/71/28 37/69/28
f 39/67/29 33/72/29 35/73/29
f 36/74/30 38/70/30 40/68/30
f 34/63/25 36/66/25 35/64/25
f 36/66/26 40/68/26 39/67/26
f 40/68/27 38/70/27 37/69/27
f 38/70/28 34/75/28 33/71/28
f 39/67/29 37/69/29 33/72/29
f 36/74/30 34/76/30 38/70/30
o 立方体.005
v -10.000000 -1.000000 -12.000000
v -10.000000 15.000000 -12.000000
v 10.000000 -1.000000 -12.000001
v 10.000000 15.000000 -12.000001
v -10.000000 -1.000000 -10.000000
v -10.000000 15.000000 -10.000000
v 10.000000 -1.000000 -10.000001
v 10.000000 15.000000 -10.000001
vn -0.0000 -0.0000 -1.0000
vn 1.0000 -0.0000 -0.0000
vn -0.0000 -0.0000 1.0000
vn -1.0000 -0.0000 -0.0000
vn -0.0000 -1.0000 -0.0000
vn -0.0000 1.0000 -0.0000
vt 0.625000 0.000000
vt 0.375000 0.250000
vt 0.375000 0.000000
vt 0.625000 0.250000
vt 0.375000 0.500000
vt 0.625000 0.500000
vt 0.375000 0.750000
vt 0.625000 0.750000
vt 0.375000 1.000000
vt 0.125000 0.750000
vt 0.125000 0.500000
vt 0.875000 0.500000
vt 0.625000 1.000000
vt 0.875000 0.750000
s 0
usemtl マテリアル
f 42/77/31 43/78/31 41/79/31
f 44/80/32 47/81/32 43/78/32
f 48/82/33 45/83/33 47/81/33
f 46/84/34 41/85/34 45/83/34
f 47/81/35 41/86/35 43/87/35
f 44/88/36 46/84/36 48/82/36
f 42/77/31 44/80/31 43/78/31
f 44/80/32 48/82/32 47/81/32
f 48/82/33 46/84/33 45/83/33
f 46/84/34 42/89/34 41/85/34
f 47/81/35 45/83/35 41/86/35
f 44/88/36 42/90/36 46/84/36
o 立方体.007
v 8.000000 0.000000 34.000000
v 8.000000 15.000000 34.000000
v 8.000000 0.000000 36.000000
v 8.000000 15.000000 36.000000
v -8.000000 0.000000 34.000000
v -8.000000 15.000000 34.000000
v -8.000000 0.000000 36.000000
v -8.000000 15.000000 36.000000
v 1.000000 0.000000 36.000000
v 1.000000 15.000000 36.000000
v 1.000000 0.000000 34.000000
v 1.000000 15.000000 34.000000
v -1.000000 15.000000 36.000000
v -1.000000 0.000000 34.000000
v -1.000000 0.000000 36.000000
v -1.000000 15.000000 34.000000
v 8.000000 1.600000 34.000000
v 8.000000 1.600000 36.000000
v -8.000000 1.600000 36.000000
v -8.000000 1.600000 34.000000
v 1.000000 1.600000 34.000000
v 1.000000 1.600000 36.000000
v -1.000000 1.600000 34.000000
v -1.000000 1.600000 36.000000
vn 1.0000 -0.0000 -0.0000
vn -0.0000 -0.0000 1.0000
vn -1.0000 -0.0000 -0.0000
vn -0.0000 -0.0000 -1.0000
vn -0.0000 -1.0000 -0.0000
vn -0.0000 1.0000 -0.0000
vt 0.625000 0.000000
vt 0.411364 0.250000
vt 0.411364 0.000000
vt 0.625000 0.390625
vt 0.411364 0.500000
vt 0.411364 0.390625
vt 0.625000 0.500000
vt 0.411364 0.750000
vt 0.625000 0.890625
vt 0.411364 1.000000
vt 0.411364 0.890625
vt 0.375000 0.500000
vt 0.265625 0.750000
vt 0.265625 0.500000
vt 0.875000 0.500000
vt 0.765625 0.750000
vt 0.765625 0.500000
vt 0.734375 0.750000
vt 0.734375 0.500000
vt 0.234375 0.500000
vt 0.125000 0.750000
vt 0.125000 0.500000
vt 0.625000 0.859375
vt 0.411364 0.859375
vt 0.625000 0.250000
vt 0.411364 0.359375
vt 0.625000 0.750000
vt 0.625000 0.359375
vt 0.375000 0.859375
vt 0.375000 0.750000
vt 0.375000 0.359375
vt 0.375000 0.250000
vt 0.375000 1.000000
vt 0.375000 0.890625
vt 0.375000 0.390625
vt 0.375000 0.000000
vt 0.234375 0.750000
vt 0.625000 1.000000
vt 0.875000 0.750000
s 0
usemtl マテリアル
f 50/91/37 66/92/37 65/93/37
f 61/94/38 67/95/38 72/96/38
f 56/97/39 68/98/39 67/95/39
f 60/99/40 65/100/40 69/101/40
f 55/102/41 62/103/41 63/104/41
f 52/105/42 60/106/42 58/107/42
f 58/107/42 64/108/42 61/109/42
f 57/110/41 49/111/41 51/112/41
f 64/113/40 69/101/40 71/114/40
f 52/115/38 70/116/38 66/92/38
f 54/117/40 71/114/40 68/98/40
f 61/109/42 54/117/42 56/97/42
f 58/118/38 72/96/38 70/116/38
f 62/103/37 72/96/37 63/104/37
f 68/98/40 62/119/40 53/120/40
f 66/92/38 57/121/38 51/122/38
f 69/101/40 49/123/40 59/124/40
f 67/95/39 53/120/39 55/102/39
f 72/96/38 55/102/38 63/125/38
f 65/93/37 51/122/37 49/126/37
f 72/96/41 69/101/41 70/116/41
f 57/110/39 69/101/39 59/127/39
f 50/91/37 52/115/37 66/92/37
f 61/94/38 56/97/38 67/95/38
f 56/97/39 54/117/39 68/98/39
f 60/99/40 50/128/40 65/100/40
f 55/102/41 53/120/41 62/103/41
f 52/105/42 50/129/42 60/106/42
f 58/107/42 60/106/42 64/108/42
f 57/110/41 59/127/41 49/111/41
f 64/113/40 60/99/40 69/101/40
f 52/115/38 58/118/38 70/116/38
f 54/117/40 64/113/40 71/114/40
f 61/109/42 64/108/42 54/117/42
f 58/118/38 61/94/38 72/96/38
f 62/103/37 71/114/37 72/96/37
f 68/98/40 71/114/40 62/119/40
f 66/92/38 70/116/38 57/121/38
f 69/101/40 65/100/40 49/123/40
f 67/95/39 68/98/39 53/120/39
f 72/96/38 67/95/38 55/102/38
f 65/93/37 66/92/37 51/122/37
f 72/96/41 71/114/41 69/101/41
f 57/110/39 70/116/39 69/101/39
o 立方体.009
v 8.000000 0.000000 19.000000
v 8.000000 0.000000 21.000000
v -8.000000 0.000000 19.000000
v -8.000000 0.000000 21.000000
v 8.000000 2.900000 19.000000
v 8.000000 3.000000 19.100000
v 8.000000 3.000000 20.900000
v 8.000000 2.900000 21.000000
v -8.000000 3.000000 19.100000
v -8.000000 2.900000 19.000000
v -8.000000 2.900000 21.000000
v -8.000000 3.000000 20.900000
vn -0.0000 1.0000 -0.0000
vn -1.0000 -0.0000 -0.0000
vn 1.0000 -0.0000 -0.0000
vn -0.0000 -1.0000 -0.0000
vn -0.0000 -0.0000 1.0000
vn -0.0000 0.7071 0.7071
vn -0.0000 0.7071 -0.7071
vn -0.0000 -0.0000 -1.0000
vt 0.875000 0.512500
vt 0.625000 0.737500
vt 0.625000 0.512500
vt 0.616667 0.750000
vt 0.375000 0.750000
vt 0.616667 0.500000
vt 0.616667 0.250000
vt 0.375000 0.250000
vt 0.616667 0.000000
vt 0.375000 0.500000
vt 0.125000 0.750000
vt 0.125000 0.500000
vt 0.616667 0.250000
vt 0.625000 0.500000
vt 0.625000 0.250000
vt 0.625000 1.000000
vt 0.616667 0.750000
vt 0.625000 0.750000
vt 0.375000 1.000000
vt 0.875000 0.737500
vt 0.375000 0.000000
vt 0.625000 0.012500
vt 0.625000 0.237500
vt 0.616667 0.500000
vt 0.616667 1.000000
s 0
usemtl マテリアル
f 79/130/43 81/131/43 84/132/43
f 82/133/44 75/134/44 83/135/44
f 80/136/45 74/137/45 77/138/45
f 76/139/46 73/140/46 74/141/46
f 80/142/47 76/139/47 74/137/47
f 84/143/48 80/142/48 79/144/48
f 78/145/49 82/146/49 81/147/49
f 82/146/50 73/148/50 75/134/50
f 79/130/43 78/149/43 81/131/43
f 75/134/44 76/139/44 83/135/44
f 83/135/44 84/132/44 81/131/44
f 81/131/44 82/133/44 83/135/44
f 74/137/45 73/150/45 77/138/45
f 77/138/45 78/151/45 79/152/45
f 79/152/45 80/136/45 77/138/45
f 76/139/46 75/134/46 73/140/46
f 80/142/47 83/153/47 76/139/47
f 84/143/48 83/153/48 80/142/48
f 78/145/49 77/154/49 82/146/49
f 82/146/50 77/154/50 73/148/50
o 立方体.008
v 1.800000 0.000000 43.000000
v 2.000000 0.000000 43.200001
v 1.800000 1.900000 43.000000
v 1.800000 2.000000 43.200001
v 2.000000 1.900000 43.200001
v 2.000000 0.000000 46.799999
v 1.800000 0.000000 47.000000
v 1.800000 2.000000 46.799999
v 1.800000 1.900000 47.000000
v 2.000000 1.900000 46.799999
v -2.000000 0.000000 43.200001
v -1.800000 0.000000 43.000000
v -1.800000 2.000000 43.200001
v -1.800000 1.900000 43.000000
v -2.000000 1.900000 43.200001
v -1.800000 0.000000 47.000000
v -2.000000 0.000000 46.799999
v -1.800000 2.000000 46.799999
v -2.000000 1.900000 46.799999
v -1.800000 1.900000 47.000000
vn -0.0000 -0.0000 -1.0000
vn -1.0000 -0.0000 -0.0000
vn -0.0000 1.0000 -0.0000
vn 1.0000 -0.0000 -0.0000
vn -0.0000 -0.0000 1.0000
vn 0.4082 0.8165 -0.4082
vn 0.4082 0.8165 0.4082
vn -0.4082 0.8165 -0.4082
vn -0.4082 0.8165 0.4082
vn 0.7071 -0.0000 -0.7071
vn 0.4472 0.8944 -0.0000
vn 0.7071 -0.0000 0.7071
vn -0.0000 0.8944 0.4472
vn -0.7071 -0.0000 0.7071
vn -0.4472 0.8944 -0.0000
vn -0.7071 -0.0000 -0.7071
vn -0.0000 0.8944 -0.4472
vn -0.0000 -1.0000 -0.0000
vt 0.612500 0.762500
vt 0.375000 0.987500
vt 0.375000 0.762500
vt 0.612500 0.512500
vt 0.375000 0.737500
vt 0.375000 0.512500
vt 0.862500 0.512500
vt 0.637500 0.737500
vt 0.637500 0.512500
vt 0.612500 0.012500
vt 0.375000 0.237500
vt 0.375000 0.012500
vt 0.612500 0.262500
vt 0.375000 0.487500
vt 0.375000 0.262500
vt 0.862500 0.750000
vt 0.862500 0.737500
vt 0.875000 0.737500
vt 0.862500 0.500000
vt 0.875000 0.512500
vt 0.637500 0.750000
vt 0.625000 0.737500
vt 0.625000 0.512500
vt 0.637500 0.500000
vt 0.612500 0.000000
vt 0.375000 0.000000
vt 0.612500 0.237500
vt 0.612500 0.487500
vt 0.612500 0.737500
vt 0.137500 0.750000
vt 0.125000 0.737500
vt 0.612500 0.987500
vt 0.125000 0.512500
vt 0.137500 0.500000
vt 0.362500 0.500000
vt 0.362500 0.750000
s 0
usemtl マテリアル
f 98/155/51 85/156/51 96/157/51
f 103/158/52 95/159/52 101/160/52
f 92/161/53 97/162/53 102/163/53
f 89/164/54 90/165/54 86/166/54
f 93/167/55 100/168/55 91/169/55
f 87/170/56 88/171/56 89/172/56
f 92/161/57 93/173/57 94/174/57
f 97/162/58 98/175/58 99/176/58
f 102/163/59 103/177/59 104/178/59
f 87/179/60 86/166/60 85/180/60
f 92/161/61 89/172/61 88/171/61
f 91/169/62 94/181/62 93/167/62
f 102/163/63 93/173/63 92/161/63
f 101/160/64 104/182/64 103/158/64
f 97/162/65 103/158/65 102/163/65
f 96/157/66 99/183/66 98/155/66
f 88/171/67 98/175/67 97/162/67
f 85/184/68 86/185/68 101/160/68
f 98/155/51 87/186/51 85/156/51
f 103/158/52 99/183/52 95/159/52
f 92/161/53 88/171/53 97/162/53
f 89/164/54 94/181/54 90/165/54
f 93/167/55 104/182/55 100/168/55
f 87/179/60 89/164/60 86/166/60
f 92/161/61 94/174/61 89/172/61
f 91/169/62 90/165/62 94/181/62
f 102/163/63 104/178/63 93/173/63
f 101/160/64 100/168/64 104/182/64
f 97/162/65 99/183/65 103/158/65
f 96/157/66 95/159/66 99/183/66
f 88/171/67 87/170/67 98/175/67
f 86/185/68 90/187/68 91/188/68
f 91/188/68 100/189/68 86/185/68
f 100/189/68 101/160/68 86/185/68
f 101/160/68 95/159/68 96/190/68
f 96/190/68 85/184/68 101/160/68
o 立方体.012
v 5.800000 0.000000 51.000000
v 6.000000 0.000000 51.200001
v 5.800000 3.900000 51.000000
v 5.800000 4.000000 51.200001
v 6.000000 3.900000 51.200001
v 6.000000 0.000000 54.799999
v 5.800000 0.000000 55.000000
v 5.800000 4.000000 54.799999
v 5.800000 3.900000 55.000000
v 6.000000 3.900000 54.799999
v 2.000000 0.000000 51.200001
v 2.200000 0.000000 51.000000
v 2.200000 4.000000 51.200001
v 2.200000 3.900000 51.000000
v 2.000000 3.900000 51.200001
v 2.200000 0.000000 55.000000
v 2.000000 0.000000 54.799999
v 2.200000 4.000000 54.799999
v 2.000000 3.900000 54.799999
v 2.200000 3.900000 55.000000
vn -0.0000 -0.0000 -1.0000
vn -1.0000 -0.0000 -0.0000
vn -0.0000 1.0000 -0.0000
vn 1.0000 -0.0000 -0.0000
vn -0.0000 -0.0000 1.0000
vn 0.4082 0.8165 -0.4082
vn 0.4082 0.8165 0.4082
vn -0.4082 0.8165 -0.4082
vn -0.4082 0.8165 0.4082
vn 0.7071 -0.0000 -0.7071
vn 0.4472 0.8944 -0.0000
vn 0.7071 -0.0000 0.7071
vn -0.0000 0.8944 0.4472
vn -0.7071 -0.0000 0.7071
vn -0.4472 0.8944 -0.0000
vn -0.7071 -0.0000 -0.7071
vn -0.0000 0.8944 -0.4472
vn -0.0000 -1.0000 -0.0000
vt 0.612500 0.762500
vt 0.375000 0.987500
vt 0.375000 0.762500
vt 0.612500 0.512500
vt 0.375000 0.737500
vt 0.375000 0.512500
vt 0.862500 0.512500
vt 0.637500 0.737500
vt 0.637500 0.512500
vt 0.612500 0.012500
vt 0.375000 0.237500
vt 0.375000 0.012500
vt 0.612500 0.262500
vt 0.375000 0.487500
vt 0.375000 0.262500
vt 0.862500 0.750000
vt 0.862500 0.737500
vt 0.875000 0.737500
vt 0.862500 0.500000
vt 0.875000 0.512500
vt 0.637500 0.750000
vt 0.625000 0.737500
vt 0.625000 0.512500
vt 0.637500 0.500000
vt 0.612500 0.000000
vt 0.375000 0.000000
vt 0.612500 0.237500
vt 0.612500 0.487500
vt 0.612500 0.737500
vt 0.137500 0.750000
vt 0.125000 0.737500
vt 0.612500 0.987500
vt 0.125000 0.512500
vt 0.137500 0.500000
vt 0.362500 0.500000
vt 0.362500 0.750000
s 0
usemtl マテリアル
f 118/191/69 105/192/69 116/193/69
f 123/194/70 115/195/70 121/196/70
f 112/197/71 117/198/71 122/199/71
f 109/200/72 110/201/72 106/202/72
f 113/203/73 120/204/73 111/205/73
f 107/206/74 108/207/74 109/208/74
f 112/197/75 113/209/75 114/210/75
f 117/198/76 118/211/76 119/212/76
f 122/199/77 123/213/77 124/214/77
f 107/215/78 106/202/78 105/216/78
f 112/197/79 109/208/79 108/207/79
f 111/205/80 114/217/80 113/203/80
f 122/199/81 113/209/81 112/197/81
f 121/196/82 124/218/82 123/194/82
f 117/198/83 123/194/83 122/199/83
f 116/193/84 119/219/84 118/191/84
f 108/207/85 118/211/85 117/198/85
f 105/220/86 106/221/86 121/196/86
f 118/191/69 107/222/69 105/192/69
f 123/194/70 119/219/70 115/195/70
f 112/197/71 108/207/71 117/198/71
f 109/200/72 114/217/72 110/201/72
f 113/203/73 124/218/73 120/204/73
f 107/215/78 109/200/78 106/202/78
f 112/197/79 114/210/79 109/208/79
f 111/205/80 110/201/80 114/217/80
f 122/199/81 124/214/81 113/209/81
f 121/196/82 120/204/82 124/218/82
f 117/198/83 119/219/83 123/194/83
f 116/193/84 115/195/84 119/219/84
f 108/207/85 107/206/85 118/211/85
f 106/221/86 110/223/86 111/224/86
f 111/224/86 120/225/86 106/221/86
f 120/225/86 121/196/86 106/221/86
f 121/196/86 115/195/86 116/226/86
f 116/226/86 105/220/86 121/196/86
o 立方体.013
v -2.200000 0.000000 51.000000
v -2.000000 0.000000 51.200001
v -2.200000 3.900000 51.000000
v -2.200000 4.000000 51.200001
v -2.000000 3.900000 51.200001
v -2.000000 0.000000 54.799999
v -2.200000 0.000000 55.000000
v -2.200000 4.000000 54.799999
v -2.200000 3.900000 55.000000
v -2.000000 3.900000 54.799999
v -6.000000 0.000000 51.200001
v -5.800000 0.000000 51.000000
v -5.800000 4.000000 51.200001
v -5.800000 3.900000 51.000000
v -6.000000 3.900000 51.200001
v -5.800000 0.000000 55.000000
v -6.000000 0.000000 54.799999
v -5.800000 4.000000 54.799999
v -6.000000 3.900000 54.799999
v -5.800000 3.900000 55.000000
vn -0.0000 -0.0000 -1.0000
vn -1.0000 -0.0000 -0.0000
vn -0.0000 1.0000 -0.0000
vn 1.0000 -0.0000 -0.0000
vn -0.0000 -0.0000 1.0000
vn 0.4082 0.8165 -0.4082
vn 0.4082 0.8165 0.4082
vn -0.4082 0.8165 -0.4082
vn -0.4082 0.8165 0.4082
vn 0.7071 -0.0000 -0.7071
vn 0.4472 0.8944 -0.0000
vn 0.7071 -0.0000 0.7071
vn -0.0000 0.8944 0.4472
vn -0.7071 -0.0000 0.7071
vn -0.4472 0.8944 -0.0000
vn -0.7071 -0.0000 -0.7071
vn -0.0000 0.8944 -0.4472
vn -0.0000 -1.0000 -0.0000
vt 0.612500 0.762500
vt 0.375000 0.987500
vt 0.375000 0.762500
vt 0.612500 0.512500
vt 0.375000 0.737500
vt 0.375000 0.512500
vt 0.862500 0.512500
vt 0.637500 0.737500
vt 0.637500 0.512500
vt 0.612500 0.012500
vt 0.375000 0.237500
vt 0.375000 0.012500
vt 0.612500 0.262500
vt 0.375000 0.487500
vt 0.375000 0.262500
vt 0.862500 0.750000
vt 0.862500 0.737500
vt 0.875000 0.737500
vt 0.862500 0.500000
vt 0.875000 0.512500
vt 0.637500 0.750000
vt 0.625000 0.737500
vt 0.625000 0.512500
vt 0.637500 0.500000
vt 0.612500 0.000000
vt 0.375000 0.000000
vt 0.612500 0.237500
vt 0.612500 0.487500
vt 0.612500 0.737500
vt 0.137500 0.750000
vt 0.125000 0.737500
vt 0.612500 0.987500
vt 0.125000 0.512500
vt 0.137500 0.500000
vt 0.362500 0.500000
vt 0.362500 0.750000
s 0
usemtl マテリアル
f 138/227/87 125/228/87 136/229/87
f 143/230/88 135/231/88 141/232/88
f 132/233/89 137/234/89 142/235/89
f 129/236/90 130/237/90 126/238/90
f 133/239/91 140/240/91 131/241/91
f 127/242/92 128/243/92 129/244/92
f 132/233/93 133/245/93 134/246/93
f 137/234/94 138/247/94 139/248/94
f 142/235/95 143/249/95 144/250/95
f 127/251/96 126/238/96 125/252/96
f 132/233/97 129/244/97 128/243/97
f 131/241/98 134/253/98 133/239/98
f 142/235/99 133/245/99 132/233/99
f 141/232/100 144/254/100 143/230/100
f 137/234/101 143/230/101 142/235/101
f 136/229/102 139/255/102 138/227/102
f 128/243/103 138/247/103 137/234/103
f 125/256/104 126/257/104 141/232/104
f 138/227/87 127/258/87 125/228/87
f 143/230/88 139/255/88 135/231/88
f 132/233/89 128/243/89 137/234/89
f 129/236/90 134/253/90 130/237/90
f 133/239/91 144/254/91 140/240/91
f 127/251/96 129/236/96 126/238/96
f 132/233/97 134/246/97 129/244/97
f 131/241/98 130/237/98 134/253/98
f 142/235/99 144/250/99 133/245/99
f 141/232/100 140/240/100 144/254/100
f 137/234/101 139/255/101 143/230/101
f 136/229/102 135/231/102 139/255/102
f 128/243/103 127/242/103 138/247/103
f 126/257/104 130/259/104 131/260/104
f 131/260/104 140/261/104 126/257/104
f 140/261/104 141/232/104 126/257/104
f 141/232/104 135/231/104 136/262/104
f 136/262/104 125/256/104 141/232/104
o 立方体.010
v 1.800000 0.000000 59.000000
v 2.000000 0.000000 59.200001
v 1.800000 5.900000 59.000000
v 1.800000 6.000000 59.200001
v 2.000000 5.900000 59.200001
v 2.000000 0.000000 62.799999
v 1.800000 0.000000 63.000000
v 1.800000 6.000000 62.799999
v 1.800000 5.900000 63.000000
v 2.000000 5.900000 62.799999
v -2.000000 0.000000 59.200001
v -1.800000 0.000000 59.000000
v -1.800000 6.000000 59.200001
v -1.800000 5.900000 59.000000
v -2.000000 5.900000 59.200001
v -1.800000 0.000000 63.000000
v -2.000000 0.000000 62.799999
v -1.800000 6.000000 62.799999
v -2.000000 5.900000 62.799999
v -1.800000 5.900000 63.000000
vn -0.0000 -0.0000 -1.0000
vn -1.0000 -0.0000 -0.0000
vn -0.0000 1.0000 -0.0000
vn 1.0000 -0.0000 -0.0000
vn -0.0000 -0.0000 1.0000
vn 0.4082 0.8165 -0.4082
vn 0.4082 0.8165 0.4082
vn -0.4082 0.8165 -0.4082
vn -0.4082 0.8165 0.4082
vn 0.7071 -0.0000 -0.7071
vn 0.4472 0.8944 -0.0000
vn 0.7071 -0.0000 0.7071
vn -0.0000 0.8944 0.4472
vn -0.7071 -0.0000 0.7071
vn -0.4472 0.8944 -0.0000
vn -0.7071 -0.0000 -0.7071
vn -0.0000 0.8944 -0.4472
vn -0.0000 -1.0000 -0.0000
vt 0.612500 0.762500
vt 0.375000 0.987500
vt 0.375000 0.762500
vt 0.612500 0.512500
vt 0.375000 0.737500
vt 0.375000 0.512500
vt 0.862500 0.512500
vt 0.637500 0.737500
vt 0.637500 0.512500
vt 0.612500 0.012500
vt 0.375000 0.237500
vt 0.375000 0.012500
vt 0.612500 0.262500
vt 0.375000 0.487500
vt 0.375000 0.262500
vt 0.862500 0.750000
vt 0.862500 0.737500
vt 0.875000 0.737500
vt 0.862500 0.500000
vt 0.875000 0.512500
vt 0.637500 0.750000
vt 0.625000 0.737500
vt 0.625000 0.512500
vt 0.637500 0.500000
vt 0.612500 0.000000
vt 0.375000 0.000000
vt 0.612500 0.237500
vt 0.612500 0.487500
vt 0.612500 0.737500
vt 0.137500 0.750000
vt 0.125000 0.737500
vt 0.612500 0.987500
vt 0.125000 0.512500
vt 0.137500 0.500000
vt 0.362500 0.500000
vt 0.362500 0.750000
s 0
usemtl マテリアル
f 158/263/105 145/264/105 156/265/105
f 163/266/106 155/267/106 161/268/106
f 152/269/107 157/270/107 162/271/107
f 149/272/108 150/273/108 146/274/108
f 153/275/109 160/276/109 151/277/109
f 147/278/110 148/279/110 149/280/110
f 152/269/111 153/281/111 154/282/111
f 157/270/112 158/283/112 159/284/112
f 162/271/113 163/285/113 164/286/113
f 147/287/114 146/274/114 145/288/114
f 152/269/115 149/280/115 148/279/115
f 151/277/116 154/289/116 153/275/116
f 162/271/117 153/281/117 152/269/117
f 161/268/118 164/290/118 163/266/118
f 157/270/119 163/266/119 162/271/119
f 156/265/120 159/291/120 158/263/120
f 148/279/121 158/283/121 157/270/121
f 145/292/122 146/293/122 161/268/122
f 158/263/105 147/294/105 145/264/105
f 163/266/106 159/291/106 155/267/106
f 152/269/107 148/279/107 157/270/107
f 149/272/108 154/289/108 150/273/108
f 153/275/109 164/290/109 160/276/109
f 147/287/114 149/272/114 146/274/114
f 152/269/115 154/282/115 149/280/115
f 151/277/116 150/273/116 154/289/116
f 162/271/117 164/286/117 153/281/117
f 161/268/118 160/276/118 164/290/118
f 157/270/119 159/291/119 163/266/119
f 156/265/120 155/267/120 159/291/120
f 148/279/121 147/278/121 158/283/121
f 146/293/122 150/295/122 151/296/122
f 151/296/122 160/297/122 146/293/122
f 160/297/122 161/268/122 146/293/122
f 161/268/122 155/267/122 156/298/122
f 156/298/122 145/292/122 161/268/122
o 立方体.016
v 8.000000 0.000000 67.999992
v 8.000000 6.000000 67.999992
v 8.000000 0.000000 69.999992
v 8.000000 6.000000 69.999992
v -8.000000 0.000000 67.999992
v -8.000000 6.000000 67.999992
v -8.000000 0.000000 69.999992
v -8.000000 6.000000 69.999992
vn 1.0000 -0.0000 -0.0000
vn -0.0000 -0.0000 1.0000
vn -1.0000 -0.0000 -0.0000
vn -0.0000 -0.0000 -1.0000
vn -0.0000 -1.0000 -0.0000
vn -0.0000 1.0000 -0.0000
vt 0.625000 0.000000
vt 0.375000 0.250000
vt 0.375000 0.000000
vt 0.625000 0.250000
vt 0.375000 0.500000
vt 0.625000 0.500000
vt 0.375000 0.750000
vt 0.625000 0.750000
vt 0.375000 1.000000
vt 0.125000 0.750000
vt 0.125000 0.500000
vt 0.875000 0.500000
vt 0.625000 1.000000
vt 0.875000 0.750000
s 0
usemtl マテリアル
f 166/299/123 167/300/123 165/301/123
f 168/302/124 171/303/124 167/300/124
f 172/304/125 169/305/125 171/303/125
f 170/306/126 165/307/126 169/305/126
f 171/303/127 165/308/127 167/309/127
f 168/310/128 170/306/128 172/304/128
f 166/299/123 168/302/123 167/300/123
f 168/302/124 172/304/124 171/303/124
f 172/304/125 170/306/125 169/305/125
f 170/306/126 166/311/126 165/307/126
f 171/303/127 169/305/127 165/308/127
f 168/310/128 166/312/128 170/306/128
o 立方体.017
v -10.000000 -1.000000 79.999992
v -10.000000 15.000000 79.999992
v 10.000000 -1.000000 79.999992
v 10.000000 15.000000 79.999992
v -10.000000 -1.000000 81.999992
v -10.000000 15.000000 81.999992
v 10.000000 -1.000000 81.999992
v 10.000000 15.000000 81.999992
vn -0.0000 -0.0000 -1.0000
vn 1.0000 -0.0000 -0.0000
vn -0.0000 -0.0000 1.0000
vn -1.0000 -0.0000 -0.0000
vn -0.0000 -1.0000 -0.0000
vn -0.0000 1.0000 -0.0000
vt 0.625000 0.000000
vt 0.375000 0.250000
vt 0.375000 0.000000
vt 0.625000 0.250000
vt 0.375000 0.500000
vt 0.625000 0.500000
vt 0.375000 0.750000
vt 0.625000 0.750000
vt 0.375000 1.000000
vt 0.125000 0.750000
vt 0.125000 0.500000
vt 0.875000 0.500000
vt 0.625000 1.000000
vt 0.875000 0.750000
s 0
usemtl マテリアル
f 174/313/129 175/314/129 173/315/129
f 176/316/130 179/317/130 175/314/130
f 180/318/131 177/319/131 179/317/131
f 178/320/132 173/321/132 177/319/132
f 179/317/133 173/322/133 175/323/133
f 176/324/134 178/320/134 180/318/134
f 174/313/129 176/316/129 175/314/129
f 176/316/130 180/318/130 179/317/130
f 180/318/131 178/320/131 177/319/131
f 178/320/132 174/325/132 173/321/132
f 179/317/133 177/319/133 173/322/133
f 176/324/134 174/326/134 178/320/134
