# Blender 4.2.2 LTS
# www.blender.org
mtllib TutorialStageWallDashObject.mtl
o 立方体.022
v -1.000030 -3.999985 44.999996
v -1.000038 3.000011 44.999996
v 9.999985 -3.999985 45.000008
v 9.999962 3.000023 45.000004
v -1.000031 -3.999985 49.219109
v -1.000038 3.000011 49.219109
v 9.999984 -3.999985 49.219116
v 9.999961 3.000023 49.219112
vn -0.0000 1.0000 -0.0000
vn -0.0000 -0.0000 -1.0000
vn -0.0000 -1.0000 -0.0000
vn -0.0000 -0.0000 1.0000
vn -1.0000 -0.0000 -0.0000
vn 1.0000 -0.0000 -0.0000
vt 0.875000 0.500000
vt 0.625000 0.750000
vt 0.625000 0.500000
vt 0.375000 0.000000
vt 0.625000 0.250000
vt 0.375000 0.250000
vt 0.375000 0.750000
vt 0.125000 0.500000
vt 0.375000 0.500000
vt 0.375000 1.000000
vt 0.625000 1.000000
vt 0.875000 0.750000
vt 0.625000 0.000000
vt 0.125000 0.750000
s 0
usemtl マテリアル.001
f 4/1/1 6/2/1 8/3/1
f 1/4/2 4/5/2 3/6/2
f 5/7/3 3/8/3 7/9/3
f 5/7/4 8/3/4 6/2/4
f 1/10/5 6/2/5 2/11/5
f 4/5/6 7/9/6 3/6/6
f 4/1/1 2/12/1 6/2/1
f 1/4/2 2/13/2 4/5/2
f 5/7/3 1/14/3 3/8/3
f 5/7/4 7/9/4 8/3/4
f 1/10/5 5/7/5 6/2/5
f 4/5/6 8/3/6 7/9/6
o 立方体.041
v -5.780920 -3.999969 67.000008
v -5.780920 3.000023 67.000000
v -5.780929 -3.999969 83.000023
v -5.780929 3.000042 83.000000
v -10.000031 -3.999969 67.000008
v -10.000031 3.000023 67.000000
v -10.000039 -3.999969 83.000023
v -10.000039 3.000042 83.000000
vn -0.0000 1.0000 -0.0000
vn 1.0000 -0.0000 -0.0000
vn -0.0000 -1.0000 -0.0000
vn -1.0000 -0.0000 -0.0000
vn -0.0000 -0.0000 -1.0000
vn -0.0000 -0.0000 1.0000
vt 0.875000 0.500000
vt 0.625000 0.750000
vt 0.625000 0.500000
vt 0.375000 0.000000
vt 0.625000 0.250000
vt 0.375000 0.250000
vt 0.375000 0.750000
vt 0.125000 0.500000
vt 0.375000 0.500000
vt 0.375000 1.000000
vt 0.625000 1.000000
vt 0.875000 0.750000
vt 0.625000 0.000000
vt 0.125000 0.750000
s 0
usemtl マテリアル.001
f 12/15/7 14/16/7 16/17/7
f 9/18/8 12/19/8 11/20/8
f 13/21/9 11/22/9 15/23/9
f 13/21/10 16/17/10 14/16/10
f 9/24/11 14/16/11 10/25/11
f 12/19/12 15/23/12 11/20/12
f 12/15/7 10/26/7 14/16/7
f 9/18/8 10/27/8 12/19/8
f 13/21/9 9/28/9 11/22/9
f 13/21/10 15/23/10 16/17/10
f 9/24/11 13/21/11 14/16/11
f 12/19/12 16/17/12 15/23/12
