# Blender 4.2.2 LTS
# www.blender.org
mtllib TutorialStage.mtl
o 立方体
v 15.000006 -102.000008 -14.999956
v 15.000006 -1.000006 -15.000002
v 14.999994 -102.000008 15.000044
v 14.999994 -1.000002 14.999998
v -14.999994 -102.000008 -14.999971
v -14.999994 -1.000006 -15.000017
v -15.000006 -102.000008 15.000029
v -15.000006 -1.000002 14.999983
vn 1.0000 -0.0000 -0.0000
vn -0.0000 -1.0000 -0.0000
vn -0.0000 -0.0000 -1.0000
vn -1.0000 -0.0000 -0.0000
vn -0.0000 1.0000 -0.0000
vn -0.0000 -0.0000 1.0000
vt 0.998047 0.000000
vt 0.001953 0.998047
vt 0.001953 0.000000
vt 0.375000 0.750000
vt 0.125000 0.500000
vt 0.375000 0.500000
vt 1.001953 0.998047
vt 0.125000 0.750000
s 0
usemtl Concrete.002
f 2/1/1 3/2/1 1/3/1
f 5/4/2 3/5/2 7/6/2
f 2/7/3 5/3/3 6/1/3
f 7/3/4 6/7/4 5/2/4
f 2/7/5 8/3/5 4/1/5
f 8/7/6 3/3/6 4/1/6
f 2/1/1 4/7/1 3/2/1
f 5/4/2 1/8/2 3/5/2
f 2/7/3 1/2/3 5/3/3
f 7/3/4 8/1/4 6/7/4
f 2/7/5 6/2/5 8/3/5
f 8/7/6 7/2/6 3/3/6
o 立方体.001
v 14.999994 -102.000008 15.000044
v 14.999994 -3.999990 15.000000
v 14.999983 -102.000008 31.000042
v 14.999983 -3.999988 30.999996
v -15.000006 -102.000008 15.000029
v -15.000006 -3.999990 14.999983
v -15.000017 -102.000008 31.000027
v -15.000017 -3.999988 30.999981
vn -1.0000 -0.0000 -0.0000
vn -0.0000 1.0000 -0.0000
vn 1.0000 -0.0000 -0.0000
vn -0.0000 -1.0000 -0.0000
vn -0.0000 -0.0000 1.0000
vt 0.998047 0.000000
vt 0.001953 0.998047
vt 0.001953 0.000000
vt 1.001953 0.998047
vt 0.125000 0.500000
vt 0.375000 0.750000
vt 0.125000 0.750000
vt 0.375000 0.500000
s 0
usemtl Concrete.002
f 16/9/7 13/10/7 15/11/7
f 16/11/8 10/12/8 14/10/8
f 12/12/9 9/11/9 10/9/9
f 11/13/10 13/14/10 9/15/10
f 11/11/11 16/12/11 15/10/11
f 16/9/7 14/12/7 13/10/7
f 16/11/8 12/9/8 10/12/8
f 12/12/9 11/10/9 9/11/9
f 11/13/10 15/16/10 13/14/10
f 11/11/11 12/9/11 16/12/11
o 立方体.002
v 15.000006 -1.000006 -15.000002
v 15.000006 -0.400007 -15.000002
v 14.999994 -1.000002 14.999998
v 14.999994 -0.400003 14.999998
v 14.400002 -1.000006 -15.000002
v 14.400002 -0.400007 -15.000002
v 14.399994 -1.000002 14.999998
v 14.399994 -0.400003 14.999998
vn -0.0000 1.0000 -0.0000
vn -0.0000 -0.0000 1.0000
vn -1.0000 -0.0000 -0.0000
vn -0.0000 -0.0000 -1.0000
vn 1.0000 -0.0000 -0.0000
vt 0.875000 0.500000
vt 0.625000 0.750000
vt 0.625000 0.500000
vt 0.625000 0.250000
vt 0.375000 0.500000
vt 0.375000 0.250000
vt 0.375000 0.750000
vt 0.375000 1.000000
vt 0.625000 0.000000
vt 0.375000 0.000000
vt 0.875000 0.750000
vt 0.625000 1.000000
s 0
usemtl マテリアル.004
f 20/17/12 22/18/12 24/19/12
f 20/20/13 23/21/13 19/22/13
f 24/19/14 21/23/14 23/21/14
f 22/18/15 17/24/15 21/23/15
f 18/25/16 19/22/16 17/26/16
f 20/17/12 18/27/12 22/18/12
f 20/20/13 24/19/13 23/21/13
f 24/19/14 22/18/14 21/23/14
f 22/18/15 18/28/15 17/24/15
f 18/25/16 20/20/16 19/22/16
o 立方体.003
v -14.400002 -3.999990 14.999983
v -14.400002 -3.399992 14.999983
v -14.400016 -3.999988 30.999981
v -14.400016 -3.399990 30.999981
v -15.000006 -3.999990 14.999983
v -15.000006 -3.399992 14.999983
v -15.000017 -3.999988 30.999981
v -15.000017 -3.399990 30.999981
vn -0.0000 1.0000 -0.0000
vn -0.0000 -0.0000 1.0000
vn -1.0000 -0.0000 -0.0000
vn -0.0000 -0.0000 -1.0000
vn 1.0000 -0.0000 -0.0000
vt 0.875000 0.500000
vt 0.625000 0.750000
vt 0.625000 0.500000
vt 0.625000 0.250000
vt 0.375000 0.500000
vt 0.375000 0.250000
vt 0.375000 0.750000
vt 0.375000 1.000000
vt 0.625000 0.000000
vt 0.375000 0.000000
vt 0.875000 0.750000
vt 0.625000 1.000000
s 0
usemtl マテリアル.004
f 28/29/17 30/30/17 32/31/17
f 28/32/18 31/33/18 27/34/18
f 32/31/19 29/35/19 31/33/19
f 30/30/20 25/36/20 29/35/20
f 26/37/21 27/34/21 25/38/21
f 28/29/17 26/39/17 30/30/17
f 28/32/18 32/31/18 31/33/18
f 32/31/19 30/30/19 29/35/19
f 30/30/20 26/40/20 25/36/20
f 26/37/21 28/32/21 27/34/21
o 立方体.004
v -14.399994 -1.000006 -15.000018
v -14.399994 -0.400007 -15.000018
v 14.400002 -1.000006 -15.000002
v 14.400002 -0.400007 -15.000002
v -14.399994 -1.000006 -14.400018
v -14.399994 -0.400007 -14.400018
v 14.400002 -1.000006 -14.400000
v 14.400002 -0.400007 -14.400000
vn -0.0000 1.0000 -0.0000
vn -0.0000 -0.0000 1.0000
vn -0.0000 -0.0000 -1.0000
vn -1.0000 -0.0000 -0.0000
vn 1.0000 -0.0000 -0.0000
vt 0.875000 0.500000
vt 0.625000 0.750000
vt 0.625000 0.500000
vt 0.375000 0.750000
vt 0.375000 0.500000
vt 0.625000 0.000000
vt 0.375000 0.250000
vt 0.375000 0.000000
vt 0.375000 1.000000
vt 0.625000 1.000000
vt 0.625000 0.250000
vt 0.875000 0.750000
s 0
usemtl マテリアル.004
f 36/41/22 38/42/22 40/43/22
f 40/43/23 37/44/23 39/45/23
f 34/46/24 35/47/24 33/48/24
f 33/49/25 38/42/25 34/50/25
f 36/51/26 39/45/26 35/47/26
f 36/41/22 34/52/22 38/42/22
f 40/43/23 38/42/23 37/44/23
f 34/46/24 36/51/24 35/47/24
f 33/49/25 37/44/25 38/42/25
f 36/51/26 40/43/26 39/45/26
o 立方体.005
v 14.999994 -3.999990 15.000000
v 14.999994 -3.399992 15.000000
v 14.999983 -3.999988 30.999996
v 14.999983 -3.399990 30.999996
v 14.399994 -3.999990 15.000000
v 14.399994 -3.399992 15.000000
v 14.399982 -3.999988 30.999996
v 14.399982 -3.399990 30.999996
vn -0.0000 1.0000 -0.0000
vn -0.0000 -0.0000 1.0000
vn -1.0000 -0.0000 -0.0000
vn -0.0000 -0.0000 -1.0000
vn 1.0000 -0.0000 -0.0000
vt 0.625000 0.500000
vt 0.875000 0.750000
vt 0.625000 0.750000
vt 0.625000 0.250000
vt 0.375000 0.500000
vt 0.375000 0.250000
vt 0.375000 0.750000
vt 0.375000 1.000000
vt 0.625000 0.000000
vt 0.375000 0.000000
vt 0.875000 0.500000
vt 0.625000 1.000000
s 0
usemtl マテリアル.004
f 48/53/27 42/54/27 46/55/27
f 44/56/28 47/57/28 43/58/28
f 48/53/29 45/59/29 47/57/29
f 46/55/30 41/60/30 45/59/30
f 42/61/31 43/58/31 41/62/31
f 48/53/27 44/63/27 42/54/27
f 44/56/28 48/53/28 47/57/28
f 48/53/29 46/55/29 45/59/29
f 46/55/30 42/64/30 41/60/30
f 42/61/31 44/56/31 43/58/31
o 立方体.006
v -14.399994 -1.000006 -15.000017
v -14.399994 -0.400007 -15.000017
v -14.400002 -1.000002 14.999983
v -14.400002 -0.400003 14.999983
v -14.999994 -1.000006 -15.000017
v -14.999994 -0.400007 -15.000017
v -15.000006 -1.000002 14.999983
v -15.000006 -0.400003 14.999983
vn -0.0000 1.0000 -0.0000
vn -0.0000 -0.0000 1.0000
vn -1.0000 -0.0000 -0.0000
vn -0.0000 -0.0000 -1.0000
vn 1.0000 -0.0000 -0.0000
vt 0.875000 0.500000
vt 0.625000 0.750000
vt 0.625000 0.500000
vt 0.625000 0.250000
vt 0.375000 0.500000
vt 0.375000 0.250000
vt 0.375000 0.750000
vt 0.375000 1.000000
vt 0.625000 0.000000
vt 0.375000 0.000000
vt 0.875000 0.750000
vt 0.625000 1.000000
s 0
usemtl マテリアル.004
f 52/65/32 54/66/32 56/67/32
f 52/68/33 55/69/33 51/70/33
f 56/67/34 53/71/34 55/69/34
f 54/66/35 49/72/35 53/71/35
f 50/73/36 51/70/36 49/74/36
f 52/65/32 50/75/32 54/66/32
f 52/68/33 56/67/33 55/69/33
f 56/67/34 54/66/34 53/71/34
f 54/66/35 50/76/35 49/72/35
f 50/73/36 52/68/36 51/70/36
o 立方体.007
v 10.000006 -1.000006 -11.000006
v 10.000006 3.999994 -11.000006
v 10.000000 -1.000004 -5.000006
v 10.000000 3.999995 -5.000008
v 5.000006 -1.000006 -11.000006
v 5.000006 3.999994 -11.000011
v 5.000000 -1.000004 -5.000008
v 5.000000 3.999995 -5.000009
vn -0.0000 -0.0000 -1.0000
vn -0.0000 1.0000 -0.0000
vn -0.0000 -1.0000 -0.0000
vn -1.0000 -0.0000 -0.0000
vn -0.0000 -0.0000 1.0000
vn 1.0000 -0.0000 -0.0000
vt 0.625000 0.750000
vt 0.375000 1.000000
vt 0.375000 0.750000
vt 0.875000 0.500000
vt 0.875000 0.750000
vt 0.125000 0.500000
vt 0.375000 0.500000
vt 0.625000 0.500000
vt 0.625000 0.250000
vt 0.375000 0.000000
vt 0.375000 0.250000
vt 0.625000 1.000000
vt 0.125000 0.750000
vt 0.625000 0.000000
s 0
usemtl マテリアル.004
f 62/77/37 57/78/37 61/79/37
f 62/77/38 60/80/38 58/81/38
f 61/79/39 59/82/39 63/83/39
f 64/84/40 61/79/40 63/83/40
f 63/83/41 60/85/41 64/84/41
f 57/86/42 60/85/42 59/87/42
f 62/77/37 58/88/37 57/78/37
f 62/77/38 64/84/38 60/80/38
f 61/79/39 57/89/39 59/82/39
f 64/84/40 62/77/40 61/79/40
f 63/83/41 59/87/41 60/85/41
f 57/86/42 58/90/42 60/85/42
o 立方体.008
v 14.999977 -102.000008 45.000046
v 14.999977 -3.999979 45.000000
v 14.999965 -101.999962 65.000046
v 14.999965 -3.999965 65.000000
v -6.000024 -102.000008 45.000031
v -6.000024 -3.999979 44.999985
v -6.000036 -101.999962 65.000046
v -6.000036 -3.999965 65.000000
vn 1.0000 -0.0000 -0.0000
vn -1.0000 -0.0000 -0.0000
vn -0.0000 1.0000 -0.0000
vn -0.0000 -1.0000 -0.0000
vn -0.0000 -0.0000 -1.0000
vn -0.0000 -0.0000 1.0000
vt 0.998047 0.000000
vt 0.001953 0.998047
vt 0.001953 0.000000
vt 0.375000 0.500000
vt 0.625000 0.750000
vt 0.375000 0.750000
vt 0.125000 0.500000
vt 1.001953 0.998047
vt 0.625000 0.500000
vt 0.125000 0.750000
s 0
usemtl Concrete.002
f 66/91/43 67/92/43 65/93/43
f 71/94/44 70/95/44 69/96/44
f 68/91/45 70/92/45 72/93/45
f 69/96/46 67/97/46 71/94/46
f 69/93/47 66/98/47 65/92/47
f 67/93/48 72/98/48 71/92/48
f 66/91/43 68/98/43 67/92/43
f 71/94/44 72/99/44 70/95/44
f 68/91/45 66/98/45 70/92/45
f 69/96/46 65/100/46 67/97/46
f 69/93/47 70/91/47 66/98/47
f 67/93/48 68/91/48 72/98/48
o 立方体.009
v -1.517660 -3.999986 28.425995
v -1.517660 -3.199987 28.425995
v -1.517669 -3.999975 48.209244
v -1.517669 -3.199976 48.209244
v -3.517658 -3.999986 28.425995
v -3.517658 -3.199987 28.425995
v -3.517669 -3.999975 48.209244
v -3.517669 -3.199976 48.209244
vn 1.0000 -0.0000 -0.0000
vn -1.0000 -0.0000 -0.0000
vn -0.0000 -1.0000 -0.0000
vn -0.0000 1.0000 -0.0000
vn -0.0000 -0.0000 -1.0000
vn -0.0000 -0.0000 1.0000
vt 0.001953 0.998047
vt 0.998047 0.000000
vt 1.001953 0.998047
vt 0.125000 0.500000
vt 0.375000 0.750000
vt 0.125000 0.750000
vt 0.001953 0.000000
vt 0.625000 0.750000
vt 0.375000 1.000000
vt 0.375000 0.500000
vt 0.625000 1.000000
s 0
usemtl Wood.002
f 75/101/49 74/102/49 76/103/49
f 77/101/50 80/102/50 78/103/50
f 75/104/51 77/105/51 73/106/51
f 76/102/52 78/101/52 80/107/52
f 78/108/53 73/109/53 77/105/53
f 76/102/54 79/101/54 75/107/54
f 75/101/49 73/107/49 74/102/49
f 77/101/50 79/107/50 80/102/50
f 75/104/51 79/110/51 77/105/51
f 76/102/52 74/103/52 78/101/52
f 78/108/53 74/111/53 73/109/53
f 76/102/54 80/103/54 79/101/54
o 立方体.010
v -6.000027 -101.999992 45.000031
v -6.000027 15.470023 44.999985
v -6.000047 -101.999954 85.000053
v -6.000047 15.470045 84.999977
v -36.000027 -101.999992 45.000023
v -36.000027 15.470023 44.999966
v -36.000046 -101.999954 85.000031
v -36.000046 15.470045 84.999962
vn -0.0000 -1.0000 -0.0000
vn -0.0000 -0.0000 1.0000
vn 1.0000 -0.0000 -0.0000
vn -0.0000 -0.0000 -1.0000
vn -0.0000 1.0000 -0.0000
vn -1.0000 -0.0000 -0.0000
vt 0.125000 0.750000
vt 0.375000 0.500000
vt 0.375000 0.750000
vt 0.625000 0.500000
vt 0.375000 0.250000
vt 0.625000 0.250000
vt 0.998047 0.000000
vt 0.001953 0.998047
vt 0.001953 0.000000
vt 1.001953 0.998047
vt 0.625000 0.750000
vt 0.125000 0.500000
s 0
usemtl Concrete.002
f 81/112/55 87/113/55 85/114/55
f 88/115/56 83/116/56 84/117/56
f 82/118/57 83/119/57 81/120/57
f 85/120/58 82/121/58 81/119/58
f 82/121/59 88/120/59 84/118/59
f 87/113/60 86/122/60 85/114/60
f 81/112/55 83/123/55 87/113/55
f 88/115/56 87/113/56 83/116/56
f 82/118/57 84/121/57 83/119/57
f 85/120/58 86/118/58 82/121/58
f 82/121/59 86/119/59 88/120/59
f 87/113/60 88/115/60 86/122/60
o 立方体.011
v -38.487015 -102.000008 14.858228
v -38.487015 80.532158 14.858142
v -38.487038 -102.000008 41.858215
v -38.487038 80.532158 41.858147
v -65.487015 -102.000008 14.858211
v -65.487015 80.532158 14.858130
v -65.487015 -102.000008 41.858215
v -65.487015 80.532158 41.858124
vn 1.0000 -0.0000 -0.0000
vn -0.0000 1.0000 -0.0000
vn -1.0000 -0.0000 -0.0000
vn -0.0000 -0.0000 1.0000
vn -0.0000 -1.0000 -0.0000
vn -0.0000 -0.0000 -1.0000
vt 0.625000 0.250000
vt 0.375000 0.000000
vt 0.625000 0.000000
vt 0.875000 0.500000
vt 0.625000 0.750000
vt 0.625000 0.500000
vt 0.375000 0.750000
vt 0.375000 0.500000
vt 0.375000 0.250000
vt 0.125000 0.500000
vt 0.125000 0.750000
vt 0.625000 1.000000
vt 0.875000 0.750000
vt 0.375000 1.000000
s 0
usemtl マテリアル.004
f 92/124/61 89/125/61 90/126/61
f 92/127/62 94/128/62 96/129/62
f 96/129/63 93/130/63 95/131/63
f 91/132/64 96/129/64 95/131/64
f 91/133/65 93/130/65 89/134/65
f 90/135/66 93/130/66 94/128/66
f 92/124/61 91/132/61 89/125/61
f 92/127/62 90/136/62 94/128/62
f 96/129/63 94/128/63 93/130/63
f 91/132/64 92/124/64 96/129/64
f 91/133/65 95/131/65 93/130/65
f 90/135/66 89/137/66 93/130/66
o 立方体.012
v -24.658131 -102.000061 -58.602005
v -24.658131 53.570229 -58.602074
v -24.658154 -102.000015 -28.602001
v -24.658154 53.570259 -28.602077
v -54.658142 -102.000061 -58.602020
v -54.658142 53.570229 -58.602089
v -54.658142 -102.000015 -28.602020
v -54.658142 53.570259 -28.602093
vn -0.0000 1.0000 -0.0000
vn -1.0000 -0.0000 -0.0000
vn -0.0000 -1.0000 -0.0000
vn 1.0000 -0.0000 -0.0000
vn -0.0000 -0.0000 1.0000
vn -0.0000 -0.0000 -1.0000
vt 0.875000 0.750000
vt 0.625000 0.500000
vt 0.875000 0.500000
vt 0.375000 0.500000
vt 0.625000 0.750000
vt 0.375000 0.750000
vt 0.125000 0.750000
vt 0.625000 0.000000
vt 0.375000 0.250000
vt 0.375000 0.000000
vt 0.625000 0.250000
vt 0.625000 1.000000
vt 0.125000 0.500000
vt 0.375000 1.000000
s 0
usemtl マテリアル.004
f 98/138/67 104/139/67 100/140/67
f 103/141/68 102/142/68 101/143/68
f 97/144/69 103/141/69 101/143/69
f 98/145/70 99/146/70 97/147/70
f 104/139/71 99/146/71 100/148/71
f 98/149/72 101/143/72 102/142/72
f 98/138/67 102/142/67 104/139/67
f 103/141/68 104/139/68 102/142/68
f 97/144/69 99/150/69 103/141/69
f 98/145/70 100/148/70 99/146/70
f 104/139/71 103/141/71 99/146/71
f 98/149/72 97/151/72 101/143/72
o 立方体.013
v 41.766678 -102.000046 -59.608414
v 41.766678 102.086502 -59.608505
v 41.766678 -102.000000 -29.608406
v 41.766678 102.086517 -29.608505
v 11.766685 -102.000046 -59.608421
v 11.766685 102.086502 -59.608513
v 11.766672 -102.000000 -29.608425
v 11.766672 102.086517 -29.608521
vn -1.0000 -0.0000 -0.0000
vn -0.0000 -1.0000 -0.0000
vn -0.0000 1.0000 -0.0000
vn 1.0000 -0.0000 -0.0000
vn -0.0000 -0.0000 1.0000
vn -0.0000 -0.0000 -1.0000
vt 0.625000 0.750000
vt 0.375000 0.500000
vt 0.625000 0.500000
vt 0.125000 0.500000
vt 0.375000 0.750000
vt 0.125000 0.750000
vt 0.875000 0.750000
vt 0.375000 0.250000
vt 0.625000 0.000000
vt 0.625000 0.250000
vt 0.625000 1.000000
vt 0.875000 0.500000
vt 0.375000 0.000000
vt 0.375000 1.000000
s 0
usemtl マテリアル.004
f 110/152/73 111/153/73 112/154/73
f 107/155/74 109/156/74 105/157/74
f 112/154/75 106/158/75 110/152/75
f 107/159/76 106/160/76 108/161/76
f 112/154/77 107/159/77 108/161/77
f 106/162/78 109/156/78 110/152/78
f 110/152/73 109/156/73 111/153/73
f 107/155/74 111/153/74 109/156/74
f 112/154/75 108/163/75 106/158/75
f 107/159/76 105/164/76 106/160/76
f 112/154/77 111/153/77 107/159/77
f 106/162/78 105/165/78 109/156/78
o 立方体.014
v 86.320786 -102.000000 -10.312294
v 86.320786 67.548889 -10.312368
v 86.320786 -102.000000 13.687706
v 86.320786 67.548889 13.687632
v 62.320786 -102.000000 -10.312305
v 62.320786 67.548889 -10.312382
v 62.320786 -102.000000 13.687695
v 62.320786 67.548889 13.687618
vn -0.0000 -1.0000 -0.0000
vn -1.0000 -0.0000 -0.0000
vn -0.0000 1.0000 -0.0000
vn 1.0000 -0.0000 -0.0000
vn -0.0000 -0.0000 1.0000
vn -0.0000 -0.0000 -1.0000
vt 0.375000 0.500000
vt 0.125000 0.750000
vt 0.125000 0.500000
vt 0.625000 0.500000
vt 0.375000 0.750000
vt 0.875000 0.750000
vt 0.875000 0.500000
vt 0.625000 0.250000
vt 0.375000 0.000000
vt 0.625000 0.000000
vt 0.375000 0.250000
vt 0.625000 1.000000
vt 0.625000 0.750000
vt 0.375000 1.000000
s 0
usemtl マテリアル.004
f 119/166/79 113/167/79 115/168/79
f 120/169/80 117/170/80 119/166/80
f 114/171/81 120/169/81 116/172/81
f 116/173/82 113/174/82 114/175/82
f 115/176/83 120/169/83 119/166/83
f 114/177/84 117/170/84 118/178/84
f 119/166/79 117/170/79 113/167/79
f 120/169/80 118/178/80 117/170/80
f 114/171/81 118/178/81 120/169/81
f 116/173/82 115/176/82 113/174/82
f 115/176/83 116/173/83 120/169/83
f 114/177/84 113/179/84 117/170/84
o 立方体.015
v 2.012458 -102.000053 -108.923828
v 2.012458 21.739326 -108.923904
v 2.012440 -102.000053 -78.923828
v 2.012440 21.739330 -78.923904
v -27.987545 -102.000053 -108.923859
v -27.987545 21.739326 -108.923920
v -27.987556 -102.000053 -78.923859
v -27.987556 21.739330 -78.923920
vn -0.0000 -0.0000 1.0000
vn -0.0000 -1.0000 -0.0000
vn -1.0000 -0.0000 -0.0000
vn -0.0000 -0.0000 -1.0000
vn 1.0000 -0.0000 -0.0000
vn -0.0000 1.0000 -0.0000
vt 0.625000 0.500000
vt 0.375000 0.250000
vt 0.625000 0.250000
vt 0.375000 0.500000
vt 0.125000 0.750000
vt 0.125000 0.500000
vt 0.375000 0.750000
vt 0.625000 0.750000
vt 0.625000 1.000000
vt 0.375000 1.000000
vt 0.375000 0.000000
vt 0.875000 0.750000
vt 0.875000 0.500000
vt 0.625000 0.000000
s 0
usemtl マテリアル.004
f 128/180/85 123/181/85 124/182/85
f 127/183/86 121/184/86 123/185/86
f 125/186/87 128/180/87 126/187/87
f 125/186/88 122/188/88 121/189/88
f 121/190/89 124/182/89 123/181/89
f 122/191/90 128/180/90 124/192/90
f 128/180/85 127/183/85 123/181/85
f 127/183/86 125/186/86 121/184/86
f 125/186/87 127/183/87 128/180/87
f 125/186/88 126/187/88 122/188/88
f 121/190/89 122/193/89 124/182/89
f 122/191/90 126/187/90 128/180/90
o 立方体.016
v -91.586220 -102.000000 -33.189522
v -91.586220 140.547363 -33.189636
v -91.586220 -102.000000 -3.189519
v -91.586220 140.547363 -3.189629
v -121.586220 -102.000000 -33.189529
v -121.586220 140.547363 -33.189644
v -121.586220 -102.000000 -3.189534
v -121.586220 140.547363 -3.189645
vn 1.0000 -0.0000 -0.0000
vn -0.0000 1.0000 -0.0000
vn -1.0000 -0.0000 -0.0000
vn -0.0000 -1.0000 -0.0000
vn -0.0000 -0.0000 -1.0000
vn -0.0000 -0.0000 1.0000
vt 0.625000 0.000000
vt 0.375000 0.250000
vt 0.375000 0.000000
vt 0.875000 0.750000
vt 0.625000 0.500000
vt 0.875000 0.500000
vt 0.375000 0.750000
vt 0.375000 0.500000
vt 0.125000 0.750000
vt 0.625000 1.000000
vt 0.375000 1.000000
vt 0.625000 0.250000
vt 0.625000 0.750000
vt 0.125000 0.500000
s 0
usemtl マテリアル.004
f 130/194/91 131/195/91 129/196/91
f 130/197/92 136/198/92 132/199/92
f 136/198/93 133/200/93 135/201/93
f 129/202/94 135/201/94 133/200/94
f 133/200/95 130/203/95 129/204/95
f 131/195/96 136/198/96 135/201/96
f 130/194/91 132/205/91 131/195/91
f 130/197/92 134/206/92 136/198/92
f 136/198/93 134/206/93 133/200/93
f 129/202/94 131/207/94 135/201/94
f 133/200/95 134/206/95 130/203/95
f 131/195/96 132/205/96 136/198/96
o 立方体.017
v -87.802475 -101.999954 54.864044
v -87.802475 36.000038 54.863991
v -87.802475 -101.999954 81.864059
v -87.802475 36.000046 81.863983
v -114.802475 -101.999954 54.864037
v -114.802475 36.000038 54.863976
v -114.802475 -101.999954 81.864029
v -114.802475 36.000046 81.863968
vn -0.0000 -1.0000 -0.0000
vn -0.0000 -0.0000 1.0000
vn -0.0000 -0.0000 -1.0000
vn -0.0000 1.0000 -0.0000
vn 1.0000 -0.0000 -0.0000
vn -1.0000 -0.0000 -0.0000
vt 0.375000 0.500000
vt 0.125000 0.750000
vt 0.125000 0.500000
vt 0.625000 0.500000
vt 0.375000 0.250000
vt 0.625000 0.250000
vt 0.375000 0.750000
vt 0.625000 1.000000
vt 0.375000 1.000000
vt 0.875000 0.750000
vt 0.875000 0.500000
vt 0.375000 0.000000
vt 0.625000 0.750000
vt 0.625000 0.000000
s 0
usemtl マテリアル.004
f 143/208/97 137/209/97 139/210/97
f 144/211/98 139/212/98 140/213/98
f 141/214/99 138/215/99 137/216/99
f 138/217/100 144/211/100 140/218/100
f 137/219/101 140/213/101 139/212/101
f 144/211/102 141/214/102 143/208/102
f 143/208/97 141/214/97 137/209/97
f 144/211/98 143/208/98 139/212/98
f 141/214/99 142/220/99 138/215/99
f 138/217/100 142/220/100 144/211/100
f 137/219/101 138/221/101 140/213/101
f 144/211/102 142/220/102 141/214/102
o 立方体.018
v 80.514465 -102.000008 40.783676
v 80.514465 24.996078 40.783623
v 80.514420 -101.999962 70.783691
v 80.514420 24.996082 70.783615
v 50.514442 -102.000008 40.783653
v 50.514442 24.996078 40.783607
v 50.514420 -101.999962 70.783661
v 50.514420 24.996082 70.783600
vn -0.0000 -0.0000 1.0000
vn -0.0000 1.0000 -0.0000
vn 1.0000 -0.0000 -0.0000
vn -1.0000 -0.0000 -0.0000
vn -0.0000 -1.0000 -0.0000
vn -0.0000 -0.0000 -1.0000
vt 0.625000 0.500000
vt 0.375000 0.250000
vt 0.625000 0.250000
vt 0.875000 0.500000
vt 0.625000 0.750000
vt 0.375000 0.000000
vt 0.625000 0.000000
vt 0.375000 0.500000
vt 0.125000 0.500000
vt 0.375000 0.750000
vt 0.125000 0.750000
vt 0.625000 1.000000
vt 0.875000 0.750000
vt 0.375000 1.000000
s 0
usemtl マテリアル.004
f 152/222/103 147/223/103 148/224/103
f 148/225/104 150/226/104 152/222/104
f 148/224/105 145/227/105 146/228/105
f 150/226/106 151/229/106 152/222/106
f 147/230/107 149/231/107 145/232/107
f 146/233/108 149/231/108 150/226/108
f 152/222/103 151/229/103 147/223/103
f 148/225/104 146/234/104 150/226/104
f 148/224/105 147/223/105 145/227/105
f 150/226/106 149/231/106 151/229/106
f 147/230/107 151/229/107 149/231/107
f 146/233/108 145/235/108 149/231/108
o 立方体.019
v 14.999958 -101.999969 85.000046
v 14.999958 -3.999967 85.000000
v 14.999946 -101.999962 105.000046
v 14.999946 -3.999953 105.000000
v -6.000042 -101.999969 85.000038
v -6.000042 -3.999967 85.000000
v -6.000051 -101.999962 105.000046
v -6.000051 -3.999953 105.000000
vn -0.0000 1.0000 -0.0000
vn 1.0000 -0.0000 -0.0000
vn -0.0000 -1.0000 -0.0000
vn -0.0000 -0.0000 -1.0000
vn -1.0000 -0.0000 -0.0000
vn -0.0000 -0.0000 1.0000
vt 0.998047 0.000000
vt 0.001953 0.998047
vt 0.001953 0.000000
vt 0.625000 0.250000
vt 0.375000 0.000000
vt 0.625000 0.000000
vt 0.125000 0.500000
vt 0.375000 0.750000
vt 0.125000 0.750000
vt 1.001953 0.998047
vt 0.625000 0.750000
vt 0.375000 0.500000
vt 0.625000 0.500000
vt 0.375000 0.250000
s 0
usemtl Concrete.002
f 156/236/109 158/237/109 160/238/109
f 156/239/110 153/240/110 154/241/110
f 155/242/111 157/243/111 153/244/111
f 157/238/112 154/245/112 153/237/112
f 158/246/113 159/247/113 160/248/113
f 155/249/114 160/248/114 159/247/114
f 156/236/109 154/245/109 158/237/109
f 156/239/110 155/249/110 153/240/110
f 155/242/111 159/247/111 157/243/111
f 157/238/112 158/236/112 154/245/112
f 158/246/113 157/243/113 159/247/113
f 155/249/114 156/239/114 160/248/114
o 立方体.020
v 14.999968 -101.999969 65.000046
v 14.999968 -9.999969 65.000000
v 14.999955 -101.999962 85.000046
v 14.999955 -9.999962 85.000000
v -6.000034 -101.999969 65.000038
v -6.000034 -9.999969 65.000000
v -6.000045 -101.999962 85.000046
v -6.000045 -9.999962 85.000000
vn -0.0000 -1.0000 -0.0000
vn -0.0000 1.0000 -0.0000
vn -0.0000 -0.0000 -1.0000
vn 1.0000 -0.0000 -0.0000
vn -1.0000 -0.0000 -0.0000
vn -0.0000 -0.0000 1.0000
vt 0.375000 0.500000
vt 0.125000 0.750000
vt 0.125000 0.500000
vt 0.998047 0.000000
vt 0.001953 0.998047
vt 0.001953 0.000000
vt 0.625000 1.000000
vt 0.375000 0.750000
vt 0.625000 0.750000
vt 0.625000 0.250000
vt 0.375000 0.000000
vt 0.625000 0.000000
vt 0.625000 0.500000
vt 0.375000 0.250000
vt 1.001953 0.998047
vt 0.375000 1.000000
s 0
usemtl Concrete.002
f 167/250/115 161/251/115 163/252/115
f 164/253/116 166/254/116 168/255/116
f 162/256/117 165/257/117 166/258/117
f 164/259/118 161/260/118 162/261/118
f 166/258/119 167/250/119 168/262/119
f 163/263/120 168/262/120 167/250/120
f 167/250/115 165/257/115 161/251/115
f 164/253/116 162/264/116 166/254/116
f 162/256/117 161/265/117 165/257/117
f 164/259/118 163/263/118 161/260/118
f 166/258/119 165/257/119 167/250/119
f 163/263/120 164/259/120 168/262/120
o 立方体.021
v -6.000046 -101.999954 85.000038
v -6.000046 2.000039 85.000000
v -6.000055 -101.999954 105.000053
v -6.000055 2.000047 105.000000
v -36.000046 -101.999954 85.000015
v -36.000046 2.000039 84.999977
v -36.000046 -101.999954 105.000031
v -36.000046 2.000047 104.999977
vn -0.0000 -1.0000 -0.0000
vn -0.0000 1.0000 -0.0000
vn 1.0000 -0.0000 -0.0000
vn -1.0000 -0.0000 -0.0000
vn -0.0000 -0.0000 -1.0000
vn -0.0000 -0.0000 1.0000
vt 0.375000 0.500000
vt 0.125000 0.750000
vt 0.125000 0.500000
vt 0.001953 0.000000
vt 1.001953 0.998047
vt 0.001953 0.998047
vt 0.998047 0.000000
vt 0.625000 0.750000
vt 0.625000 0.500000
vt 0.375000 0.750000
vt 0.625000 1.000000
vt 0.375000 1.000000
vt 0.375000 0.250000
vt 0.625000 0.250000
s 0
usemtl Concrete.002
f 175/266/121 169/267/121 171/268/121
f 176/269/122 170/270/122 174/271/122
f 170/272/123 171/271/123 169/269/123
f 174/273/124 175/266/124 176/274/124
f 173/275/125 170/276/125 169/277/125
f 171/278/126 176/274/126 175/266/126
f 175/266/121 173/275/121 169/267/121
f 176/269/122 172/272/122 170/270/122
f 170/272/123 172/270/123 171/271/123
f 174/273/124 173/275/124 175/266/124
f 173/275/125 174/273/125 170/276/125
f 171/278/126 172/279/126 176/274/126
o 立方体.024
v 7.999966 -9.999969 65.000000
v 7.999966 -5.999969 65.000000
v 7.999966 -9.999969 67.000000
v 7.999966 -5.999969 67.000000
v 5.999966 -9.999969 65.000000
v 5.999966 -5.999969 65.000000
v 5.999966 -9.999969 67.000000
v 5.999966 -5.999969 67.000000
vn 1.0000 -0.0000 -0.0000
vn -0.0000 -0.0000 1.0000
vn -1.0000 -0.0000 -0.0000
vn -0.0000 -0.0000 -1.0000
vn -0.0000 -1.0000 -0.0000
vn -0.0000 1.0000 -0.0000
vt 0.375000 0.000000
vt 0.625000 0.250000
vt 0.375000 0.250000
vt 0.625000 0.500000
vt 0.375000 0.500000
vt 0.625000 0.750000
vt 0.375000 0.750000
vt 0.625000 1.000000
vt 0.125000 0.500000
vt 0.875000 0.750000
vt 0.625000 0.000000
vt 0.375000 1.000000
vt 0.125000 0.750000
vt 0.875000 0.500000
s 0
usemtl マテリアル.004
f 177/280/127 180/281/127 179/282/127
f 179/282/128 184/283/128 183/284/128
f 183/284/129 182/285/129 181/286/129
f 178/287/130 181/286/130 182/285/130
f 181/286/131 179/288/131 183/284/131
f 184/283/132 178/289/132 182/285/132
f 177/280/127 178/290/127 180/281/127
f 179/282/128 180/281/128 184/283/128
f 183/284/129 184/283/129 182/285/129
f 178/287/130 177/291/130 181/286/130
f 181/286/131 177/292/131 179/288/131
f 184/283/132 180/293/132 178/289/132
o 立方体.025
v 129.130066 -101.999962 73.079712
v 129.130066 -3.999967 73.079681
v 129.129974 -101.999962 103.079712
v 129.129974 -3.999953 103.079681
v 99.130020 -101.999962 73.079712
v 99.130020 -3.999967 73.079666
v 99.130020 -101.999962 103.079712
v 99.130020 -3.999953 103.079666
vn -0.0000 -1.0000 -0.0000
vn 1.0000 -0.0000 -0.0000
vn -0.0000 -0.0000 -1.0000
vn -0.0000 1.0000 -0.0000
vn -1.0000 -0.0000 -0.0000
vn -0.0000 -0.0000 1.0000
vt 0.125000 0.500000
vt 0.375000 0.750000
vt 0.125000 0.750000
vt 0.375000 0.000000
vt 0.625000 0.250000
vt 0.375000 0.250000
vt 0.625000 1.000000
vt 0.625000 0.750000
vt 0.875000 0.500000
vt 0.875000 0.750000
vt 0.625000 0.500000
vt 0.375000 0.500000
vt 0.625000 0.000000
vt 0.375000 1.000000
s 0
usemtl マテリアル.004
f 187/294/133 189/295/133 185/296/133
f 185/297/134 188/298/134 187/299/134
f 186/300/135 189/295/135 190/301/135
f 190/301/136 188/302/136 186/303/136
f 192/304/137 189/295/137 191/305/137
f 192/304/138 187/299/138 188/298/138
f 187/294/133 191/305/133 189/295/133
f 185/297/134 186/306/134 188/298/134
f 186/300/135 185/307/135 189/295/135
f 190/301/136 192/304/136 188/302/136
f 192/304/137 190/301/137 189/295/137
f 192/304/138 191/305/138 187/299/138
o 立方体.026
v 80.514503 -101.999954 133.627579
v 80.514503 60.470055 133.627487
v 80.514503 -101.999908 163.627579
v 80.514503 60.470085 163.627487
v 50.514526 -101.999954 133.627579
v 50.514526 60.470055 133.627487
v 50.514503 -101.999908 163.627579
v 50.514503 60.470085 163.627487
vn 1.0000 -0.0000 -0.0000
vn -0.0000 1.0000 -0.0000
vn -1.0000 -0.0000 -0.0000
vn -0.0000 -1.0000 -0.0000
vn -0.0000 -0.0000 -1.0000
vn -0.0000 -0.0000 1.0000
vt 0.625000 0.000000
vt 0.375000 0.250000
vt 0.375000 0.000000
vt 0.625000 0.750000
vt 0.875000 0.500000
vt 0.875000 0.750000
vt 0.375000 0.500000
vt 0.375000 0.750000
vt 0.125000 0.500000
vt 0.625000 1.000000
vt 0.375000 1.000000
vt 0.625000 0.500000
vt 0.625000 0.250000
vt 0.125000 0.750000
s 0
usemtl マテリアル.004
f 194/308/139 195/309/139 193/310/139
f 198/311/140 196/312/140 194/313/140
f 199/314/141 198/311/141 197/315/141
f 197/315/142 195/316/142 199/314/142
f 197/315/143 194/317/143 193/318/143
f 195/309/144 200/319/144 199/314/144
f 194/308/139 196/320/139 195/309/139
f 198/311/140 200/319/140 196/312/140
f 199/314/141 200/319/141 198/311/141
f 197/315/142 193/321/142 195/316/142
f 197/315/143 198/311/143 194/317/143
f 195/309/144 196/320/144 200/319/144
o 立方体.027
v -60.839687 -101.999916 157.681412
v -60.839687 80.532249 157.681320
v -60.839687 -101.999916 187.681396
v -60.839687 80.532249 187.681305
v -90.839691 -101.999916 157.681412
v -90.839691 80.532249 157.681320
v -90.839691 -101.999916 187.681396
v -90.839691 80.532249 187.681305
vn 1.0000 -0.0000 -0.0000
vn -0.0000 -0.0000 1.0000
vn -0.0000 -0.0000 -1.0000
vn -1.0000 -0.0000 -0.0000
vn -0.0000 -1.0000 -0.0000
vn -0.0000 1.0000 -0.0000
vt 0.375000 0.000000
vt 0.625000 0.250000
vt 0.375000 0.250000
vt 0.625000 0.500000
vt 0.625000 1.000000
vt 0.375000 0.750000
vt 0.625000 0.750000
vt 0.125000 0.500000
vt 0.375000 0.500000
vt 0.875000 0.750000
vt 0.875000 0.500000
vt 0.625000 0.000000
vt 0.375000 1.000000
vt 0.125000 0.750000
s 0
usemtl マテリアル.004
f 201/322/145 204/323/145 203/324/145
f 208/325/146 203/324/146 204/323/146
f 202/326/147 205/327/147 206/328/147
f 205/327/148 208/325/148 206/328/148
f 205/327/149 203/329/149 207/330/149
f 202/331/150 208/325/150 204/332/150
f 201/322/145 202/333/145 204/323/145
f 208/325/146 207/330/146 203/324/146
f 202/326/147 201/334/147 205/327/147
f 205/327/148 207/330/148 208/325/148
f 205/327/149 201/335/149 203/329/149
f 202/331/150 206/328/150 208/325/150
o 立方体.028
v 24.254650 -101.999969 136.445679
v 24.254650 53.570320 136.445648
v 24.254627 -101.999924 166.445679
v 24.254627 53.570351 166.445648
v -5.745353 -101.999969 136.445648
v -5.745353 53.570320 136.445648
v -5.745371 -101.999924 166.445648
v -5.745371 53.570351 166.445648
vn -1.0000 -0.0000 -0.0000
vn -0.0000 1.0000 -0.0000
vn 1.0000 -0.0000 -0.0000
vn -0.0000 -1.0000 -0.0000
vn -0.0000 -0.0000 -1.0000
vn -0.0000 -0.0000 1.0000
vt 0.375000 0.500000
vt 0.625000 0.750000
vt 0.375000 0.750000
vt 0.875000 0.500000
vt 0.625000 0.500000
vt 0.375000 0.250000
vt 0.625000 0.000000
vt 0.625000 0.250000
vt 0.125000 0.500000
vt 0.125000 0.750000
vt 0.625000 1.000000
vt 0.375000 1.000000
vt 0.875000 0.750000
vt 0.375000 0.000000
s 0
usemtl マテリアル.004
f 215/336/151 214/337/151 213/338/151
f 212/339/152 214/337/152 216/340/152
f 211/341/153 210/342/153 212/343/153
f 211/344/154 213/338/154 209/345/154
f 213/338/155 210/346/155 209/347/155
f 211/341/156 216/340/156 215/336/156
f 215/336/151 216/340/151 214/337/151
f 212/339/152 210/348/152 214/337/152
f 211/341/153 209/349/153 210/342/153
f 211/344/154 215/336/154 213/338/154
f 213/338/155 214/337/155 210/346/155
f 211/341/156 212/343/156 216/340/156
o 立方体.029
v -106.783638 -101.999954 109.171135
v -106.783638 102.086594 109.171043
v -106.783684 -101.999954 139.171173
v -106.783684 102.086594 139.171082
v -136.783691 -101.999954 109.171120
v -136.783691 102.086594 109.171028
v -136.783691 -101.999954 139.171173
v -136.783691 102.086594 139.171082
vn -1.0000 -0.0000 -0.0000
vn -0.0000 1.0000 -0.0000
vn -0.0000 -1.0000 -0.0000
vn -0.0000 -0.0000 1.0000
vn 1.0000 -0.0000 -0.0000
vn -0.0000 -0.0000 -1.0000
vt 0.375000 0.750000
vt 0.625000 0.500000
vt 0.625000 0.750000
vt 0.875000 0.500000
vt 0.125000 0.500000
vt 0.125000 0.750000
vt 0.375000 0.250000
vt 0.375000 0.500000
vt 0.375000 0.000000
vt 0.625000 0.250000
vt 0.625000 1.000000
vt 0.375000 1.000000
vt 0.875000 0.750000
vt 0.625000 0.000000
s 0
usemtl マテリアル.004
f 221/350/157 224/351/157 222/352/157
f 220/353/158 222/352/158 224/351/158
f 219/354/159 221/350/159 217/355/159
f 219/356/160 224/351/160 223/357/160
f 217/358/161 220/359/161 219/356/161
f 221/350/162 218/360/162 217/361/162
f 221/350/157 223/357/157 224/351/157
f 220/353/158 218/362/158 222/352/158
f 219/354/159 223/357/159 221/350/159
f 219/356/160 220/359/160 224/351/160
f 217/358/161 218/363/161 220/359/161
f 221/350/162 222/352/162 218/360/162
o 立方体.030
v -24.526730 -101.999954 117.141312
v -24.526730 67.548935 117.141251
v -24.526752 -101.999908 153.141296
v -24.526752 67.548981 153.141235
v -60.526741 -101.999954 117.141296
v -60.526741 67.548935 117.141220
v -60.526764 -101.999908 153.141296
v -60.526764 67.548981 153.141205
vn -1.0000 -0.0000 -0.0000
vn -0.0000 -1.0000 -0.0000
vn -0.0000 -0.0000 -1.0000
vn 1.0000 -0.0000 -0.0000
vn -0.0000 1.0000 -0.0000
vn -0.0000 -0.0000 1.0000
vt 0.625000 0.500000
vt 0.375000 0.750000
vt 0.375000 0.500000
vt 0.125000 0.500000
vt 0.125000 0.750000
vt 0.625000 1.000000
vt 0.375000 1.000000
vt 0.625000 0.000000
vt 0.375000 0.250000
vt 0.375000 0.000000
vt 0.875000 0.750000
vt 0.875000 0.500000
vt 0.625000 0.750000
vt 0.625000 0.250000
s 0
usemtl マテリアル.004
f 232/364/163 229/365/163 231/366/163
f 227/367/164 229/365/164 225/368/164
f 229/365/165 226/369/165 225/370/165
f 226/371/166 227/372/166 225/373/166
f 226/374/167 232/364/167 228/375/167
f 227/372/168 232/364/168 231/366/168
f 232/364/163 230/376/163 229/365/163
f 227/367/164 231/366/164 229/365/164
f 229/365/165 230/376/165 226/369/165
f 226/371/166 228/377/166 227/372/166
f 226/374/167 230/376/167 232/364/167
f 227/372/168 228/377/168 232/364/168
o 立方体.031
v 52.425236 -101.999962 84.623856
v 52.425236 21.739414 84.623795
v 52.425213 -101.999962 117.623856
v 52.425213 21.739422 117.623795
v 19.425236 -101.999962 84.623840
v 19.425236 21.739414 84.623795
v 19.425224 -101.999962 117.623840
v 19.425224 21.739422 117.623795
vn -0.0000 -1.0000 -0.0000
vn -0.0000 1.0000 -0.0000
vn -1.0000 -0.0000 -0.0000
vn 1.0000 -0.0000 -0.0000
vn -0.0000 -0.0000 -1.0000
vn -0.0000 -0.0000 1.0000
vt 0.375000 0.750000
vt 0.125000 0.500000
vt 0.375000 0.500000
vt 0.875000 0.500000
vt 0.625000 0.750000
vt 0.625000 0.500000
vt 0.625000 0.250000
vt 0.375000 0.000000
vt 0.625000 0.000000
vt 0.625000 1.000000
vt 0.375000 1.000000
vt 0.375000 0.250000
vt 0.125000 0.750000
vt 0.875000 0.750000
s 0
usemtl マテリアル.004
f 237/378/169 235/379/169 239/380/169
f 236/381/170 238/382/170 240/383/170
f 240/383/171 237/378/171 239/380/171
f 236/384/172 233/385/172 234/386/172
f 237/378/173 234/387/173 233/388/173
f 235/389/174 240/383/174 239/380/174
f 237/378/169 233/390/169 235/379/169
f 236/381/170 234/391/170 238/382/170
f 240/383/171 238/382/171 237/378/171
f 236/384/172 235/389/172 233/385/172
f 237/378/173 238/382/173 234/387/173
f 235/389/174 236/384/174 240/383/174
o 立方体.032
v -8.555386 -101.999916 174.237274
v -8.555386 24.996128 174.237274
v -8.555404 -101.999916 204.237274
v -8.555404 24.996147 204.237274
v -38.555386 -101.999916 174.237274
v -38.555386 24.996128 174.237213
v -38.555408 -101.999916 204.237274
v -38.555408 24.996147 204.237213
vn -0.0000 -0.0000 -1.0000
vn -0.0000 -1.0000 -0.0000
vn -0.0000 1.0000 -0.0000
vn -0.0000 -0.0000 1.0000
vn -1.0000 -0.0000 -0.0000
vn 1.0000 -0.0000 -0.0000
vt 0.375000 0.750000
vt 0.625000 1.000000
vt 0.375000 1.000000
vt 0.125000 0.500000
vt 0.375000 0.500000
vt 0.875000 0.750000
vt 0.625000 0.500000
vt 0.875000 0.500000
vt 0.375000 0.250000
vt 0.625000 0.250000
vt 0.625000 0.750000
vt 0.375000 0.000000
vt 0.125000 0.750000
vt 0.625000 0.000000
s 0
usemtl マテリアル.004
f 245/392/175 242/393/175 241/394/175
f 245/392/176 243/395/176 247/396/176
f 242/397/177 248/398/177 244/399/177
f 248/398/178 243/400/178 244/401/178
f 246/402/179 247/396/179 248/398/179
f 241/403/180 244/401/180 243/400/180
f 245/392/175 246/402/175 242/393/175
f 245/392/176 241/404/176 243/395/176
f 242/397/177 246/402/177 248/398/177
f 248/398/178 247/396/178 243/400/178
f 246/402/179 245/392/179 247/396/179
f 241/403/180 242/405/180 244/401/180
o 立方体.033
v 5.999966 -9.999969 65.000000
v 5.999966 -7.999969 65.000000
v 5.999966 -9.999969 67.000000
v 5.999966 -7.999969 67.000000
v 3.999966 -9.999969 65.000000
v 3.999966 -7.999969 65.000000
v 3.999966 -9.999969 67.000000
v 3.999966 -7.999969 67.000000
vn -0.0000 -1.0000 -0.0000
vn -1.0000 -0.0000 -0.0000
vn 1.0000 -0.0000 -0.0000
vn -0.0000 -0.0000 -1.0000
vn -0.0000 1.0000 -0.0000
vn -0.0000 -0.0000 1.0000
vt 0.125000 0.500000
vt 0.375000 0.750000
vt 0.125000 0.750000
vt 0.375000 0.500000
vt 0.625000 0.750000
vt 0.375000 0.000000
vt 0.625000 0.250000
vt 0.375000 0.250000
vt 0.625000 1.000000
vt 0.625000 0.500000
vt 0.875000 0.750000
vt 0.625000 0.000000
vt 0.375000 1.000000
vt 0.875000 0.500000
s 0
usemtl マテリアル.004
f 251/406/181 253/407/181 249/408/181
f 255/409/182 254/410/182 253/407/182
f 249/411/183 252/412/183 251/413/183
f 250/414/184 253/407/184 254/410/184
f 256/415/185 250/416/185 254/410/185
f 251/413/186 256/415/186 255/409/186
f 251/406/181 255/409/181 253/407/181
f 255/409/182 256/415/182 254/410/182
f 249/411/183 250/417/183 252/412/183
f 250/414/184 249/418/184 253/407/184
f 256/415/185 252/419/185 250/416/185
f 251/413/186 252/412/186 256/415/186
o 立方体.034
v 7.999961 -9.999966 83.000000
v 7.999961 -5.999967 83.000000
v 7.999958 -9.999966 85.000000
v 7.999958 -5.999967 85.000000
v 5.999961 -9.999966 83.000000
v 5.999961 -5.999967 83.000000
v 5.999958 -9.999966 85.000000
v 5.999958 -5.999967 85.000000
vn 1.0000 -0.0000 -0.0000
vn -0.0000 1.0000 -0.0000
vn -0.0000 -0.0000 -1.0000
vn -1.0000 -0.0000 -0.0000
vn -0.0000 -1.0000 -0.0000
vn -0.0000 -0.0000 1.0000
vt 0.375000 0.000000
vt 0.625000 0.250000
vt 0.375000 0.250000
vt 0.875000 0.500000
vt 0.625000 0.750000
vt 0.625000 0.500000
vt 0.625000 1.000000
vt 0.375000 0.750000
vt 0.375000 0.500000
vt 0.125000 0.500000
vt 0.625000 0.000000
vt 0.875000 0.750000
vt 0.375000 1.000000
vt 0.125000 0.750000
s 0
usemtl マテリアル.004
f 257/420/187 260/421/187 259/422/187
f 260/423/188 262/424/188 264/425/188
f 258/426/189 261/427/189 262/424/189
f 263/428/190 262/424/190 261/427/190
f 261/427/191 259/429/191 263/428/191
f 259/422/192 264/425/192 263/428/192
f 257/420/187 258/430/187 260/421/187
f 260/423/188 258/431/188 262/424/188
f 258/426/189 257/432/189 261/427/189
f 263/428/190 264/425/190 262/424/190
f 261/427/191 257/433/191 259/429/191
f 259/422/192 260/421/192 264/425/192
o 立方体.035
v 5.999961 -9.999966 83.000000
v 5.999961 -7.999967 83.000000
v 5.999958 -9.999966 85.000000
v 5.999958 -7.999967 85.000000
v 3.999961 -9.999966 83.000000
v 3.999961 -7.999967 83.000000
v 3.999961 -9.999966 85.000000
v 3.999961 -7.999967 85.000000
vn 1.0000 -0.0000 -0.0000
vn -0.0000 1.0000 -0.0000
vn -0.0000 -0.0000 -1.0000
vn -1.0000 -0.0000 -0.0000
vn -0.0000 -1.0000 -0.0000
vn -0.0000 -0.0000 1.0000
vt 0.375000 0.000000
vt 0.625000 0.250000
vt 0.375000 0.250000
vt 0.625000 0.750000
vt 0.875000 0.500000
vt 0.875000 0.750000
vt 0.625000 1.000000
vt 0.375000 0.750000
vt 0.375000 0.500000
vt 0.125000 0.500000
vt 0.625000 0.500000
vt 0.625000 0.000000
vt 0.375000 1.000000
vt 0.125000 0.750000
s 0
usemtl マテリアル.004
f 265/434/193 268/435/193 267/436/193
f 270/437/194 268/438/194 266/439/194
f 266/440/195 269/441/195 270/437/195
f 271/442/196 270/437/196 269/441/196
f 269/441/197 267/443/197 271/442/197
f 267/436/198 272/444/198 271/442/198
f 265/434/193 266/445/193 268/435/193
f 270/437/194 272/444/194 268/438/194
f 266/440/195 265/446/195 269/441/195
f 271/442/196 272/444/196 270/437/196
f 269/441/197 265/447/197 267/443/197
f 267/436/198 268/435/198 272/444/198
o 立方体.036
v -19.000038 2.000045 92.999977
v -19.000038 8.000045 92.999977
v -19.000038 2.000045 93.999977
v -19.000038 8.000045 93.999977
v -21.000038 2.000045 92.999977
v -21.000038 8.000045 92.999977
v -21.000038 2.000045 93.999977
v -21.000038 8.000045 93.999977
vn 1.0000 -0.0000 -0.0000
vn -0.0000 -0.0000 1.0000
vn -1.0000 -0.0000 -0.0000
vn -0.0000 -0.0000 -1.0000
vn -0.0000 -1.0000 -0.0000
vn -0.0000 1.0000 -0.0000
vt 0.375000 0.000000
vt 0.625000 0.250000
vt 0.375000 0.250000
vt 0.625000 0.500000
vt 0.375000 0.500000
vt 0.625000 0.750000
vt 0.375000 0.750000
vt 0.625000 1.000000
vt 0.125000 0.500000
vt 0.875000 0.750000
vt 0.625000 0.000000
vt 0.375000 1.000000
vt 0.125000 0.750000
vt 0.875000 0.500000
s 0
usemtl マテリアル.004
f 273/448/199 276/449/199 275/450/199
f 275/450/200 280/451/200 279/452/200
f 279/452/201 278/453/201 277/454/201
f 274/455/202 277/454/202 278/453/202
f 277/454/203 275/456/203 279/452/203
f 280/451/204 274/457/204 278/453/204
f 273/448/199 274/458/199 276/449/199
f 275/450/200 276/449/200 280/451/200
f 279/452/201 280/451/201 278/453/201
f 274/455/202 273/459/202 277/454/202
f 277/454/203 273/460/203 275/456/203
f 280/451/204 276/461/204 274/457/204
o 立方体.037
v -19.000038 2.000045 87.999977
v -19.000038 8.000045 87.999977
v -19.000038 2.000045 88.999977
v -19.000038 8.000045 88.999977
v -21.000038 2.000045 87.999977
v -21.000038 8.000045 87.999977
v -21.000038 2.000045 88.999977
v -21.000038 8.000045 88.999977
vn 1.0000 -0.0000 -0.0000
vn -0.0000 -0.0000 1.0000
vn -1.0000 -0.0000 -0.0000
vn -0.0000 -0.0000 -1.0000
vn -0.0000 -1.0000 -0.0000
vn -0.0000 1.0000 -0.0000
vt 0.375000 0.000000
vt 0.625000 0.250000
vt 0.375000 0.250000
vt 0.625000 0.500000
vt 0.375000 0.500000
vt 0.625000 0.750000
vt 0.375000 0.750000
vt 0.625000 1.000000
vt 0.125000 0.500000
vt 0.875000 0.750000
vt 0.625000 0.000000
vt 0.375000 1.000000
vt 0.125000 0.750000
vt 0.875000 0.500000
s 0
usemtl マテリアル.004
f 281/462/205 284/463/205 283/464/205
f 283/464/206 288/465/206 287/466/206
f 287/466/207 286/467/207 285/468/207
f 282/469/208 285/468/208 286/467/208
f 285/468/209 283/470/209 287/466/209
f 288/465/210 282/471/210 286/467/210
f 281/462/205 282/472/205 284/463/205
f 283/464/206 284/463/206 288/465/206
f 287/466/207 288/465/207 286/467/207
f 282/469/208 281/473/208 285/468/208
f 285/468/209 281/474/209 283/470/209
f 288/465/210 284/475/210 282/471/210
o 立方体.038
v -19.000048 2.000047 102.999977
v -19.000048 8.000047 102.999977
v -19.000048 2.000047 103.999977
v -19.000048 8.000047 103.999977
v -21.000048 2.000047 102.999977
v -21.000048 8.000047 102.999977
v -21.000048 2.000047 103.999977
v -21.000048 8.000047 103.999977
vn 1.0000 -0.0000 -0.0000
vn -0.0000 -0.0000 1.0000
vn -1.0000 -0.0000 -0.0000
vn -0.0000 -0.0000 -1.0000
vn -0.0000 -1.0000 -0.0000
vn -0.0000 1.0000 -0.0000
vt 0.375000 0.000000
vt 0.625000 0.250000
vt 0.375000 0.250000
vt 0.625000 0.500000
vt 0.375000 0.500000
vt 0.625000 0.750000
vt 0.375000 0.750000
vt 0.625000 1.000000
vt 0.125000 0.500000
vt 0.875000 0.750000
vt 0.625000 0.000000
vt 0.375000 1.000000
vt 0.125000 0.750000
vt 0.875000 0.500000
s 0
usemtl マテリアル.004
f 289/476/211 292/477/211 291/478/211
f 291/478/212 296/479/212 295/480/212
f 295/480/213 294/481/213 293/482/213
f 290/483/214 293/482/214 294/481/214
f 293/482/215 291/484/215 295/480/215
f 296/479/216 290/485/216 294/481/216
f 289/476/211 290/486/211 292/477/211
f 291/478/212 292/477/212 296/479/212
f 295/480/213 296/479/213 294/481/213
f 290/483/214 289/487/214 293/482/214
f 293/482/215 289/488/215 291/484/215
f 296/479/216 292/489/216 290/485/216
o 立方体.039
v -19.000038 2.000045 97.999977
v -19.000038 8.000047 97.999977
v -19.000048 2.000045 98.999977
v -19.000048 8.000047 98.999977
v -21.000038 2.000045 97.999977
v -21.000038 8.000047 97.999977
v -21.000048 2.000045 98.999977
v -21.000048 8.000047 98.999977
vn 1.0000 -0.0000 -0.0000
vn -0.0000 1.0000 -0.0000
vn -0.0000 -0.0000 -1.0000
vn -1.0000 -0.0000 -0.0000
vn -0.0000 -1.0000 -0.0000
vn -0.0000 -0.0000 1.0000
vt 0.375000 0.000000
vt 0.625000 0.250000
vt 0.375000 0.250000
vt 0.875000 0.500000
vt 0.625000 0.750000
vt 0.625000 0.500000
vt 0.625000 1.000000
vt 0.375000 0.750000
vt 0.375000 0.500000
vt 0.125000 0.500000
vt 0.625000 0.000000
vt 0.875000 0.750000
vt 0.375000 1.000000
vt 0.125000 0.750000
s 0
usemtl マテリアル.004
f 297/490/217 300/491/217 299/492/217
f 300/493/218 302/494/218 304/495/218
f 298/496/219 301/497/219 302/494/219
f 303/498/220 302/494/220 301/497/220
f 301/497/221 299/499/221 303/498/221
f 299/492/222 304/495/222 303/498/222
f 297/490/217 298/500/217 300/491/217
f 300/493/218 298/501/218 302/494/218
f 298/496/219 297/502/219 301/497/219
f 303/498/220 304/495/220 302/494/220
f 301/497/221 297/503/221 299/499/221
f 299/492/222 300/491/222 304/495/222
o 立方体.040
v -19.400047 3.400048 102.999977
v -19.400038 3.400044 84.999977
v -19.400047 4.600048 102.999977
v -19.400038 4.600045 84.999977
v -20.600048 3.400048 102.999977
v -20.600039 3.400044 84.999977
v -20.600048 4.600048 102.999977
v -20.600039 4.600045 84.999977
vn -1.0000 -0.0000 -0.0000
vn -0.0000 -1.0000 -0.0000
vn -0.0000 -0.0000 1.0000
vn -0.0000 1.0000 -0.0000
vn -0.0000 -0.0000 -1.0000
vn 1.0000 -0.0000 -0.0000
vt 0.625000 0.750000
vt 0.375000 0.500000
vt 0.625000 0.500000
vt 0.375000 1.000000
vt 0.625000 1.000000
vt 0.125000 0.500000
vt 0.375000 0.750000
vt 0.125000 0.750000
vt 0.375000 0.250000
vt 0.875000 0.750000
vt 0.375000 0.000000
vt 0.625000 0.250000
vt 0.875000 0.500000
vt 0.625000 0.000000
s 0
usemtl マテリアル.004
f 310/504/223 311/505/223 312/506/223
f 305/507/224 310/504/224 306/508/224
f 307/509/225 309/510/225 305/511/225
f 307/512/226 312/506/226 311/505/226
f 312/506/227 306/513/227 310/504/227
f 305/514/228 308/515/228 307/512/228
f 310/504/223 309/510/223 311/505/223
f 305/507/224 309/510/224 310/504/224
f 307/509/225 311/505/225 309/510/225
f 307/512/226 308/515/226 312/506/226
f 312/506/227 308/516/227 306/513/227
f 305/514/228 306/517/228 308/515/228
o 立方体.042
v -19.400047 4.900048 102.999977
v -19.400038 4.900044 84.999977
v -19.400047 6.100048 102.999977
v -19.400038 6.100045 84.999977
v -20.600048 4.900048 102.999977
v -20.600039 4.900044 84.999977
v -20.600048 6.100048 102.999977
v -20.600039 6.100045 84.999977
vn -1.0000 -0.0000 -0.0000
vn -0.0000 -1.0000 -0.0000
vn -0.0000 -0.0000 1.0000
vn -0.0000 1.0000 -0.0000
vn -0.0000 -0.0000 -1.0000
vn 1.0000 -0.0000 -0.0000
vt 0.625000 0.750000
vt 0.375000 0.500000
vt 0.625000 0.500000
vt 0.375000 1.000000
vt 0.625000 1.000000
vt 0.125000 0.500000
vt 0.375000 0.750000
vt 0.125000 0.750000
vt 0.375000 0.250000
vt 0.875000 0.750000
vt 0.375000 0.000000
vt 0.625000 0.250000
vt 0.875000 0.500000
vt 0.625000 0.000000
s 0
usemtl マテリアル.004
f 318/518/229 319/519/229 320/520/229
f 313/521/230 318/518/230 314/522/230
f 315/523/231 317/524/231 313/525/231
f 315/526/232 320/520/232 319/519/232
f 320/520/233 314/527/233 318/518/233
f 313/528/234 316/529/234 315/526/234
f 318/518/229 317/524/229 319/519/229
f 313/521/230 317/524/230 318/518/230
f 315/523/231 319/519/231 317/524/231
f 315/526/232 316/529/232 320/520/232
f 320/520/233 316/530/233 314/527/233
f 313/528/234 314/531/234 316/529/234
o 立方体.043
v -19.400047 6.400048 102.999977
v -19.400038 6.400044 84.999977
v -19.400047 7.600048 102.999977
v -19.400038 7.600045 84.999977
v -20.600048 6.400048 102.999977
v -20.600039 6.400044 84.999977
v -20.600048 7.600048 102.999977
v -20.600039 7.600045 84.999977
vn -1.0000 -0.0000 -0.0000
vn -0.0000 -1.0000 -0.0000
vn -0.0000 -0.0000 1.0000
vn -0.0000 1.0000 -0.0000
vn -0.0000 -0.0000 -1.0000
vn 1.0000 -0.0000 -0.0000
vt 0.625000 0.750000
vt 0.375000 0.500000
vt 0.625000 0.500000
vt 0.375000 1.000000
vt 0.625000 1.000000
vt 0.125000 0.500000
vt 0.375000 0.750000
vt 0.125000 0.750000
vt 0.375000 0.250000
vt 0.875000 0.750000
vt 0.375000 0.000000
vt 0.625000 0.250000
vt 0.875000 0.500000
vt 0.625000 0.000000
s 0
usemtl マテリアル.004
f 326/532/235 327/533/235 328/534/235
f 321/535/236 326/532/236 322/536/236
f 323/537/237 325/538/237 321/539/237
f 323/540/238 328/534/238 327/533/238
f 328/534/239 322/541/239 326/532/239
f 321/542/240 324/543/240 323/540/240
f 326/532/235 325/538/235 327/533/235
f 321/535/236 325/538/236 326/532/236
f 323/537/237 327/533/237 325/538/237
f 323/540/238 324/543/238 328/534/238
f 328/534/239 324/544/239 322/541/239
f 321/542/240 322/545/240 324/543/240
