# Blender 4.2.2 LTS
# www.blender.org
mtllib map01_floor.mtl
o 立方体
v -27.000000 -2.200000 46.000000
v -27.000000 -2.200000 46.000000
v -27.000000 -2.200000 46.000000
v -27.000000 0.200000 46.000000
v -27.000000 0.200000 46.000000
v -27.000000 0.200000 46.000000
v -27.000000 -2.200000 -6.000000
v -27.000000 -2.200000 -6.000000
v -27.000000 -2.200000 -6.000000
v -27.000000 0.200000 -6.000000
v -27.000000 0.200000 -6.000000
v -27.000000 0.200000 -6.000000
v 27.000000 -2.200000 46.000000
v 27.000000 -2.200000 46.000000
v 27.000000 -2.200000 46.000000
v 27.000000 0.200000 46.000000
v 27.000000 0.200000 46.000000
v 27.000000 0.200000 46.000000
v 27.000000 -2.200000 -6.000000
v 27.000000 -2.200000 -6.000000
v 27.000000 -2.200000 -6.000000
v 27.000000 0.200000 -6.000000
v 27.000000 0.200000 -6.000000
v 27.000000 0.200000 -6.000000
vn -0.0000 -0.0000 -1.0000
vn -1.0000 -0.0000 -0.0000
vn -0.0000 -0.0000 1.0000
vn -0.0000 1.0000 -0.0000
vn -0.0000 -1.0000 -0.0000
vn 1.0000 -0.0000 -0.0000
vt 3.300002 -2.192308
vt 2.838463 -4.500000
vt 3.300002 -4.500000
vt 2.838463 5.500000
vt 2.376925 -4.500000
vt 3.300002 0.115384
vt 2.838463 -2.192308
vt 3.300002 -2.192308
vt 0.962872 0.000098
vt 0.000098 0.999902
vt 0.000098 0.000098
vt 1.915384 5.500000
vt -0.392308 -4.500000
vt 1.915385 -4.500000
vt -0.392309 5.500000
vt -0.392309 5.500000
vt 2.838463 -2.192308
vt 2.376924 5.500000
vt 2.838463 0.115384
vt 0.962872 0.999902
vt -0.392308 -4.500000
s 0
usemtl マテリアル.005
f 7/1/1 22/2/1 19/3/1
f 3/4/2 12/5/2 9/2/2
f 13/6/3 4/7/3 1/8/3
f 23/9/4 5/10/4 17/11/4
f 8/12/5 14/13/5 2/14/5
f 24/15/6 15/13/6 21/16/6
f 7/1/1 10/17/1 22/2/1
f 3/4/2 6/18/2 12/5/2
f 13/6/3 16/19/3 4/7/3
f 23/9/4 11/20/4 5/10/4
f 8/12/5 20/16/5 14/13/5
f 24/15/6 18/21/6 15/13/6
