# Blender 4.2.2 LTS
# www.blender.org
mtllib map01_stage.mtl
o 立方体.001
v 3.900000 1.500000 11.000000
v 3.900000 1.500000 11.000000
v 3.900000 1.500000 11.000000
v 3.900000 6.000000 11.000000
v 3.900000 6.000000 11.000000
v 3.900000 6.000000 11.000000
v 3.900000 1.500000 5.000000
v 3.900000 1.500000 5.000000
v 3.900000 1.500000 5.000000
v 3.900000 6.000000 5.000000
v 3.900000 6.000000 5.000000
v 3.900000 6.000000 5.000000
v 4.100000 1.500000 11.000000
v 4.100000 1.500000 11.000000
v 4.100000 1.500000 11.000000
v 4.100000 6.000000 11.000000
v 4.100000 6.000000 11.000000
v 4.100000 6.000000 11.000000
v 4.100000 1.500000 5.000000
v 4.100000 1.500000 5.000000
v 4.100000 1.500000 5.000000
v 4.100000 6.000000 5.000000
v 4.100000 6.000000 5.000000
v 4.100000 6.000000 5.000000
vn 1.0000 -0.0000 -0.0000
vn -0.0000 -0.0000 -1.0000
vn -1.0000 -0.0000 -0.0000
vn -0.0000 -0.0000 1.0000
vn -0.0000 1.0000 -0.0000
vn -0.0000 -1.0000 -0.0000
vt 0.375000 0.500000
vt 0.625000 0.750000
vt 0.375000 0.750000
vt 0.375000 0.250000
vt 0.625000 0.500000
vt 0.375000 0.000000
vt 0.625000 0.250000
vt 0.625000 1.000000
vt 0.875000 0.750000
vt 0.125000 0.500000
vt 0.125000 0.750000
vt 0.625000 0.000000
vt 0.375000 1.000000
vt 0.875000 0.500000
s 0
usemtl マテリアル.001
f 21/1/1 18/2/1 15/3/1
f 7/4/2 22/5/2 19/1/2
f 3/6/3 12/7/3 9/4/3
f 4/8/4 13/3/4 16/2/4
f 23/5/5 5/9/5 17/2/5
f 8/10/6 14/3/6 2/11/6
f 21/1/1 24/5/1 18/2/1
f 7/4/2 10/7/2 22/5/2
f 3/6/3 6/12/3 12/7/3
f 4/8/4 1/13/4 13/3/4
f 23/5/5 11/14/5 5/9/5
f 8/10/6 20/1/6 14/3/6
o 立方体.002
v 11.900000 4.000000 21.000000
v 11.900000 4.000000 21.000000
v 11.900000 4.000000 21.000000
v 11.900000 8.000000 21.000000
v 11.900000 8.000000 21.000000
v 11.900000 8.000000 21.000000
v 11.900000 4.000000 13.000000
v 11.900000 4.000000 13.000000
v 11.900000 4.000000 13.000000
v 11.900000 8.000000 13.000000
v 11.900000 8.000000 13.000000
v 11.900000 8.000000 13.000000
v 12.100000 4.000000 21.000000
v 12.100000 4.000000 21.000000
v 12.100000 4.000000 21.000000
v 12.100000 8.000000 21.000000
v 12.100000 8.000000 21.000000
v 12.100000 8.000000 21.000000
v 12.100000 4.000000 13.000000
v 12.100000 4.000000 13.000000
v 12.100000 4.000000 13.000000
v 12.100000 8.000000 13.000000
v 12.100000 8.000000 13.000000
v 12.100000 8.000000 13.000000
vn 1.0000 -0.0000 -0.0000
vn -0.0000 -0.0000 -1.0000
vn -1.0000 -0.0000 -0.0000
vn -0.0000 -0.0000 1.0000
vn -0.0000 1.0000 -0.0000
vn -0.0000 -1.0000 -0.0000
vt 0.375000 0.500000
vt 0.625000 0.750000
vt 0.375000 0.750000
vt 0.375000 0.250000
vt 0.625000 0.500000
vt 0.375000 0.000000
vt 0.625000 0.250000
vt 0.625000 1.000000
vt 0.875000 0.750000
vt 0.125000 0.500000
vt 0.125000 0.750000
vt 0.625000 0.000000
vt 0.375000 1.000000
vt 0.875000 0.500000
s 0
usemtl マテリアル.002
f 45/15/7 42/16/7 39/17/7
f 31/18/8 46/19/8 43/15/8
f 27/20/9 36/21/9 33/18/9
f 28/22/10 37/17/10 40/16/10
f 47/19/11 29/23/11 41/16/11
f 32/24/12 38/17/12 26/25/12
f 45/15/7 48/19/7 42/16/7
f 31/18/8 34/21/8 46/19/8
f 27/20/9 30/26/9 36/21/9
f 28/22/10 25/27/10 37/17/10
f 47/19/11 35/28/11 29/23/11
f 32/24/12 44/15/12 38/17/12
o 立方体.003
v 3.900000 5.500000 29.000000
v 3.900000 5.500000 29.000000
v 3.900000 5.500000 29.000000
v 3.900000 10.000000 29.000000
v 3.900000 10.000000 29.000000
v 3.900000 10.000000 29.000000
v 3.900000 5.500000 21.000000
v 3.900000 5.500000 21.000000
v 3.900000 5.500000 21.000000
v 3.900000 10.000000 21.000000
v 3.900000 10.000000 21.000000
v 3.900000 10.000000 21.000000
v 4.100000 5.500000 29.000000
v 4.100000 5.500000 29.000000
v 4.100000 5.500000 29.000000
v 4.100000 10.000000 29.000000
v 4.100000 10.000000 29.000000
v 4.100000 10.000000 29.000000
v 4.100000 5.500000 21.000000
v 4.100000 5.500000 21.000000
v 4.100000 5.500000 21.000000
v 4.100000 10.000000 21.000000
v 4.100000 10.000000 21.000000
v 4.100000 10.000000 21.000000
vn 1.0000 -0.0000 -0.0000
vn -0.0000 -0.0000 -1.0000
vn -1.0000 -0.0000 -0.0000
vn -0.0000 -0.0000 1.0000
vn -0.0000 1.0000 -0.0000
vn -0.0000 -1.0000 -0.0000
vt 0.375000 0.500000
vt 0.625000 0.750000
vt 0.375000 0.750000
vt 0.375000 0.250000
vt 0.625000 0.500000
vt 0.375000 0.000000
vt 0.625000 0.250000
vt 0.625000 1.000000
vt 0.875000 0.750000
vt 0.125000 0.500000
vt 0.125000 0.750000
vt 0.625000 0.000000
vt 0.375000 1.000000
vt 0.875000 0.500000
s 0
usemtl マテリアル.003
f 69/29/13 66/30/13 63/31/13
f 55/32/14 70/33/14 67/29/14
f 51/34/15 60/35/15 57/32/15
f 52/36/16 61/31/16 64/30/16
f 71/33/17 53/37/17 65/30/17
f 56/38/18 62/31/18 50/39/18
f 69/29/13 72/33/13 66/30/13
f 55/32/14 58/35/14 70/33/14
f 51/34/15 54/40/15 60/35/15
f 52/36/16 49/41/16 61/31/16
f 71/33/17 59/42/17 53/37/17
f 56/38/18 68/29/18 62/31/18
o 立方体.004
v 11.900000 8.000000 37.000000
v 11.900000 8.000000 37.000000
v 11.900000 8.000000 37.000000
v 11.900000 12.000000 37.000000
v 11.900000 12.000000 37.000000
v 11.900000 12.000000 37.000000
v 11.900000 8.000000 29.000000
v 11.900000 8.000000 29.000000
v 11.900000 8.000000 29.000000
v 11.900000 12.000000 29.000000
v 11.900000 12.000000 29.000000
v 11.900000 12.000000 29.000000
v 12.100000 8.000000 37.000000
v 12.100000 8.000000 37.000000
v 12.100000 8.000000 37.000000
v 12.100000 12.000000 37.000000
v 12.100000 12.000000 37.000000
v 12.100000 12.000000 37.000000
v 12.100000 8.000000 29.000000
v 12.100000 8.000000 29.000000
v 12.100000 8.000000 29.000000
v 12.100000 12.000000 29.000000
v 12.100000 12.000000 29.000000
v 12.100000 12.000000 29.000000
vn 1.0000 -0.0000 -0.0000
vn -0.0000 -0.0000 -1.0000
vn -1.0000 -0.0000 -0.0000
vn -0.0000 -0.0000 1.0000
vn -0.0000 1.0000 -0.0000
vn -0.0000 -1.0000 -0.0000
vt 0.375000 0.500000
vt 0.625000 0.750000
vt 0.375000 0.750000
vt 0.375000 0.250000
vt 0.625000 0.500000
vt 0.375000 0.000000
vt 0.625000 0.250000
vt 0.625000 1.000000
vt 0.875000 0.750000
vt 0.125000 0.500000
vt 0.125000 0.750000
vt 0.625000 0.000000
vt 0.375000 1.000000
vt 0.875000 0.500000
s 0
usemtl マテリアル.001
f 93/43/19 90/44/19 87/45/19
f 79/46/20 94/47/20 91/43/20
f 75/48/21 84/49/21 81/46/21
f 76/50/22 85/45/22 88/44/22
f 95/47/23 77/51/23 89/44/23
f 80/52/24 86/45/24 74/53/24
f 93/43/19 96/47/19 90/44/19
f 79/46/20 82/49/20 94/47/20
f 75/48/21 78/54/21 84/49/21
f 76/50/22 73/55/22 85/45/22
f 95/47/23 83/56/23 77/51/23
f 80/52/24 92/43/24 86/45/24
o 立方体.005
v -27.000000 -1.000000 58.000000
v -27.000000 -1.000000 58.000000
v -27.000000 -1.000000 58.000000
v -27.000000 10.000000 58.000000
v -27.000000 10.000000 58.000000
v -27.000000 10.000000 58.000000
v -27.000000 -1.000000 46.000000
v -27.000000 -1.000000 46.000000
v -27.000000 -1.000000 46.000000
v -27.000000 10.000000 46.000000
v -27.000000 10.000000 46.000000
v -27.000000 10.000000 46.000000
v 27.000000 -1.000000 58.000000
v 27.000000 -1.000000 58.000000
v 27.000000 -1.000000 58.000000
v 27.000000 10.000000 58.000000
v 27.000000 10.000000 58.000000
v 27.000000 10.000000 58.000000
v 27.000000 -1.000000 46.000000
v 27.000000 -1.000000 46.000000
v 27.000000 -1.000000 46.000000
v 27.000000 10.000000 46.000000
v 27.000000 10.000000 46.000000
v 27.000000 10.000000 46.000000
vn -0.0000 1.0000 -0.0000
vn -1.0000 -0.0000 -0.0000
vn -0.0000 -0.0000 -1.0000
vn -0.0000 -0.0000 1.0000
vn 1.0000 -0.0000 -0.0000
vn -0.0000 -1.0000 -0.0000
vt 0.210718 0.000215
vt 0.420793 0.945549
vt 0.210718 0.945549
vt 0.999785 0.210718
vt 0.807217 0.420793
vt 0.807217 0.210718
vt 0.421222 0.945549
vt 0.613790 0.000215
vt 0.613790 0.945549
vt 0.614220 0.945549
vt 0.806788 0.000215
vt 0.806788 0.945549
vt 0.999785 0.000215
vt 0.807217 0.210289
vt 0.807217 0.000215
vt 0.210289 0.945549
vt 0.000215 0.000215
vt 0.210289 0.000215
vt 0.420793 0.000215
vt 0.999785 0.420793
vt 0.421222 0.000215
vt 0.614220 0.000215
vt 0.999785 0.210289
vt 0.000215 0.945549
s 0
usemtl マテリアル
f 113/57/25 107/58/25 101/59/25
f 105/60/26 102/61/26 108/62/26
f 115/63/27 106/64/27 118/65/27
f 97/66/28 112/67/28 100/68/28
f 111/69/29 120/70/29 114/71/29
f 98/72/30 116/73/30 110/74/30
f 113/57/25 119/75/25 107/58/25
f 105/60/26 99/76/26 102/61/26
f 115/63/27 103/77/27 106/64/27
f 97/66/28 109/78/28 112/67/28
f 111/69/29 117/79/29 120/70/29
f 98/72/30 104/80/30 116/73/30
o 立方体.006
v -26.000000 -1.000000 18.000000
v -26.000000 -1.000000 18.000000
v -26.000000 -1.000000 18.000000
v -26.000000 10.000000 18.000000
v -26.000000 10.000000 18.000000
v -26.000000 10.000000 18.000000
v -26.000000 -1.000000 6.000000
v -26.000000 -1.000000 6.000000
v -26.000000 -1.000000 6.000000
v -26.000000 10.000000 6.000000
v -26.000000 10.000000 6.000000
v -26.000000 10.000000 6.000000
v -14.000000 -1.000000 18.000000
v -14.000000 -1.000000 18.000000
v -14.000000 -1.000000 18.000000
v -14.000000 10.000000 18.000000
v -14.000000 10.000000 18.000000
v -14.000000 10.000000 18.000000
v -14.000000 -1.000000 6.000000
v -14.000000 -1.000000 6.000000
v -14.000000 -1.000000 6.000000
v -14.000000 10.000000 6.000000
v -14.000000 10.000000 6.000000
v -14.000000 10.000000 6.000000
vn -0.0000 1.0000 -0.0000
vn -1.0000 -0.0000 -0.0000
vn -0.0000 -0.0000 -1.0000
vn -0.0000 -0.0000 1.0000
vn 1.0000 -0.0000 -0.0000
vn -0.0000 -1.0000 -0.0000
vt 0.625000 0.750000
vt 0.875000 0.500000
vt 0.875000 0.750000
vt 0.375000 0.250000
vt 0.625000 0.000000
vt 0.625000 0.250000
vt 0.375000 0.500000
vt 0.625000 0.500000
vt 0.375000 1.000000
vt 0.375000 0.750000
vt 0.125000 0.750000
vt 0.375000 0.000000
vt 0.625000 1.000000
vt 0.125000 0.500000
s 0
usemtl マテリアル.001
f 137/81/31 131/82/31 125/83/31
f 129/84/32 126/85/32 132/86/32
f 139/87/33 130/86/33 142/88/33
f 136/81/34 121/89/34 133/90/34
f 144/88/35 135/90/35 141/87/35
f 122/91/36 140/87/36 134/90/36
f 137/81/31 143/88/31 131/82/31
f 129/84/32 123/92/32 126/85/32
f 139/87/33 127/84/33 130/86/33
f 136/81/34 124/93/34 121/89/34
f 144/88/35 138/81/35 135/90/35
f 122/91/36 128/94/36 140/87/36
o 立方体.007
v -26.199999 10.000000 46.000000
v -26.199999 10.000000 46.000000
v -26.199999 10.000000 46.000000
v -26.199999 20.000000 46.000000
v -26.199999 20.000000 46.000000
v -26.199999 20.000000 46.000000
v -26.199999 10.000000 18.000000
v -26.199999 10.000000 18.000000
v -26.199999 10.000000 18.000000
v -26.199999 20.000000 18.000000
v -26.199999 20.000000 18.000000
v -26.199999 20.000000 18.000000
v -25.999998 10.000000 46.000000
v -25.999998 10.000000 46.000000
v -25.999998 10.000000 46.000000
v -25.999998 20.000000 46.000000
v -25.999998 20.000000 46.000000
v -25.999998 20.000000 46.000000
v -25.999998 10.000000 18.000000
v -25.999998 10.000000 18.000000
v -25.999998 10.000000 18.000000
v -25.999998 20.000000 18.000000
v -25.999998 20.000000 18.000000
v -25.999998 20.000000 18.000000
vn 1.0000 -0.0000 -0.0000
vn -0.0000 -0.0000 1.0000
vn -0.0000 -1.0000 -0.0000
vn -0.0000 1.0000 -0.0000
vn -1.0000 -0.0000 -0.0000
vn -0.0000 -0.0000 -1.0000
vt 0.625000 0.750000
vt 0.375000 0.500000
vt 0.625000 0.500000
vt 0.625000 1.000000
vt 0.375000 0.750000
vt 0.125000 0.500000
vt 0.875000 0.750000
vt 0.875000 0.500000
vt 0.625000 0.250000
vt 0.375000 0.000000
vt 0.625000 0.000000
vt 0.375000 0.250000
vt 0.375000 1.000000
vt 0.125000 0.750000
s 0
usemtl マテリアル.001
f 162/95/37 165/96/37 168/97/37
f 148/98/38 157/99/38 160/95/38
f 158/99/39 152/100/39 164/96/39
f 149/101/40 167/97/40 155/102/40
f 156/103/41 147/104/41 150/105/41
f 166/97/42 151/106/42 154/103/42
f 162/95/37 159/99/37 165/96/37
f 148/98/38 145/107/38 157/99/38
f 158/99/39 146/108/39 152/100/39
f 149/101/40 161/95/40 167/97/40
f 156/103/41 153/106/41 147/104/41
f 166/97/42 163/96/42 151/106/42
o 立方体.008
v -27.000000 0.200000 -6.000000
v -27.000000 0.200000 -6.000000
v -27.000000 0.200000 -6.000000
v -27.000000 32.200001 -6.000000
v -27.000000 32.200001 -6.000000
v -27.000000 32.200001 -6.000000
v -27.000000 0.200000 -6.400000
v -27.000000 0.200000 -6.400000
v -27.000000 0.200000 -6.400000
v -27.000000 32.200001 -6.400000
v -27.000000 32.200001 -6.400000
v -27.000000 32.200001 -6.400000
v 27.000000 0.200000 -6.000000
v 27.000000 0.200000 -6.000000
v 27.000000 0.200000 -6.000000
v 27.000000 32.200001 -6.000000
v 27.000000 32.200001 -6.000000
v 27.000000 32.200001 -6.000000
v 27.000000 0.200000 -6.400000
v 27.000000 0.200000 -6.400000
v 27.000000 0.200000 -6.400000
v 27.000000 32.200001 -6.400000
v 27.000000 32.200001 -6.400000
v 27.000000 32.200001 -6.400000
vn -1.0000 -0.0000 -0.0000
vn -0.0000 -0.0000 -1.0000
vn 1.0000 -0.0000 -0.0000
vn -0.0000 -0.0000 1.0000
vn -0.0000 -1.0000 -0.0000
vn -0.0000 1.0000 -0.0000
vt 0.625000 0.000000
vt 0.375000 0.250000
vt 0.375000 0.000000
vt 0.625000 0.250000
vt 0.375000 0.500000
vt 0.625000 0.500000
vt 0.375000 0.750000
vt 0.625000 0.750000
vt 0.375000 1.000000
vt 0.125000 0.750000
vt 0.125000 0.500000
vt 0.875000 0.500000
vt 0.625000 1.000000
vt 0.875000 0.750000
s 0
usemtl マテリアル.001
f 174/109/43 177/110/43 171/111/43
f 178/112/44 187/113/44 175/110/44
f 192/114/45 183/115/45 189/113/45
f 184/116/46 169/117/46 181/115/46
f 188/113/47 170/118/47 176/119/47
f 179/120/48 185/116/48 191/114/48
f 174/109/43 180/112/43 177/110/43
f 178/112/44 190/114/44 187/113/44
f 192/114/45 186/116/45 183/115/45
f 184/116/46 172/121/46 169/117/46
f 188/113/47 182/115/47 170/118/47
f 179/120/48 173/122/48 185/116/48
o 立方体.009
v -27.000000 0.200000 58.400002
v -27.000000 0.200000 58.400002
v -27.000000 0.200000 58.400002
v -27.000000 32.200001 58.400002
v -27.000000 32.200001 58.400002
v -27.000000 32.200001 58.400002
v -27.000000 0.200000 58.000000
v -27.000000 0.200000 58.000000
v -27.000000 0.200000 58.000000
v -27.000000 32.200001 58.000000
v -27.000000 32.200001 58.000000
v -27.000000 32.200001 58.000000
v 27.000000 0.200000 58.400002
v 27.000000 0.200000 58.400002
v 27.000000 0.200000 58.400002
v 27.000000 32.200001 58.400002
v 27.000000 32.200001 58.400002
v 27.000000 32.200001 58.400002
v 27.000000 0.200000 58.000000
v 27.000000 0.200000 58.000000
v 27.000000 0.200000 58.000000
v 27.000000 32.200001 58.000000
v 27.000000 32.200001 58.000000
v 27.000000 32.200001 58.000000
vn -1.0000 -0.0000 -0.0000
vn -0.0000 -0.0000 -1.0000
vn 1.0000 -0.0000 -0.0000
vn -0.0000 -0.0000 1.0000
vn -0.0000 -1.0000 -0.0000
vn -0.0000 1.0000 -0.0000
vt 0.625000 0.000000
vt 0.375000 0.250000
vt 0.375000 0.000000
vt 0.625000 0.250000
vt 0.375000 0.500000
vt 0.625000 0.500000
vt 0.375000 0.750000
vt 0.625000 0.750000
vt 0.375000 1.000000
vt 0.125000 0.750000
vt 0.125000 0.500000
vt 0.875000 0.500000
vt 0.625000 1.000000
vt 0.875000 0.750000
s 0
usemtl マテリアル.001
f 198/123/49 201/124/49 195/125/49
f 202/126/50 211/127/50 199/124/50
f 216/128/51 207/129/51 213/127/51
f 208/130/52 193/131/52 205/129/52
f 212/127/53 194/132/53 200/133/53
f 203/134/54 209/130/54 215/128/54
f 198/123/49 204/126/49 201/124/49
f 202/126/50 214/128/50 211/127/50
f 216/128/51 210/130/51 207/129/51
f 208/130/52 196/135/52 193/131/52
f 212/127/53 206/129/53 194/132/53
f 203/134/54 197/136/54 209/130/54
o 立方体.010
v -26.999996 0.200000 58.000000
v -26.999996 0.200000 58.000000
v -26.999996 0.200000 58.000000
v -26.999996 32.200001 58.000000
v -26.999996 32.200001 58.000000
v -26.999996 32.200001 58.000000
v -27.399996 0.200000 58.000000
v -27.399996 0.200000 58.000000
v -27.399996 0.200000 58.000000
v -27.399996 32.200001 58.000000
v -27.399996 32.200001 58.000000
v -27.399996 32.200001 58.000000
v -26.999998 0.200000 -6.000000
v -26.999998 0.200000 -6.000000
v -26.999998 0.200000 -6.000000
v -26.999998 32.200001 -6.000000
v -26.999998 32.200001 -6.000000
v -26.999998 32.200001 -6.000000
v -27.399998 0.200000 -6.000000
v -27.399998 0.200000 -6.000000
v -27.399998 0.200000 -6.000000
v -27.399998 32.200001 -6.000000
v -27.399998 32.200001 -6.000000
v -27.399998 32.200001 -6.000000
vn -0.0000 -0.0000 1.0000
vn -1.0000 -0.0000 -0.0000
vn -0.0000 -0.0000 -1.0000
vn 1.0000 -0.0000 -0.0000
vn -0.0000 -1.0000 -0.0000
vn -0.0000 1.0000 -0.0000
vt 0.500000 0.000087
vt 0.250043 0.250043
vt 0.250043 0.000087
vt 0.500000 0.250043
vt 0.250043 0.500000
vt 0.500000 0.500000
vt 0.250043 0.749957
vt 0.500000 0.749957
vt 0.250043 0.999913
vt 0.000087 0.749957
vt 0.000087 0.500000
vt 0.749957 0.500000
vt 0.500000 0.999913
vt 0.749957 0.749957
s 0
usemtl マテリアル.001
f 220/137/55 223/138/55 217/139/55
f 228/140/56 237/141/56 225/138/56
f 238/142/57 229/143/57 235/141/57
f 234/144/58 219/145/58 231/143/58
f 236/141/59 218/146/59 224/147/59
f 227/148/60 233/144/60 239/142/60
f 220/137/55 226/140/55 223/138/55
f 228/140/56 240/142/56 237/141/56
f 238/142/57 232/144/57 229/143/57
f 234/144/58 222/149/58 219/145/58
f 236/141/59 230/143/59 218/146/59
f 227/148/60 221/150/60 233/144/60
o 立方体.011
v 27.400002 0.200000 58.000000
v 27.400002 0.200000 58.000000
v 27.400002 0.200000 58.000000
v 27.400002 32.200001 58.000000
v 27.400002 32.200001 58.000000
v 27.400002 32.200001 58.000000
v 27.000002 0.200000 58.000000
v 27.000002 0.200000 58.000000
v 27.000002 0.200000 58.000000
v 27.000002 32.200001 58.000000
v 27.000002 32.200001 58.000000
v 27.000002 32.200001 58.000000
v 27.400000 0.200000 -6.000000
v 27.400000 0.200000 -6.000000
v 27.400000 0.200000 -6.000000
v 27.400000 32.200001 -6.000000
v 27.400000 32.200001 -6.000000
v 27.400000 32.200001 -6.000000
v 27.000000 0.200000 -6.000000
v 27.000000 0.200000 -6.000000
v 27.000000 0.200000 -6.000000
v 27.000000 32.200001 -6.000000
v 27.000000 32.200001 -6.000000
v 27.000000 32.200001 -6.000000
vn -0.0000 -0.0000 1.0000
vn -1.0000 -0.0000 -0.0000
vn -0.0000 -0.0000 -1.0000
vn 1.0000 -0.0000 -0.0000
vn -0.0000 -1.0000 -0.0000
vn -0.0000 1.0000 -0.0000
vt 0.625000 0.000000
vt 0.375000 0.250000
vt 0.375000 0.000000
vt 0.625000 0.250000
vt 0.375000 0.500000
vt 0.625000 0.500000
vt 0.375000 0.750000
vt 0.625000 0.750000
vt 0.375000 1.000000
vt 0.125000 0.750000
vt 0.125000 0.500000
vt 0.875000 0.500000
vt 0.625000 1.000000
vt 0.875000 0.750000
s 0
usemtl マテリアル.001
f 244/151/61 247/152/61 241/153/61
f 252/154/62 261/155/62 249/152/62
f 262/156/63 253/157/63 259/155/63
f 258/158/64 243/159/64 255/157/64
f 260/155/65 242/160/65 248/161/65
f 251/162/66 257/158/66 263/156/66
f 244/151/61 250/154/61 247/152/61
f 252/154/62 264/156/62 261/155/62
f 262/156/63 256/158/63 253/157/63
f 258/158/64 246/163/64 243/159/64
f 260/155/65 254/157/65 242/160/65
f 251/162/66 245/164/66 257/158/66
