# Blender 4.2.2 LTS
# www.blender.org
mtllib map01.mtl
o 立方体
v -26.999939 -2.199992 46.000031
v -26.999939 -2.199992 46.000031
v -26.999939 -2.199992 46.000031
v -26.999939 0.200006 46.000031
v -26.999939 0.200006 46.000031
v -26.999939 0.200006 46.000031
v -27.000008 -2.200001 -5.999964
v -27.000008 -2.200001 -5.999964
v -27.000008 -2.200001 -5.999964
v -27.000008 0.200000 -5.999964
v -27.000008 0.200000 -5.999964
v -27.000008 0.200000 -5.999964
v 27.000061 -2.199992 45.999969
v 27.000061 -2.199992 45.999969
v 27.000061 -2.199992 45.999969
v 27.000061 0.200006 45.999969
v 27.000061 0.200006 45.999969
v 27.000061 0.200006 45.999969
v 26.999992 -2.200001 -6.000036
v 26.999992 -2.200001 -6.000036
v 26.999992 -2.200001 -6.000036
v 26.999992 0.200000 -6.000036
v 26.999992 0.200000 -6.000036
v 26.999992 0.200000 -6.000036
vn -0.0000 -0.0000 -1.0000
vn -1.0000 -0.0000 -0.0000
vn -0.0000 -0.0000 1.0000
vn -0.0000 1.0000 -0.0000
vn -0.0000 -1.0000 -0.0000
vn 1.0000 -0.0000 -0.0000
vt 3.300002 -2.192308
vt 2.838463 -4.500000
vt 3.300002 -4.500000
vt 2.838463 5.500000
vt 2.376925 -4.500000
vt 3.300002 0.115384
vt 2.838463 -2.192308
vt 0.962872 0.000098
vt 0.000098 0.999902
vt 0.000098 0.000098
vt 1.915384 5.500000
vt -0.392308 -4.500000
vt 1.915385 -4.500000
vt -0.392309 5.500000
vt 2.376924 5.500000
vt 2.838463 0.115384
vt 0.962872 0.999902
s 0
usemtl マテリアル.004
f 7/1/1 22/2/1 19/3/1
f 3/4/2 12/5/2 9/2/2
f 13/6/3 4/7/3 1/1/3
f 23/8/4 5/9/4 17/10/4
f 8/11/5 14/12/5 2/13/5
f 24/14/6 15/12/6 21/14/6
f 7/1/1 10/7/1 22/2/1
f 3/4/2 6/15/2 12/5/2
f 13/6/3 16/16/3 4/7/3
f 23/8/4 11/17/4 5/9/4
f 8/11/5 20/14/5 14/12/5
f 24/14/6 18/12/6 15/12/6
o 立方体.001
v 3.900015 1.500002 10.999996
v 3.900015 1.500002 10.999996
v 3.900015 1.500002 10.999996
v 3.900015 6.000002 10.999993
v 3.900015 6.000002 10.999993
v 3.900015 6.000002 10.999993
v 3.900008 1.500000 4.999996
v 3.900008 1.500000 4.999996
v 3.900008 1.500000 4.999996
v 3.900008 6.000000 4.999993
v 3.900008 6.000000 4.999993
v 3.900008 6.000000 4.999993
v 4.100016 1.500002 10.999993
v 4.100016 1.500002 10.999993
v 4.100016 1.500002 10.999993
v 4.100016 6.000002 10.999993
v 4.100016 6.000002 10.999993
v 4.100016 6.000002 10.999993
v 4.100004 1.500000 4.999996
v 4.100004 1.500000 4.999996
v 4.100004 1.500000 4.999996
v 4.100004 6.000000 4.999993
v 4.100004 6.000000 4.999993
v 4.100004 6.000000 4.999993
vn 1.0000 -0.0000 -0.0000
vn -0.0000 -0.0000 -1.0000
vn -1.0000 -0.0000 -0.0000
vn -0.0000 -0.0000 1.0000
vn -0.0000 1.0000 -0.0000
vn -0.0000 -1.0000 -0.0000
vt 0.375000 0.500000
vt 0.625000 0.750000
vt 0.375000 0.750000
vt 0.375000 0.250000
vt 0.625000 0.500000
vt 0.375000 0.000000
vt 0.625000 0.250000
vt 0.625000 1.000000
vt 0.875000 0.750000
vt 0.125000 0.500000
vt 0.125000 0.750000
vt 0.625000 0.000000
vt 0.375000 1.000000
vt 0.875000 0.500000
s 0
usemtl マテリアル.006
f 45/18/7 42/19/7 39/20/7
f 31/21/8 46/22/8 43/18/8
f 27/23/9 36/24/9 33/21/9
f 28/25/10 37/20/10 40/19/10
f 47/22/11 29/26/11 41/19/11
f 32/27/12 38/20/12 26/28/12
f 45/18/7 48/22/7 42/19/7
f 31/21/8 34/24/8 46/22/8
f 27/23/9 30/29/9 36/24/9
f 28/25/10 25/30/10 37/20/10
f 47/22/11 35/31/11 29/26/11
f 32/27/12 44/18/12 38/20/12
o 立方体.002
v 11.900026 4.000001 20.999985
v 11.900026 4.000001 20.999985
v 11.900026 4.000001 20.999985
v 11.900026 8.000004 20.999985
v 11.900026 8.000004 20.999985
v 11.900026 8.000004 20.999985
v 11.900015 4.000002 12.999985
v 11.900015 4.000002 12.999985
v 11.900015 4.000002 12.999985
v 11.900015 8.000002 12.999983
v 11.900015 8.000002 12.999983
v 11.900015 8.000002 12.999983
v 12.100027 4.000001 20.999985
v 12.100027 4.000001 20.999985
v 12.100027 4.000001 20.999985
v 12.100027 8.000004 20.999985
v 12.100027 8.000004 20.999985
v 12.100027 8.000004 20.999985
v 12.100016 4.000002 12.999985
v 12.100016 4.000002 12.999985
v 12.100016 4.000002 12.999985
v 12.100016 8.000002 12.999982
v 12.100016 8.000002 12.999982
v 12.100016 8.000002 12.999982
vn 1.0000 -0.0000 -0.0000
vn -0.0000 -0.0000 -1.0000
vn -1.0000 -0.0000 -0.0000
vn -0.0000 -0.0000 1.0000
vn -0.0000 1.0000 -0.0000
vn -0.0000 -1.0000 -0.0000
vt 0.375000 0.500000
vt 0.625000 0.750000
vt 0.375000 0.750000
vt 0.375000 0.250000
vt 0.625000 0.500000
vt 0.375000 0.000000
vt 0.625000 0.250000
vt 0.625000 1.000000
vt 0.875000 0.750000
vt 0.125000 0.500000
vt 0.125000 0.750000
vt 0.625000 0.000000
vt 0.375000 1.000000
vt 0.875000 0.500000
s 0
usemtl マテリアル.007
f 69/32/13 66/33/13 63/34/13
f 55/35/14 70/36/14 67/32/14
f 51/37/15 60/38/15 57/35/15
f 52/39/16 61/34/16 64/33/16
f 71/36/17 53/40/17 65/33/17
f 56/41/18 62/34/18 50/42/18
f 69/32/13 72/36/13 66/33/13
f 55/35/14 58/38/14 70/36/14
f 51/37/15 54/43/15 60/38/15
f 52/39/16 49/44/16 61/34/16
f 71/36/17 59/45/17 53/40/17
f 56/41/18 68/32/18 62/34/18
o 立方体.003
v 3.900038 5.500004 28.999994
v 3.900038 5.500004 28.999994
v 3.900038 5.500004 28.999994
v 3.900038 10.000004 28.999994
v 3.900038 10.000004 28.999994
v 3.900038 10.000004 28.999994
v 3.900028 5.500002 20.999994
v 3.900028 5.500002 20.999994
v 3.900028 5.500002 20.999994
v 3.900028 10.000004 20.999994
v 3.900028 10.000004 20.999994
v 3.900028 10.000004 20.999994
v 4.100039 5.500004 28.999994
v 4.100039 5.500004 28.999994
v 4.100039 5.500004 28.999994
v 4.100039 10.000004 28.999994
v 4.100039 10.000004 28.999994
v 4.100039 10.000004 28.999994
v 4.100028 5.500002 20.999994
v 4.100028 5.500002 20.999994
v 4.100028 5.500002 20.999994
v 4.100028 10.000004 20.999994
v 4.100028 10.000004 20.999994
v 4.100028 10.000004 20.999994
vn 1.0000 -0.0000 -0.0000
vn -0.0000 -0.0000 -1.0000
vn -1.0000 -0.0000 -0.0000
vn -0.0000 -0.0000 1.0000
vn -0.0000 1.0000 -0.0000
vn -0.0000 -1.0000 -0.0000
vt 0.375000 0.500000
vt 0.625000 0.750000
vt 0.375000 0.750000
vt 0.375000 0.250000
vt 0.625000 0.500000
vt 0.375000 0.000000
vt 0.625000 0.250000
vt 0.625000 1.000000
vt 0.875000 0.750000
vt 0.125000 0.500000
vt 0.125000 0.750000
vt 0.625000 0.000000
vt 0.375000 1.000000
vt 0.875000 0.500000
s 0
usemtl マテリアル.008
f 93/46/19 90/47/19 87/48/19
f 79/49/20 94/50/20 91/46/20
f 75/51/21 84/52/21 81/49/21
f 76/53/22 85/48/22 88/47/22
f 95/50/23 77/54/23 89/47/23
f 80/55/24 86/48/24 74/56/24
f 93/46/19 96/50/19 90/47/19
f 79/49/20 82/52/20 94/50/20
f 75/51/21 78/57/21 84/52/21
f 76/53/22 73/58/22 85/48/22
f 95/50/23 83/59/23 77/54/23
f 80/55/24 92/46/24 86/48/24
o 立方体.004
v 11.900049 8.000006 36.999985
v 11.900049 8.000006 36.999985
v 11.900049 8.000006 36.999985
v 11.900049 12.000006 36.999985
v 11.900049 12.000006 36.999985
v 11.900049 12.000006 36.999985
v 11.900038 8.000004 28.999985
v 11.900038 8.000004 28.999985
v 11.900038 8.000004 28.999985
v 11.900038 12.000004 28.999979
v 11.900038 12.000004 28.999979
v 11.900038 12.000004 28.999979
v 12.100050 8.000006 36.999985
v 12.100050 8.000006 36.999985
v 12.100050 8.000006 36.999985
v 12.100050 12.000006 36.999985
v 12.100050 12.000006 36.999985
v 12.100050 12.000006 36.999985
v 12.100039 8.000004 28.999985
v 12.100039 8.000004 28.999985
v 12.100039 8.000004 28.999985
v 12.100039 12.000004 28.999979
v 12.100039 12.000004 28.999979
v 12.100039 12.000004 28.999979
vn 1.0000 -0.0000 -0.0000
vn -0.0000 -0.0000 -1.0000
vn -1.0000 -0.0000 -0.0000
vn -0.0000 -0.0000 1.0000
vn -0.0000 1.0000 -0.0000
vn -0.0000 -1.0000 -0.0000
vt 0.375000 0.500000
vt 0.625000 0.750000
vt 0.375000 0.750000
vt 0.375000 0.250000
vt 0.625000 0.500000
vt 0.375000 0.000000
vt 0.625000 0.250000
vt 0.625000 1.000000
vt 0.875000 0.750000
vt 0.125000 0.500000
vt 0.125000 0.750000
vt 0.625000 0.000000
vt 0.375000 1.000000
vt 0.875000 0.500000
s 0
usemtl マテリアル.006
f 117/60/25 114/61/25 111/62/25
f 103/63/26 118/64/26 115/60/26
f 99/65/27 108/66/27 105/63/27
f 100/67/28 109/62/28 112/61/28
f 119/64/29 101/68/29 113/61/29
f 104/69/30 110/62/30 98/70/30
f 117/60/25 120/64/25 114/61/25
f 103/63/26 106/66/26 118/64/26
f 99/65/27 102/71/27 108/66/27
f 100/67/28 97/72/28 109/62/28
f 119/64/29 107/73/29 101/68/29
f 104/69/30 116/60/30 110/62/30
o 立方体.005
v -26.999924 -0.999992 58.000031
v -26.999924 -0.999992 58.000031
v -26.999924 -0.999992 58.000031
v -26.999924 10.000010 58.000034
v -26.999924 10.000010 58.000034
v -26.999924 10.000010 58.000034
v -26.999939 -0.999994 46.000031
v -26.999939 -0.999994 46.000031
v -26.999939 -0.999994 46.000031
v -26.999939 10.000008 46.000034
v -26.999939 10.000008 46.000034
v -26.999939 10.000008 46.000034
v 27.000076 -0.999992 57.999969
v 27.000076 -0.999992 57.999969
v 27.000076 -0.999992 57.999969
v 27.000076 10.000010 57.999958
v 27.000076 10.000010 57.999958
v 27.000076 10.000010 57.999958
v 27.000061 -0.999994 45.999969
v 27.000061 -0.999994 45.999969
v 27.000061 -0.999994 45.999969
v 27.000061 10.000008 45.999958
v 27.000061 10.000008 45.999958
v 27.000061 10.000008 45.999958
vn -0.0000 1.0000 -0.0000
vn -1.0000 -0.0000 -0.0000
vn -0.0000 -0.0000 -1.0000
vn -0.0000 -0.0000 1.0000
vn 1.0000 -0.0000 -0.0000
vn -0.0000 -1.0000 -0.0000
vt 0.210718 0.000215
vt 0.420793 0.945549
vt 0.210718 0.945549
vt 0.999785 0.210718
vt 0.807217 0.420793
vt 0.807217 0.210718
vt 0.421222 0.945549
vt 0.613790 0.000215
vt 0.613790 0.945549
vt 0.614220 0.945549
vt 0.806788 0.000215
vt 0.806788 0.945549
vt 0.999785 0.000215
vt 0.807217 0.210289
vt 0.807217 0.000215
vt 0.210289 0.945549
vt 0.000215 0.000215
vt 0.210289 0.000215
vt 0.420793 0.000215
vt 0.999785 0.420793
vt 0.421222 0.000215
vt 0.614220 0.000215
vt 0.999785 0.210289
vt 0.000215 0.945549
s 0
usemtl マテリアル.009
f 137/74/31 131/75/31 125/76/31
f 129/77/32 126/78/32 132/79/32
f 139/80/33 130/81/33 142/82/33
f 121/83/34 136/84/34 124/85/34
f 135/86/35 144/87/35 138/88/35
f 122/89/36 140/90/36 134/91/36
f 137/74/31 143/92/31 131/75/31
f 129/77/32 123/93/32 126/78/32
f 139/80/33 127/94/33 130/81/33
f 121/83/34 133/95/34 136/84/34
f 135/86/35 141/96/35 144/87/35
f 122/89/36 128/97/36 140/90/36
o 立方体.006
v -25.999977 -0.999998 18.000031
v -25.999977 -0.999998 18.000031
v -25.999977 -0.999998 18.000031
v -25.999977 10.000002 18.000032
v -25.999977 10.000002 18.000032
v -25.999977 10.000002 18.000032
v -25.999992 -1.000000 6.000036
v -25.999992 -1.000000 6.000036
v -25.999992 -1.000000 6.000036
v -25.999992 10.000000 6.000032
v -25.999992 10.000000 6.000032
v -25.999992 10.000000 6.000032
v -13.999977 -0.999998 18.000015
v -13.999977 -0.999998 18.000015
v -13.999977 -0.999998 18.000015
v -13.999977 10.000002 18.000017
v -13.999977 10.000002 18.000017
v -13.999977 10.000002 18.000017
v -13.999992 -1.000000 6.000019
v -13.999992 -1.000000 6.000019
v -13.999992 -1.000000 6.000019
v -13.999992 10.000000 6.000017
v -13.999992 10.000000 6.000017
v -13.999992 10.000000 6.000017
vn -0.0000 1.0000 -0.0000
vn -1.0000 -0.0000 -0.0000
vn -0.0000 -0.0000 -1.0000
vn -0.0000 -0.0000 1.0000
vn 1.0000 -0.0000 -0.0000
vn -0.0000 -1.0000 -0.0000
vt 0.625000 0.750000
vt 0.875000 0.500000
vt 0.875000 0.750000
vt 0.375000 0.250000
vt 0.625000 0.000000
vt 0.625000 0.250000
vt 0.375000 0.500000
vt 0.625000 0.500000
vt 0.375000 1.000000
vt 0.375000 0.750000
vt 0.125000 0.750000
vt 0.375000 0.000000
vt 0.625000 1.000000
vt 0.125000 0.500000
s 0
usemtl マテリアル.006
f 161/98/37 155/99/37 149/100/37
f 153/101/38 150/102/38 156/103/38
f 163/104/39 154/103/39 166/105/39
f 160/98/40 145/106/40 157/107/40
f 168/105/41 159/107/41 165/104/41
f 146/108/42 164/104/42 158/107/42
f 161/98/37 167/105/37 155/99/37
f 153/101/38 147/109/38 150/102/38
f 163/104/39 151/101/39 154/103/39
f 160/98/40 148/110/40 145/106/40
f 168/105/41 162/98/41 159/107/41
f 146/108/42 152/111/42 164/104/42
o 立方体.007
v -26.199938 10.000008 46.000031
v -26.199938 10.000008 46.000031
v -26.199938 10.000008 46.000031
v -26.199938 20.000008 46.000034
v -26.199938 20.000008 46.000034
v -26.199938 20.000008 46.000034
v -26.199976 10.000002 18.000032
v -26.199976 10.000002 18.000032
v -26.199976 10.000002 18.000032
v -26.199976 20.000004 18.000032
v -26.199976 20.000004 18.000032
v -26.199976 20.000004 18.000032
v -25.999937 10.000008 46.000031
v -25.999937 10.000008 46.000031
v -25.999937 10.000008 46.000031
v -25.999937 20.000008 46.000034
v -25.999937 20.000008 46.000034
v -25.999937 20.000008 46.000034
v -25.999975 10.000002 18.000032
v -25.999975 10.000002 18.000032
v -25.999975 10.000002 18.000032
v -25.999975 20.000004 18.000032
v -25.999975 20.000004 18.000032
v -25.999975 20.000004 18.000032
vn 1.0000 -0.0000 -0.0000
vn -0.0000 -0.0000 1.0000
vn -0.0000 -1.0000 -0.0000
vn -0.0000 1.0000 -0.0000
vn -1.0000 -0.0000 -0.0000
vn -0.0000 -0.0000 -1.0000
vt 0.625000 0.750000
vt 0.375000 0.500000
vt 0.625000 0.500000
vt 0.625000 1.000000
vt 0.375000 0.750000
vt 0.125000 0.500000
vt 0.875000 0.750000
vt 0.875000 0.500000
vt 0.625000 0.250000
vt 0.375000 0.000000
vt 0.625000 0.000000
vt 0.375000 0.250000
vt 0.375000 1.000000
vt 0.125000 0.750000
s 0
usemtl マテリアル.006
f 186/112/43 189/113/43 192/114/43
f 172/115/44 181/116/44 184/112/44
f 182/116/45 176/117/45 188/113/45
f 173/118/46 191/114/46 179/119/46
f 180/120/47 171/121/47 174/122/47
f 190/114/48 175/123/48 178/120/48
f 186/112/43 183/116/43 189/113/43
f 172/115/44 169/124/44 181/116/44
f 182/116/45 170/125/45 176/117/45
f 173/118/46 185/112/46 191/114/46
f 180/120/47 177/123/47 171/121/47
f 190/114/48 187/113/48 175/123/48
o 立方体.008
v -27.000008 0.200000 -5.999964
v -27.000008 0.200000 -5.999964
v -27.000008 0.200000 -5.999964
v -27.000008 32.200001 -5.999970
v -27.000008 32.200001 -5.999970
v -27.000008 32.200001 -5.999970
v -27.000008 0.200000 -6.399965
v -27.000008 0.200000 -6.399965
v -27.000008 0.200000 -6.399965
v -27.000008 32.200001 -6.399970
v -27.000008 32.200001 -6.399970
v -27.000008 32.200001 -6.399970
v 26.999992 0.200000 -6.000036
v 26.999992 0.200000 -6.000036
v 26.999992 0.200000 -6.000036
v 26.999992 32.200001 -6.000041
v 26.999992 32.200001 -6.000041
v 26.999992 32.200001 -6.000041
v 26.999992 0.200000 -6.400035
v 26.999992 0.200000 -6.400035
v 26.999992 0.200000 -6.400035
v 26.999992 32.200001 -6.400042
v 26.999992 32.200001 -6.400042
v 26.999992 32.200001 -6.400042
vn -1.0000 -0.0000 -0.0000
vn -0.0000 -0.0000 -1.0000
vn 1.0000 -0.0000 -0.0000
vn -0.0000 -0.0000 1.0000
vn -0.0000 -1.0000 -0.0000
vn -0.0000 1.0000 -0.0000
vt 0.625000 0.000000
vt 0.375000 0.250000
vt 0.375000 0.000000
vt 0.625000 0.250000
vt 0.375000 0.500000
vt 0.625000 0.500000
vt 0.375000 0.750000
vt 0.625000 0.750000
vt 0.375000 1.000000
vt 0.125000 0.750000
vt 0.125000 0.500000
vt 0.875000 0.500000
vt 0.625000 1.000000
vt 0.875000 0.750000
s 0
usemtl マテリアル.006
f 198/126/49 201/127/49 195/128/49
f 202/129/50 211/130/50 199/127/50
f 216/131/51 207/132/51 213/130/51
f 208/133/52 193/134/52 205/132/52
f 212/130/53 194/135/53 200/136/53
f 203/137/54 209/133/54 215/131/54
f 198/126/49 204/129/49 201/127/49
f 202/129/50 214/131/50 211/130/50
f 216/131/51 210/133/51 207/132/51
f 208/133/52 196/138/52 193/134/52
f 212/130/53 206/132/53 194/135/53
f 203/137/54 197/139/54 209/133/54
o 立方体.009
v -26.999924 0.200008 58.400032
v -26.999924 0.200008 58.400032
v -26.999924 0.200008 58.400032
v -26.999924 32.200008 58.400036
v -26.999924 32.200008 58.400036
v -26.999924 32.200008 58.400036
v -26.999924 0.200008 58.000031
v -26.999924 0.200008 58.000031
v -26.999924 0.200008 58.000031
v -26.999924 32.200008 58.000034
v -26.999924 32.200008 58.000034
v -26.999924 32.200008 58.000034
v 27.000076 0.200008 58.399971
v 27.000076 0.200008 58.399971
v 27.000076 0.200008 58.399971
v 27.000076 32.200008 58.399960
v 27.000076 32.200008 58.399960
v 27.000076 32.200008 58.399960
v 27.000076 0.200008 57.999969
v 27.000076 0.200008 57.999969
v 27.000076 0.200008 57.999969
v 27.000076 32.200008 57.999958
v 27.000076 32.200008 57.999958
v 27.000076 32.200008 57.999958
vn -1.0000 -0.0000 -0.0000
vn -0.0000 -0.0000 -1.0000
vn 1.0000 -0.0000 -0.0000
vn -0.0000 -0.0000 1.0000
vn -0.0000 -1.0000 -0.0000
vn -0.0000 1.0000 -0.0000
vt 0.625000 0.000000
vt 0.375000 0.250000
vt 0.375000 0.000000
vt 0.625000 0.250000
vt 0.375000 0.500000
vt 0.625000 0.500000
vt 0.375000 0.750000
vt 0.625000 0.750000
vt 0.375000 1.000000
vt 0.125000 0.750000
vt 0.125000 0.500000
vt 0.875000 0.500000
vt 0.625000 1.000000
vt 0.875000 0.750000
s 0
usemtl マテリアル.006
f 222/140/55 225/141/55 219/142/55
f 226/143/56 235/144/56 223/141/56
f 240/145/57 231/146/57 237/144/57
f 232/147/58 217/148/58 229/146/58
f 236/144/59 218/149/59 224/150/59
f 227/151/60 233/147/60 239/145/60
f 222/140/55 228/143/55 225/141/55
f 226/143/56 238/145/56 235/144/56
f 240/145/57 234/147/57 231/146/57
f 232/147/58 220/152/58 217/148/58
f 236/144/59 230/146/59 218/149/59
f 227/151/60 221/153/60 233/147/60
o 立方体.010
v -26.999920 0.200008 58.000031
v -26.999920 0.200008 58.000031
v -26.999920 0.200008 58.000031
v -26.999920 32.200008 58.000034
v -26.999920 32.200008 58.000034
v -26.999920 32.200008 58.000034
v -27.399920 0.200008 58.000031
v -27.399920 0.200008 58.000031
v -27.399920 0.200008 58.000031
v -27.399920 32.200008 58.000034
v -27.399920 32.200008 58.000034
v -27.399920 32.200008 58.000034
v -27.000006 0.200000 -5.999964
v -27.000006 0.200000 -5.999964
v -27.000006 0.200000 -5.999964
v -27.000006 32.200001 -5.999970
v -27.000006 32.200001 -5.999970
v -27.000006 32.200001 -5.999970
v -27.400005 0.200000 -5.999964
v -27.400005 0.200000 -5.999964
v -27.400005 0.200000 -5.999964
v -27.400005 32.200001 -5.999967
v -27.400005 32.200001 -5.999967
v -27.400005 32.200001 -5.999967
vn -0.0000 -0.0000 1.0000
vn -1.0000 -0.0000 -0.0000
vn -0.0000 -0.0000 -1.0000
vn 1.0000 -0.0000 -0.0000
vn -0.0000 -1.0000 -0.0000
vn -0.0000 1.0000 -0.0000
vt 0.500000 0.000087
vt 0.250043 0.250043
vt 0.250043 0.000087
vt 0.500000 0.250043
vt 0.250043 0.500000
vt 0.500000 0.500000
vt 0.250043 0.749957
vt 0.500000 0.749957
vt 0.250043 0.999913
vt 0.000087 0.749957
vt 0.000087 0.500000
vt 0.749957 0.500000
vt 0.500000 0.999913
vt 0.749957 0.749957
s 0
usemtl マテリアル.006
f 244/154/61 247/155/61 241/156/61
f 252/157/62 261/158/62 249/155/62
f 262/159/63 253/160/63 259/158/63
f 258/161/64 243/162/64 255/160/64
f 260/158/65 242/163/65 248/164/65
f 251/165/66 257/161/66 263/159/66
f 244/154/61 250/157/61 247/155/61
f 252/157/62 264/159/62 261/158/62
f 262/159/63 256/161/63 253/160/63
f 258/161/64 246/166/64 243/162/64
f 260/158/65 254/160/65 242/163/65
f 251/165/66 245/167/66 257/161/66
o 立方体.011
v 27.400078 0.200008 57.999969
v 27.400078 0.200008 57.999969
v 27.400078 0.200008 57.999969
v 27.400078 32.200008 57.999958
v 27.400078 32.200008 57.999958
v 27.400078 32.200008 57.999958
v 27.000078 0.200008 57.999969
v 27.000078 0.200008 57.999969
v 27.000078 0.200008 57.999969
v 27.000078 32.200008 57.999958
v 27.000078 32.200008 57.999958
v 27.000078 32.200008 57.999958
v 27.399992 0.200000 -6.000036
v 27.399992 0.200000 -6.000036
v 27.399992 0.200000 -6.000036
v 27.399992 32.200001 -6.000041
v 27.399992 32.200001 -6.000041
v 27.399992 32.200001 -6.000041
v 26.999992 0.200000 -6.000036
v 26.999992 0.200000 -6.000036
v 26.999992 0.200000 -6.000036
v 26.999992 32.200001 -6.000041
v 26.999992 32.200001 -6.000041
v 26.999992 32.200001 -6.000041
vn -0.0000 -0.0000 1.0000
vn -1.0000 -0.0000 -0.0000
vn -0.0000 -0.0000 -1.0000
vn 1.0000 -0.0000 -0.0000
vn -0.0000 -1.0000 -0.0000
vn -0.0000 1.0000 -0.0000
vt 0.625000 0.000000
vt 0.375000 0.250000
vt 0.375000 0.000000
vt 0.625000 0.250000
vt 0.375000 0.500000
vt 0.625000 0.500000
vt 0.375000 0.750000
vt 0.625000 0.750000
vt 0.375000 1.000000
vt 0.125000 0.750000
vt 0.125000 0.500000
vt 0.875000 0.500000
vt 0.625000 1.000000
vt 0.875000 0.750000
s 0
usemtl マテリアル.006
f 268/168/67 271/169/67 265/170/67
f 276/171/68 285/172/68 273/169/68
f 286/173/69 277/174/69 283/172/69
f 282/175/70 267/176/70 279/174/70
f 284/172/71 266/177/71 272/178/71
f 275/179/72 281/175/72 287/173/72
f 268/168/67 274/171/67 271/169/67
f 276/171/68 288/173/68 285/172/68
f 286/173/69 280/175/69 277/174/69
f 282/175/70 270/180/70 267/176/70
f 284/172/71 278/174/71 266/177/71
f 275/179/72 269/181/72 281/175/72
