{
	"asset":{
		"generator":"Khronos glTF Blender I/O v4.2.69",
		"version":"2.0"
	},
	"scene":0,
	"scenes":[
		{
			"name":"Scene",
			"nodes":[
				0,
				1,
				2,
				3,
				4,
				5,
				6,
				7,
				8,
				9,
				10,
				11
			]
		}
	],
	"nodes":[
		{
			"mesh":0,
			"name":"\u7acb\u65b9\u4f53"
		},
		{
			"mesh":1,
			"name":"\u7acb\u65b9\u4f53.001"
		},
		{
			"mesh":2,
			"name":"\u7acb\u65b9\u4f53.002"
		},
		{
			"mesh":3,
			"name":"\u7acb\u65b9\u4f53.003"
		},
		{
			"mesh":4,
			"name":"\u7acb\u65b9\u4f53.004"
		},
		{
			"mesh":5,
			"name":"\u7acb\u65b9\u4f53.005"
		},
		{
			"mesh":6,
			"name":"\u7acb\u65b9\u4f53.006"
		},
		{
			"mesh":7,
			"name":"\u7acb\u65b9\u4f53.007"
		},
		{
			"mesh":8,
			"name":"\u7acb\u65b9\u4f53.008"
		},
		{
			"mesh":9,
			"name":"\u7acb\u65b9\u4f53.009"
		},
		{
			"mesh":10,
			"name":"\u7acb\u65b9\u4f53.010"
		},
		{
			"mesh":11,
			"name":"\u7acb\u65b9\u4f53.011"
		}
	],
	"materials":[
		{
			"doubleSided":true,
			"name":"\u30de\u30c6\u30ea\u30a2\u30eb",
			"pbrMetallicRoughness":{
				"baseColorTexture":{
					"index":0
				},
				"metallicFactor":0,
				"roughnessFactor":0.18897637724876404
			}
		}
	],
	"meshes":[
		{
			"name":"\u7acb\u65b9\u4f53.014",
			"primitives":[
				{
					"attributes":{
						"POSITION":0,
						"NORMAL":1,
						"TEXCOORD_0":2
					},
					"indices":3,
					"material":0
				}
			]
		},
		{
			"name":"\u7acb\u65b9\u4f53.015",
			"primitives":[
				{
					"attributes":{
						"POSITION":4,
						"NORMAL":5,
						"TEXCOORD_0":6
					},
					"indices":7,
					"material":0
				}
			]
		},
		{
			"name":"\u7acb\u65b9\u4f53.016",
			"primitives":[
				{
					"attributes":{
						"POSITION":8,
						"NORMAL":9,
						"TEXCOORD_0":10
					},
					"indices":7,
					"material":0
				}
			]
		},
		{
			"name":"\u7acb\u65b9\u4f53.017",
			"primitives":[
				{
					"attributes":{
						"POSITION":11,
						"NORMAL":12,
						"TEXCOORD_0":13
					},
					"indices":7,
					"material":0
				}
			]
		},
		{
			"name":"\u7acb\u65b9\u4f53.018",
			"primitives":[
				{
					"attributes":{
						"POSITION":14,
						"NORMAL":15,
						"TEXCOORD_0":16
					},
					"indices":7,
					"material":0
				}
			]
		},
		{
			"name":"\u7acb\u65b9\u4f53.019",
			"primitives":[
				{
					"attributes":{
						"POSITION":17,
						"NORMAL":18,
						"TEXCOORD_0":19
					},
					"indices":20,
					"material":0
				}
			]
		},
		{
			"name":"\u7acb\u65b9\u4f53.020",
			"primitives":[
				{
					"attributes":{
						"POSITION":21,
						"NORMAL":22,
						"TEXCOORD_0":23
					},
					"indices":24,
					"material":0
				}
			]
		},
		{
			"name":"\u7acb\u65b9\u4f53.021",
			"primitives":[
				{
					"attributes":{
						"POSITION":25,
						"NORMAL":26,
						"TEXCOORD_0":27
					},
					"indices":28,
					"material":0
				}
			]
		},
		{
			"name":"\u7acb\u65b9\u4f53.046",
			"primitives":[
				{
					"attributes":{
						"POSITION":29,
						"NORMAL":30,
						"TEXCOORD_0":31
					},
					"indices":32,
					"material":0
				}
			]
		},
		{
			"name":"\u7acb\u65b9\u4f53.047",
			"primitives":[
				{
					"attributes":{
						"POSITION":33,
						"NORMAL":34,
						"TEXCOORD_0":35
					},
					"indices":32,
					"material":0
				}
			]
		},
		{
			"name":"\u7acb\u65b9\u4f53.048",
			"primitives":[
				{
					"attributes":{
						"POSITION":36,
						"NORMAL":37,
						"TEXCOORD_0":38
					},
					"indices":39,
					"material":0
				}
			]
		},
		{
			"name":"\u7acb\u65b9\u4f53.049",
			"primitives":[
				{
					"attributes":{
						"POSITION":40,
						"NORMAL":41,
						"TEXCOORD_0":42
					},
					"indices":39,
					"material":0
				}
			]
		}
	],
	"textures":[
		{
			"sampler":0,
			"source":0
		}
	],
	"images":[
		{
			"mimeType":"image/png",
			"name":"concrete",
			"uri":"concrete.png"
		}
	],
	"accessors":[
		{
			"bufferView":0,
			"componentType":5126,
			"count":24,
			"max":[
				27,
				0.19999998807907104,
				46
			],
			"min":[
				-27,
				-2.200000047683716,
				-6
			],
			"type":"VEC3"
		},
		{
			"bufferView":1,
			"componentType":5126,
			"count":24,
			"type":"VEC3"
		},
		{
			"bufferView":2,
			"componentType":5126,
			"count":24,
			"type":"VEC2"
		},
		{
			"bufferView":3,
			"componentType":5123,
			"count":36,
			"type":"SCALAR"
		},
		{
			"bufferView":4,
			"componentType":5126,
			"count":24,
			"max":[
				4.099999904632568,
				6,
				11
			],
			"min":[
				3.9000000953674316,
				1.5,
				5
			],
			"type":"VEC3"
		},
		{
			"bufferView":5,
			"componentType":5126,
			"count":24,
			"type":"VEC3"
		},
		{
			"bufferView":6,
			"componentType":5126,
			"count":24,
			"type":"VEC2"
		},
		{
			"bufferView":7,
			"componentType":5123,
			"count":36,
			"type":"SCALAR"
		},
		{
			"bufferView":8,
			"componentType":5126,
			"count":24,
			"max":[
				12.100000381469727,
				8,
				21
			],
			"min":[
				11.899999618530273,
				4,
				13
			],
			"type":"VEC3"
		},
		{
			"bufferView":9,
			"componentType":5126,
			"count":24,
			"type":"VEC3"
		},
		{
			"bufferView":10,
			"componentType":5126,
			"count":24,
			"type":"VEC2"
		},
		{
			"bufferView":11,
			"componentType":5126,
			"count":24,
			"max":[
				4.099999904632568,
				10,
				29
			],
			"min":[
				3.9000000953674316,
				5.5,
				21
			],
			"type":"VEC3"
		},
		{
			"bufferView":12,
			"componentType":5126,
			"count":24,
			"type":"VEC3"
		},
		{
			"bufferView":13,
			"componentType":5126,
			"count":24,
			"type":"VEC2"
		},
		{
			"bufferView":14,
			"componentType":5126,
			"count":24,
			"max":[
				12.100000381469727,
				12,
				37
			],
			"min":[
				11.899999618530273,
				8,
				29
			],
			"type":"VEC3"
		},
		{
			"bufferView":15,
			"componentType":5126,
			"count":24,
			"type":"VEC3"
		},
		{
			"bufferView":16,
			"componentType":5126,
			"count":24,
			"type":"VEC2"
		},
		{
			"bufferView":17,
			"componentType":5126,
			"count":24,
			"max":[
				27,
				10,
				58
			],
			"min":[
				-27,
				-1,
				46
			],
			"type":"VEC3"
		},
		{
			"bufferView":18,
			"componentType":5126,
			"count":24,
			"type":"VEC3"
		},
		{
			"bufferView":19,
			"componentType":5126,
			"count":24,
			"type":"VEC2"
		},
		{
			"bufferView":20,
			"componentType":5123,
			"count":36,
			"type":"SCALAR"
		},
		{
			"bufferView":21,
			"componentType":5126,
			"count":24,
			"max":[
				-14,
				10,
				18
			],
			"min":[
				-26,
				-1,
				6
			],
			"type":"VEC3"
		},
		{
			"bufferView":22,
			"componentType":5126,
			"count":24,
			"type":"VEC3"
		},
		{
			"bufferView":23,
			"componentType":5126,
			"count":24,
			"type":"VEC2"
		},
		{
			"bufferView":24,
			"componentType":5123,
			"count":36,
			"type":"SCALAR"
		},
		{
			"bufferView":25,
			"componentType":5126,
			"count":24,
			"max":[
				-25.999998092651367,
				20,
				46
			],
			"min":[
				-26.19999885559082,
				10,
				18
			],
			"type":"VEC3"
		},
		{
			"bufferView":26,
			"componentType":5126,
			"count":24,
			"type":"VEC3"
		},
		{
			"bufferView":27,
			"componentType":5126,
			"count":24,
			"type":"VEC2"
		},
		{
			"bufferView":28,
			"componentType":5123,
			"count":36,
			"type":"SCALAR"
		},
		{
			"bufferView":29,
			"componentType":5126,
			"count":24,
			"max":[
				27,
				32.20000076293945,
				-6
			],
			"min":[
				-27,
				0.20000004768371582,
				-6.399999618530273
			],
			"type":"VEC3"
		},
		{
			"bufferView":30,
			"componentType":5126,
			"count":24,
			"type":"VEC3"
		},
		{
			"bufferView":31,
			"componentType":5126,
			"count":24,
			"type":"VEC2"
		},
		{
			"bufferView":32,
			"componentType":5123,
			"count":36,
			"type":"SCALAR"
		},
		{
			"bufferView":33,
			"componentType":5126,
			"count":24,
			"max":[
				27,
				32.20000076293945,
				58.400001525878906
			],
			"min":[
				-27,
				0.20000004768371582,
				58
			],
			"type":"VEC3"
		},
		{
			"bufferView":34,
			"componentType":5126,
			"count":24,
			"type":"VEC3"
		},
		{
			"bufferView":35,
			"componentType":5126,
			"count":24,
			"type":"VEC2"
		},
		{
			"bufferView":36,
			"componentType":5126,
			"count":24,
			"max":[
				-26.999996185302734,
				32.20000076293945,
				58
			],
			"min":[
				-27.39999771118164,
				0.20000004768371582,
				-6
			],
			"type":"VEC3"
		},
		{
			"bufferView":37,
			"componentType":5126,
			"count":24,
			"type":"VEC3"
		},
		{
			"bufferView":38,
			"componentType":5126,
			"count":24,
			"type":"VEC2"
		},
		{
			"bufferView":39,
			"componentType":5123,
			"count":36,
			"type":"SCALAR"
		},
		{
			"bufferView":40,
			"componentType":5126,
			"count":24,
			"max":[
				27.400001525878906,
				32.20000076293945,
				58
			],
			"min":[
				27,
				0.20000004768371582,
				-6
			],
			"type":"VEC3"
		},
		{
			"bufferView":41,
			"componentType":5126,
			"count":24,
			"type":"VEC3"
		},
		{
			"bufferView":42,
			"componentType":5126,
			"count":24,
			"type":"VEC2"
		}
	],
	"bufferViews":[
		{
			"buffer":0,
			"byteLength":288,
			"byteOffset":0,
			"target":34962
		},
		{
			"buffer":0,
			"byteLength":288,
			"byteOffset":288,
			"target":34962
		},
		{
			"buffer":0,
			"byteLength":192,
			"byteOffset":576,
			"target":34962
		},
		{
			"buffer":0,
			"byteLength":72,
			"byteOffset":768,
			"target":34963
		},
		{
			"buffer":0,
			"byteLength":288,
			"byteOffset":840,
			"target":34962
		},
		{
			"buffer":0,
			"byteLength":288,
			"byteOffset":1128,
			"target":34962
		},
		{
			"buffer":0,
			"byteLength":192,
			"byteOffset":1416,
			"target":34962
		},
		{
			"buffer":0,
			"byteLength":72,
			"byteOffset":1608,
			"target":34963
		},
		{
			"buffer":0,
			"byteLength":288,
			"byteOffset":1680,
			"target":34962
		},
		{
			"buffer":0,
			"byteLength":288,
			"byteOffset":1968,
			"target":34962
		},
		{
			"buffer":0,
			"byteLength":192,
			"byteOffset":2256,
			"target":34962
		},
		{
			"buffer":0,
			"byteLength":288,
			"byteOffset":2448,
			"target":34962
		},
		{
			"buffer":0,
			"byteLength":288,
			"byteOffset":2736,
			"target":34962
		},
		{
			"buffer":0,
			"byteLength":192,
			"byteOffset":3024,
			"target":34962
		},
		{
			"buffer":0,
			"byteLength":288,
			"byteOffset":3216,
			"target":34962
		},
		{
			"buffer":0,
			"byteLength":288,
			"byteOffset":3504,
			"target":34962
		},
		{
			"buffer":0,
			"byteLength":192,
			"byteOffset":3792,
			"target":34962
		},
		{
			"buffer":0,
			"byteLength":288,
			"byteOffset":3984,
			"target":34962
		},
		{
			"buffer":0,
			"byteLength":288,
			"byteOffset":4272,
			"target":34962
		},
		{
			"buffer":0,
			"byteLength":192,
			"byteOffset":4560,
			"target":34962
		},
		{
			"buffer":0,
			"byteLength":72,
			"byteOffset":4752,
			"target":34963
		},
		{
			"buffer":0,
			"byteLength":288,
			"byteOffset":4824,
			"target":34962
		},
		{
			"buffer":0,
			"byteLength":288,
			"byteOffset":5112,
			"target":34962
		},
		{
			"buffer":0,
			"byteLength":192,
			"byteOffset":5400,
			"target":34962
		},
		{
			"buffer":0,
			"byteLength":72,
			"byteOffset":5592,
			"target":34963
		},
		{
			"buffer":0,
			"byteLength":288,
			"byteOffset":5664,
			"target":34962
		},
		{
			"buffer":0,
			"byteLength":288,
			"byteOffset":5952,
			"target":34962
		},
		{
			"buffer":0,
			"byteLength":192,
			"byteOffset":6240,
			"target":34962
		},
		{
			"buffer":0,
			"byteLength":72,
			"byteOffset":6432,
			"target":34963
		},
		{
			"buffer":0,
			"byteLength":288,
			"byteOffset":6504,
			"target":34962
		},
		{
			"buffer":0,
			"byteLength":288,
			"byteOffset":6792,
			"target":34962
		},
		{
			"buffer":0,
			"byteLength":192,
			"byteOffset":7080,
			"target":34962
		},
		{
			"buffer":0,
			"byteLength":72,
			"byteOffset":7272,
			"target":34963
		},
		{
			"buffer":0,
			"byteLength":288,
			"byteOffset":7344,
			"target":34962
		},
		{
			"buffer":0,
			"byteLength":288,
			"byteOffset":7632,
			"target":34962
		},
		{
			"buffer":0,
			"byteLength":192,
			"byteOffset":7920,
			"target":34962
		},
		{
			"buffer":0,
			"byteLength":288,
			"byteOffset":8112,
			"target":34962
		},
		{
			"buffer":0,
			"byteLength":288,
			"byteOffset":8400,
			"target":34962
		},
		{
			"buffer":0,
			"byteLength":192,
			"byteOffset":8688,
			"target":34962
		},
		{
			"buffer":0,
			"byteLength":72,
			"byteOffset":8880,
			"target":34963
		},
		{
			"buffer":0,
			"byteLength":288,
			"byteOffset":8952,
			"target":34962
		},
		{
			"buffer":0,
			"byteLength":288,
			"byteOffset":9240,
			"target":34962
		},
		{
			"buffer":0,
			"byteLength":192,
			"byteOffset":9528,
			"target":34962
		}
	],
	"samplers":[
		{
			"magFilter":9729,
			"minFilter":9987
		}
	],
	"buffers":[
		{
			"byteLength":9720,
			"uri":"map01.bin"
		}
	]
}
