{
	"asset":{
		"generator":"Khronos glTF Blender I/O v4.2.69",
		"version":"2.0"
	},
	"scene":0,
	"scenes":[
		{
			"name":"Scene",
			"nodes":[
				0,
				1,
				2,
				3,
				4,
				5,
				6,
				7,
				8,
				9,
				10,
				11,
				12,
				13,
				14,
				15,
				16,
				17,
				18,
				19,
				20,
				21,
				22,
				23,
				24,
				25,
				26
			]
		}
	],
	"nodes":[
		{
			"mesh":0,
			"name":"\u7acb\u65b9\u4f53.005"
		},
		{
			"mesh":1,
			"name":"\u7acb\u65b9\u4f53.006"
		},
		{
			"mesh":2,
			"name":"\u7acb\u65b9\u4f53.007"
		},
		{
			"mesh":3,
			"name":"\u7acb\u65b9\u4f53.008"
		},
		{
			"mesh":4,
			"name":"\u7acb\u65b9\u4f53.009"
		},
		{
			"mesh":5,
			"name":"\u7acb\u65b9\u4f53.010"
		},
		{
			"mesh":6,
			"name":"\u7acb\u65b9\u4f53.011"
		},
		{
			"mesh":7,
			"name":"\u7acb\u65b9\u4f53.012"
		},
		{
			"mesh":8,
			"name":"\u7acb\u65b9\u4f53.013"
		},
		{
			"mesh":9,
			"name":"\u7acb\u65b9\u4f53.015"
		},
		{
			"mesh":10,
			"name":"\u7acb\u65b9\u4f53.016"
		},
		{
			"mesh":11,
			"name":"\u7acb\u65b9\u4f53.017"
		},
		{
			"mesh":12,
			"name":"\u7acb\u65b9\u4f53.018"
		},
		{
			"mesh":13,
			"name":"\u7acb\u65b9\u4f53.019"
		},
		{
			"mesh":14,
			"name":"\u7acb\u65b9\u4f53.020"
		},
		{
			"mesh":15,
			"name":"\u7acb\u65b9\u4f53.021"
		},
		{
			"mesh":16,
			"name":"\u7acb\u65b9\u4f53.022"
		},
		{
			"mesh":17,
			"name":"\u7acb\u65b9\u4f53.023"
		},
		{
			"mesh":18,
			"name":"\u7acb\u65b9\u4f53.014"
		},
		{
			"mesh":19,
			"name":"Wall_back"
		},
		{
			"mesh":20,
			"name":"Screen_01"
		},
		{
			"mesh":21,
			"name":"Block_01"
		},
		{
			"mesh":22,
			"name":"Wall_Center_01"
		},
		{
			"mesh":23,
			"name":"Wall_Left_01"
		},
		{
			"mesh":24,
			"name":"Wall_Right_01"
		},
		{
			"mesh":25,
			"name":"Floor"
		},
		{
			"mesh":26,
			"name":"Floor.001"
		}
	],
	"materials":[
		{
			"doubleSided":true,
			"name":"Material.002",
			"pbrMetallicRoughness":{
				"metallicFactor":0,
				"roughnessFactor":0.5
			}
		},
		{
			"doubleSided":true,
			"name":"\u30de\u30c6\u30ea\u30a2\u30eb.001",
			"pbrMetallicRoughness":{
				"baseColorTexture":{
					"index":0
				},
				"metallicFactor":0,
				"roughnessFactor":0.5
			}
		},
		{
			"doubleSided":true,
			"name":"\u30de\u30c6\u30ea\u30a2\u30eb",
			"pbrMetallicRoughness":{
				"baseColorTexture":{
					"index":1
				},
				"metallicFactor":0.05000000074505806,
				"roughnessFactor":0
			}
		},
		{
			"doubleSided":true,
			"name":"\u30de\u30c6\u30ea\u30a2\u30eb.004",
			"pbrMetallicRoughness":{
				"baseColorTexture":{
					"index":2
				},
				"metallicFactor":0,
				"roughnessFactor":0.5
			}
		},
		{
			"doubleSided":true,
			"name":"\u30de\u30c6\u30ea\u30a2\u30eb.002",
			"pbrMetallicRoughness":{
				"baseColorTexture":{
					"index":3
				},
				"roughnessFactor":0
			}
		}
	],
	"meshes":[
		{
			"name":"\u7acb\u65b9\u4f53.026",
			"primitives":[
				{
					"attributes":{
						"POSITION":0,
						"NORMAL":1,
						"TEXCOORD_0":2
					},
					"indices":3,
					"material":0
				}
			]
		},
		{
			"name":"\u7acb\u65b9\u4f53.027",
			"primitives":[
				{
					"attributes":{
						"POSITION":4,
						"NORMAL":5,
						"TEXCOORD_0":6
					},
					"indices":7,
					"material":0
				}
			]
		},
		{
			"name":"\u7acb\u65b9\u4f53.028",
			"primitives":[
				{
					"attributes":{
						"POSITION":8,
						"NORMAL":9,
						"TEXCOORD_0":10
					},
					"indices":7,
					"material":0
				}
			]
		},
		{
			"name":"\u7acb\u65b9\u4f53.029",
			"primitives":[
				{
					"attributes":{
						"POSITION":11,
						"NORMAL":12,
						"TEXCOORD_0":13
					},
					"indices":7,
					"material":0
				}
			]
		},
		{
			"name":"\u7acb\u65b9\u4f53.030",
			"primitives":[
				{
					"attributes":{
						"POSITION":14,
						"NORMAL":15,
						"TEXCOORD_0":16
					},
					"indices":7,
					"material":0
				}
			]
		},
		{
			"name":"\u7acb\u65b9\u4f53.031",
			"primitives":[
				{
					"attributes":{
						"POSITION":17,
						"NORMAL":18,
						"TEXCOORD_0":19
					},
					"indices":7,
					"material":0
				}
			]
		},
		{
			"name":"\u7acb\u65b9\u4f53.032",
			"primitives":[
				{
					"attributes":{
						"POSITION":20,
						"NORMAL":21,
						"TEXCOORD_0":22
					},
					"indices":7,
					"material":0
				}
			]
		},
		{
			"name":"\u7acb\u65b9\u4f53.033",
			"primitives":[
				{
					"attributes":{
						"POSITION":23,
						"NORMAL":24,
						"TEXCOORD_0":25
					},
					"indices":7,
					"material":0
				}
			]
		},
		{
			"name":"\u7acb\u65b9\u4f53.034",
			"primitives":[
				{
					"attributes":{
						"POSITION":26,
						"NORMAL":27,
						"TEXCOORD_0":28
					},
					"indices":7,
					"material":0
				}
			]
		},
		{
			"name":"\u7acb\u65b9\u4f53.035",
			"primitives":[
				{
					"attributes":{
						"POSITION":29,
						"NORMAL":30,
						"TEXCOORD_0":31
					},
					"indices":7,
					"material":0
				}
			]
		},
		{
			"name":"\u7acb\u65b9\u4f53.036",
			"primitives":[
				{
					"attributes":{
						"POSITION":32,
						"NORMAL":33,
						"TEXCOORD_0":34
					},
					"indices":7,
					"material":0
				}
			]
		},
		{
			"name":"\u7acb\u65b9\u4f53.037",
			"primitives":[
				{
					"attributes":{
						"POSITION":35,
						"NORMAL":36,
						"TEXCOORD_0":37
					},
					"indices":7,
					"material":0
				}
			]
		},
		{
			"name":"\u7acb\u65b9\u4f53.038",
			"primitives":[
				{
					"attributes":{
						"POSITION":38,
						"NORMAL":39,
						"TEXCOORD_0":40
					},
					"indices":7,
					"material":0
				}
			]
		},
		{
			"name":"\u7acb\u65b9\u4f53.039",
			"primitives":[
				{
					"attributes":{
						"POSITION":41,
						"NORMAL":42,
						"TEXCOORD_0":43
					},
					"indices":7,
					"material":0
				}
			]
		},
		{
			"name":"\u7acb\u65b9\u4f53.040",
			"primitives":[
				{
					"attributes":{
						"POSITION":44,
						"NORMAL":45,
						"TEXCOORD_0":46
					},
					"indices":7,
					"material":0
				}
			]
		},
		{
			"name":"\u7acb\u65b9\u4f53.041",
			"primitives":[
				{
					"attributes":{
						"POSITION":47,
						"NORMAL":48,
						"TEXCOORD_0":49
					},
					"indices":7,
					"material":0
				}
			]
		},
		{
			"name":"\u7acb\u65b9\u4f53.042",
			"primitives":[
				{
					"attributes":{
						"POSITION":50,
						"NORMAL":51,
						"TEXCOORD_0":52
					},
					"indices":7,
					"material":0
				}
			]
		},
		{
			"name":"\u7acb\u65b9\u4f53.043",
			"primitives":[
				{
					"attributes":{
						"POSITION":53,
						"NORMAL":54,
						"TEXCOORD_0":55
					},
					"indices":7,
					"material":0
				}
			]
		},
		{
			"name":"\u7acb\u65b9\u4f53.044",
			"primitives":[
				{
					"attributes":{
						"POSITION":56,
						"NORMAL":57,
						"TEXCOORD_0":58
					},
					"indices":7,
					"material":0
				}
			]
		},
		{
			"name":"\u7acb\u65b9\u4f53.023",
			"primitives":[
				{
					"attributes":{
						"POSITION":59,
						"NORMAL":60,
						"TEXCOORD_0":61
					},
					"indices":62,
					"material":1
				}
			]
		},
		{
			"name":"\u7acb\u65b9\u4f53.045",
			"primitives":[
				{
					"attributes":{
						"POSITION":63,
						"NORMAL":64,
						"TEXCOORD_0":65
					},
					"indices":66,
					"material":2
				},
				{
					"attributes":{
						"POSITION":67,
						"NORMAL":68,
						"TEXCOORD_0":69
					},
					"indices":70,
					"material":3
				}
			]
		},
		{
			"name":"\u7acb\u65b9\u4f53.047",
			"primitives":[
				{
					"attributes":{
						"POSITION":71,
						"NORMAL":72,
						"TEXCOORD_0":73
					},
					"indices":74,
					"material":1
				}
			]
		},
		{
			"name":"\u7acb\u65b9\u4f53.048",
			"primitives":[
				{
					"attributes":{
						"POSITION":75,
						"NORMAL":76,
						"TEXCOORD_0":77
					},
					"indices":78,
					"material":1
				}
			]
		},
		{
			"name":"\u7acb\u65b9\u4f53.049",
			"primitives":[
				{
					"attributes":{
						"POSITION":79,
						"NORMAL":80,
						"TEXCOORD_0":81
					},
					"indices":82,
					"material":1
				}
			]
		},
		{
			"name":"\u7acb\u65b9\u4f53.050",
			"primitives":[
				{
					"attributes":{
						"POSITION":83,
						"NORMAL":84,
						"TEXCOORD_0":85
					},
					"indices":86,
					"material":1
				}
			]
		},
		{
			"name":"\u7acb\u65b9\u4f53.051",
			"primitives":[
				{
					"attributes":{
						"POSITION":87,
						"NORMAL":88,
						"TEXCOORD_0":89
					},
					"indices":90,
					"material":1
				}
			]
		},
		{
			"name":"\u7acb\u65b9\u4f53.052",
			"primitives":[
				{
					"attributes":{
						"POSITION":91,
						"NORMAL":92,
						"TEXCOORD_0":93
					},
					"indices":90,
					"material":4
				}
			]
		}
	],
	"textures":[
		{
			"sampler":0,
			"source":0
		},
		{
			"sampler":0,
			"source":1
		},
		{
			"sampler":0,
			"source":2
		},
		{
			"sampler":0,
			"source":0
		}
	],
	"images":[
		{
			"mimeType":"image/png",
			"name":"concrete",
			"uri":"concrete.png"
		},
		{
			"mimeType":"image/png",
			"name":"Screen_01_Keyboard",
			"uri":"Screen_01_Keyboard.png"
		},
		{
			"mimeType":"image/png",
			"name":"BackScreen_01_Keyboard",
			"uri":"BackScreen_01_Keyboard.png"
		}
	],
	"accessors":[
		{
			"bufferView":0,
			"componentType":5126,
			"count":20,
			"max":[
				-9,
				3.999999761581421,
				5
			],
			"min":[
				-11,
				0.19999998807907104,
				4.800000190734863
			],
			"type":"VEC3"
		},
		{
			"bufferView":1,
			"componentType":5126,
			"count":20,
			"type":"VEC3"
		},
		{
			"bufferView":2,
			"componentType":5126,
			"count":20,
			"type":"VEC2"
		},
		{
			"bufferView":3,
			"componentType":5123,
			"count":30,
			"type":"SCALAR"
		},
		{
			"bufferView":4,
			"componentType":5126,
			"count":20,
			"max":[
				-9,
				3.799999713897705,
				4.800000190734863
			],
			"min":[
				-11,
				0.19999998807907104,
				4.600000381469727
			],
			"type":"VEC3"
		},
		{
			"bufferView":5,
			"componentType":5126,
			"count":20,
			"type":"VEC3"
		},
		{
			"bufferView":6,
			"componentType":5126,
			"count":20,
			"type":"VEC2"
		},
		{
			"bufferView":7,
			"componentType":5123,
			"count":30,
			"type":"SCALAR"
		},
		{
			"bufferView":8,
			"componentType":5126,
			"count":20,
			"max":[
				-9,
				3.5999996662139893,
				4.600000381469727
			],
			"min":[
				-11,
				0.20000001788139343,
				4.40000057220459
			],
			"type":"VEC3"
		},
		{
			"bufferView":9,
			"componentType":5126,
			"count":20,
			"type":"VEC3"
		},
		{
			"bufferView":10,
			"componentType":5126,
			"count":20,
			"type":"VEC2"
		},
		{
			"bufferView":11,
			"componentType":5126,
			"count":20,
			"max":[
				-9,
				3.3999996185302734,
				4.40000057220459
			],
			"min":[
				-11,
				0.20000006258487701,
				4.200000762939453
			],
			"type":"VEC3"
		},
		{
			"bufferView":12,
			"componentType":5126,
			"count":20,
			"type":"VEC3"
		},
		{
			"bufferView":13,
			"componentType":5126,
			"count":20,
			"type":"VEC2"
		},
		{
			"bufferView":14,
			"componentType":5126,
			"count":20,
			"max":[
				-9,
				3.1999995708465576,
				4.200000762939453
			],
			"min":[
				-11,
				0.20000001788139343,
				4.000000953674316
			],
			"type":"VEC3"
		},
		{
			"bufferView":15,
			"componentType":5126,
			"count":20,
			"type":"VEC3"
		},
		{
			"bufferView":16,
			"componentType":5126,
			"count":20,
			"type":"VEC2"
		},
		{
			"bufferView":17,
			"componentType":5126,
			"count":20,
			"max":[
				-9,
				2.999999523162842,
				4.000000953674316
			],
			"min":[
				-11,
				0.2000000923871994,
				3.8000011444091797
			],
			"type":"VEC3"
		},
		{
			"bufferView":18,
			"componentType":5126,
			"count":20,
			"type":"VEC3"
		},
		{
			"bufferView":19,
			"componentType":5126,
			"count":20,
			"type":"VEC2"
		},
		{
			"bufferView":20,
			"componentType":5126,
			"count":20,
			"max":[
				-9,
				2.799999237060547,
				3.8000011444091797
			],
			"min":[
				-11,
				0.19999992847442627,
				3.600001335144043
			],
			"type":"VEC3"
		},
		{
			"bufferView":21,
			"componentType":5126,
			"count":20,
			"type":"VEC3"
		},
		{
			"bufferView":22,
			"componentType":5126,
			"count":20,
			"type":"VEC2"
		},
		{
			"bufferView":23,
			"componentType":5126,
			"count":20,
			"max":[
				-9,
				2.599999189376831,
				3.600001335144043
			],
			"min":[
				-11,
				0.19999980926513672,
				3.4000015258789062
			],
			"type":"VEC3"
		},
		{
			"bufferView":24,
			"componentType":5126,
			"count":20,
			"type":"VEC3"
		},
		{
			"bufferView":25,
			"componentType":5126,
			"count":20,
			"type":"VEC2"
		},
		{
			"bufferView":26,
			"componentType":5126,
			"count":20,
			"max":[
				-9,
				2.3999991416931152,
				3.4000015258789062
			],
			"min":[
				-11,
				0.19999976456165314,
				3.2000017166137695
			],
			"type":"VEC3"
		},
		{
			"bufferView":27,
			"componentType":5126,
			"count":20,
			"type":"VEC3"
		},
		{
			"bufferView":28,
			"componentType":5126,
			"count":20,
			"type":"VEC2"
		},
		{
			"bufferView":29,
			"componentType":5126,
			"count":20,
			"max":[
				-9,
				2.1999990940093994,
				3.2000017166137695
			],
			"min":[
				-11,
				0.19999977946281433,
				3.000001907348633
			],
			"type":"VEC3"
		},
		{
			"bufferView":30,
			"componentType":5126,
			"count":20,
			"type":"VEC3"
		},
		{
			"bufferView":31,
			"componentType":5126,
			"count":20,
			"type":"VEC2"
		},
		{
			"bufferView":32,
			"componentType":5126,
			"count":20,
			"max":[
				-9,
				1.999998927116394,
				3.000001907348633
			],
			"min":[
				-11,
				0.19999973475933075,
				2.800002098083496
			],
			"type":"VEC3"
		},
		{
			"bufferView":33,
			"componentType":5126,
			"count":20,
			"type":"VEC3"
		},
		{
			"bufferView":34,
			"componentType":5126,
			"count":20,
			"type":"VEC2"
		},
		{
			"bufferView":35,
			"componentType":5126,
			"count":20,
			"max":[
				-9,
				1.7999988794326782,
				2.800002098083496
			],
			"min":[
				-11,
				0.19999973475933075,
				2.6000022888183594
			],
			"type":"VEC3"
		},
		{
			"bufferView":36,
			"componentType":5126,
			"count":20,
			"type":"VEC3"
		},
		{
			"bufferView":37,
			"componentType":5126,
			"count":20,
			"type":"VEC2"
		},
		{
			"bufferView":38,
			"componentType":5126,
			"count":20,
			"max":[
				-9,
				1.5999988317489624,
				2.6000022888183594
			],
			"min":[
				-11,
				0.19999966025352478,
				2.4000024795532227
			],
			"type":"VEC3"
		},
		{
			"bufferView":39,
			"componentType":5126,
			"count":20,
			"type":"VEC3"
		},
		{
			"bufferView":40,
			"componentType":5126,
			"count":20,
			"type":"VEC2"
		},
		{
			"bufferView":41,
			"componentType":5126,
			"count":20,
			"max":[
				-9,
				1.3999987840652466,
				2.4000024795532227
			],
			"min":[
				-11,
				0.1999996453523636,
				2.200002670288086
			],
			"type":"VEC3"
		},
		{
			"bufferView":42,
			"componentType":5126,
			"count":20,
			"type":"VEC3"
		},
		{
			"bufferView":43,
			"componentType":5126,
			"count":20,
			"type":"VEC2"
		},
		{
			"bufferView":44,
			"componentType":5126,
			"count":20,
			"max":[
				-9,
				1.1999987363815308,
				2.200002670288086
			],
			"min":[
				-11,
				0.1999996304512024,
				2.000002861022949
			],
			"type":"VEC3"
		},
		{
			"bufferView":45,
			"componentType":5126,
			"count":20,
			"type":"VEC3"
		},
		{
			"bufferView":46,
			"componentType":5126,
			"count":20,
			"type":"VEC2"
		},
		{
			"bufferView":47,
			"componentType":5126,
			"count":20,
			"max":[
				-9,
				0.9999986886978149,
				2.000002861022949
			],
			"min":[
				-11,
				0.1999995857477188,
				1.800002932548523
			],
			"type":"VEC3"
		},
		{
			"bufferView":48,
			"componentType":5126,
			"count":20,
			"type":"VEC3"
		},
		{
			"bufferView":49,
			"componentType":5126,
			"count":20,
			"type":"VEC2"
		},
		{
			"bufferView":50,
			"componentType":5126,
			"count":20,
			"max":[
				-9,
				0.7999987006187439,
				1.800002932548523
			],
			"min":[
				-11,
				0.1999995857477188,
				1.6000031232833862
			],
			"type":"VEC3"
		},
		{
			"bufferView":51,
			"componentType":5126,
			"count":20,
			"type":"VEC3"
		},
		{
			"bufferView":52,
			"componentType":5126,
			"count":20,
			"type":"VEC2"
		},
		{
			"bufferView":53,
			"componentType":5126,
			"count":20,
			"max":[
				-9,
				0.5999987125396729,
				1.6000031232833862
			],
			"min":[
				-11,
				0.19999957084655762,
				1.4000033140182495
			],
			"type":"VEC3"
		},
		{
			"bufferView":54,
			"componentType":5126,
			"count":20,
			"type":"VEC3"
		},
		{
			"bufferView":55,
			"componentType":5126,
			"count":20,
			"type":"VEC2"
		},
		{
			"bufferView":56,
			"componentType":5126,
			"count":20,
			"max":[
				-9,
				0.3999987244606018,
				1.4000033140182495
			],
			"min":[
				-11,
				0.19999957084655762,
				1.2000035047531128
			],
			"type":"VEC3"
		},
		{
			"bufferView":57,
			"componentType":5126,
			"count":20,
			"type":"VEC3"
		},
		{
			"bufferView":58,
			"componentType":5126,
			"count":20,
			"type":"VEC2"
		},
		{
			"bufferView":59,
			"componentType":5126,
			"count":24,
			"max":[
				5,
				20.200000762939453,
				-5
			],
			"min":[
				-5,
				0.20000004768371582,
				-5.199999809265137
			],
			"type":"VEC3"
		},
		{
			"bufferView":60,
			"componentType":5126,
			"count":24,
			"type":"VEC3"
		},
		{
			"bufferView":61,
			"componentType":5126,
			"count":24,
			"type":"VEC2"
		},
		{
			"bufferView":62,
			"componentType":5123,
			"count":36,
			"type":"SCALAR"
		},
		{
			"bufferView":63,
			"componentType":5126,
			"count":4,
			"max":[
				-4.873680114746094,
				2.9000000953674316,
				1.600000023841858
			],
			"min":[
				-4.873680114746094,
				1.100000023841858,
				-1.600000023841858
			],
			"type":"VEC3"
		},
		{
			"bufferView":64,
			"componentType":5126,
			"count":4,
			"type":"VEC3"
		},
		{
			"bufferView":65,
			"componentType":5126,
			"count":4,
			"type":"VEC2"
		},
		{
			"bufferView":66,
			"componentType":5123,
			"count":6,
			"type":"SCALAR"
		},
		{
			"bufferView":67,
			"componentType":5126,
			"count":20,
			"max":[
				-4.873680114746094,
				2.9000000953674316,
				1.600000023841858
			],
			"min":[
				-5.273679733276367,
				1.100000023841858,
				-1.600000023841858
			],
			"type":"VEC3"
		},
		{
			"bufferView":68,
			"componentType":5126,
			"count":20,
			"type":"VEC3"
		},
		{
			"bufferView":69,
			"componentType":5126,
			"count":20,
			"type":"VEC2"
		},
		{
			"bufferView":70,
			"componentType":5123,
			"count":30,
			"type":"SCALAR"
		},
		{
			"bufferView":71,
			"componentType":5126,
			"count":24,
			"max":[
				5,
				2.200000286102295,
				10
			],
			"min":[
				-5,
				0.20000028610229492,
				8
			],
			"type":"VEC3"
		},
		{
			"bufferView":72,
			"componentType":5126,
			"count":24,
			"type":"VEC3"
		},
		{
			"bufferView":73,
			"componentType":5126,
			"count":24,
			"type":"VEC2"
		},
		{
			"bufferView":74,
			"componentType":5123,
			"count":36,
			"type":"SCALAR"
		},
		{
			"bufferView":75,
			"componentType":5126,
			"count":24,
			"max":[
				5,
				4.199999809265137,
				10.199999809265137
			],
			"min":[
				-5,
				0.20000004768371582,
				9.999999046325684
			],
			"type":"VEC3"
		},
		{
			"bufferView":76,
			"componentType":5126,
			"count":24,
			"type":"VEC3"
		},
		{
			"bufferView":77,
			"componentType":5126,
			"count":24,
			"type":"VEC2"
		},
		{
			"bufferView":78,
			"componentType":5123,
			"count":36,
			"type":"SCALAR"
		},
		{
			"bufferView":79,
			"componentType":5126,
			"count":24,
			"max":[
				5.199999809265137,
				20.200000762939453,
				25.200000762939453
			],
			"min":[
				5,
				0.20000004768371582,
				-5
			],
			"type":"VEC3"
		},
		{
			"bufferView":80,
			"componentType":5126,
			"count":24,
			"type":"VEC3"
		},
		{
			"bufferView":81,
			"componentType":5126,
			"count":24,
			"type":"VEC2"
		},
		{
			"bufferView":82,
			"componentType":5123,
			"count":36,
			"type":"SCALAR"
		},
		{
			"bufferView":83,
			"componentType":5126,
			"count":24,
			"max":[
				-5,
				20.200000762939453,
				25.200000762939453
			],
			"min":[
				-5.199999809265137,
				0.20000004768371582,
				-5
			],
			"type":"VEC3"
		},
		{
			"bufferView":84,
			"componentType":5126,
			"count":24,
			"type":"VEC3"
		},
		{
			"bufferView":85,
			"componentType":5126,
			"count":24,
			"type":"VEC2"
		},
		{
			"bufferView":86,
			"componentType":5123,
			"count":36,
			"type":"SCALAR"
		},
		{
			"bufferView":87,
			"componentType":5126,
			"count":24,
			"max":[
				5,
				0.20000004768371582,
				25.200000762939453
			],
			"min":[
				-5,
				0,
				-5
			],
			"type":"VEC3"
		},
		{
			"bufferView":88,
			"componentType":5126,
			"count":24,
			"type":"VEC3"
		},
		{
			"bufferView":89,
			"componentType":5126,
			"count":24,
			"type":"VEC2"
		},
		{
			"bufferView":90,
			"componentType":5123,
			"count":36,
			"type":"SCALAR"
		},
		{
			"bufferView":91,
			"componentType":5126,
			"count":24,
			"max":[
				5,
				20.400001525878906,
				25.200000762939453
			],
			"min":[
				-5,
				20.200000762939453,
				-5
			],
			"type":"VEC3"
		},
		{
			"bufferView":92,
			"componentType":5126,
			"count":24,
			"type":"VEC3"
		},
		{
			"bufferView":93,
			"componentType":5126,
			"count":24,
			"type":"VEC2"
		}
	],
	"bufferViews":[
		{
			"buffer":0,
			"byteLength":240,
			"byteOffset":0,
			"target":34962
		},
		{
			"buffer":0,
			"byteLength":240,
			"byteOffset":240,
			"target":34962
		},
		{
			"buffer":0,
			"byteLength":160,
			"byteOffset":480,
			"target":34962
		},
		{
			"buffer":0,
			"byteLength":60,
			"byteOffset":640,
			"target":34963
		},
		{
			"buffer":0,
			"byteLength":240,
			"byteOffset":700,
			"target":34962
		},
		{
			"buffer":0,
			"byteLength":240,
			"byteOffset":940,
			"target":34962
		},
		{
			"buffer":0,
			"byteLength":160,
			"byteOffset":1180,
			"target":34962
		},
		{
			"buffer":0,
			"byteLength":60,
			"byteOffset":1340,
			"target":34963
		},
		{
			"buffer":0,
			"byteLength":240,
			"byteOffset":1400,
			"target":34962
		},
		{
			"buffer":0,
			"byteLength":240,
			"byteOffset":1640,
			"target":34962
		},
		{
			"buffer":0,
			"byteLength":160,
			"byteOffset":1880,
			"target":34962
		},
		{
			"buffer":0,
			"byteLength":240,
			"byteOffset":2040,
			"target":34962
		},
		{
			"buffer":0,
			"byteLength":240,
			"byteOffset":2280,
			"target":34962
		},
		{
			"buffer":0,
			"byteLength":160,
			"byteOffset":2520,
			"target":34962
		},
		{
			"buffer":0,
			"byteLength":240,
			"byteOffset":2680,
			"target":34962
		},
		{
			"buffer":0,
			"byteLength":240,
			"byteOffset":2920,
			"target":34962
		},
		{
			"buffer":0,
			"byteLength":160,
			"byteOffset":3160,
			"target":34962
		},
		{
			"buffer":0,
			"byteLength":240,
			"byteOffset":3320,
			"target":34962
		},
		{
			"buffer":0,
			"byteLength":240,
			"byteOffset":3560,
			"target":34962
		},
		{
			"buffer":0,
			"byteLength":160,
			"byteOffset":3800,
			"target":34962
		},
		{
			"buffer":0,
			"byteLength":240,
			"byteOffset":3960,
			"target":34962
		},
		{
			"buffer":0,
			"byteLength":240,
			"byteOffset":4200,
			"target":34962
		},
		{
			"buffer":0,
			"byteLength":160,
			"byteOffset":4440,
			"target":34962
		},
		{
			"buffer":0,
			"byteLength":240,
			"byteOffset":4600,
			"target":34962
		},
		{
			"buffer":0,
			"byteLength":240,
			"byteOffset":4840,
			"target":34962
		},
		{
			"buffer":0,
			"byteLength":160,
			"byteOffset":5080,
			"target":34962
		},
		{
			"buffer":0,
			"byteLength":240,
			"byteOffset":5240,
			"target":34962
		},
		{
			"buffer":0,
			"byteLength":240,
			"byteOffset":5480,
			"target":34962
		},
		{
			"buffer":0,
			"byteLength":160,
			"byteOffset":5720,
			"target":34962
		},
		{
			"buffer":0,
			"byteLength":240,
			"byteOffset":5880,
			"target":34962
		},
		{
			"buffer":0,
			"byteLength":240,
			"byteOffset":6120,
			"target":34962
		},
		{
			"buffer":0,
			"byteLength":160,
			"byteOffset":6360,
			"target":34962
		},
		{
			"buffer":0,
			"byteLength":240,
			"byteOffset":6520,
			"target":34962
		},
		{
			"buffer":0,
			"byteLength":240,
			"byteOffset":6760,
			"target":34962
		},
		{
			"buffer":0,
			"byteLength":160,
			"byteOffset":7000,
			"target":34962
		},
		{
			"buffer":0,
			"byteLength":240,
			"byteOffset":7160,
			"target":34962
		},
		{
			"buffer":0,
			"byteLength":240,
			"byteOffset":7400,
			"target":34962
		},
		{
			"buffer":0,
			"byteLength":160,
			"byteOffset":7640,
			"target":34962
		},
		{
			"buffer":0,
			"byteLength":240,
			"byteOffset":7800,
			"target":34962
		},
		{
			"buffer":0,
			"byteLength":240,
			"byteOffset":8040,
			"target":34962
		},
		{
			"buffer":0,
			"byteLength":160,
			"byteOffset":8280,
			"target":34962
		},
		{
			"buffer":0,
			"byteLength":240,
			"byteOffset":8440,
			"target":34962
		},
		{
			"buffer":0,
			"byteLength":240,
			"byteOffset":8680,
			"target":34962
		},
		{
			"buffer":0,
			"byteLength":160,
			"byteOffset":8920,
			"target":34962
		},
		{
			"buffer":0,
			"byteLength":240,
			"byteOffset":9080,
			"target":34962
		},
		{
			"buffer":0,
			"byteLength":240,
			"byteOffset":9320,
			"target":34962
		},
		{
			"buffer":0,
			"byteLength":160,
			"byteOffset":9560,
			"target":34962
		},
		{
			"buffer":0,
			"byteLength":240,
			"byteOffset":9720,
			"target":34962
		},
		{
			"buffer":0,
			"byteLength":240,
			"byteOffset":9960,
			"target":34962
		},
		{
			"buffer":0,
			"byteLength":160,
			"byteOffset":10200,
			"target":34962
		},
		{
			"buffer":0,
			"byteLength":240,
			"byteOffset":10360,
			"target":34962
		},
		{
			"buffer":0,
			"byteLength":240,
			"byteOffset":10600,
			"target":34962
		},
		{
			"buffer":0,
			"byteLength":160,
			"byteOffset":10840,
			"target":34962
		},
		{
			"buffer":0,
			"byteLength":240,
			"byteOffset":11000,
			"target":34962
		},
		{
			"buffer":0,
			"byteLength":240,
			"byteOffset":11240,
			"target":34962
		},
		{
			"buffer":0,
			"byteLength":160,
			"byteOffset":11480,
			"target":34962
		},
		{
			"buffer":0,
			"byteLength":240,
			"byteOffset":11640,
			"target":34962
		},
		{
			"buffer":0,
			"byteLength":240,
			"byteOffset":11880,
			"target":34962
		},
		{
			"buffer":0,
			"byteLength":160,
			"byteOffset":12120,
			"target":34962
		},
		{
			"buffer":0,
			"byteLength":288,
			"byteOffset":12280,
			"target":34962
		},
		{
			"buffer":0,
			"byteLength":288,
			"byteOffset":12568,
			"target":34962
		},
		{
			"buffer":0,
			"byteLength":192,
			"byteOffset":12856,
			"target":34962
		},
		{
			"buffer":0,
			"byteLength":72,
			"byteOffset":13048,
			"target":34963
		},
		{
			"buffer":0,
			"byteLength":48,
			"byteOffset":13120,
			"target":34962
		},
		{
			"buffer":0,
			"byteLength":48,
			"byteOffset":13168,
			"target":34962
		},
		{
			"buffer":0,
			"byteLength":32,
			"byteOffset":13216,
			"target":34962
		},
		{
			"buffer":0,
			"byteLength":12,
			"byteOffset":13248,
			"target":34963
		},
		{
			"buffer":0,
			"byteLength":240,
			"byteOffset":13260,
			"target":34962
		},
		{
			"buffer":0,
			"byteLength":240,
			"byteOffset":13500,
			"target":34962
		},
		{
			"buffer":0,
			"byteLength":160,
			"byteOffset":13740,
			"target":34962
		},
		{
			"buffer":0,
			"byteLength":60,
			"byteOffset":13900,
			"target":34963
		},
		{
			"buffer":0,
			"byteLength":288,
			"byteOffset":13960,
			"target":34962
		},
		{
			"buffer":0,
			"byteLength":288,
			"byteOffset":14248,
			"target":34962
		},
		{
			"buffer":0,
			"byteLength":192,
			"byteOffset":14536,
			"target":34962
		},
		{
			"buffer":0,
			"byteLength":72,
			"byteOffset":14728,
			"target":34963
		},
		{
			"buffer":0,
			"byteLength":288,
			"byteOffset":14800,
			"target":34962
		},
		{
			"buffer":0,
			"byteLength":288,
			"byteOffset":15088,
			"target":34962
		},
		{
			"buffer":0,
			"byteLength":192,
			"byteOffset":15376,
			"target":34962
		},
		{
			"buffer":0,
			"byteLength":72,
			"byteOffset":15568,
			"target":34963
		},
		{
			"buffer":0,
			"byteLength":288,
			"byteOffset":15640,
			"target":34962
		},
		{
			"buffer":0,
			"byteLength":288,
			"byteOffset":15928,
			"target":34962
		},
		{
			"buffer":0,
			"byteLength":192,
			"byteOffset":16216,
			"target":34962
		},
		{
			"buffer":0,
			"byteLength":72,
			"byteOffset":16408,
			"target":34963
		},
		{
			"buffer":0,
			"byteLength":288,
			"byteOffset":16480,
			"target":34962
		},
		{
			"buffer":0,
			"byteLength":288,
			"byteOffset":16768,
			"target":34962
		},
		{
			"buffer":0,
			"byteLength":192,
			"byteOffset":17056,
			"target":34962
		},
		{
			"buffer":0,
			"byteLength":72,
			"byteOffset":17248,
			"target":34963
		},
		{
			"buffer":0,
			"byteLength":288,
			"byteOffset":17320,
			"target":34962
		},
		{
			"buffer":0,
			"byteLength":288,
			"byteOffset":17608,
			"target":34962
		},
		{
			"buffer":0,
			"byteLength":192,
			"byteOffset":17896,
			"target":34962
		},
		{
			"buffer":0,
			"byteLength":72,
			"byteOffset":18088,
			"target":34963
		},
		{
			"buffer":0,
			"byteLength":288,
			"byteOffset":18160,
			"target":34962
		},
		{
			"buffer":0,
			"byteLength":288,
			"byteOffset":18448,
			"target":34962
		},
		{
			"buffer":0,
			"byteLength":192,
			"byteOffset":18736,
			"target":34962
		}
	],
	"samplers":[
		{
			"magFilter":9729,
			"minFilter":9987
		}
	],
	"buffers":[
		{
			"byteLength":18928,
			"uri":"tutorial.bin"
		}
	]
}
