# Blender 4.2.2 LTS
# www.blender.org
mtllib Collision.mtl
o 立方体.005
v 9.499994 -79.000000 18.000008
v 9.499994 0.000004 18.000002
v 9.499992 -79.000000 28.000008
v 9.499992 0.000006 28.000002
v -9.500006 -79.000000 18.000004
v -9.500006 0.000004 18.000002
v -9.500008 -79.000000 28.000004
v -9.500008 0.000006 28.000002
vn 1.0000 -0.0000 -0.0000
vn -0.0000 1.0000 -0.0000
vn -0.0000 -1.0000 -0.0000
vn -0.0000 -0.0000 -1.0000
vn -1.0000 -0.0000 -0.0000
vn -0.0000 -0.0000 1.0000
vt 0.375000 0.000000
vt 0.625000 0.000000
vt 0.625000 0.250000
vt 0.375000 0.250000
vt 0.625000 0.750000
vt 0.625000 0.500000
vt 0.875000 0.500000
vt 0.875000 0.750000
vt 0.375000 0.750000
vt 0.125000 0.750000
vt 0.125000 0.500000
vt 0.375000 0.500000
vt 0.625000 1.000000
vt 0.375000 1.000000
s 1
usemtl Material.002
f 1/1/1 2/2/1 4/3/1 3/4/1
f 6/5/2 8/6/2 4/7/2 2/8/2
f 5/9/3 1/10/3 3/11/3 7/12/3
f 5/9/4 6/5/4 2/13/4 1/14/4
f 7/12/5 8/6/5 6/5/5 5/9/5
f 3/4/6 4/3/6 8/6/6 7/12/6
o 立方体.006
v 12.499990 -64.999992 34.500004
v 12.499990 0.000010 34.500000
v 12.499989 -64.999992 44.500004
v 12.499989 0.000010 44.500000
v 4.499990 -64.999992 34.500000
v 4.499990 0.000010 34.500000
v 4.499988 -64.999992 44.500000
v 4.499988 0.000010 44.500000
vn -0.0000 -1.0000 -0.0000
vn 1.0000 -0.0000 -0.0000
vn -1.0000 -0.0000 -0.0000
vn -0.0000 -0.0000 -1.0000
vn -0.0000 1.0000 -0.0000
vn -0.0000 -0.0000 1.0000
vt 0.375000 0.750000
vt 0.125000 0.750000
vt 0.125000 0.500000
vt 0.375000 0.500000
vt 0.375000 0.000000
vt 0.625000 0.000000
vt 0.625000 0.250000
vt 0.375000 0.250000
vt 0.625000 0.500000
vt 0.625000 0.750000
vt 0.625000 1.000000
vt 0.375000 1.000000
vt 0.875000 0.500000
vt 0.875000 0.750000
s 1
usemtl Material.002
f 13/15/7 9/16/7 11/17/7 15/18/7
f 9/19/8 10/20/8 12/21/8 11/22/8
f 15/18/9 16/23/9 14/24/9 13/15/9
f 13/15/10 14/24/10 10/25/10 9/26/10
f 16/23/11 12/27/11 10/28/11 14/24/11
f 11/22/12 12/21/12 16/23/12 15/18/12
o 立方体.008
v -4.500010 -64.999992 34.500000
v -4.500010 0.000010 34.500000
v -4.500012 -64.999992 44.500000
v -4.500012 0.000010 44.500000
v -12.500010 -64.999992 34.500000
v -12.500010 0.000010 34.500000
v -12.500011 -64.999992 44.500000
v -12.500011 0.000010 44.500000
vn -0.0000 -1.0000 -0.0000
vn 1.0000 -0.0000 -0.0000
vn -1.0000 -0.0000 -0.0000
vn -0.0000 -0.0000 -1.0000
vn -0.0000 1.0000 -0.0000
vn -0.0000 -0.0000 1.0000
vt 0.375000 0.750000
vt 0.125000 0.750000
vt 0.125000 0.500000
vt 0.375000 0.500000
vt 0.375000 0.000000
vt 0.625000 0.000000
vt 0.625000 0.250000
vt 0.375000 0.250000
vt 0.625000 0.500000
vt 0.625000 0.750000
vt 0.625000 1.000000
vt 0.375000 1.000000
vt 0.875000 0.500000
vt 0.875000 0.750000
s 1
usemtl Material.002
f 21/29/13 17/30/13 19/31/13 23/32/13
f 17/33/14 18/34/14 20/35/14 19/36/14
f 23/32/15 24/37/15 22/38/15 21/29/15
f 21/29/16 22/38/16 18/39/16 17/40/16
f 24/37/17 20/41/17 18/42/17 22/38/17
f 19/36/18 20/35/18 24/37/18 23/32/18
o 立方体.009
v 3.499985 -78.999985 51.000004
v 3.499985 0.000012 51.000000
v 3.499985 -78.999985 61.000004
v 3.499985 0.000014 61.000000
v -3.500014 -78.999985 51.000000
v -3.500014 0.000012 51.000000
v -3.500014 -78.999985 61.000000
v -3.500014 0.000014 61.000000
vn -1.0000 -0.0000 -0.0000
vn -0.0000 -0.0000 1.0000
vn -0.0000 -1.0000 -0.0000
vn 1.0000 -0.0000 -0.0000
vn -0.0000 1.0000 -0.0000
vn -0.0000 -0.0000 -1.0000
vt 0.375000 0.500000
vt 0.625000 0.500000
vt 0.625000 0.750000
vt 0.375000 0.750000
vt 0.375000 0.250000
vt 0.625000 0.250000
vt 0.125000 0.750000
vt 0.125000 0.500000
vt 0.375000 0.000000
vt 0.625000 0.000000
vt 0.875000 0.500000
vt 0.875000 0.750000
vt 0.625000 1.000000
vt 0.375000 1.000000
s 1
usemtl Material.002
f 31/43/19 32/44/19 30/45/19 29/46/19
f 27/47/20 28/48/20 32/44/20 31/43/20
f 29/46/21 25/49/21 27/50/21 31/43/21
f 25/51/22 26/52/22 28/48/22 27/47/22
f 32/44/23 28/53/23 26/54/23 30/45/23
f 29/46/24 30/45/24 26/55/24 25/56/24
o 立方体.010
v -12.500000 -79.000000 -14.000000
v -12.500000 56.999996 -14.000007
v -12.500008 -79.000000 28.000002
v -12.500008 57.000004 27.999992
v -29.500000 -79.000000 -14.000002
v -29.500000 56.999996 -14.000010
v -29.500008 -79.000000 27.999998
v -29.500008 57.000004 27.999990
vn -0.0000 -0.0000 1.0000
vn 1.0000 -0.0000 -0.0000
vn -0.0000 1.0000 -0.0000
vn -1.0000 -0.0000 -0.0000
vn -0.0000 -1.0000 -0.0000
vn -0.0000 -0.0000 -1.0000
vt 0.375000 0.250000
vt 0.625000 0.250000
vt 0.625000 0.500000
vt 0.375000 0.500000
vt 0.375000 0.000000
vt 0.625000 0.000000
vt 0.875000 0.500000
vt 0.875000 0.750000
vt 0.625000 0.750000
vt 0.375000 0.750000
vt 0.125000 0.500000
vt 0.125000 0.750000
vt 0.625000 1.000000
vt 0.375000 1.000000
s 1
usemtl Material.002
f 35/57/25 36/58/25 40/59/25 39/60/25
f 33/61/26 34/62/26 36/58/26 35/57/26
f 40/59/27 36/63/27 34/64/27 38/65/27
f 38/65/28 37/66/28 39/60/28 40/59/28
f 35/67/29 39/60/29 37/66/29 33/68/29
f 37/66/30 38/65/30 34/69/30 33/70/30
o 立方体.011
v -12.500017 -78.999992 44.000000
v -12.500017 57.000011 43.999996
v -12.500025 -78.999977 86.000000
v -12.500025 57.000019 85.999992
v -29.500019 -78.999992 44.000000
v -29.500019 57.000011 43.999992
v -29.500027 -78.999977 85.999992
v -29.500027 57.000019 85.999985
vn -0.0000 -1.0000 -0.0000
vn -0.0000 -0.0000 -1.0000
vn -0.0000 -0.0000 1.0000
vn -1.0000 -0.0000 -0.0000
vn -0.0000 1.0000 -0.0000
vn 1.0000 -0.0000 -0.0000
vt 0.125000 0.500000
vt 0.375000 0.500000
vt 0.375000 0.750000
vt 0.125000 0.750000
vt 0.625000 0.750000
vt 0.625000 1.000000
vt 0.375000 1.000000
vt 0.625000 0.500000
vt 0.375000 0.250000
vt 0.625000 0.250000
vt 0.875000 0.750000
vt 0.875000 0.500000
vt 0.375000 0.000000
vt 0.625000 0.000000
s 1
usemtl Material.002
f 43/71/31 47/72/31 45/73/31 41/74/31
f 45/73/32 46/75/32 42/76/32 41/77/32
f 48/78/33 47/72/33 43/79/33 44/80/33
f 47/72/34 48/78/34 46/75/34 45/73/34
f 42/81/35 46/75/35 48/78/35 44/82/35
f 41/83/36 42/84/36 44/80/36 43/79/36
o 立方体.012
v 12.499982 -78.999985 61.000008
v 12.499982 0.000015 61.000000
v 12.499978 -78.999985 86.000000
v 12.499978 0.000017 86.000000
v -12.500015 -78.999985 61.000000
v -12.500015 0.000015 61.000000
v -12.500019 -78.999985 86.000000
v -12.500019 0.000017 86.000000
vn 1.0000 -0.0000 -0.0000
vn -0.0000 -0.0000 -1.0000
vn -0.0000 -0.0000 1.0000
vn -0.0000 1.0000 -0.0000
vn -1.0000 -0.0000 -0.0000
vn -0.0000 -1.0000 -0.0000
vt 0.375000 0.000000
vt 0.625000 0.000000
vt 0.625000 0.250000
vt 0.375000 0.250000
vt 0.375000 0.750000
vt 0.625000 0.750000
vt 0.625000 1.000000
vt 0.375000 1.000000
vt 0.625000 0.500000
vt 0.375000 0.500000
vt 0.875000 0.500000
vt 0.875000 0.750000
vt 0.125000 0.500000
vt 0.125000 0.750000
s 1
usemtl Material.002
f 49/85/37 50/86/37 52/87/37 51/88/37
f 53/89/38 54/90/38 50/91/38 49/92/38
f 51/88/39 52/87/39 56/93/39 55/94/39
f 52/95/40 50/96/40 54/90/40 56/93/40
f 55/94/41 56/93/41 54/90/41 53/89/41
f 51/97/42 55/94/42 53/89/42 49/98/42
o 立方体.013
v 122.499977 -78.999985 61.000019
v 122.499977 0.000015 61.000019
v 122.499977 -78.999985 86.000015
v 122.499977 0.000017 86.000008
v 40.499985 -78.999985 61.000008
v 40.499985 0.000015 61.000008
v 40.499977 -78.999985 86.000008
v 40.499977 0.000017 86.000000
vn -1.0000 -0.0000 -0.0000
vn -0.0000 -0.0000 1.0000
vn -0.0000 1.0000 -0.0000
vn -0.0000 -0.0000 -1.0000
vn 1.0000 -0.0000 -0.0000
vn -0.0000 -1.0000 -0.0000
vt 0.625000 0.750000
vt 0.375000 0.750000
vt 0.375000 0.500000
vt 0.625000 0.500000
vt 0.375000 0.250000
vt 0.625000 0.250000
vt 0.875000 0.500000
vt 0.875000 0.750000
vt 0.625000 1.000000
vt 0.375000 1.000000
vt 0.375000 0.000000
vt 0.625000 0.000000
vt 0.125000 0.500000
vt 0.125000 0.750000
s 1
usemtl Material.002
f 62/99/43 61/100/43 63/101/43 64/102/43
f 59/103/44 60/104/44 64/102/44 63/101/44
f 64/102/45 60/105/45 58/106/45 62/99/45
f 61/100/46 62/99/46 58/107/46 57/108/46
f 60/104/47 59/103/47 57/109/47 58/110/47
f 59/111/48 63/101/48 61/100/48 57/112/48
o 立方体.014
v 14.500003 -79.000000 -13.999994
v 14.500003 57.000000 -14.000002
v 14.499997 -79.000000 21.000006
v 14.499997 57.000000 20.999998
v 12.500003 -79.000000 -13.999995
v 12.500003 57.000000 -14.000002
v 12.499997 -79.000000 21.000006
v 12.499997 57.000000 20.999998
vn 1.0000 -0.0000 -0.0000
vn -0.0000 -0.0000 1.0000
vn -0.0000 -1.0000 -0.0000
vn -1.0000 -0.0000 -0.0000
vn -0.0000 1.0000 -0.0000
vn -0.0000 -0.0000 -1.0000
vt 0.625000 0.000000
vt 0.625000 0.250000
vt 0.375000 0.250000
vt 0.375000 0.000000
vt 0.625000 0.500000
vt 0.375000 0.500000
vt 0.375000 0.750000
vt 0.125000 0.750000
vt 0.125000 0.500000
vt 0.625000 0.750000
vt 0.875000 0.500000
vt 0.875000 0.750000
vt 0.625000 1.000000
vt 0.375000 1.000000
s 1
usemtl Material.002
f 66/113/49 68/114/49 67/115/49 65/116/49
f 67/115/50 68/114/50 72/117/50 71/118/50
f 69/119/51 65/120/51 67/121/51 71/118/51
f 70/122/52 69/119/52 71/118/52 72/117/52
f 72/117/53 68/123/53 66/124/53 70/122/53
f 69/119/54 70/122/54 66/125/54 65/126/54
o 立方体.015
v 14.499997 -79.000000 21.000006
v 14.499997 57.000000 20.999998
v 14.499995 -79.000000 38.000008
v 14.499995 57.000008 38.000000
v 10.999997 -79.000000 21.000006
v 10.999997 57.000000 20.999996
v 10.999995 -79.000000 38.000008
v 10.999995 57.000008 38.000000
vn -1.0000 -0.0000 -0.0000
vn -0.0000 -1.0000 -0.0000
vn 1.0000 -0.0000 -0.0000
vn -0.0000 1.0000 -0.0000
vn -0.0000 -0.0000 -1.0000
vn -0.0000 -0.0000 1.0000
vt 0.625000 0.750000
vt 0.375000 0.750000
vt 0.375000 0.500000
vt 0.625000 0.500000
vt 0.125000 0.500000
vt 0.125000 0.750000
vt 0.625000 0.250000
vt 0.375000 0.250000
vt 0.375000 0.000000
vt 0.625000 0.000000
vt 0.875000 0.500000
vt 0.875000 0.750000
vt 0.625000 1.000000
vt 0.375000 1.000000
s 1
usemtl Material.002
f 78/127/55 77/128/55 79/129/55 80/130/55
f 75/131/56 79/129/56 77/128/56 73/132/56
f 76/133/57 75/134/57 73/135/57 74/136/57
f 80/130/58 76/137/58 74/138/58 78/127/58
f 77/128/59 78/127/59 74/139/59 73/140/59
f 75/134/60 76/133/60 80/130/60 79/129/60
o 立方体.016
v 15.999994 -78.999985 38.000008
v 15.999994 57.000008 38.000000
v 15.999992 -78.999985 48.000008
v 15.999992 57.000008 48.000000
v 13.799990 -78.999985 38.000008
v 13.799990 57.000008 38.000000
v 13.799988 -78.999985 48.000008
v 13.799988 57.000008 48.000000
vn -0.0000 -1.0000 -0.0000
vn 1.0000 -0.0000 -0.0000
vn -0.0000 -0.0000 1.0000
vn -1.0000 -0.0000 -0.0000
vn -0.0000 1.0000 -0.0000
vn -0.0000 -0.0000 -1.0000
vt 0.375000 0.750000
vt 0.125000 0.750000
vt 0.125000 0.500000
vt 0.375000 0.500000
vt 0.375000 0.000000
vt 0.625000 0.000000
vt 0.625000 0.250000
vt 0.375000 0.250000
vt 0.625000 0.500000
vt 0.625000 0.750000
vt 0.875000 0.500000
vt 0.875000 0.750000
vt 0.625000 1.000000
vt 0.375000 1.000000
s 1
usemtl Material.002
f 85/141/61 81/142/61 83/143/61 87/144/61
f 81/145/62 82/146/62 84/147/62 83/148/62
f 83/148/63 84/147/63 88/149/63 87/144/63
f 87/144/64 88/149/64 86/150/64 85/141/64
f 88/149/65 84/151/65 82/152/65 86/150/65
f 85/141/66 86/150/66 82/153/66 81/154/66
o 立方体.017
v 14.499987 -78.999992 48.000008
v 14.499987 57.000011 48.000000
v 14.499986 -78.999985 59.000004
v 14.499986 57.000011 58.999996
v 12.499987 -78.999992 48.000008
v 12.499987 57.000011 48.000000
v 12.499986 -78.999985 59.000004
v 12.499986 57.000011 58.999996
vn 1.0000 -0.0000 -0.0000
vn -0.0000 -1.0000 -0.0000
vn -0.0000 -0.0000 1.0000
vn -1.0000 -0.0000 -0.0000
vn -0.0000 -0.0000 -1.0000
vn -0.0000 1.0000 -0.0000
vt 0.625000 0.250000
vt 0.375000 0.250000
vt 0.375000 0.000000
vt 0.625000 0.000000
vt 0.125000 0.500000
vt 0.375000 0.500000
vt 0.375000 0.750000
vt 0.125000 0.750000
vt 0.625000 0.500000
vt 0.625000 0.750000
vt 0.625000 1.000000
vt 0.375000 1.000000
vt 0.875000 0.500000
vt 0.875000 0.750000
s 1
usemtl Material.002
f 92/155/67 91/156/67 89/157/67 90/158/67
f 91/159/68 95/160/68 93/161/68 89/162/68
f 91/156/69 92/155/69 96/163/69 95/160/69
f 93/161/70 95/160/70 96/163/70 94/164/70
f 93/161/71 94/164/71 90/165/71 89/166/71
f 96/163/72 92/167/72 90/168/72 94/164/72
o 立方体.018
v 120.499977 -78.999977 86.000015
v 120.499977 57.000019 86.000008
v 120.499977 -78.999977 138.000015
v 120.499977 57.000019 138.000000
v -12.500024 -78.999977 86.000000
v -12.500024 57.000019 85.999992
v -12.500024 -78.999977 138.000000
v -12.500024 57.000019 138.000000
vn -0.0000 -0.0000 1.0000
vn 1.0000 -0.0000 -0.0000
vn -0.0000 -0.0000 -1.0000
vn -0.0000 -1.0000 -0.0000
vn -0.0000 1.0000 -0.0000
vn -1.0000 -0.0000 -0.0000
vt 0.375000 0.250000
vt 0.625000 0.250000
vt 0.625000 0.500000
vt 0.375000 0.500000
vt 0.375000 0.000000
vt 0.625000 0.000000
vt 0.375000 0.750000
vt 0.625000 0.750000
vt 0.625000 1.000000
vt 0.375000 1.000000
vt 0.125000 0.750000
vt 0.125000 0.500000
vt 0.875000 0.500000
vt 0.875000 0.750000
s 1
usemtl Material.002
f 99/169/73 100/170/73 104/171/73 103/172/73
f 97/173/74 98/174/74 100/170/74 99/169/74
f 101/175/75 102/176/75 98/177/75 97/178/75
f 101/175/76 97/179/76 99/180/76 103/172/76
f 104/171/77 100/181/77 98/182/77 102/176/77
f 103/172/78 104/171/78 102/176/78 101/175/78
o 立方体.019
v 138.499969 -78.999969 59.000027
v 138.499969 57.000019 59.000019
v 138.499969 -78.999969 61.000027
v 138.499969 57.000019 61.000019
v 14.499986 -78.999969 59.000011
v 14.499986 57.000019 59.000004
v 14.499985 -78.999969 61.000011
v 14.499985 57.000019 61.000004
vn 1.0000 -0.0000 -0.0000
vn -0.0000 -0.0000 1.0000
vn -0.0000 1.0000 -0.0000
vn -0.0000 -1.0000 -0.0000
vn -1.0000 -0.0000 -0.0000
vn -0.0000 -0.0000 -1.0000
vt 0.375000 0.000000
vt 0.625000 0.000000
vt 0.625000 0.250000
vt 0.375000 0.250000
vt 0.625000 0.500000
vt 0.375000 0.500000
vt 0.875000 0.500000
vt 0.875000 0.750000
vt 0.625000 0.750000
vt 0.375000 0.750000
vt 0.125000 0.750000
vt 0.125000 0.500000
vt 0.625000 1.000000
vt 0.375000 1.000000
s 1
usemtl Material.002
f 105/183/79 106/184/79 108/185/79 107/186/79
f 107/186/80 108/185/80 112/187/80 111/188/80
f 112/187/81 108/189/81 106/190/81 110/191/81
f 109/192/82 105/193/82 107/194/82 111/188/82
f 111/188/83 112/187/83 110/191/83 109/192/83
f 109/192/84 110/191/84 106/195/84 105/196/84
o 立方体.020
v 12.500001 -79.000000 -13.999995
v 12.500001 -0.000003 -13.999998
v 12.499997 -79.000000 14.000007
v 12.499997 0.000001 14.000004
v -12.499999 -79.000000 -14.000000
v -12.499999 -0.000003 -14.000002
v -12.500003 -79.000000 14.000002
v -12.500003 0.000001 14.000000
vn -1.0000 -0.0000 -0.0000
vn -0.0000 -0.0000 1.0000
vn -0.0000 -1.0000 -0.0000
vn -0.0000 -0.0000 -1.0000
vn 1.0000 -0.0000 -0.0000
vn -0.0000 1.0000 -0.0000
vt 0.625000 0.750000
vt 0.375000 0.750000
vt 0.375000 0.500000
vt 0.625000 0.500000
vt 0.375000 0.250000
vt 0.625000 0.250000
vt 0.125000 0.500000
vt 0.125000 0.750000
vt 0.625000 1.000000
vt 0.375000 1.000000
vt 0.375000 0.000000
vt 0.625000 0.000000
vt 0.875000 0.500000
vt 0.875000 0.750000
s 1
usemtl Material.002
f 118/197/85 117/198/85 119/199/85 120/200/85
f 120/200/86 119/199/86 115/201/86 116/202/86
f 115/203/87 119/199/87 117/198/87 113/204/87
f 117/198/88 118/197/88 114/205/88 113/206/88
f 113/207/89 114/208/89 116/202/89 115/201/89
f 120/200/90 116/209/90 114/210/90 118/197/90
o 立方体.021
v 83.199989 0.000016 69.288910
v 83.199989 2.208050 69.288910
v 83.199989 0.000017 77.577812
v 83.199989 2.208051 77.577812
v 76.999992 0.000016 69.288910
v 76.999992 2.208050 69.288910
v 76.999992 0.000017 77.577812
v 76.999992 2.208051 77.577812
vn -0.0000 -0.0000 1.0000
vn 1.0000 -0.0000 -0.0000
vn -0.0000 -1.0000 -0.0000
vn -0.0000 -0.0000 -1.0000
vn -1.0000 -0.0000 -0.0000
vn -0.0000 1.0000 -0.0000
vt 0.625000 0.500000
vt 0.375000 0.500000
vt 0.375000 0.250000
vt 0.625000 0.250000
vt 0.375000 0.000000
vt 0.625000 0.000000
vt 0.375000 0.750000
vt 0.125000 0.750000
vt 0.125000 0.500000
vt 0.625000 1.000000
vt 0.375000 1.000000
vt 0.625000 0.750000
vt 0.875000 0.750000
vt 0.875000 0.500000
s 0
usemtl Material.002
f 128/211/91 127/212/91 123/213/91 124/214/91
f 124/214/92 123/213/92 121/215/92 122/216/92
f 125/217/93 121/218/93 123/219/93 127/212/93
f 122/220/94 121/221/94 125/217/94 126/222/94
f 126/222/95 125/217/95 127/212/95 128/211/95
f 122/223/96 126/222/96 128/211/96 124/224/96
o 立方体.022
v 111.999992 0.005781 69.311966
v 111.999992 5.086475 69.311966
v 111.999992 0.005782 77.577812
v 111.999992 5.086476 77.577812
v 91.999992 0.005781 69.311966
v 91.999992 5.086475 69.311966
v 91.999992 0.005782 77.577812
v 91.999992 5.086476 77.577812
vn -0.0000 -0.0000 1.0000
vn 1.0000 -0.0000 -0.0000
vn -0.0000 -1.0000 -0.0000
vn -0.0000 -0.0000 -1.0000
vn -1.0000 -0.0000 -0.0000
vn -0.0000 1.0000 -0.0000
vt 0.625000 0.500000
vt 0.375000 0.500000
vt 0.375000 0.250000
vt 0.625000 0.250000
vt 0.375000 0.000000
vt 0.625000 0.000000
vt 0.375000 0.750000
vt 0.125000 0.750000
vt 0.125000 0.500000
vt 0.625000 1.000000
vt 0.375000 1.000000
vt 0.625000 0.750000
vt 0.875000 0.750000
vt 0.875000 0.500000
s 0
usemtl Material.002
f 136/225/97 135/226/97 131/227/97 132/228/97
f 132/228/98 131/227/98 129/229/98 130/230/98
f 133/231/99 129/232/99 131/233/99 135/226/99
f 130/234/100 129/235/100 133/231/100 134/236/100
f 134/236/101 133/231/101 135/226/101 136/225/101
f 130/237/102 134/236/102 136/225/102 132/238/102
o 立方体.023
v 60.999992 0.000017 77.577812
v 60.999992 1.300018 77.577812
v 60.999992 0.000017 85.866707
v 60.999992 1.300018 85.866707
v 58.999992 0.000017 77.577812
v 58.999992 1.300018 77.577812
v 58.999992 0.000017 85.866707
v 58.999992 1.300018 85.866707
vn 1.0000 -0.0000 -0.0000
vn -0.0000 -0.0000 -1.0000
vn -0.0000 -0.0000 1.0000
vn -0.0000 1.0000 -0.0000
vn -0.0000 -1.0000 -0.0000
vn -1.0000 -0.0000 -0.0000
vt 0.625000 0.250000
vt 0.375000 0.250000
vt 0.375000 0.000000
vt 0.625000 0.000000
vt 0.625000 1.000000
vt 0.375000 1.000000
vt 0.375000 0.750000
vt 0.625000 0.750000
vt 0.625000 0.500000
vt 0.375000 0.500000
vt 0.875000 0.500000
vt 0.875000 0.750000
vt 0.125000 0.750000
vt 0.125000 0.500000
s 0
usemtl Material.002
f 140/239/103 139/240/103 137/241/103 138/242/103
f 138/243/104 137/244/104 141/245/104 142/246/104
f 144/247/105 143/248/105 139/240/105 140/239/105
f 140/249/106 138/250/106 142/246/106 144/247/106
f 141/245/107 137/251/107 139/252/107 143/248/107
f 142/246/108 141/245/108 143/248/108 144/247/108
o 立方体.024
v 60.999996 0.000016 61.000011
v 60.999996 1.300017 61.000011
v 60.999992 0.000016 69.288910
v 60.999992 1.300017 69.288910
v 58.999996 0.000016 61.000011
v 58.999996 1.300017 61.000011
v 58.999992 0.000016 69.288910
v 58.999992 1.300017 69.288910
vn 1.0000 -0.0000 -0.0000
vn -0.0000 -0.0000 -1.0000
vn -0.0000 -0.0000 1.0000
vn -0.0000 1.0000 -0.0000
vn -0.0000 -1.0000 -0.0000
vn -1.0000 -0.0000 -0.0000
vt 0.625000 0.250000
vt 0.375000 0.250000
vt 0.375000 0.000000
vt 0.625000 0.000000
vt 0.625000 1.000000
vt 0.375000 1.000000
vt 0.375000 0.750000
vt 0.625000 0.750000
vt 0.625000 0.500000
vt 0.375000 0.500000
vt 0.875000 0.500000
vt 0.875000 0.750000
vt 0.125000 0.750000
vt 0.125000 0.500000
s 0
usemtl Material.002
f 148/253/109 147/254/109 145/255/109 146/256/109
f 146/257/110 145/258/110 149/259/110 150/260/110
f 152/261/111 151/262/111 147/254/111 148/253/111
f 148/263/112 146/264/112 150/260/112 152/261/112
f 149/259/113 145/265/113 147/266/113 151/262/113
f 150/260/114 149/259/114 151/262/114 152/261/114
o 立方体.025
v 60.999996 1.300017 61.000011
v 60.999996 27.000021 61.000011
v 60.999992 1.300018 85.866707
v 60.999992 27.000023 85.866699
v 58.999996 1.300017 61.000011
v 58.999996 27.000021 61.000011
v 58.999992 1.300018 85.866707
v 58.999992 27.000023 85.866699
vn 1.0000 -0.0000 -0.0000
vn -0.0000 -0.0000 -1.0000
vn -0.0000 -0.0000 1.0000
vn -0.0000 1.0000 -0.0000
vn -0.0000 -1.0000 -0.0000
vn -1.0000 -0.0000 -0.0000
vt 0.625000 0.250000
vt 0.375000 0.250000
vt 0.375000 0.000000
vt 0.625000 0.000000
vt 0.625000 1.000000
vt 0.375000 1.000000
vt 0.375000 0.750000
vt 0.625000 0.750000
vt 0.625000 0.500000
vt 0.375000 0.500000
vt 0.875000 0.750000
vt 0.875000 0.500000
vt 0.125000 0.750000
vt 0.125000 0.500000
s 0
usemtl Material.002
f 156/267/115 155/268/115 153/269/115 154/270/115
f 154/271/116 153/272/116 157/273/116 158/274/116
f 160/275/117 159/276/117 155/268/117 156/267/117
f 154/277/118 158/274/118 160/275/118 156/278/118
f 157/273/119 153/279/119 155/280/119 159/276/119
f 158/274/120 157/273/120 159/276/120 160/275/120
o 立方体.002
v 136.499969 -78.999969 59.000015
v 136.499969 57.000019 59.000015
v 138.499969 -78.999969 59.000015
v 138.499969 57.000019 59.000015
v 136.499969 -78.999969 138.000000
v 136.499954 57.000019 138.000000
v 138.499969 -78.999969 138.000000
v 138.499954 57.000019 138.000000
vn -0.0000 -0.0000 -1.0000
vn 1.0000 -0.0000 -0.0000
vn -0.0000 1.0000 -0.0000
vn -0.0000 -1.0000 -0.0000
vn -0.0000 -0.0000 1.0000
vn -1.0000 -0.0000 -0.0000
vt 0.375000 0.000000
vt 0.625000 0.000000
vt 0.625000 0.250000
vt 0.375000 0.250000
vt 0.625000 0.500000
vt 0.375000 0.500000
vt 0.875000 0.500000
vt 0.875000 0.750000
vt 0.625000 0.750000
vt 0.375000 0.750000
vt 0.125000 0.750000
vt 0.125000 0.500000
vt 0.625000 1.000000
vt 0.375000 1.000000
s 1
usemtl Material.002
f 161/281/121 162/282/121 164/283/121 163/284/121
f 163/284/122 164/283/122 168/285/122 167/286/122
f 168/285/123 164/287/123 162/288/123 166/289/123
f 165/290/124 161/291/124 163/292/124 167/286/124
f 167/286/125 168/285/125 166/289/125 165/290/125
f 165/290/126 166/289/126 162/293/126 161/294/126
o 立方体.030
v 136.499969 9.035917 90.000008
v 136.499969 17.030153 90.000008
v 136.499969 9.035917 100.000008
v 136.499969 17.030153 100.000008
v 132.499969 9.035917 90.000008
v 132.499969 17.030153 90.000008
v 132.499969 9.035917 100.000008
v 132.499969 17.030153 100.000008
vn 1.0000 -0.0000 -0.0000
vn -0.0000 -0.0000 1.0000
vn -1.0000 -0.0000 -0.0000
vn -0.0000 -0.0000 -1.0000
vn -0.0000 -1.0000 -0.0000
vn -0.0000 1.0000 -0.0000
vt 0.375000 0.000000
vt 0.625000 0.000000
vt 0.625000 0.250000
vt 0.375000 0.250000
vt 0.625000 0.500000
vt 0.375000 0.500000
vt 0.625000 0.750000
vt 0.375000 0.750000
vt 0.625000 1.000000
vt 0.375000 1.000000
vt 0.125000 0.500000
vt 0.125000 0.750000
vt 0.875000 0.500000
vt 0.875000 0.750000
s 0
f 169/295/127 170/296/127 172/297/127 171/298/127
f 171/298/128 172/297/128 176/299/128 175/300/128
f 175/300/129 176/299/129 174/301/129 173/302/129
f 173/302/130 174/301/130 170/303/130 169/304/130
f 171/305/131 175/300/131 173/302/131 169/306/131
f 176/299/132 172/307/132 170/308/132 174/301/132
o 立方体.031
v 124.499977 9.041681 90.300011
v 124.499977 17.035917 90.300011
v 124.499977 9.041681 100.300011
v 124.499977 17.035917 100.300011
v 120.499977 9.041681 90.300011
v 120.499977 17.035917 90.300011
v 120.499977 9.041681 100.300011
v 120.499977 17.035917 100.300011
vn 1.0000 -0.0000 -0.0000
vn -0.0000 -0.0000 1.0000
vn -1.0000 -0.0000 -0.0000
vn -0.0000 -0.0000 -1.0000
vn -0.0000 -1.0000 -0.0000
vn -0.0000 1.0000 -0.0000
vt 0.375000 0.000000
vt 0.625000 0.000000
vt 0.625000 0.250000
vt 0.375000 0.250000
vt 0.625000 0.500000
vt 0.375000 0.500000
vt 0.625000 0.750000
vt 0.375000 0.750000
vt 0.625000 1.000000
vt 0.375000 1.000000
vt 0.125000 0.500000
vt 0.125000 0.750000
vt 0.875000 0.500000
vt 0.875000 0.750000
s 0
f 177/309/133 178/310/133 180/311/133 179/312/133
f 179/312/134 180/311/134 184/313/134 183/314/134
f 183/314/135 184/313/135 182/315/135 181/316/135
f 181/316/136 182/315/136 178/317/136 177/318/136
f 179/319/137 183/314/137 181/316/137 177/320/137
f 184/313/138 180/321/138 178/322/138 182/315/138
o 立方体.032
v 124.499977 12.035919 104.000008
v 124.499977 20.030155 104.000008
v 124.499977 12.035919 114.000008
v 124.499977 20.030155 114.000008
v 120.499977 12.035919 104.000008
v 120.499977 20.030155 104.000008
v 120.499977 12.035919 114.000008
v 120.499977 20.030155 114.000008
vn 1.0000 -0.0000 -0.0000
vn -0.0000 -0.0000 1.0000
vn -1.0000 -0.0000 -0.0000
vn -0.0000 -0.0000 -1.0000
vn -0.0000 -1.0000 -0.0000
vn -0.0000 1.0000 -0.0000
vt 0.375000 0.000000
vt 0.625000 0.000000
vt 0.625000 0.250000
vt 0.375000 0.250000
vt 0.625000 0.500000
vt 0.375000 0.500000
vt 0.625000 0.750000
vt 0.375000 0.750000
vt 0.625000 1.000000
vt 0.375000 1.000000
vt 0.125000 0.500000
vt 0.125000 0.750000
vt 0.875000 0.500000
vt 0.875000 0.750000
s 0
f 185/323/139 186/324/139 188/325/139 187/326/139
f 187/326/140 188/325/140 192/327/140 191/328/140
f 191/328/141 192/327/141 190/329/141 189/330/141
f 189/330/142 190/329/142 186/331/142 185/332/142
f 187/333/143 191/328/143 189/330/143 185/334/143
f 192/327/144 188/335/144 186/336/144 190/329/144
o 立方体.033
v 136.499969 12.035919 104.000008
v 136.499969 20.030155 104.000008
v 136.499969 12.035919 114.000008
v 136.499969 20.030155 114.000008
v 132.499969 12.035919 104.000008
v 132.499969 20.030155 104.000008
v 132.499969 12.035919 114.000008
v 132.499969 20.030155 114.000008
vn 1.0000 -0.0000 -0.0000
vn -0.0000 -0.0000 1.0000
vn -1.0000 -0.0000 -0.0000
vn -0.0000 -0.0000 -1.0000
vn -0.0000 -1.0000 -0.0000
vn -0.0000 1.0000 -0.0000
vt 0.375000 0.000000
vt 0.625000 0.000000
vt 0.625000 0.250000
vt 0.375000 0.250000
vt 0.625000 0.500000
vt 0.375000 0.500000
vt 0.625000 0.750000
vt 0.375000 0.750000
vt 0.625000 1.000000
vt 0.375000 1.000000
vt 0.125000 0.500000
vt 0.125000 0.750000
vt 0.875000 0.500000
vt 0.875000 0.750000
s 0
f 193/337/145 194/338/145 196/339/145 195/340/145
f 195/340/146 196/339/146 200/341/146 199/342/146
f 199/342/147 200/341/147 198/343/147 197/344/147
f 197/344/148 198/343/148 194/345/148 193/346/148
f 195/347/149 199/342/149 197/344/149 193/348/149
f 200/341/150 196/349/150 194/350/150 198/343/150
o 立方体.034
v 134.499969 14.041681 115.000008
v 134.499969 22.035917 115.000008
v 134.499969 14.041681 125.000008
v 134.499969 22.035917 125.000008
v 132.499969 14.041681 115.000008
v 132.499969 22.035917 115.000008
v 132.499969 14.041681 125.000008
v 132.499969 22.035917 125.000008
vn 1.0000 -0.0000 -0.0000
vn -0.0000 -0.0000 1.0000
vn -1.0000 -0.0000 -0.0000
vn -0.0000 -0.0000 -1.0000
vn -0.0000 -1.0000 -0.0000
vn -0.0000 1.0000 -0.0000
vt 0.375000 0.000000
vt 0.625000 0.000000
vt 0.625000 0.250000
vt 0.375000 0.250000
vt 0.625000 0.500000
vt 0.375000 0.500000
vt 0.625000 0.750000
vt 0.375000 0.750000
vt 0.625000 1.000000
vt 0.375000 1.000000
vt 0.125000 0.500000
vt 0.125000 0.750000
vt 0.875000 0.500000
vt 0.875000 0.750000
s 0
f 201/351/151 202/352/151 204/353/151 203/354/151
f 203/354/152 204/353/152 208/355/152 207/356/152
f 207/356/153 208/355/153 206/357/153 205/358/153
f 205/358/154 206/357/154 202/359/154 201/360/154
f 203/361/155 207/356/155 205/358/155 201/362/155
f 208/355/156 204/363/156 202/364/156 206/357/156
o 立方体.035
v 124.499977 14.041681 115.000008
v 124.499977 22.035917 115.000008
v 124.499977 14.041681 125.000008
v 124.499977 22.035917 125.000008
v 122.499977 14.041681 115.000008
v 122.499977 22.035917 115.000008
v 122.499977 14.041681 125.000008
v 122.499977 22.035917 125.000008
vn 1.0000 -0.0000 -0.0000
vn -0.0000 -0.0000 1.0000
vn -1.0000 -0.0000 -0.0000
vn -0.0000 -0.0000 -1.0000
vn -0.0000 -1.0000 -0.0000
vn -0.0000 1.0000 -0.0000
vt 0.375000 0.000000
vt 0.625000 0.000000
vt 0.625000 0.250000
vt 0.375000 0.250000
vt 0.625000 0.500000
vt 0.375000 0.500000
vt 0.625000 0.750000
vt 0.375000 0.750000
vt 0.625000 1.000000
vt 0.375000 1.000000
vt 0.125000 0.500000
vt 0.125000 0.750000
vt 0.875000 0.500000
vt 0.875000 0.750000
s 0
f 209/365/157 210/366/157 212/367/157 211/368/157
f 211/368/158 212/367/158 216/369/158 215/370/158
f 215/370/159 216/369/159 214/371/159 213/372/159
f 213/372/160 214/371/160 210/373/160 209/374/160
f 211/375/161 215/370/161 213/372/161 209/376/161
f 216/369/162 212/377/162 210/378/162 214/371/162
o 立方体.036
v 136.499969 7.035919 126.000000
v 136.499969 20.335917 126.000000
v 136.499969 6.735916 138.000000
v 136.499969 20.035917 138.000000
v 120.499977 7.035919 126.000000
v 120.499977 20.335917 126.000000
v 120.499977 6.735916 138.000000
v 120.499977 20.035917 138.000000
vn 1.0000 -0.0000 -0.0000
vn -0.0000 -0.0000 1.0000
vn -1.0000 -0.0000 -0.0000
vn -0.0000 -0.0000 -1.0000
vn -0.0000 -0.9997 -0.0250
vn -0.0000 0.9997 0.0250
vt 0.375000 0.000000
vt 0.625000 0.000000
vt 0.625000 0.250000
vt 0.375000 0.250000
vt 0.625000 0.500000
vt 0.375000 0.500000
vt 0.625000 0.750000
vt 0.375000 0.750000
vt 0.625000 1.000000
vt 0.375000 1.000000
vt 0.125000 0.500000
vt 0.125000 0.750000
vt 0.875000 0.500000
vt 0.875000 0.750000
s 0
f 217/379/163 218/380/163 220/381/163 219/382/163
f 219/382/164 220/381/164 224/383/164 223/384/164
f 223/384/165 224/383/165 222/385/165 221/386/165
f 221/386/166 222/385/166 218/387/166 217/388/166
f 219/389/167 223/384/167 221/386/167 217/390/167
f 224/383/168 220/391/168 218/392/168 222/385/168
o 立方体.028
v 136.499969 -78.999985 61.000019
v 136.499969 7.035917 61.000019
v 136.499969 -79.299988 138.000000
v 136.499969 6.735917 138.000000
v 120.499977 -78.999985 61.000019
v 120.499977 7.035917 61.000019
v 120.499977 -79.299988 138.000000
v 120.499977 6.735917 138.000000
vn 1.0000 -0.0000 -0.0000
vn -0.0000 -0.0000 1.0000
vn -1.0000 -0.0000 -0.0000
vn -0.0000 -0.0000 -1.0000
vn -0.0000 -1.0000 -0.0039
vn -0.0000 1.0000 0.0039
vt 0.375000 0.000000
vt 0.625000 0.000000
vt 0.625000 0.250000
vt 0.375000 0.250000
vt 0.625000 0.500000
vt 0.375000 0.500000
vt 0.625000 0.750000
vt 0.375000 0.750000
vt 0.625000 1.000000
vt 0.375000 1.000000
vt 0.125000 0.500000
vt 0.125000 0.750000
vt 0.875000 0.500000
vt 0.875000 0.750000
s 0
f 225/393/169 226/394/169 228/395/169 227/396/169
f 227/396/170 228/395/170 232/397/170 231/398/170
f 231/398/171 232/397/171 230/399/171 229/400/171
f 229/400/172 230/399/172 226/401/172 225/402/172
f 227/403/173 231/398/173 229/400/173 225/404/173
f 232/397/174 228/405/174 226/406/174 230/399/174
o 立方体.026
v 136.499969 -78.999969 138.000000
v 136.499969 57.000011 138.000000
v 136.499969 -78.999969 140.000000
v 136.499969 57.000011 140.000000
v 120.505745 -78.999969 138.000000
v 120.505745 57.000011 138.000000
v 120.505745 -78.999969 140.000000
v 120.505745 57.000011 140.000000
vn 1.0000 -0.0000 -0.0000
vn -0.0000 -0.0000 1.0000
vn -1.0000 -0.0000 -0.0000
vn -0.0000 -0.0000 -1.0000
vn -0.0000 -1.0000 -0.0000
vn -0.0000 1.0000 -0.0000
vt 0.375000 0.000000
vt 0.625000 0.000000
vt 0.625000 0.250000
vt 0.375000 0.250000
vt 0.625000 0.500000
vt 0.375000 0.500000
vt 0.625000 0.750000
vt 0.375000 0.750000
vt 0.625000 1.000000
vt 0.375000 1.000000
vt 0.125000 0.500000
vt 0.125000 0.750000
vt 0.875000 0.500000
vt 0.875000 0.750000
s 0
f 233/407/175 234/408/175 236/409/175 235/410/175
f 235/410/176 236/409/176 240/411/176 239/412/176
f 239/412/177 240/411/177 238/413/177 237/414/177
f 237/414/178 238/413/178 234/415/178 233/416/178
f 235/417/179 239/412/179 237/414/179 233/418/179
f 240/411/180 236/419/180 234/420/180 238/413/180
