# Blender 4.2.2 LTS
# www.blender.org
mtllib Model.mtl
o 立方体.001
v 60.000000 -18.999979 59.000004
v 60.000000 27.000013 59.000004
v 60.000000 -18.999979 61.000004
v 60.000000 27.000013 61.000004
v 14.499996 -18.999979 59.000004
v 14.499996 27.000013 59.000004
v 14.499996 -18.999979 61.000004
v 14.499996 27.000013 61.000004
vn 1.0000 -0.0000 -0.0000
vn -0.0000 -0.0000 1.0000
vn -1.0000 -0.0000 -0.0000
vn -0.0000 -0.0000 -1.0000
vn -0.0000 -1.0000 -0.0000
vn -0.0000 1.0000 -0.0000
vt 0.625000 0.000000
vt 0.375000 0.250000
vt 0.375000 0.000000
vt 0.625000 0.250000
vt 0.375000 0.500000
vt 0.625000 0.500000
vt 0.375000 0.750000
vt 0.625000 0.750000
vt 0.375000 1.000000
vt 0.125000 0.750000
vt 0.125000 0.500000
vt 0.875000 0.500000
vt 0.625000 1.000000
vt 0.875000 0.750000
s 0
usemtl Material.003
f 2/1/1 3/2/1 1/3/1
f 4/4/2 7/5/2 3/2/2
f 8/6/3 5/7/3 7/5/3
f 6/8/4 1/9/4 5/7/4
f 7/5/5 1/10/5 3/11/5
f 4/12/6 6/8/6 8/6/6
f 2/1/1 4/4/1 3/2/1
f 4/4/2 8/6/2 7/5/2
f 8/6/3 6/8/3 5/7/3
f 6/8/4 2/13/4 1/9/4
f 7/5/5 5/7/5 1/10/5
f 4/12/6 2/14/6 6/8/6
o 立方体.002
v 60.000000 -18.999987 86.000000
v 60.000000 27.000006 86.000000
v 60.000000 -18.999987 88.000000
v 60.000000 27.000006 88.000000
v -12.500008 -18.999987 86.000000
v -12.500008 27.000006 86.000000
v -12.500008 -18.999987 88.000000
v -12.500008 27.000006 88.000000
vn 1.0000 -0.0000 -0.0000
vn -0.0000 -0.0000 1.0000
vn -1.0000 -0.0000 -0.0000
vn -0.0000 -0.0000 -1.0000
vn -0.0000 -1.0000 -0.0000
vn -0.0000 1.0000 -0.0000
vt 0.625000 0.000000
vt 0.375000 0.250000
vt 0.375000 0.000000
vt 0.625000 0.250000
vt 0.375000 0.500000
vt 0.625000 0.500000
vt 0.375000 0.750000
vt 0.625000 0.750000
vt 0.375000 1.000000
vt 0.125000 0.750000
vt 0.125000 0.500000
vt 0.875000 0.500000
vt 0.625000 1.000000
vt 0.875000 0.750000
s 0
usemtl Material.003
f 10/15/7 11/16/7 9/17/7
f 12/18/8 15/19/8 11/16/8
f 16/20/9 13/21/9 15/19/9
f 14/22/10 9/23/10 13/21/10
f 15/19/11 9/24/11 11/25/11
f 12/26/12 14/22/12 16/20/12
f 10/15/7 12/18/7 11/16/7
f 12/18/8 16/20/8 15/19/8
f 16/20/9 14/22/9 13/21/9
f 14/22/10 10/27/10 9/23/10
f 15/19/11 13/21/11 9/24/11
f 12/26/12 10/28/12 14/22/12
o 立方体.003
v 14.499994 -18.999994 48.000000
v 14.499994 27.000006 48.000000
v 14.499994 -18.999994 58.999996
v 14.499994 27.000006 58.999996
v 12.499994 -18.999994 48.000000
v 12.499994 27.000006 48.000000
v 12.499994 -18.999994 58.999996
v 12.499994 27.000006 58.999996
vn 1.0000 -0.0000 -0.0000
vn -0.0000 -0.0000 1.0000
vn -1.0000 -0.0000 -0.0000
vn -0.0000 -0.0000 -1.0000
vn -0.0000 -1.0000 -0.0000
vn -0.0000 1.0000 -0.0000
vt 0.625000 0.000000
vt 0.375000 0.250000
vt 0.375000 0.000000
vt 0.625000 0.250000
vt 0.375000 0.500000
vt 0.625000 0.500000
vt 0.375000 0.750000
vt 0.625000 0.750000
vt 0.375000 1.000000
vt 0.125000 0.750000
vt 0.125000 0.500000
vt 0.875000 0.500000
vt 0.625000 1.000000
vt 0.875000 0.750000
s 0
usemtl Material.003
f 18/29/13 19/30/13 17/31/13
f 20/32/14 23/33/14 19/30/14
f 24/34/15 21/35/15 23/33/15
f 22/36/16 17/37/16 21/35/16
f 23/33/17 17/38/17 19/39/17
f 20/40/18 22/36/18 24/34/18
f 18/29/13 20/32/13 19/30/13
f 20/32/14 24/34/14 23/33/14
f 24/34/15 22/36/15 21/35/15
f 22/36/16 18/41/16 17/37/16
f 23/33/17 21/35/17 17/38/17
f 20/40/18 18/42/18 22/36/18
o 立方体.004
v 16.000000 -18.999992 38.000000
v 16.000000 27.000000 38.000000
v 16.000000 -18.999992 48.000000
v 16.000000 27.000000 48.000000
v 13.799995 -18.999992 38.000000
v 13.799995 27.000000 38.000000
v 13.799995 -18.999992 48.000000
v 13.799995 27.000000 48.000000
vn 1.0000 -0.0000 -0.0000
vn -0.0000 -0.0000 1.0000
vn -1.0000 -0.0000 -0.0000
vn -0.0000 -0.0000 -1.0000
vn -0.0000 -1.0000 -0.0000
vn -0.0000 1.0000 -0.0000
vt 0.625000 0.000000
vt 0.375000 0.250000
vt 0.375000 0.000000
vt 0.625000 0.250000
vt 0.375000 0.500000
vt 0.625000 0.500000
vt 0.375000 0.750000
vt 0.625000 0.750000
vt 0.375000 1.000000
vt 0.125000 0.750000
vt 0.125000 0.500000
vt 0.875000 0.500000
vt 0.625000 1.000000
vt 0.875000 0.750000
s 0
usemtl Material.003
f 26/43/19 27/44/19 25/45/19
f 28/46/20 31/47/20 27/44/20
f 32/48/21 29/49/21 31/47/21
f 30/50/22 25/51/22 29/49/22
f 31/47/23 25/52/23 27/53/23
f 28/54/24 30/50/24 32/48/24
f 26/43/19 28/46/19 27/44/19
f 28/46/20 32/48/20 31/47/20
f 32/48/21 30/50/21 29/49/21
f 30/50/22 26/55/22 25/51/22
f 31/47/23 29/49/23 25/52/23
f 28/54/24 26/56/24 30/50/24
o 立方体.005
v 14.500001 -19.000000 21.000000
v 14.500001 27.000000 21.000000
v 14.500001 -19.000000 38.000000
v 14.500001 27.000000 38.000000
v 11.000001 -19.000000 21.000000
v 11.000001 27.000000 21.000000
v 11.000001 -19.000000 38.000000
v 11.000001 27.000000 38.000000
vn 1.0000 -0.0000 -0.0000
vn -0.0000 -0.0000 1.0000
vn -1.0000 -0.0000 -0.0000
vn -0.0000 -0.0000 -1.0000
vn -0.0000 -1.0000 -0.0000
vn -0.0000 1.0000 -0.0000
vt 0.625000 0.000000
vt 0.375000 0.250000
vt 0.375000 0.000000
vt 0.625000 0.250000
vt 0.375000 0.500000
vt 0.625000 0.500000
vt 0.375000 0.750000
vt 0.625000 0.750000
vt 0.375000 1.000000
vt 0.125000 0.750000
vt 0.125000 0.500000
vt 0.875000 0.500000
vt 0.625000 1.000000
vt 0.875000 0.750000
s 0
usemtl Material.003
f 34/57/25 35/58/25 33/59/25
f 36/60/26 39/61/26 35/58/26
f 40/62/27 37/63/27 39/61/27
f 38/64/28 33/65/28 37/63/28
f 39/61/29 33/66/29 35/67/29
f 36/68/30 38/64/30 40/62/30
f 34/57/25 36/60/25 35/58/25
f 36/60/26 40/62/26 39/61/26
f 40/62/27 38/64/27 37/63/27
f 38/64/28 34/69/28 33/65/28
f 39/61/29 37/63/29 33/66/29
f 36/68/30 34/70/30 38/64/30
o 立方体.006
v 14.500001 -19.000000 -14.000000
v 14.500001 27.000000 -14.000000
v 14.500001 -19.000000 21.000000
v 14.500001 27.000000 21.000000
v 12.500001 -19.000000 -14.000000
v 12.500001 27.000000 -14.000000
v 12.500001 -19.000000 21.000000
v 12.500001 27.000000 21.000000
vn 1.0000 -0.0000 -0.0000
vn -0.0000 -0.0000 1.0000
vn -1.0000 -0.0000 -0.0000
vn -0.0000 -0.0000 -1.0000
vn -0.0000 -1.0000 -0.0000
vn -0.0000 1.0000 -0.0000
vt 0.625000 0.000000
vt 0.375000 0.250000
vt 0.375000 0.000000
vt 0.625000 0.250000
vt 0.375000 0.500000
vt 0.625000 0.500000
vt 0.375000 0.750000
vt 0.625000 0.750000
vt 0.375000 1.000000
vt 0.125000 0.750000
vt 0.125000 0.500000
vt 0.875000 0.500000
vt 0.625000 1.000000
vt 0.875000 0.750000
s 0
usemtl Material.003
f 42/71/31 43/72/31 41/73/31
f 44/74/32 47/75/32 43/72/32
f 48/76/33 45/77/33 47/75/33
f 46/78/34 41/79/34 45/77/34
f 47/75/35 41/80/35 43/81/35
f 44/82/36 46/78/36 48/76/36
f 42/71/31 44/74/31 43/72/31
f 44/74/32 48/76/32 47/75/32
f 48/76/33 46/78/33 45/77/33
f 46/78/34 42/83/34 41/79/34
f 47/75/35 45/77/35 41/80/35
f 44/82/36 42/84/36 46/78/36
o 立方体.007
v 57.499992 -18.999996 61.000000
v 57.499992 -18.999996 86.000000
v 40.499992 -18.999996 61.000000
v 40.499992 -18.999996 86.000000
v 57.199993 0.000005 61.299999
v 57.499992 -0.299995 61.000000
v 57.258522 -0.005758 61.241470
v 57.314796 -0.022830 61.185196
v 57.366665 -0.050553 61.133327
v 57.412125 -0.087862 61.087868
v 57.449432 -0.133324 61.050560
v 57.477158 -0.185189 61.022835
v 57.494228 -0.241467 61.005764
v 57.199993 0.000005 85.699997
v 57.499992 -0.299995 86.000000
v 57.258522 -0.005758 85.758530
v 57.314796 -0.022830 85.814804
v 57.366665 -0.050553 85.866669
v 57.412125 -0.087862 85.912132
v 57.449432 -0.133324 85.949440
v 57.477158 -0.185189 85.977165
v 57.494228 -0.241467 85.994240
v 40.799992 0.000005 61.299999
v 40.499992 -0.299995 61.000000
v 40.741463 -0.005758 61.241470
v 40.685188 -0.022830 61.185196
v 40.633320 -0.050553 61.133327
v 40.587860 -0.087862 61.087868
v 40.550552 -0.133324 61.050560
v 40.522827 -0.185189 61.022835
v 40.505756 -0.241467 61.005764
v 40.799992 0.000005 85.699997
v 40.499992 -0.299995 86.000000
v 40.741463 -0.005758 85.758530
v 40.685188 -0.022830 85.814804
v 40.633320 -0.050553 85.866669
v 40.587860 -0.087862 85.912132
v 40.550552 -0.133324 85.949440
v 40.522827 -0.185189 85.977165
v 40.505756 -0.241467 85.994240
vn -0.0000 1.0000 -0.0000
vn -1.0000 -0.0000 -0.0000
vn 1.0000 -0.0000 -0.0000
vn -0.0000 -1.0000 -0.0000
vn -0.0000 -0.0000 1.0000
vn 0.0980 0.9952 -0.0000
vn 0.2903 0.9569 -0.0000
vn 0.4714 0.8819 -0.0000
vn 0.6344 0.7730 -0.0000
vn 0.7730 0.6344 -0.0000
vn 0.8819 0.4714 -0.0000
vn 0.9569 0.2903 -0.0000
vn 0.9952 0.0980 -0.0000
vn -0.0000 0.9952 0.0980
vn -0.0000 0.9569 0.2903
vn -0.0000 0.8819 0.4714
vn -0.0000 0.7731 0.6342
vn -0.0000 0.6343 0.7731
vn -0.0000 0.4715 0.8819
vn -0.0000 0.2903 0.9569
vn -0.0000 0.0978 0.9952
vn -0.0980 0.9952 -0.0000
vn -0.2903 0.9569 -0.0000
vn -0.4714 0.8819 -0.0000
vn -0.6344 0.7730 -0.0000
vn -0.7730 0.6344 -0.0000
vn -0.8819 0.4714 -0.0000
vn -0.9569 0.2903 -0.0000
vn -0.9952 0.0980 -0.0000
vn -0.0000 0.9952 -0.0980
vn -0.0000 0.9569 -0.2903
vn -0.0000 0.8819 -0.4714
vn -0.0000 0.7730 -0.6344
vn -0.0000 0.6343 -0.7731
vn -0.0000 0.4714 -0.8819
vn -0.0000 0.2903 -0.9569
vn -0.0000 0.0979 -0.9952
vn -0.0000 -0.0000 -1.0000
vn -0.0000 0.9569 0.2904
vn -0.0000 0.7729 0.6345
vn -0.0000 0.4715 0.8818
vn -0.0000 0.0979 0.9952
vn -0.0000 0.6345 -0.7729
vt 0.870588 0.503000
vt 0.629412 0.747000
vt 0.629412 0.503000
vt 0.621053 0.500000
vt 0.375000 0.750000
vt 0.375000 0.500000
vt 0.621053 0.000000
vt 0.375000 0.250000
vt 0.375000 0.000000
vt 0.125000 0.750000
vt 0.125000 0.500000
vt 0.621053 0.250000
vt 0.871449 0.747585
vt 0.870588 0.747000
vt 0.872277 0.501852
vt 0.872277 0.748148
vt 0.873039 0.501333
vt 0.873039 0.748667
vt 0.875000 0.749121
vt 0.625000 0.249121
vt 0.623246 0.000506
vt 0.625000 0.000879
vt 0.622563 0.249772
vt 0.622563 0.000228
vt 0.621823 0.000058
vt 0.621053 0.250000
vt 0.871449 0.502415
vt 0.628551 0.502415
vt 0.627723 0.501852
vt 0.626961 0.501333
vt 0.873708 0.500000
vt 0.625000 0.498708
vt 0.623246 0.250743
vt 0.625000 0.251292
vt 0.623246 0.499256
vt 0.622563 0.250336
vt 0.622563 0.499664
vt 0.621823 0.250085
vt 0.621823 0.499915
vt 0.627723 0.748148
vt 0.626961 0.748667
vt 0.625000 0.500879
vt 0.625000 0.749121
vt 0.623246 0.500506
vt 0.623246 0.749494
vt 0.622563 0.500228
vt 0.621823 0.749942
vt 0.621823 0.500058
vt 0.628551 0.747585
vt 0.626292 0.750000
vt 0.625000 0.998708
vt 0.623246 0.750744
vt 0.625000 0.751292
vt 0.623246 0.999256
vt 0.622563 0.750336
vt 0.622563 0.999664
vt 0.621823 0.750085
vt 0.621823 0.999915
vt 0.621053 0.750000
vt 0.375000 1.000000
vt 0.621053 0.750000
vt 0.875000 0.500879
vt 0.623246 0.249494
vt 0.621823 0.249942
vt 0.626292 0.500000
vt 0.622563 0.749772
vt 0.873708 0.750000
vt 0.621053 1.000000
s 0
usemtl Material.001
f 62/85/37 71/86/37 80/87/37
f 81/88/38 51/89/38 52/90/38
f 54/91/39 50/92/39 49/93/39
f 52/90/40 49/94/40 50/95/40
f 63/96/41 52/90/41 50/92/41
f 62/85/42 55/97/42 53/98/42
f 55/97/43 65/99/43 56/100/43
f 56/100/44 66/101/44 57/102/44
f 66/101/45 58/103/45 57/102/45
f 67/104/46 59/105/46 58/106/46
f 59/105/47 69/107/47 60/108/47
f 69/107/48 61/109/48 60/108/48
f 61/109/49 63/110/49 54/91/49
f 80/87/50 64/111/50 62/85/50
f 82/112/51 65/99/51 64/111/51
f 83/113/52 66/101/52 65/99/52
f 84/114/53 67/115/53 66/101/53
f 85/116/54 68/117/54 67/118/54
f 86/119/55 69/120/55 68/117/55
f 87/121/56 70/122/56 69/120/56
f 88/123/57 63/96/57 70/122/57
f 71/86/58 82/112/58 80/87/58
f 82/112/59 74/124/59 83/113/59
f 74/124/60 84/114/60 83/113/60
f 75/125/61 85/126/61 84/114/61
f 76/127/62 86/128/62 85/126/62
f 77/129/63 87/130/63 86/128/63
f 87/130/64 79/131/64 88/132/64
f 79/131/65 81/88/65 88/132/65
f 71/86/66 55/97/66 73/133/66
f 55/97/67 74/124/67 73/133/67
f 56/100/68 75/125/68 74/124/68
f 57/102/69 76/134/69 75/125/69
f 58/135/70 77/136/70 76/137/70
f 59/138/71 78/139/71 77/136/71
f 60/140/72 79/141/72 78/139/72
f 61/142/73 72/143/73 79/141/73
f 72/143/74 49/144/74 51/89/74
f 62/85/37 53/98/37 71/86/37
f 81/88/38 72/145/38 51/89/38
f 54/91/39 63/110/39 50/92/39
f 52/90/40 51/89/40 49/94/40
f 63/96/41 81/88/41 52/90/41
f 62/85/42 64/111/42 55/97/42
f 55/97/43 64/111/43 65/99/43
f 56/100/44 65/99/44 66/101/44
f 66/101/45 67/146/45 58/103/45
f 67/104/46 68/147/46 59/105/46
f 59/105/47 68/147/47 69/107/47
f 69/107/48 70/148/48 61/109/48
f 61/109/49 70/148/49 63/110/49
f 80/87/50 82/112/50 64/111/50
f 82/112/75 83/113/75 65/99/75
f 83/113/52 84/114/52 66/101/52
f 84/114/76 85/149/76 67/115/76
f 85/116/54 86/119/54 68/117/54
f 86/119/77 87/121/77 69/120/77
f 87/121/56 88/123/56 70/122/56
f 88/123/78 81/88/78 63/96/78
f 71/86/58 73/133/58 82/112/58
f 82/112/59 73/133/59 74/124/59
f 74/124/60 75/125/60 84/114/60
f 75/125/61 76/127/61 85/126/61
f 76/127/62 77/129/62 86/128/62
f 77/129/63 78/150/63 87/130/63
f 87/130/64 78/150/64 79/131/64
f 79/131/65 72/145/65 81/88/65
f 71/86/66 53/98/66 55/97/66
f 55/97/67 56/100/67 74/124/67
f 56/100/68 57/102/68 75/125/68
f 57/102/69 58/151/69 76/134/69
f 58/135/79 59/138/79 77/136/79
f 59/138/71 60/140/71 78/139/71
f 60/140/72 61/142/72 79/141/72
f 61/142/73 54/152/73 72/143/73
f 72/143/74 54/152/74 49/144/74
o 立方体.009
v -12.500010 -18.999994 44.000000
v -12.500010 27.000006 44.000000
v -12.500010 -18.999994 86.000000
v -12.500010 27.000006 86.000000
v -29.500011 -18.999994 44.000000
v -29.500011 27.000006 44.000000
v -29.500011 -18.999994 86.000000
v -29.500011 27.000006 86.000000
vn 1.0000 -0.0000 -0.0000
vn -0.0000 -0.0000 1.0000
vn -1.0000 -0.0000 -0.0000
vn -0.0000 -0.0000 -1.0000
vn -0.0000 -1.0000 -0.0000
vn -0.0000 1.0000 -0.0000
vt 0.625000 0.000000
vt 0.375000 0.250000
vt 0.375000 0.000000
vt 0.625000 0.250000
vt 0.375000 0.500000
vt 0.625000 0.500000
vt 0.375000 0.750000
vt 0.625000 0.750000
vt 0.375000 1.000000
vt 0.125000 0.750000
vt 0.125000 0.500000
vt 0.875000 0.500000
vt 0.625000 1.000000
vt 0.875000 0.750000
s 0
usemtl Material.003
f 90/153/80 91/154/80 89/155/80
f 92/156/81 95/157/81 91/154/81
f 96/158/82 93/159/82 95/157/82
f 94/160/83 89/161/83 93/159/83
f 95/157/84 89/162/84 91/163/84
f 92/164/85 94/160/85 96/158/85
f 90/153/80 92/156/80 91/154/80
f 92/156/81 96/158/81 95/157/81
f 96/158/82 94/160/82 93/159/82
f 94/160/83 90/165/83 89/161/83
f 95/157/84 93/159/84 89/162/84
f 92/164/85 90/166/85 94/160/85
o 立方体.010
v -12.500002 -19.000002 -14.000000
v -12.500002 26.999998 -14.000000
v -12.500002 -19.000002 28.000000
v -12.500002 26.999998 28.000000
v -29.500004 -19.000002 -14.000000
v -29.500004 26.999998 -14.000000
v -29.500004 -19.000002 28.000000
v -29.500004 26.999998 28.000000
vn 1.0000 -0.0000 -0.0000
vn -0.0000 -0.0000 1.0000
vn -1.0000 -0.0000 -0.0000
vn -0.0000 -0.0000 -1.0000
vn -0.0000 -1.0000 -0.0000
vn -0.0000 1.0000 -0.0000
vt 0.625000 0.000000
vt 0.375000 0.250000
vt 0.375000 0.000000
vt 0.625000 0.250000
vt 0.375000 0.500000
vt 0.625000 0.500000
vt 0.375000 0.750000
vt 0.625000 0.750000
vt 0.375000 1.000000
vt 0.125000 0.750000
vt 0.125000 0.500000
vt 0.875000 0.500000
vt 0.625000 1.000000
vt 0.875000 0.750000
s 0
usemtl Material.003
f 98/167/86 99/168/86 97/169/86
f 100/170/87 103/171/87 99/168/87
f 104/172/88 101/173/88 103/171/88
f 102/174/89 97/175/89 101/173/89
f 103/171/90 97/176/90 99/177/90
f 100/178/91 102/174/91 104/172/91
f 98/167/86 100/170/86 99/168/86
f 100/170/87 104/172/87 103/171/87
f 104/172/88 102/174/88 101/173/88
f 102/174/89 98/179/89 97/175/89
f 103/171/90 101/173/90 97/176/90
f 100/178/91 98/180/91 102/174/91
o 立方体.011
v 3.499995 -18.999998 51.000000
v 3.499995 -18.999998 61.000000
v 3.499995 0.000004 61.000000
v -3.500004 -18.999998 51.000000
v -3.500004 -18.999998 61.000000
v 12.499993 -18.999996 61.000000
v 12.499993 -18.999996 86.000000
v 12.499993 0.000004 86.000000
v -12.500004 -18.999996 61.000000
v -12.500004 0.000004 61.000000
v -12.500004 -18.999996 86.000000
v -12.500004 0.000004 86.000000
v -3.500004 0.000004 61.000000
v 12.499993 0.000004 61.000000
v 3.199996 0.000004 51.299999
v 3.499995 -0.299996 51.000000
v 3.258523 -0.005761 51.241470
v 3.314801 -0.022832 51.185196
v 3.366667 -0.050555 51.133331
v 3.412128 -0.087864 51.087868
v 3.449437 -0.133325 51.050560
v 3.477160 -0.185191 51.022835
v 3.494231 -0.241469 51.005764
v -3.200004 0.000004 51.299999
v -3.500004 -0.299996 51.000000
v -3.258532 -0.005761 51.241470
v -3.314810 -0.022832 51.185196
v -3.366676 -0.050555 51.133327
v -3.412137 -0.087864 51.087868
v -3.449446 -0.133325 51.050560
v -3.477169 -0.185191 51.022835
v -3.494241 -0.241469 51.005764
v -3.200004 0.000004 61.000000
v -3.500004 -0.299996 61.000000
v -3.258532 -0.005761 61.000000
v -3.314810 -0.022832 61.000000
v -3.366676 -0.050555 61.000000
v -3.412137 -0.087864 61.000000
v -3.449445 -0.133325 61.000000
v -3.477168 -0.185191 61.000000
v -3.494240 -0.241469 61.000000
v 3.499995 -0.299996 61.000000
v 3.199996 0.000004 61.000000
v 3.494231 -0.241469 61.000000
v 3.477159 -0.185191 61.000000
v 3.449436 -0.133325 61.000000
v 3.412127 -0.087864 61.000000
v 3.366666 -0.050555 61.000000
v 3.314800 -0.022832 61.000000
v 3.258522 -0.005761 61.000000
vn -0.0000 1.0000 -0.0000
vn -0.0000 -0.0000 1.0000
vn 1.0000 -0.0000 -0.0000
vn -0.0000 -1.0000 -0.0000
vn -1.0000 -0.0000 -0.0000
vn -0.0000 -0.0000 -1.0000
vn 0.0980 0.9952 -0.0000
vn 0.2903 0.9569 -0.0000
vn 0.4714 0.8819 -0.0000
vn 0.6344 0.7730 -0.0000
vn 0.7730 0.6344 -0.0000
vn 0.8819 0.4714 -0.0000
vn 0.9569 0.2903 -0.0000
vn 0.9952 0.0980 -0.0000
vn -0.0980 0.9952 -0.0000
vn -0.2903 0.9569 -0.0000
vn -0.4714 0.8819 -0.0000
vn -0.6344 0.7730 -0.0000
vn -0.7730 0.6344 -0.0000
vn -0.8819 0.4714 -0.0000
vn -0.9569 0.2903 -0.0000
vn -0.9952 0.0980 -0.0000
vn -0.0000 0.9952 -0.0980
vn -0.0000 0.9569 -0.2903
vn -0.0000 0.8819 -0.4714
vn -0.0000 0.7730 -0.6345
vn -0.0000 0.6344 -0.7730
vn -0.0000 0.4714 -0.8819
vn -0.0000 0.2904 -0.9569
vn -0.0000 0.0980 -0.9952
vn -0.0000 0.7731 -0.6343
vn -0.0000 0.2902 -0.9570
vt 0.864286 0.500000
vt 0.635714 0.742500
vt 0.635714 0.500000
vt 0.625000 0.250000
vt 0.375000 0.500000
vt 0.375000 0.250000
vt 0.621053 0.000000
vt 0.375000 0.000000
vt 0.125000 0.750000
vt 0.125000 0.500000
vt 0.621053 0.500000
vt 0.375000 0.750000
vt 0.625000 0.000000
vt 0.625000 0.500000
vt 0.625000 0.750000
vt 0.375000 1.000000
vt 0.875000 0.500000
vt 0.864286 0.742500
vt 0.866376 0.500000
vt 0.866376 0.743963
vt 0.868386 0.500000
vt 0.868386 0.745370
vt 0.870238 0.500000
vt 0.870238 0.746667
vt 0.875000 0.747803
vt 0.625000 0.002197
vt 0.623246 0.250000
vt 0.623246 0.001264
vt 0.622563 0.250000
vt 0.622563 0.000571
vt 0.621823 0.250000
vt 0.621823 0.000144
vt 0.621053 0.250000
vt 0.633624 0.500000
vt 0.633624 0.743963
vt 0.631614 0.500000
vt 0.631614 0.745370
vt 0.629762 0.500000
vt 0.629762 0.746667
vt 0.625000 0.747803
vt 0.623246 0.500000
vt 0.623246 0.748736
vt 0.622563 0.500000
vt 0.622563 0.749429
vt 0.621823 0.500000
vt 0.621823 0.749856
vt 0.871862 0.750000
vt 0.628138 0.750000
vt 0.625000 0.996862
vt 0.623246 0.751806
vt 0.625000 0.753138
vt 0.623246 0.998194
vt 0.622563 0.750815
vt 0.622563 0.999184
vt 0.621823 0.750206
vt 0.621823 0.999794
vt 0.621053 0.750000
vt 0.621053 0.750000
vt 0.625000 1.000000
vt 0.875000 0.750000
vt 0.621053 1.000000
s 0
usemtl Material.001
f 147/181/92 128/182/92 137/183/92
f 107/184/93 109/185/93 106/186/93
f 120/187/94 106/186/94 105/188/94
f 109/185/95 105/189/95 106/190/95
f 138/191/96 108/192/96 109/185/96
f 118/193/94 111/186/94 110/188/94
f 112/184/93 115/185/93 111/186/93
f 116/194/96 113/192/96 115/185/96
f 114/195/97 110/196/97 113/192/97
f 115/185/95 110/189/95 111/190/95
f 112/197/92 114/195/92 116/194/92
f 119/198/98 154/199/98 121/200/98
f 121/200/99 153/201/99 122/202/99
f 122/202/100 152/203/100 123/204/100
f 123/204/101 151/197/101 124/205/101
f 124/206/102 150/207/102 125/208/102
f 125/208/103 149/209/103 126/210/103
f 126/210/104 148/211/104 127/212/104
f 127/212/105 146/213/105 120/187/105
f 128/182/106 139/214/106 137/183/106
f 130/215/107 140/216/107 139/214/107
f 131/217/108 141/218/108 140/216/108
f 132/219/109 142/194/109 141/218/109
f 133/220/110 143/221/110 142/194/110
f 134/222/111 144/223/111 143/221/111
f 135/224/112 145/225/112 144/223/112
f 136/226/113 138/191/113 145/225/113
f 119/198/114 130/215/114 128/182/114
f 121/200/115 131/217/115 130/215/115
f 122/202/116 132/219/116 131/217/116
f 132/219/117 124/227/117 133/228/117
f 124/229/118 134/230/118 133/231/118
f 125/232/119 135/233/119 134/230/119
f 126/234/120 136/235/120 135/233/120
f 127/236/121 129/237/121 136/235/121
f 129/237/97 105/196/97 108/192/97
f 147/181/92 119/198/92 128/182/92
f 107/184/93 117/194/93 109/185/93
f 120/187/94 146/213/94 106/186/94
f 109/185/95 108/192/95 105/189/95
f 138/191/96 129/238/96 108/192/96
f 118/193/94 112/184/94 111/186/94
f 112/184/93 116/194/93 115/185/93
f 116/194/96 114/195/96 113/192/96
f 114/195/97 118/239/97 110/196/97
f 115/185/95 113/192/95 110/189/95
f 112/197/92 118/240/92 114/195/92
f 119/198/98 147/181/98 154/199/98
f 121/200/99 154/199/99 153/201/99
f 122/202/100 153/201/100 152/203/100
f 123/204/101 152/203/101 151/197/101
f 124/206/102 151/184/102 150/207/102
f 125/208/103 150/207/103 149/209/103
f 126/210/104 149/209/104 148/211/104
f 127/212/105 148/211/105 146/213/105
f 128/182/106 130/215/106 139/214/106
f 130/215/107 131/217/107 140/216/107
f 131/217/108 132/219/108 141/218/108
f 132/219/109 133/220/109 142/194/109
f 133/220/110 134/222/110 143/221/110
f 134/222/111 135/224/111 144/223/111
f 135/224/112 136/226/112 145/225/112
f 136/226/113 129/238/113 138/191/113
f 119/198/114 121/200/114 130/215/114
f 121/200/115 122/202/115 131/217/115
f 122/202/116 123/204/116 132/219/116
f 132/219/122 123/204/122 124/227/122
f 124/229/118 125/232/118 134/230/118
f 125/232/119 126/234/119 135/233/119
f 126/234/123 127/236/123 136/235/123
f 127/236/121 120/241/121 129/237/121
f 129/237/97 120/241/97 105/196/97
o 立方体.012
v -4.500004 -4.999996 34.500000
v -4.500004 -4.999996 44.500000
v -12.500004 -4.999996 34.500000
v -12.500004 -4.999996 44.500000
v -4.800004 0.000004 34.799999
v -4.500004 -0.299996 34.500000
v -4.741477 -0.005761 34.741474
v -4.685199 -0.022832 34.685196
v -4.633333 -0.050555 34.633331
v -4.587872 -0.087864 34.587868
v -4.550563 -0.133325 34.550560
v -4.522840 -0.185191 34.522835
v -4.505768 -0.241469 34.505764
v -4.800004 0.000004 44.200001
v -4.500004 -0.299996 44.500000
v -4.741477 -0.005761 44.258526
v -4.685199 -0.022832 44.314804
v -4.633333 -0.050555 44.366669
v -4.587872 -0.087864 44.412132
v -4.550563 -0.133325 44.449440
v -4.522840 -0.185191 44.477165
v -4.505768 -0.241469 44.494236
v -12.200004 0.000004 34.799999
v -12.500004 -0.299996 34.500000
v -12.258531 -0.005761 34.741474
v -12.314809 -0.022832 34.685196
v -12.366674 -0.050555 34.633331
v -12.412136 -0.087864 34.587868
v -12.449445 -0.133325 34.550560
v -12.477167 -0.185191 34.522835
v -12.494240 -0.241469 34.505764
v -12.200004 0.000004 44.200001
v -12.500004 -0.299996 44.500000
v -12.258531 -0.005761 44.258526
v -12.314809 -0.022832 44.314804
v -12.366674 -0.050555 44.366669
v -12.412136 -0.087864 44.412132
v -12.449445 -0.133325 44.449440
v -12.477167 -0.185191 44.477165
v -12.494240 -0.241469 44.494236
vn -0.0000 1.0000 -0.0000
vn -1.0000 -0.0000 -0.0000
vn 1.0000 -0.0000 -0.0000
vn -0.0000 -1.0000 -0.0000
vn -0.0000 -0.0000 1.0000
vn 0.0980 0.9952 -0.0000
vn 0.2903 0.9569 -0.0000
vn 0.4714 0.8819 -0.0000
vn 0.6344 0.7730 -0.0000
vn 0.7730 0.6344 -0.0000
vn 0.8819 0.4714 -0.0000
vn 0.9569 0.2903 -0.0000
vn 0.9952 0.0980 -0.0000
vn -0.0000 0.9952 0.0980
vn -0.0000 0.9569 0.2903
vn -0.0000 0.8819 0.4714
vn -0.0000 0.7731 0.6343
vn -0.0000 0.6344 0.7730
vn -0.0000 0.4714 0.8819
vn -0.0000 0.2904 0.9569
vn -0.0000 0.0981 0.9952
vn -0.0980 0.9952 -0.0000
vn -0.2903 0.9569 -0.0000
vn -0.4714 0.8819 -0.0000
vn -0.6344 0.7730 -0.0000
vn -0.7730 0.6344 -0.0000
vn -0.8819 0.4714 -0.0000
vn -0.9569 0.2903 -0.0000
vn -0.9952 0.0980 -0.0000
vn -0.0000 0.9952 -0.0980
vn -0.0000 0.9569 -0.2903
vn -0.0000 0.8819 -0.4714
vn -0.0000 0.7730 -0.6344
vn -0.0000 0.6343 -0.7731
vn -0.0000 0.4715 -0.8819
vn -0.0000 0.2904 -0.9569
vn -0.0000 0.0981 -0.9952
vn -0.0000 -0.0000 -1.0000
vn -0.0000 0.7730 0.6344
vn -0.0000 0.2902 0.9570
vn -0.0000 0.0979 0.9952
vn -0.0000 0.7731 -0.6343
vn -0.0000 0.6344 -0.7730
vn -0.0000 0.4714 -0.8819
vn -0.0000 0.2902 -0.9570
vn -0.0000 0.0980 -0.9952
vt 0.865625 0.507500
vt 0.634375 0.742500
vt 0.634375 0.507500
vt 0.610000 0.500000
vt 0.375000 0.750000
vt 0.375000 0.500000
vt 0.610000 0.000000
vt 0.375000 0.250000
vt 0.375000 0.000000
vt 0.125000 0.750000
vt 0.125000 0.500000
vt 0.610000 0.250000
vt 0.867454 0.743963
vt 0.865625 0.742500
vt 0.867454 0.506037
vt 0.869213 0.745370
vt 0.869213 0.504630
vt 0.870834 0.746667
vt 0.870834 0.503333
vt 0.875000 0.747803
vt 0.625000 0.002197
vt 0.618334 0.248736
vt 0.618334 0.001264
vt 0.615740 0.000571
vt 0.615740 0.249429
vt 0.612926 0.000144
vt 0.612926 0.249856
vt 0.632546 0.506037
vt 0.630787 0.504630
vt 0.629167 0.503333
vt 0.872254 0.500000
vt 0.625000 0.252746
vt 0.618334 0.498420
vt 0.618334 0.251580
vt 0.615740 0.250714
vt 0.615740 0.499286
vt 0.612926 0.250180
vt 0.632546 0.743963
vt 0.630787 0.745370
vt 0.629167 0.746667
vt 0.625000 0.502197
vt 0.625000 0.747803
vt 0.618334 0.501264
vt 0.618334 0.748736
vt 0.615740 0.500571
vt 0.615740 0.749429
vt 0.612926 0.500144
vt 0.612926 0.749856
vt 0.872254 0.750000
vt 0.627746 0.750000
vt 0.625000 0.997254
vt 0.618334 0.751580
vt 0.625000 0.752746
vt 0.618334 0.998420
vt 0.615740 0.750714
vt 0.615740 0.999286
vt 0.612926 0.750180
vt 0.610000 1.000000
vt 0.610000 0.750000
vt 0.375000 1.000000
vt 0.875000 0.502197
vt 0.625000 0.247803
vt 0.627746 0.500000
vt 0.625000 0.497254
vt 0.612926 0.499820
vt 0.612926 0.999820
s 0
usemtl Material.001
f 168/242/124 177/243/124 186/244/124
f 187/245/125 157/246/125 158/247/125
f 160/248/126 156/249/126 155/250/126
f 158/247/127 155/251/127 156/252/127
f 169/253/128 158/247/128 156/249/128
f 168/242/129 161/254/129 159/255/129
f 170/256/130 162/257/130 161/254/130
f 171/258/131 163/259/131 162/257/131
f 172/260/132 164/261/132 163/259/132
f 164/262/133 174/263/133 165/264/133
f 174/263/134 166/265/134 165/264/134
f 175/266/135 167/267/135 166/265/135
f 176/268/136 160/248/136 167/267/136
f 186/244/137 170/256/137 168/242/137
f 188/269/138 171/258/138 170/256/138
f 189/270/139 172/260/139 171/258/139
f 190/271/140 173/272/140 172/260/140
f 173/273/141 192/274/141 174/275/141
f 192/274/142 175/276/142 174/275/142
f 193/277/143 176/278/143 175/276/143
f 176/278/144 187/245/144 169/253/144
f 177/243/145 188/269/145 186/244/145
f 179/279/146 189/270/146 188/269/146
f 180/280/147 190/271/147 189/270/147
f 181/281/148 191/282/148 190/271/148
f 182/283/149 192/284/149 191/282/149
f 183/285/150 193/286/150 192/284/150
f 184/287/151 194/288/151 193/286/151
f 185/289/152 187/245/152 194/288/152
f 159/255/153 179/279/153 177/243/153
f 161/254/154 180/280/154 179/279/154
f 162/257/155 181/281/155 180/280/155
f 181/281/156 164/290/156 182/291/156
f 164/292/157 183/293/157 182/294/157
f 165/295/158 184/296/158 183/293/158
f 166/297/159 185/298/159 184/296/159
f 185/298/160 160/299/160 178/300/160
f 178/300/161 155/301/161 157/246/161
f 168/242/124 159/255/124 177/243/124
f 187/245/125 178/300/125 157/246/125
f 160/248/126 169/253/126 156/249/126
f 158/247/127 157/246/127 155/251/127
f 169/253/128 187/245/128 158/247/128
f 168/242/129 170/256/129 161/254/129
f 170/256/130 171/258/130 162/257/130
f 171/258/131 172/260/131 163/259/131
f 172/260/132 173/302/132 164/261/132
f 164/262/133 173/303/133 174/263/133
f 174/263/134 175/266/134 166/265/134
f 175/266/135 176/268/135 167/267/135
f 176/268/136 169/253/136 160/248/136
f 186/244/137 188/269/137 170/256/137
f 188/269/138 189/270/138 171/258/138
f 189/270/139 190/271/139 172/260/139
f 190/271/162 191/304/162 173/272/162
f 173/273/141 191/305/141 192/274/141
f 192/274/142 193/277/142 175/276/142
f 193/277/163 194/306/163 176/278/163
f 176/278/164 194/306/164 187/245/164
f 177/243/145 179/279/145 188/269/145
f 179/279/146 180/280/146 189/270/146
f 180/280/147 181/281/147 190/271/147
f 181/281/148 182/283/148 191/282/148
f 182/283/149 183/285/149 192/284/149
f 183/285/150 184/287/150 193/286/150
f 184/287/151 185/289/151 194/288/151
f 185/289/152 178/300/152 187/245/152
f 159/255/153 161/254/153 179/279/153
f 161/254/154 162/257/154 180/280/154
f 162/257/155 163/259/155 181/281/155
f 181/281/165 163/259/165 164/290/165
f 164/292/166 165/295/166 183/293/166
f 165/295/167 166/297/167 184/296/167
f 166/297/168 167/307/168 185/298/168
f 185/298/169 167/307/169 160/299/169
f 178/300/161 160/299/161 155/301/161
o 立方体.013
v 12.499996 -4.999996 34.500000
v 12.499996 -4.999996 44.500000
v 4.499996 -4.999996 34.500000
v 4.499996 -4.999996 44.500000
v 12.199996 0.000004 34.799999
v 12.499996 -0.299996 34.500000
v 12.258523 -0.005761 34.741474
v 12.314801 -0.022832 34.685196
v 12.366667 -0.050555 34.633331
v 12.412128 -0.087864 34.587868
v 12.449437 -0.133325 34.550560
v 12.477160 -0.185191 34.522835
v 12.494232 -0.241469 34.505764
v 12.199996 0.000004 44.200001
v 12.499996 -0.299996 44.500000
v 12.258523 -0.005761 44.258526
v 12.314801 -0.022832 44.314804
v 12.366667 -0.050555 44.366669
v 12.412128 -0.087864 44.412132
v 12.449437 -0.133325 44.449440
v 12.477160 -0.185191 44.477165
v 12.494232 -0.241469 44.494236
v 4.799995 0.000004 34.799999
v 4.499996 -0.299996 34.500000
v 4.741469 -0.005761 34.741474
v 4.685191 -0.022832 34.685196
v 4.633325 -0.050555 34.633331
v 4.587864 -0.087864 34.587868
v 4.550555 -0.133325 34.550560
v 4.522832 -0.185191 34.522835
v 4.505760 -0.241469 34.505764
v 4.799995 0.000004 44.200001
v 4.499996 -0.299996 44.500000
v 4.741469 -0.005761 44.258526
v 4.685191 -0.022832 44.314804
v 4.633325 -0.050555 44.366669
v 4.587864 -0.087864 44.412132
v 4.550555 -0.133325 44.449440
v 4.522832 -0.185191 44.477165
v 4.505760 -0.241469 44.494236
vn -0.0000 1.0000 -0.0000
vn -1.0000 -0.0000 -0.0000
vn 1.0000 -0.0000 -0.0000
vn -0.0000 -1.0000 -0.0000
vn -0.0000 -0.0000 1.0000
vn 0.0980 0.9952 -0.0000
vn 0.2903 0.9569 -0.0000
vn 0.4714 0.8819 -0.0000
vn 0.6344 0.7730 -0.0000
vn 0.7730 0.6344 -0.0000
vn 0.8819 0.4714 -0.0000
vn 0.9569 0.2903 -0.0000
vn 0.9952 0.0980 -0.0000
vn -0.0000 0.9952 0.0980
vn -0.0000 0.9569 0.2903
vn -0.0000 0.8819 0.4714
vn -0.0000 0.7731 0.6343
vn -0.0000 0.6343 0.7731
vn -0.0000 0.4714 0.8819
vn -0.0000 0.2901 0.9570
vn -0.0000 0.0980 0.9952
vn -0.0980 0.9952 -0.0000
vn -0.2903 0.9569 -0.0000
vn -0.4714 0.8819 -0.0000
vn -0.6344 0.7730 -0.0000
vn -0.7730 0.6344 -0.0000
vn -0.8819 0.4714 -0.0000
vn -0.9569 0.2903 -0.0000
vn -0.9952 0.0980 -0.0000
vn -0.0000 0.9952 -0.0980
vn -0.0000 0.9569 -0.2903
vn -0.0000 0.8819 -0.4714
vn -0.0000 0.7730 -0.6344
vn -0.0000 0.6344 -0.7730
vn -0.0000 0.4714 -0.8819
vn -0.0000 0.2902 -0.9570
vn -0.0000 0.0979 -0.9952
vn -0.0000 -0.0000 -1.0000
vn -0.0000 0.7730 0.6344
vn -0.0000 0.6344 0.7730
vn -0.0000 0.4715 0.8819
vn -0.0000 0.2904 0.9569
vn -0.0000 0.0979 0.9952
vn -0.0000 0.2904 -0.9569
vn -0.0000 0.0982 -0.9952
vt 0.865625 0.507500
vt 0.634375 0.742500
vt 0.634375 0.507500
vt 0.610000 0.500000
vt 0.375000 0.750000
vt 0.375000 0.500000
vt 0.610000 0.000000
vt 0.375000 0.250000
vt 0.375000 0.000000
vt 0.125000 0.750000
vt 0.125000 0.500000
vt 0.610000 0.250000
vt 0.867454 0.743963
vt 0.865625 0.742500
vt 0.867454 0.506037
vt 0.869213 0.745370
vt 0.869213 0.504630
vt 0.870834 0.746667
vt 0.870834 0.503333
vt 0.875000 0.747803
vt 0.625000 0.002197
vt 0.618334 0.248736
vt 0.618334 0.001264
vt 0.615740 0.249429
vt 0.615740 0.000571
vt 0.612926 0.000144
vt 0.612926 0.249856
vt 0.632546 0.506037
vt 0.630787 0.504630
vt 0.627746 0.500000
vt 0.872254 0.500000
vt 0.625000 0.497254
vt 0.618334 0.251580
vt 0.625000 0.252746
vt 0.618334 0.498420
vt 0.615740 0.250714
vt 0.612926 0.499820
vt 0.612926 0.250180
vt 0.632546 0.743963
vt 0.630787 0.745370
vt 0.629167 0.503333
vt 0.629167 0.746667
vt 0.625000 0.502197
vt 0.618334 0.748736
vt 0.618334 0.501264
vt 0.615740 0.500571
vt 0.615740 0.749429
vt 0.612926 0.500144
vt 0.612926 0.749856
vt 0.627746 0.750000
vt 0.625000 0.752746
vt 0.618334 0.998420
vt 0.618334 0.751580
vt 0.615740 0.750714
vt 0.615740 0.999286
vt 0.612926 0.750180
vt 0.612926 0.999820
vt 0.610000 0.750000
vt 0.375000 1.000000
vt 0.875000 0.502197
vt 0.625000 0.247803
vt 0.615740 0.499286
vt 0.625000 0.747803
vt 0.872254 0.750000
vt 0.625000 0.997254
vt 0.610000 1.000000
s 0
usemtl Material.001
f 208/308/170 217/309/170 226/310/170
f 227/311/171 197/312/171 198/313/171
f 200/314/172 196/315/172 195/316/172
f 198/313/173 195/317/173 196/318/173
f 209/319/174 198/313/174 196/315/174
f 208/308/175 201/320/175 199/321/175
f 210/322/176 202/323/176 201/320/176
f 211/324/177 203/325/177 202/323/177
f 212/326/178 204/327/178 203/325/178
f 204/328/179 214/329/179 205/330/179
f 205/330/180 215/331/180 206/332/180
f 215/331/181 207/333/181 206/332/181
f 216/334/182 200/314/182 207/333/182
f 208/308/183 228/335/183 210/322/183
f 228/335/184 211/324/184 210/322/184
f 229/336/185 212/326/185 211/324/185
f 212/326/186 231/337/186 213/338/186
f 231/339/187 214/340/187 213/341/187
f 232/342/188 215/343/188 214/340/188
f 215/343/189 234/344/189 216/345/189
f 234/344/190 209/319/190 216/345/190
f 217/309/191 228/335/191 226/310/191
f 219/346/192 229/336/192 228/335/192
f 220/347/193 230/348/193 229/336/193
f 221/349/194 231/350/194 230/348/194
f 231/350/195 223/351/195 232/352/195
f 223/351/196 233/353/196 232/352/196
f 224/354/197 234/355/197 233/353/197
f 225/356/198 227/311/198 234/355/198
f 199/321/199 219/346/199 217/309/199
f 201/320/200 220/347/200 219/346/200
f 220/347/201 203/325/201 221/349/201
f 203/325/202 222/357/202 221/349/202
f 222/358/203 205/359/203 223/360/203
f 205/359/204 224/361/204 223/360/204
f 206/362/205 225/363/205 224/361/205
f 207/364/206 218/365/206 225/363/206
f 218/365/207 195/366/207 197/312/207
f 208/308/170 199/321/170 217/309/170
f 227/311/171 218/365/171 197/312/171
f 200/314/172 209/319/172 196/315/172
f 198/313/173 197/312/173 195/317/173
f 209/319/174 227/311/174 198/313/174
f 208/308/175 210/322/175 201/320/175
f 210/322/176 211/324/176 202/323/176
f 211/324/177 212/326/177 203/325/177
f 212/326/178 213/367/178 204/327/178
f 204/328/179 213/368/179 214/329/179
f 205/330/180 214/329/180 215/331/180
f 215/331/181 216/334/181 207/333/181
f 216/334/182 209/319/182 200/314/182
f 208/308/183 226/310/183 228/335/183
f 228/335/184 229/336/184 211/324/184
f 229/336/185 230/348/185 212/326/185
f 212/326/208 230/348/208 231/337/208
f 231/339/209 232/342/209 214/340/209
f 232/342/210 233/369/210 215/343/210
f 215/343/211 233/369/211 234/344/211
f 234/344/212 227/311/212 209/319/212
f 217/309/191 219/346/191 228/335/191
f 219/346/192 220/347/192 229/336/192
f 220/347/193 221/349/193 230/348/193
f 221/349/194 222/370/194 231/350/194
f 231/350/195 222/370/195 223/351/195
f 223/351/196 224/354/196 233/353/196
f 224/354/197 225/356/197 234/355/197
f 225/356/198 218/365/198 227/311/198
f 199/321/199 201/320/199 219/346/199
f 201/320/200 202/323/200 220/347/200
f 220/347/201 202/323/201 203/325/201
f 203/325/202 204/371/202 222/357/202
f 222/358/203 204/372/203 205/359/203
f 205/359/204 206/362/204 224/361/204
f 206/362/213 207/364/213 225/363/213
f 207/364/214 200/373/214 218/365/214
f 218/365/207 200/373/207 195/366/207
o 立方体.015
v 9.499998 -18.999998 18.000002
v 9.499998 -18.999998 28.000002
v -9.500002 -18.999998 18.000002
v -9.500002 -18.999998 28.000002
v 9.199998 0.000002 18.300003
v 9.499998 -0.299998 18.000002
v 9.258526 -0.005763 18.241474
v 9.314804 -0.022835 18.185196
v 9.366669 -0.050558 18.133331
v 9.412130 -0.087867 18.087870
v 9.449440 -0.133328 18.050560
v 9.477162 -0.185194 18.022839
v 9.494234 -0.241472 18.005766
v 9.199998 0.000002 27.700001
v 9.499998 -0.299998 28.000002
v 9.258526 -0.005763 27.758530
v 9.314804 -0.022835 27.814808
v 9.366669 -0.050558 27.866673
v 9.412130 -0.087867 27.912134
v 9.449440 -0.133328 27.949444
v 9.477162 -0.185194 27.977165
v 9.494234 -0.241472 27.994238
v -9.200002 0.000002 18.300003
v -9.500002 -0.299998 18.000002
v -9.258530 -0.005763 18.241474
v -9.314808 -0.022835 18.185196
v -9.366673 -0.050558 18.133331
v -9.412134 -0.087867 18.087870
v -9.449444 -0.133328 18.050560
v -9.477166 -0.185194 18.022839
v -9.494238 -0.241472 18.005766
v -9.200002 0.000002 27.700001
v -9.500002 -0.299998 28.000002
v -9.258530 -0.005763 27.758530
v -9.314808 -0.022835 27.814808
v -9.366673 -0.050558 27.866673
v -9.412134 -0.087867 27.912134
v -9.449444 -0.133328 27.949444
v -9.477166 -0.185194 27.977165
v -9.494238 -0.241472 27.994238
vn -0.0000 1.0000 -0.0000
vn -1.0000 -0.0000 -0.0000
vn 1.0000 -0.0000 -0.0000
vn -0.0000 -1.0000 -0.0000
vn -0.0000 -0.0000 1.0000
vn 0.0980 0.9952 -0.0000
vn 0.2903 0.9569 -0.0000
vn 0.4714 0.8819 -0.0000
vn 0.6344 0.7730 -0.0000
vn 0.7730 0.6344 -0.0000
vn 0.8819 0.4714 -0.0000
vn 0.9569 0.2903 -0.0000
vn 0.9952 0.0980 -0.0000
vn -0.0000 0.9952 0.0980
vn -0.0000 0.9569 0.2903
vn -0.0000 0.8819 0.4714
vn -0.0000 0.7730 0.6344
vn -0.0000 0.6344 0.7730
vn -0.0000 0.4713 0.8820
vn -0.0000 0.2903 0.9569
vn -0.0000 0.0979 0.9952
vn -0.0980 0.9952 -0.0000
vn -0.2903 0.9569 -0.0000
vn -0.4714 0.8819 -0.0000
vn -0.6344 0.7730 -0.0000
vn -0.7730 0.6344 -0.0000
vn -0.8819 0.4714 -0.0000
vn -0.9569 0.2903 -0.0000
vn -0.9952 0.0980 -0.0000
vn -0.0000 0.9952 -0.0980
vn -0.0000 0.9569 -0.2903
vn -0.0000 0.8819 -0.4714
vn -0.0000 0.7730 -0.6344
vn -0.0000 0.6344 -0.7730
vn -0.0000 0.4714 -0.8819
vn -0.0000 0.2903 -0.9569
vn -0.0000 0.0980 -0.9952
vn -0.0000 -0.0000 -1.0000
vn -0.0000 0.4714 0.8819
vn -0.0000 0.2902 0.9570
vn -0.0000 0.0981 0.9952
vn -0.0000 0.4713 -0.8819
vt 0.871053 0.507500
vt 0.628947 0.742500
vt 0.628947 0.507500
vt 0.621053 0.500000
vt 0.375000 0.750000
vt 0.375000 0.500000
vt 0.621053 0.000000
vt 0.375000 0.250000
vt 0.375000 0.000000
vt 0.125000 0.750000
vt 0.125000 0.500000
vt 0.621053 0.250000
vt 0.871823 0.743963
vt 0.871053 0.742500
vt 0.871823 0.506037
vt 0.872563 0.745370
vt 0.872563 0.504630
vt 0.873246 0.746667
vt 0.873246 0.503333
vt 0.875000 0.747803
vt 0.625000 0.247803
vt 0.623246 0.001264
vt 0.625000 0.002197
vt 0.623246 0.248736
vt 0.622563 0.000571
vt 0.622563 0.249429
vt 0.621823 0.000144
vt 0.621823 0.249856
vt 0.628177 0.506037
vt 0.627437 0.504630
vt 0.626754 0.503333
vt 0.873844 0.500000
vt 0.625000 0.498844
vt 0.623246 0.250665
vt 0.625000 0.251156
vt 0.623246 0.499335
vt 0.622563 0.250300
vt 0.622563 0.499700
vt 0.621823 0.250076
vt 0.621823 0.499924
vt 0.628177 0.743963
vt 0.627437 0.745370
vt 0.626754 0.746667
vt 0.625000 0.502197
vt 0.625000 0.747803
vt 0.623246 0.501264
vt 0.623246 0.748736
vt 0.622563 0.500571
vt 0.622563 0.749429
vt 0.621823 0.500144
vt 0.621823 0.749856
vt 0.626156 0.750000
vt 0.625000 0.998844
vt 0.623246 0.750665
vt 0.625000 0.751156
vt 0.623246 0.999335
vt 0.622563 0.750300
vt 0.622563 0.999700
vt 0.621823 0.750076
vt 0.621823 0.999924
vt 0.621053 0.750000
vt 0.375000 1.000000
vt 0.621053 0.750000
vt 0.621053 0.250000
vt 0.621053 0.500000
vt 0.875000 0.502197
vt 0.626156 0.500000
vt 0.873844 0.750000
vt 0.621053 1.000000
s 0
usemtl Material.001
f 248/374/215 257/375/215 266/376/215
f 267/377/216 237/378/216 238/379/216
f 240/380/217 236/381/217 235/382/217
f 238/379/218 235/383/218 236/384/218
f 249/385/219 238/379/219 236/381/219
f 248/374/220 241/386/220 239/387/220
f 250/388/221 242/389/221 241/386/221
f 251/390/222 243/391/222 242/389/222
f 252/392/223 244/393/223 243/391/223
f 253/394/224 245/395/224 244/396/224
f 254/397/225 246/398/225 245/395/225
f 255/399/226 247/400/226 246/398/226
f 256/401/227 240/380/227 247/400/227
f 266/376/228 250/388/228 248/374/228
f 268/402/229 251/390/229 250/388/229
f 269/403/230 252/392/230 251/390/230
f 270/404/231 253/405/231 252/392/231
f 271/406/232 254/407/232 253/408/232
f 272/409/233 255/410/233 254/407/233
f 273/411/234 256/412/234 255/410/234
f 274/413/235 249/385/235 256/412/235
f 257/375/236 268/402/236 266/376/236
f 259/414/237 269/403/237 268/402/237
f 260/415/238 270/404/238 269/403/238
f 261/416/239 271/417/239 270/404/239
f 262/418/240 272/419/240 271/417/240
f 263/420/241 273/421/241 272/419/241
f 264/422/242 274/423/242 273/421/242
f 265/424/243 267/377/243 274/423/243
f 239/387/244 259/414/244 257/375/244
f 241/386/245 260/415/245 259/414/245
f 242/389/246 261/416/246 260/415/246
f 243/391/247 262/425/247 261/416/247
f 244/426/248 263/427/248 262/428/248
f 245/429/249 264/430/249 263/427/249
f 246/431/250 265/432/250 264/430/250
f 247/433/251 258/434/251 265/432/251
f 258/434/252 235/435/252 237/378/252
f 248/374/215 239/387/215 257/375/215
f 267/377/216 258/436/216 237/378/216
f 240/380/217 249/437/217 236/381/217
f 238/379/218 237/378/218 235/383/218
f 249/385/219 267/438/219 238/379/219
f 248/374/220 250/388/220 241/386/220
f 250/388/221 251/390/221 242/389/221
f 251/390/222 252/392/222 243/391/222
f 252/392/223 253/439/223 244/393/223
f 253/394/224 254/397/224 245/395/224
f 254/397/225 255/399/225 246/398/225
f 255/399/226 256/401/226 247/400/226
f 256/401/227 249/437/227 240/380/227
f 266/376/228 268/402/228 250/388/228
f 268/402/229 269/403/229 251/390/229
f 269/403/230 270/404/230 252/392/230
f 270/404/231 271/440/231 253/405/231
f 271/406/232 272/409/232 254/407/232
f 272/409/253 273/411/253 255/410/253
f 273/411/254 274/413/254 256/412/254
f 274/413/255 267/438/255 249/385/255
f 257/375/236 259/414/236 268/402/236
f 259/414/237 260/415/237 269/403/237
f 260/415/238 261/416/238 270/404/238
f 261/416/239 262/418/239 271/417/239
f 262/418/240 263/420/240 272/419/240
f 263/420/241 264/422/241 273/421/241
f 264/422/242 265/424/242 274/423/242
f 265/424/243 258/436/243 267/377/243
f 239/387/244 241/386/244 259/414/244
f 241/386/245 242/389/245 260/415/245
f 242/389/246 243/391/246 261/416/246
f 243/391/247 244/441/247 262/425/247
f 244/426/248 245/429/248 263/427/248
f 245/429/256 246/431/256 264/430/256
f 246/431/250 247/433/250 265/432/250
f 247/433/251 240/442/251 258/434/251
f 258/434/252 240/442/252 235/435/252
o 立方体.030
v 12.499999 -19.000000 -14.000000
v 12.499999 -19.000000 14.000002
v -12.500001 -19.000000 -14.000000
v -12.500001 -19.000000 14.000002
v 12.199999 -0.000001 -13.700000
v 12.499999 -0.300001 -14.000000
v 12.258526 -0.005766 -13.758527
v 12.314804 -0.022838 -13.814805
v 12.366670 -0.050561 -13.866671
v 12.412131 -0.087870 -13.912132
v 12.449440 -0.133331 -13.949441
v 12.477163 -0.185197 -13.977164
v 12.494235 -0.241475 -13.994236
v 12.199999 -0.000001 13.700002
v 12.499999 -0.300001 14.000002
v 12.258526 -0.005766 13.758529
v 12.314804 -0.022838 13.814807
v 12.366670 -0.050561 13.866673
v 12.412131 -0.087870 13.912134
v 12.449440 -0.133331 13.949443
v 12.477163 -0.185197 13.977166
v 12.494235 -0.241475 13.994238
v -12.200001 -0.000001 -13.700000
v -12.500001 -0.300001 -14.000000
v -12.258528 -0.005766 -13.758527
v -12.314806 -0.022838 -13.814805
v -12.366672 -0.050561 -13.866671
v -12.412133 -0.087870 -13.912132
v -12.449442 -0.133331 -13.949441
v -12.477165 -0.185197 -13.977164
v -12.494237 -0.241475 -13.994236
v -12.200001 -0.000001 13.700002
v -12.500001 -0.300001 14.000002
v -12.258528 -0.005766 13.758529
v -12.314806 -0.022838 13.814807
v -12.366672 -0.050561 13.866673
v -12.412133 -0.087870 13.912134
v -12.449442 -0.133331 13.949443
v -12.477165 -0.185197 13.977166
v -12.494237 -0.241475 13.994238
vn -0.0000 1.0000 -0.0000
vn -1.0000 -0.0000 -0.0000
vn 1.0000 -0.0000 -0.0000
vn -0.0000 -1.0000 -0.0000
vn -0.0000 -0.0000 1.0000
vn 0.0980 0.9952 -0.0000
vn 0.2903 0.9569 -0.0000
vn 0.4714 0.8819 -0.0000
vn 0.6344 0.7730 -0.0000
vn 0.7730 0.6344 -0.0000
vn 0.8819 0.4714 -0.0000
vn 0.9569 0.2903 -0.0000
vn 0.9952 0.0980 -0.0000
vn -0.0000 0.9952 0.0980
vn -0.0000 0.9569 0.2903
vn -0.0000 0.8819 0.4714
vn -0.0000 0.7730 0.6344
vn -0.0000 0.6344 0.7730
vn -0.0000 0.4714 0.8819
vn -0.0000 0.2903 0.9569
vn -0.0000 0.0980 0.9952
vn -0.0980 0.9952 -0.0000
vn -0.2903 0.9569 -0.0000
vn -0.4714 0.8819 -0.0000
vn -0.6344 0.7730 -0.0000
vn -0.7730 0.6344 -0.0000
vn -0.8819 0.4714 -0.0000
vn -0.9569 0.2903 -0.0000
vn -0.9952 0.0980 -0.0000
vn -0.0000 0.9952 -0.0980
vn -0.0000 0.9569 -0.2903
vn -0.0000 0.8819 -0.4714
vn -0.0000 0.7730 -0.6344
vn -0.0000 0.6344 -0.7730
vn -0.0000 0.4714 -0.8819
vn -0.0000 0.2903 -0.9569
vn -0.0000 0.0980 -0.9952
vn -0.0000 -0.0000 -1.0000
vn -0.0000 0.2902 0.9570
vn -0.0000 0.2902 -0.9570
vt 0.872000 0.502679
vt 0.628000 0.747321
vt 0.628000 0.502679
vt 0.621053 0.500000
vt 0.375000 0.750000
vt 0.375000 0.500000
vt 0.621053 0.000000
vt 0.375000 0.250000
vt 0.375000 0.000000
vt 0.125000 0.750000
vt 0.125000 0.500000
vt 0.621053 0.250000
vt 0.872585 0.747844
vt 0.872000 0.747321
vt 0.872585 0.502156
vt 0.873148 0.748346
vt 0.873148 0.501653
vt 0.873667 0.748810
vt 0.873667 0.501190
vt 0.875000 0.749215
vt 0.625000 0.249215
vt 0.623246 0.000451
vt 0.625000 0.000785
vt 0.623246 0.249549
vt 0.622563 0.000204
vt 0.622563 0.249796
vt 0.621823 0.000051
vt 0.621823 0.249949
vt 0.627415 0.502156
vt 0.626852 0.501654
vt 0.626333 0.501190
vt 0.874121 0.500000
vt 0.625000 0.499121
vt 0.623246 0.250506
vt 0.625000 0.250879
vt 0.623246 0.499494
vt 0.622563 0.250228
vt 0.622563 0.499772
vt 0.621823 0.250058
vt 0.621823 0.499942
vt 0.627415 0.747844
vt 0.626852 0.748346
vt 0.626333 0.748810
vt 0.625000 0.500785
vt 0.625000 0.749215
vt 0.623246 0.500451
vt 0.623246 0.749549
vt 0.622563 0.500204
vt 0.622563 0.749796
vt 0.621823 0.500051
vt 0.621823 0.749949
vt 0.625879 0.750000
vt 0.625000 0.999121
vt 0.623246 0.750506
vt 0.625000 0.750879
vt 0.623246 0.999494
vt 0.622563 0.750228
vt 0.622563 0.999772
vt 0.621823 0.750058
vt 0.621823 0.999942
vt 0.621053 0.750000
vt 0.375000 1.000000
vt 0.621053 0.750000
vt 0.621053 0.250000
vt 0.875000 0.500785
vt 0.625879 0.500000
vt 0.874121 0.750000
vt 0.621053 1.000000
s 0
usemtl Material.001
f 288/443/257 297/444/257 306/445/257
f 307/446/258 277/447/258 278/448/258
f 280/449/259 276/450/259 275/451/259
f 278/448/260 275/452/260 276/453/260
f 289/454/261 278/448/261 276/450/261
f 288/443/262 281/455/262 279/456/262
f 290/457/263 282/458/263 281/455/263
f 291/459/264 283/460/264 282/458/264
f 292/461/265 284/462/265 283/460/265
f 293/463/266 285/464/266 284/465/266
f 294/466/267 286/467/267 285/464/267
f 295/468/268 287/469/268 286/467/268
f 296/470/269 280/449/269 287/469/269
f 306/445/270 290/457/270 288/443/270
f 308/471/271 291/459/271 290/457/271
f 309/472/272 292/461/272 291/459/272
f 310/473/273 293/474/273 292/461/273
f 311/475/274 294/476/274 293/477/274
f 312/478/275 295/479/275 294/476/275
f 313/480/276 296/481/276 295/479/276
f 314/482/277 289/454/277 296/481/277
f 297/444/278 308/471/278 306/445/278
f 299/483/279 309/472/279 308/471/279
f 300/484/280 310/473/280 309/472/280
f 301/485/281 311/486/281 310/473/281
f 302/487/282 312/488/282 311/486/282
f 303/489/283 313/490/283 312/488/283
f 304/491/284 314/492/284 313/490/284
f 305/493/285 307/446/285 314/492/285
f 279/456/286 299/483/286 297/444/286
f 281/455/287 300/484/287 299/483/287
f 282/458/288 301/485/288 300/484/288
f 283/460/289 302/494/289 301/485/289
f 284/495/290 303/496/290 302/497/290
f 285/498/291 304/499/291 303/496/291
f 286/500/292 305/501/292 304/499/292
f 287/502/293 298/503/293 305/501/293
f 298/503/294 275/504/294 277/447/294
f 288/443/257 279/456/257 297/444/257
f 307/446/258 298/505/258 277/447/258
f 280/449/259 289/506/259 276/450/259
f 278/448/260 277/447/260 275/452/260
f 289/454/261 307/446/261 278/448/261
f 288/443/262 290/457/262 281/455/262
f 290/457/263 291/459/263 282/458/263
f 291/459/264 292/461/264 283/460/264
f 292/461/265 293/507/265 284/462/265
f 293/463/266 294/466/266 285/464/266
f 294/466/267 295/468/267 286/467/267
f 295/468/268 296/470/268 287/469/268
f 296/470/269 289/506/269 280/449/269
f 306/445/270 308/471/270 290/457/270
f 308/471/271 309/472/271 291/459/271
f 309/472/272 310/473/272 292/461/272
f 310/473/273 311/508/273 293/474/273
f 311/475/274 312/478/274 294/476/274
f 312/478/275 313/480/275 295/479/275
f 313/480/295 314/482/295 296/481/295
f 314/482/277 307/446/277 289/454/277
f 297/444/278 299/483/278 308/471/278
f 299/483/279 300/484/279 309/472/279
f 300/484/280 301/485/280 310/473/280
f 301/485/281 302/487/281 311/486/281
f 302/487/282 303/489/282 312/488/282
f 303/489/283 304/491/283 313/490/283
f 304/491/284 305/493/284 314/492/284
f 305/493/285 298/505/285 307/446/285
f 279/456/286 281/455/286 299/483/286
f 281/455/287 282/458/287 300/484/287
f 282/458/288 283/460/288 301/485/288
f 283/460/289 284/509/289 302/494/289
f 284/495/290 285/498/290 303/496/290
f 285/498/291 286/500/291 304/499/291
f 286/500/296 287/502/296 305/501/296
f 287/502/293 280/510/293 298/503/293
f 298/503/294 280/510/294 275/504/294
