{
	"asset":{
		"generator":"Khronos glTF Blender I/O v4.2.69",
		"version":"2.0"
	},
	"scene":0,
	"scenes":[
		{
			"name":"Scene",
			"nodes":[
				0,
				1,
				2,
				3,
				4,
				5,
				6,
				7,
				8,
				9,
				10,
				11,
				12,
				13,
				14,
				15,
				16,
				17,
				18,
				19,
				20,
				21
			]
		}
	],
	"nodes":[
		{
			"mesh":0,
			"name":"\u7acb\u65b9\u4f53.001"
		},
		{
			"mesh":1,
			"name":"\u7acb\u65b9\u4f53.002"
		},
		{
			"mesh":2,
			"name":"\u7acb\u65b9\u4f53.003"
		},
		{
			"mesh":3,
			"name":"\u7acb\u65b9\u4f53.004"
		},
		{
			"mesh":4,
			"name":"\u7acb\u65b9\u4f53.007"
		},
		{
			"mesh":5,
			"name":"\u7acb\u65b9\u4f53.017"
		},
		{
			"mesh":6,
			"name":"\u7acb\u65b9\u4f53.005"
		},
		{
			"mesh":7,
			"name":"\u7acb\u65b9\u4f53.006"
		},
		{
			"mesh":8,
			"name":"\u7acb\u65b9\u4f53.008"
		},
		{
			"mesh":9,
			"name":"\u7acb\u65b9\u4f53.009"
		},
		{
			"mesh":10,
			"name":"\u7acb\u65b9\u4f53.010"
		},
		{
			"mesh":11,
			"name":"\u7acb\u65b9\u4f53.011"
		},
		{
			"mesh":12,
			"name":"\u7acb\u65b9\u4f53.012"
		},
		{
			"mesh":13,
			"name":"\u7acb\u65b9\u4f53.013"
		},
		{
			"mesh":14,
			"name":"\u7acb\u65b9\u4f53.014"
		},
		{
			"mesh":15,
			"name":"\u7acb\u65b9\u4f53.015"
		},
		{
			"mesh":16,
			"name":"\u7acb\u65b9\u4f53.016"
		},
		{
			"mesh":17,
			"name":"\u7acb\u65b9\u4f53.018"
		},
		{
			"mesh":18,
			"name":"\u7acb\u65b9\u4f53.019"
		},
		{
			"mesh":19,
			"name":"\u7acb\u65b9\u4f53"
		},
		{
			"mesh":20,
			"name":"\u5e73\u9762"
		},
		{
			"mesh":21,
			"name":"\u5e73\u9762.001"
		}
	],
	"materials":[
		{
			"doubleSided":true,
			"name":"Material",
			"pbrMetallicRoughness":{
				"baseColorFactor":[
					0.800000011920929,
					0.800000011920929,
					0.800000011920929,
					1
				],
				"metallicFactor":0,
				"roughnessFactor":0.5
			}
		},
		{
			"doubleSided":true,
			"name":"\u30de\u30c6\u30ea\u30a2\u30eb.011",
			"pbrMetallicRoughness":{
				"baseColorTexture":{
					"index":0
				},
				"metallicFactor":0,
				"roughnessFactor":0
			}
		},
		{
			"doubleSided":true,
			"name":"\u30de\u30c6\u30ea\u30a2\u30eb",
			"pbrMetallicRoughness":{
				"baseColorTexture":{
					"index":1
				},
				"metallicFactor":0.05000000074505806,
				"roughnessFactor":0
			}
		}
	],
	"meshes":[
		{
			"name":"\u7acb\u65b9\u4f53.003",
			"primitives":[
				{
					"attributes":{
						"POSITION":0,
						"NORMAL":1,
						"TEXCOORD_0":2
					},
					"indices":3,
					"material":0
				}
			]
		},
		{
			"name":"\u7acb\u65b9\u4f53.006",
			"primitives":[
				{
					"attributes":{
						"POSITION":4,
						"NORMAL":5,
						"TEXCOORD_0":6
					},
					"indices":3,
					"material":0
				}
			]
		},
		{
			"name":"\u7acb\u65b9\u4f53",
			"primitives":[
				{
					"attributes":{
						"POSITION":7,
						"NORMAL":8,
						"TEXCOORD_0":9
					},
					"indices":3,
					"material":1
				}
			]
		},
		{
			"name":"\u7acb\u65b9\u4f53.004",
			"primitives":[
				{
					"attributes":{
						"POSITION":10,
						"NORMAL":11,
						"TEXCOORD_0":12
					},
					"indices":13,
					"material":1
				}
			]
		},
		{
			"name":"\u7acb\u65b9\u4f53.007",
			"primitives":[
				{
					"attributes":{
						"POSITION":14,
						"NORMAL":15,
						"TEXCOORD_0":16
					},
					"indices":17,
					"material":1
				}
			]
		},
		{
			"name":"\u7acb\u65b9\u4f53.019",
			"primitives":[
				{
					"attributes":{
						"POSITION":18,
						"NORMAL":19,
						"TEXCOORD_0":20
					},
					"indices":3,
					"material":0
				}
			]
		},
		{
			"name":"\u7acb\u65b9\u4f53.008",
			"primitives":[
				{
					"attributes":{
						"POSITION":21,
						"NORMAL":22,
						"TEXCOORD_0":23
					},
					"indices":24,
					"material":1
				}
			]
		},
		{
			"name":"\u7acb\u65b9\u4f53.009",
			"primitives":[
				{
					"attributes":{
						"POSITION":25,
						"NORMAL":26,
						"TEXCOORD_0":27
					},
					"indices":24,
					"material":1
				}
			]
		},
		{
			"name":"\u7acb\u65b9\u4f53.010",
			"primitives":[
				{
					"attributes":{
						"POSITION":28,
						"NORMAL":29,
						"TEXCOORD_0":30
					},
					"indices":24,
					"material":1
				}
			]
		},
		{
			"name":"\u7acb\u65b9\u4f53.011",
			"primitives":[
				{
					"attributes":{
						"POSITION":31,
						"NORMAL":32,
						"TEXCOORD_0":33
					},
					"indices":24,
					"material":1
				}
			]
		},
		{
			"name":"\u7acb\u65b9\u4f53.012",
			"primitives":[
				{
					"attributes":{
						"POSITION":34,
						"NORMAL":35,
						"TEXCOORD_0":36
					},
					"indices":24,
					"material":1
				}
			]
		},
		{
			"name":"\u7acb\u65b9\u4f53.013",
			"primitives":[
				{
					"attributes":{
						"POSITION":37,
						"NORMAL":38,
						"TEXCOORD_0":39
					},
					"indices":24,
					"material":1
				}
			]
		},
		{
			"name":"\u7acb\u65b9\u4f53.014",
			"primitives":[
				{
					"attributes":{
						"POSITION":40,
						"NORMAL":41,
						"TEXCOORD_0":42
					},
					"indices":24,
					"material":1
				}
			]
		},
		{
			"name":"\u7acb\u65b9\u4f53.015",
			"primitives":[
				{
					"attributes":{
						"POSITION":43,
						"NORMAL":44,
						"TEXCOORD_0":45
					},
					"indices":24,
					"material":1
				}
			]
		},
		{
			"name":"\u7acb\u65b9\u4f53.016",
			"primitives":[
				{
					"attributes":{
						"POSITION":46,
						"NORMAL":47,
						"TEXCOORD_0":48
					},
					"indices":24,
					"material":1
				}
			]
		},
		{
			"name":"\u7acb\u65b9\u4f53.017",
			"primitives":[
				{
					"attributes":{
						"POSITION":49,
						"NORMAL":50,
						"TEXCOORD_0":51
					},
					"indices":24,
					"material":1
				}
			]
		},
		{
			"name":"\u7acb\u65b9\u4f53.018",
			"primitives":[
				{
					"attributes":{
						"POSITION":52,
						"NORMAL":53,
						"TEXCOORD_0":54
					},
					"indices":55,
					"material":2
				}
			]
		},
		{
			"name":"\u7acb\u65b9\u4f53.020",
			"primitives":[
				{
					"attributes":{
						"POSITION":56,
						"NORMAL":57,
						"TEXCOORD_0":58
					},
					"indices":59,
					"material":0
				}
			]
		},
		{
			"name":"\u7acb\u65b9\u4f53.001",
			"primitives":[
				{
					"attributes":{
						"POSITION":60,
						"NORMAL":61,
						"TEXCOORD_0":62
					},
					"indices":3,
					"material":0
				}
			]
		},
		{
			"name":"\u7acb\u65b9\u4f53.021",
			"primitives":[
				{
					"attributes":{
						"POSITION":63,
						"NORMAL":64,
						"TEXCOORD_0":65
					},
					"indices":17,
					"material":2
				}
			]
		},
		{
			"name":"\u5e73\u9762",
			"primitives":[
				{
					"attributes":{
						"POSITION":66,
						"NORMAL":67,
						"TEXCOORD_0":68
					},
					"indices":69,
					"material":1
				}
			]
		},
		{
			"name":"\u5e73\u9762.001",
			"primitives":[
				{
					"attributes":{
						"POSITION":70,
						"NORMAL":71,
						"TEXCOORD_0":72
					},
					"indices":73,
					"material":1
				}
			]
		}
	],
	"textures":[
		{
			"sampler":0,
			"source":0
		},
		{
			"sampler":0,
			"source":1
		}
	],
	"images":[
		{
			"mimeType":"image/png",
			"name":"uvChecker",
			"uri":"uvChecker.png"
		},
		{
			"mimeType":"image/png",
			"name":"grass",
			"uri":"grass.png"
		}
	],
	"accessors":[
		{
			"bufferView":0,
			"componentType":5126,
			"count":24,
			"max":[
				6,
				7,
				19
			],
			"min":[
				4,
				0,
				7
			],
			"type":"VEC3"
		},
		{
			"bufferView":1,
			"componentType":5126,
			"count":24,
			"type":"VEC3"
		},
		{
			"bufferView":2,
			"componentType":5126,
			"count":24,
			"type":"VEC2"
		},
		{
			"bufferView":3,
			"componentType":5123,
			"count":36,
			"type":"SCALAR"
		},
		{
			"bufferView":4,
			"componentType":5126,
			"count":24,
			"max":[
				-4,
				7,
				19
			],
			"min":[
				-6,
				0,
				7
			],
			"type":"VEC3"
		},
		{
			"bufferView":5,
			"componentType":5126,
			"count":24,
			"type":"VEC3"
		},
		{
			"bufferView":6,
			"componentType":5126,
			"count":24,
			"type":"VEC2"
		},
		{
			"bufferView":7,
			"componentType":5126,
			"count":24,
			"max":[
				1,
				2,
				14
			],
			"min":[
				-1,
				0,
				12
			],
			"type":"VEC3"
		},
		{
			"bufferView":8,
			"componentType":5126,
			"count":24,
			"type":"VEC3"
		},
		{
			"bufferView":9,
			"componentType":5126,
			"count":24,
			"type":"VEC2"
		},
		{
			"bufferView":10,
			"componentType":5126,
			"count":24,
			"max":[
				6,
				6,
				7
			],
			"min":[
				4,
				4,
				3
			],
			"type":"VEC3"
		},
		{
			"bufferView":11,
			"componentType":5126,
			"count":24,
			"type":"VEC3"
		},
		{
			"bufferView":12,
			"componentType":5126,
			"count":24,
			"type":"VEC2"
		},
		{
			"bufferView":13,
			"componentType":5123,
			"count":36,
			"type":"SCALAR"
		},
		{
			"bufferView":14,
			"componentType":5126,
			"count":24,
			"max":[
				-6,
				4.699999809265137,
				11
			],
			"min":[
				-8,
				2,
				9
			],
			"type":"VEC3"
		},
		{
			"bufferView":15,
			"componentType":5126,
			"count":24,
			"type":"VEC3"
		},
		{
			"bufferView":16,
			"componentType":5126,
			"count":24,
			"type":"VEC2"
		},
		{
			"bufferView":17,
			"componentType":5123,
			"count":36,
			"type":"SCALAR"
		},
		{
			"bufferView":18,
			"componentType":5126,
			"count":24,
			"max":[
				-4,
				7,
				31
			],
			"min":[
				-6,
				1.1920928955078125e-07,
				19
			],
			"type":"VEC3"
		},
		{
			"bufferView":19,
			"componentType":5126,
			"count":24,
			"type":"VEC3"
		},
		{
			"bufferView":20,
			"componentType":5126,
			"count":24,
			"type":"VEC2"
		},
		{
			"bufferView":21,
			"componentType":5126,
			"count":16,
			"max":[
				-4,
				2.000000476837158,
				5
			],
			"min":[
				-6,
				1.8000004291534424,
				4.800000190734863
			],
			"type":"VEC3"
		},
		{
			"bufferView":22,
			"componentType":5126,
			"count":16,
			"type":"VEC3"
		},
		{
			"bufferView":23,
			"componentType":5126,
			"count":16,
			"type":"VEC2"
		},
		{
			"bufferView":24,
			"componentType":5123,
			"count":24,
			"type":"SCALAR"
		},
		{
			"bufferView":25,
			"componentType":5126,
			"count":16,
			"max":[
				-4,
				1.8000004291534424,
				4.800000190734863
			],
			"min":[
				-6,
				1.6000003814697266,
				4.600000381469727
			],
			"type":"VEC3"
		},
		{
			"bufferView":26,
			"componentType":5126,
			"count":16,
			"type":"VEC3"
		},
		{
			"bufferView":27,
			"componentType":5126,
			"count":16,
			"type":"VEC2"
		},
		{
			"bufferView":28,
			"componentType":5126,
			"count":16,
			"max":[
				-4,
				1.6000003814697266,
				4.600000381469727
			],
			"min":[
				-6,
				1.4000003337860107,
				4.40000057220459
			],
			"type":"VEC3"
		},
		{
			"bufferView":29,
			"componentType":5126,
			"count":16,
			"type":"VEC3"
		},
		{
			"bufferView":30,
			"componentType":5126,
			"count":16,
			"type":"VEC2"
		},
		{
			"bufferView":31,
			"componentType":5126,
			"count":16,
			"max":[
				-4,
				1.4000003337860107,
				4.40000057220459
			],
			"min":[
				-6,
				1.200000286102295,
				4.200000762939453
			],
			"type":"VEC3"
		},
		{
			"bufferView":32,
			"componentType":5126,
			"count":16,
			"type":"VEC3"
		},
		{
			"bufferView":33,
			"componentType":5126,
			"count":16,
			"type":"VEC2"
		},
		{
			"bufferView":34,
			"componentType":5126,
			"count":16,
			"max":[
				-4,
				1.200000286102295,
				4.200000762939453
			],
			"min":[
				-6,
				1.000000238418579,
				4.000000953674316
			],
			"type":"VEC3"
		},
		{
			"bufferView":35,
			"componentType":5126,
			"count":16,
			"type":"VEC3"
		},
		{
			"bufferView":36,
			"componentType":5126,
			"count":16,
			"type":"VEC2"
		},
		{
			"bufferView":37,
			"componentType":5126,
			"count":16,
			"max":[
				-4,
				1.000000238418579,
				4.000000953674316
			],
			"min":[
				-6,
				0.8000001907348633,
				3.8000011444091797
			],
			"type":"VEC3"
		},
		{
			"bufferView":38,
			"componentType":5126,
			"count":16,
			"type":"VEC3"
		},
		{
			"bufferView":39,
			"componentType":5126,
			"count":16,
			"type":"VEC2"
		},
		{
			"bufferView":40,
			"componentType":5126,
			"count":16,
			"max":[
				-4,
				0.8000001907348633,
				3.8000011444091797
			],
			"min":[
				-6,
				0.6000001430511475,
				3.600001335144043
			],
			"type":"VEC3"
		},
		{
			"bufferView":41,
			"componentType":5126,
			"count":16,
			"type":"VEC3"
		},
		{
			"bufferView":42,
			"componentType":5126,
			"count":16,
			"type":"VEC2"
		},
		{
			"bufferView":43,
			"componentType":5126,
			"count":16,
			"max":[
				-4,
				0.6000001430511475,
				3.600001335144043
			],
			"min":[
				-6,
				0.40000009536743164,
				3.4000015258789062
			],
			"type":"VEC3"
		},
		{
			"bufferView":44,
			"componentType":5126,
			"count":16,
			"type":"VEC3"
		},
		{
			"bufferView":45,
			"componentType":5126,
			"count":16,
			"type":"VEC2"
		},
		{
			"bufferView":46,
			"componentType":5126,
			"count":16,
			"max":[
				-4,
				0.20000004768371582,
				3.2000017166137695
			],
			"min":[
				-6,
				0,
				3.000001907348633
			],
			"type":"VEC3"
		},
		{
			"bufferView":47,
			"componentType":5126,
			"count":16,
			"type":"VEC3"
		},
		{
			"bufferView":48,
			"componentType":5126,
			"count":16,
			"type":"VEC2"
		},
		{
			"bufferView":49,
			"componentType":5126,
			"count":16,
			"max":[
				-4,
				0.40000009536743164,
				3.4000015258789062
			],
			"min":[
				-6,
				0.20000004768371582,
				3.2000017166137695
			],
			"type":"VEC3"
		},
		{
			"bufferView":50,
			"componentType":5126,
			"count":16,
			"type":"VEC3"
		},
		{
			"bufferView":51,
			"componentType":5126,
			"count":16,
			"type":"VEC2"
		},
		{
			"bufferView":52,
			"componentType":5126,
			"count":24,
			"max":[
				6,
				2,
				7
			],
			"min":[
				-6,
				0,
				5
			],
			"type":"VEC3"
		},
		{
			"bufferView":53,
			"componentType":5126,
			"count":24,
			"type":"VEC3"
		},
		{
			"bufferView":54,
			"componentType":5126,
			"count":24,
			"type":"VEC2"
		},
		{
			"bufferView":55,
			"componentType":5123,
			"count":36,
			"type":"SCALAR"
		},
		{
			"bufferView":56,
			"componentType":5126,
			"count":24,
			"max":[
				1.5499999523162842,
				2.000000476837158,
				15
			],
			"min":[
				1.3500001430511475,
				1.8000004291534424,
				7
			],
			"type":"VEC3"
		},
		{
			"bufferView":57,
			"componentType":5126,
			"count":24,
			"type":"VEC3"
		},
		{
			"bufferView":58,
			"componentType":5126,
			"count":24,
			"type":"VEC2"
		},
		{
			"bufferView":59,
			"componentType":5123,
			"count":36,
			"type":"SCALAR"
		},
		{
			"bufferView":60,
			"componentType":5126,
			"count":24,
			"max":[
				6,
				7,
				31
			],
			"min":[
				4,
				-8.940696716308594e-08,
				19
			],
			"type":"VEC3"
		},
		{
			"bufferView":61,
			"componentType":5126,
			"count":24,
			"type":"VEC3"
		},
		{
			"bufferView":62,
			"componentType":5126,
			"count":24,
			"type":"VEC2"
		},
		{
			"bufferView":63,
			"componentType":5126,
			"count":24,
			"max":[
				6,
				0,
				37.000003814697266
			],
			"min":[
				-6,
				-1,
				-7
			],
			"type":"VEC3"
		},
		{
			"bufferView":64,
			"componentType":5126,
			"count":24,
			"type":"VEC3"
		},
		{
			"bufferView":65,
			"componentType":5126,
			"count":24,
			"type":"VEC2"
		},
		{
			"bufferView":66,
			"componentType":5126,
			"count":76,
			"max":[
				-6.590166091918945,
				2.097041606903076,
				4.636324405670166
			],
			"min":[
				-6.590166091918945,
				0.09704160690307617,
				2.636324405670166
			],
			"type":"VEC3"
		},
		{
			"bufferView":67,
			"componentType":5126,
			"count":76,
			"type":"VEC3"
		},
		{
			"bufferView":68,
			"componentType":5126,
			"count":76,
			"type":"VEC2"
		},
		{
			"bufferView":69,
			"componentType":5123,
			"count":330,
			"type":"SCALAR"
		},
		{
			"bufferView":70,
			"componentType":5126,
			"count":76,
			"max":[
				-7.130448341369629,
				1.4102401733398438,
				5.130293846130371
			],
			"min":[
				-7.130448341369629,
				-0.589759886264801,
				3.130293846130371
			],
			"type":"VEC3"
		},
		{
			"bufferView":71,
			"componentType":5126,
			"count":76,
			"type":"VEC3"
		},
		{
			"bufferView":72,
			"componentType":5126,
			"count":76,
			"type":"VEC2"
		},
		{
			"bufferView":73,
			"componentType":5123,
			"count":330,
			"type":"SCALAR"
		}
	],
	"bufferViews":[
		{
			"buffer":0,
			"byteLength":288,
			"byteOffset":0,
			"target":34962
		},
		{
			"buffer":0,
			"byteLength":288,
			"byteOffset":288,
			"target":34962
		},
		{
			"buffer":0,
			"byteLength":192,
			"byteOffset":576,
			"target":34962
		},
		{
			"buffer":0,
			"byteLength":72,
			"byteOffset":768,
			"target":34963
		},
		{
			"buffer":0,
			"byteLength":288,
			"byteOffset":840,
			"target":34962
		},
		{
			"buffer":0,
			"byteLength":288,
			"byteOffset":1128,
			"target":34962
		},
		{
			"buffer":0,
			"byteLength":192,
			"byteOffset":1416,
			"target":34962
		},
		{
			"buffer":0,
			"byteLength":288,
			"byteOffset":1608,
			"target":34962
		},
		{
			"buffer":0,
			"byteLength":288,
			"byteOffset":1896,
			"target":34962
		},
		{
			"buffer":0,
			"byteLength":192,
			"byteOffset":2184,
			"target":34962
		},
		{
			"buffer":0,
			"byteLength":288,
			"byteOffset":2376,
			"target":34962
		},
		{
			"buffer":0,
			"byteLength":288,
			"byteOffset":2664,
			"target":34962
		},
		{
			"buffer":0,
			"byteLength":192,
			"byteOffset":2952,
			"target":34962
		},
		{
			"buffer":0,
			"byteLength":72,
			"byteOffset":3144,
			"target":34963
		},
		{
			"buffer":0,
			"byteLength":288,
			"byteOffset":3216,
			"target":34962
		},
		{
			"buffer":0,
			"byteLength":288,
			"byteOffset":3504,
			"target":34962
		},
		{
			"buffer":0,
			"byteLength":192,
			"byteOffset":3792,
			"target":34962
		},
		{
			"buffer":0,
			"byteLength":72,
			"byteOffset":3984,
			"target":34963
		},
		{
			"buffer":0,
			"byteLength":288,
			"byteOffset":4056,
			"target":34962
		},
		{
			"buffer":0,
			"byteLength":288,
			"byteOffset":4344,
			"target":34962
		},
		{
			"buffer":0,
			"byteLength":192,
			"byteOffset":4632,
			"target":34962
		},
		{
			"buffer":0,
			"byteLength":192,
			"byteOffset":4824,
			"target":34962
		},
		{
			"buffer":0,
			"byteLength":192,
			"byteOffset":5016,
			"target":34962
		},
		{
			"buffer":0,
			"byteLength":128,
			"byteOffset":5208,
			"target":34962
		},
		{
			"buffer":0,
			"byteLength":48,
			"byteOffset":5336,
			"target":34963
		},
		{
			"buffer":0,
			"byteLength":192,
			"byteOffset":5384,
			"target":34962
		},
		{
			"buffer":0,
			"byteLength":192,
			"byteOffset":5576,
			"target":34962
		},
		{
			"buffer":0,
			"byteLength":128,
			"byteOffset":5768,
			"target":34962
		},
		{
			"buffer":0,
			"byteLength":192,
			"byteOffset":5896,
			"target":34962
		},
		{
			"buffer":0,
			"byteLength":192,
			"byteOffset":6088,
			"target":34962
		},
		{
			"buffer":0,
			"byteLength":128,
			"byteOffset":6280,
			"target":34962
		},
		{
			"buffer":0,
			"byteLength":192,
			"byteOffset":6408,
			"target":34962
		},
		{
			"buffer":0,
			"byteLength":192,
			"byteOffset":6600,
			"target":34962
		},
		{
			"buffer":0,
			"byteLength":128,
			"byteOffset":6792,
			"target":34962
		},
		{
			"buffer":0,
			"byteLength":192,
			"byteOffset":6920,
			"target":34962
		},
		{
			"buffer":0,
			"byteLength":192,
			"byteOffset":7112,
			"target":34962
		},
		{
			"buffer":0,
			"byteLength":128,
			"byteOffset":7304,
			"target":34962
		},
		{
			"buffer":0,
			"byteLength":192,
			"byteOffset":7432,
			"target":34962
		},
		{
			"buffer":0,
			"byteLength":192,
			"byteOffset":7624,
			"target":34962
		},
		{
			"buffer":0,
			"byteLength":128,
			"byteOffset":7816,
			"target":34962
		},
		{
			"buffer":0,
			"byteLength":192,
			"byteOffset":7944,
			"target":34962
		},
		{
			"buffer":0,
			"byteLength":192,
			"byteOffset":8136,
			"target":34962
		},
		{
			"buffer":0,
			"byteLength":128,
			"byteOffset":8328,
			"target":34962
		},
		{
			"buffer":0,
			"byteLength":192,
			"byteOffset":8456,
			"target":34962
		},
		{
			"buffer":0,
			"byteLength":192,
			"byteOffset":8648,
			"target":34962
		},
		{
			"buffer":0,
			"byteLength":128,
			"byteOffset":8840,
			"target":34962
		},
		{
			"buffer":0,
			"byteLength":192,
			"byteOffset":8968,
			"target":34962
		},
		{
			"buffer":0,
			"byteLength":192,
			"byteOffset":9160,
			"target":34962
		},
		{
			"buffer":0,
			"byteLength":128,
			"byteOffset":9352,
			"target":34962
		},
		{
			"buffer":0,
			"byteLength":192,
			"byteOffset":9480,
			"target":34962
		},
		{
			"buffer":0,
			"byteLength":192,
			"byteOffset":9672,
			"target":34962
		},
		{
			"buffer":0,
			"byteLength":128,
			"byteOffset":9864,
			"target":34962
		},
		{
			"buffer":0,
			"byteLength":288,
			"byteOffset":9992,
			"target":34962
		},
		{
			"buffer":0,
			"byteLength":288,
			"byteOffset":10280,
			"target":34962
		},
		{
			"buffer":0,
			"byteLength":192,
			"byteOffset":10568,
			"target":34962
		},
		{
			"buffer":0,
			"byteLength":72,
			"byteOffset":10760,
			"target":34963
		},
		{
			"buffer":0,
			"byteLength":288,
			"byteOffset":10832,
			"target":34962
		},
		{
			"buffer":0,
			"byteLength":288,
			"byteOffset":11120,
			"target":34962
		},
		{
			"buffer":0,
			"byteLength":192,
			"byteOffset":11408,
			"target":34962
		},
		{
			"buffer":0,
			"byteLength":72,
			"byteOffset":11600,
			"target":34963
		},
		{
			"buffer":0,
			"byteLength":288,
			"byteOffset":11672,
			"target":34962
		},
		{
			"buffer":0,
			"byteLength":288,
			"byteOffset":11960,
			"target":34962
		},
		{
			"buffer":0,
			"byteLength":192,
			"byteOffset":12248,
			"target":34962
		},
		{
			"buffer":0,
			"byteLength":288,
			"byteOffset":12440,
			"target":34962
		},
		{
			"buffer":0,
			"byteLength":288,
			"byteOffset":12728,
			"target":34962
		},
		{
			"buffer":0,
			"byteLength":192,
			"byteOffset":13016,
			"target":34962
		},
		{
			"buffer":0,
			"byteLength":912,
			"byteOffset":13208,
			"target":34962
		},
		{
			"buffer":0,
			"byteLength":912,
			"byteOffset":14120,
			"target":34962
		},
		{
			"buffer":0,
			"byteLength":608,
			"byteOffset":15032,
			"target":34962
		},
		{
			"buffer":0,
			"byteLength":660,
			"byteOffset":15640,
			"target":34963
		},
		{
			"buffer":0,
			"byteLength":912,
			"byteOffset":16300,
			"target":34962
		},
		{
			"buffer":0,
			"byteLength":912,
			"byteOffset":17212,
			"target":34962
		},
		{
			"buffer":0,
			"byteLength":608,
			"byteOffset":18124,
			"target":34962
		},
		{
			"buffer":0,
			"byteLength":660,
			"byteOffset":18732,
			"target":34963
		}
	],
	"samplers":[
		{
			"magFilter":9729,
			"minFilter":9987
		}
	],
	"buffers":[
		{
			"byteLength":19392,
			"uri":"LandPlate.bin"
		}
	]
}
