# Blender 4.2.2 LTS
# www.blender.org
mtllib TitleScene_02.mtl
o 平面
v 3.000000 0.000000 -3.000000
v -3.000000 0.000000 -3.000000
v 3.000000 0.000000 3.000000
v -3.000000 0.000000 3.000000
v 3.000000 0.000000 2.400000
v -3.000000 0.000000 2.400000
v -3.000000 0.200000 2.400000
v -3.000000 0.200000 3.000000
v 3.000000 0.200000 3.000000
v 3.000000 0.200000 2.400000
vn -0.0000 -0.0000 1.0000
vn -0.0000 1.0000 -0.0000
vn -0.0000 -0.0000 -1.0000
vn 1.0000 -0.0000 -0.0000
vn -1.0000 -0.0000 -0.0000
vt 0.000000 0.000000
vt 1.000000 0.000000
vt 0.000000 0.900000
vt 1.000000 0.900000
vt 0.000000 1.000000
vt 1.000000 0.096790
vt 0.000000 -0.003764
vt -0.000923 0.093802
vt 1.000000 1.000000
vt 1.000000 -0.003210
s 0
usemtl マテリアル
f 3/1/1 8/1/1 4/1/1
f 2/2/2 5/3/2 1/1/2
f 7/4/2 9/5/2 10/3/2
f 6/6/3 10/7/3 5/8/3
f 5/1/4 9/1/4 3/1/4
f 4/1/5 7/1/5 6/1/5
f 3/1/1 9/1/1 8/1/1
f 2/2/2 6/4/2 5/3/2
f 7/4/2 8/9/2 9/5/2
f 6/6/3 7/10/3 10/7/3
f 5/1/4 10/1/4 9/1/4
f 4/1/5 8/1/5 7/1/5
o 立方体
v 5.000000 -2.000000 35.000000
v 5.000000 18.000000 35.000000
v 5.000000 -2.000000 45.000000
v 5.000000 18.000000 45.000000
v -5.000000 -2.000000 35.000000
v -5.000000 18.000000 35.000000
v -5.000000 -2.000000 45.000000
v -5.000000 18.000000 45.000000
vn 1.0000 -0.0000 -0.0000
vn -1.0000 -0.0000 -0.0000
vn -0.0000 -0.0000 -1.0000
vt 1.001698 -0.003395
vt 0.001403 1.000000
vt -0.000147 -0.003395
vt 1.000147 1.001550
s 0
usemtl マテリアル
f 12/11/6 13/12/6 11/13/6
f 18/11/7 15/12/7 17/13/7
f 16/11/8 11/12/8 15/13/8
f 12/11/6 14/14/6 13/12/6
f 18/11/7 16/14/7 15/12/7
f 16/11/8 12/14/8 11/12/8
o 立方体.001
v -0.560307 12.112060 34.700001
v -0.785308 12.112060 34.700001
v -0.785308 14.869061 34.700001
v -0.560307 14.869061 34.700001
v -0.284374 14.227626 34.700001
v -0.277086 14.162325 34.700001
v -0.268464 14.094920 34.700001
v -0.258530 14.026172 34.700001
v -0.247304 13.956841 34.700001
v -0.234807 13.887686 34.700001
v -0.221061 13.819468 34.700001
v -0.206085 13.752950 34.700001
v -0.189901 13.688890 34.700001
v -0.172530 13.628047 34.700001
v -0.153992 13.571184 34.700001
v -0.134307 13.519061 34.700001
v -0.311308 13.456061 34.700001
v -0.330989 13.513363 34.700001
v -0.349502 13.575228 34.700001
v -0.366808 13.640842 34.700001
v -0.382864 13.709394 34.700001
v -0.397627 13.780070 34.700001
v -0.411058 13.852061 34.700001
v -0.423114 13.924551 34.700001
v -0.433752 13.996728 34.700001
v -0.442933 14.067780 34.700001
v -0.450613 14.136893 34.700001
v -0.456753 14.203259 34.700001
v -0.461308 14.266062 34.700001
v -0.290308 14.290061 34.700001
v -0.791308 14.317061 34.700001
v -0.813894 14.270960 34.700001
v -0.836502 14.223006 34.700001
v -0.858901 14.173717 34.700001
v -0.880864 14.123616 34.700001
v -0.902159 14.073224 34.700001
v -0.922558 14.023061 34.700001
v -0.941832 13.973648 34.700001
v -0.959752 13.925506 34.700001
v -0.976089 13.879155 34.700001
v -0.990613 13.835116 34.700001
v -1.003096 13.793912 34.700001
v -1.013308 13.756062 34.700001
v -1.181307 13.840060 34.700001
v -1.170976 13.877101 34.700001
v -1.158154 13.917381 34.700001
v -1.143105 13.960389 34.700001
v -1.126085 14.005617 34.700001
v -1.107357 14.052552 34.700001
v -1.087182 14.100685 34.700001
v -1.065820 14.149508 34.700001
v -1.043530 14.198505 34.700001
v -1.020574 14.247170 34.700001
v -0.997211 14.294991 34.700001
v -0.973702 14.341457 34.700001
v -0.950307 14.386062 34.700001
v -2.465308 14.179061 34.700001
v -2.465308 13.492062 34.700001
v -2.000308 13.492062 34.700001
v -2.003124 13.524249 34.700001
v -2.005585 13.556312 34.700001
v -2.007714 13.588248 34.700001
v -2.009530 13.620061 34.700001
v -2.011056 13.651749 34.700001
v -2.012308 13.683310 34.700001
v -2.013311 13.714748 34.700001
v -2.014086 13.746061 34.700001
v -2.014652 13.777248 34.700001
v -2.015030 13.808311 34.700001
v -2.015242 13.839248 34.700001
v -2.015307 13.870061 34.700001
v -2.015307 14.179061 34.700001
v -1.782713 13.588671 34.700001
v -1.780585 13.556519 34.700001
v -1.778123 13.524304 34.700001
v -1.775308 13.492062 34.700001
v -1.040308 13.492062 34.700001
v -1.040308 13.273061 34.700001
v -1.745308 13.273061 34.700001
v -1.723186 13.180872 34.700001
v -1.695336 13.089047 34.700001
v -1.661027 12.997952 34.700001
v -1.619530 12.907949 34.700001
v -1.570117 12.819406 34.700001
v -1.512058 12.732686 34.700001
v -1.444623 12.648153 34.700001
v -1.367085 12.566172 34.700001
v -1.278714 12.487106 34.700001
v -1.178780 12.411325 34.700001
v -1.066553 12.339188 34.700001
v -0.941308 12.271061 34.700001
v -0.954576 12.259731 34.700001
v -0.968711 12.246922 34.700001
v -0.983448 12.232904 34.700001
v -0.998530 12.217950 34.700001
v -1.013694 12.202328 34.700001
v -1.028682 12.186312 34.700001
v -1.043233 12.170169 34.700001
v -1.057086 12.154172 34.700001
v -1.069980 12.138592 34.700001
v -1.081656 12.123700 34.700001
v -1.091852 12.109765 34.700001
v -1.100307 12.097060 34.700001
v -1.220645 12.168700 34.700001
v -1.330002 12.243922 34.700001
v -1.428902 12.322434 34.700001
v -1.517862 12.403950 34.700001
v -1.597408 12.488173 34.700001
v -1.668057 12.574811 34.700001
v -1.730332 12.663575 34.700001
v -1.784752 12.754172 34.700001
v -1.831839 12.846312 34.700001
v -1.872113 12.939700 34.700001
v -1.906096 13.034047 34.700001
v -1.934308 13.129061 34.700001
v -1.980017 13.013423 34.700001
v -2.030238 12.902214 34.700001
v -2.085104 12.795733 34.700001
v -2.144752 12.694283 34.700001
v -2.209317 12.598166 34.700001
v -2.278932 12.507686 34.700001
v -2.353736 12.423143 34.700001
v -2.433863 12.344838 34.700001
v -2.519448 12.273077 34.700001
v -2.610627 12.208158 34.700001
v -2.707535 12.150386 34.700001
v -2.810308 12.100061 34.700001
v -2.819396 12.117141 34.700001
v -2.830016 12.135200 34.700001
v -2.841949 12.153966 34.700001
v -2.854974 12.173172 34.700001
v -2.868875 12.192543 34.700001
v -2.883433 12.211811 34.700001
v -2.898427 12.230703 34.700001
v -2.913640 12.248950 34.700001
v -2.928854 12.266279 34.700001
v -2.943849 12.282422 34.700001
v -2.958407 12.297107 34.700001
v -2.972307 12.310060 34.700001
v -2.870054 12.352671 34.700001
v -2.773279 12.403685 34.700001
v -2.681965 12.462640 34.700001
v -2.596086 12.529061 34.700001
v -2.515623 12.602483 34.700001
v -2.440556 12.682436 34.700001
v -2.370865 12.768452 34.700001
v -2.306530 12.860062 34.700001
v -2.247524 12.956795 34.700001
v -2.193835 13.058187 34.700001
v -2.145437 13.163764 34.700001
v -2.102308 13.273061 34.700001
v -2.945308 13.273061 34.700001
v -2.945308 13.492062 34.700001
v -2.687307 13.492062 34.700001
v -2.687307 14.392061 34.700001
v -2.015307 14.392061 34.700001
v -2.015307 14.869061 34.700001
v -1.790308 14.869061 34.700001
v -1.790308 14.392061 34.700001
v -1.202308 14.392061 34.700001
v -1.202308 14.179061 34.700001
v -1.790308 14.179061 34.700001
v -1.790308 13.870061 34.700001
v -1.790242 13.839878 34.700001
v -1.790030 13.809353 34.700001
v -1.789652 13.778514 34.700001
v -1.789086 13.747395 34.700001
v -1.788311 13.716024 34.700001
v -1.787308 13.684436 34.700001
v -1.786054 13.652660 34.700001
v -1.784531 13.620727 34.700001
v 2.499693 14.308062 34.700001
v 1.572692 14.308062 34.700001
v 1.572692 13.894061 34.700001
v 2.760693 13.894061 34.700001
v 2.760693 13.684060 34.700001
v 1.572692 13.684060 34.700001
v 1.572692 12.481060 34.700001
v 1.633062 12.507463 34.700001
v 1.691151 12.537283 34.700001
v 1.746927 12.570686 34.700001
v 1.800359 12.607839 34.700001
v 1.851417 12.648909 34.700001
v 1.900068 12.694061 34.700001
v 1.946280 12.743463 34.700001
v 1.990026 12.797283 34.700001
v 2.031271 12.855685 34.700001
v 2.069984 12.918839 34.700001
v 2.106135 12.986907 34.700001
v 2.139692 13.060061 34.700001
v 2.130880 13.094560 34.700001
v 2.122442 13.129047 34.700001
v 2.114380 13.163514 34.700001
v 2.106692 13.197949 34.700001
v 2.099380 13.232345 34.700001
v 2.092442 13.266686 34.700001
v 2.085879 13.300965 34.700001
v 2.079692 13.335173 34.700001
v 2.073879 13.369295 34.700001
v 2.068442 13.403325 34.700001
v 2.063380 13.437249 34.700001
v 2.058692 13.471061 34.700001
v 2.292692 13.501060 34.700001
v 2.306076 13.389132 34.700001
v 2.324012 13.274644 34.700001
v 2.346926 13.158779 34.700001
v 2.375248 13.042727 34.700001
v 2.409403 12.927675 34.700001
v 2.449818 12.814811 34.700001
v 2.496920 12.705321 34.700001
v 2.551137 12.600394 34.700001
v 2.612896 12.501218 34.700001
v 2.682623 12.408978 34.700001
v 2.760746 12.324863 34.700001
v 2.847692 12.250060 34.700001
v 2.834419 12.240408 34.700001
v 2.820248 12.229588 34.700001
v 2.805412 12.217810 34.700001
v 2.790137 12.205282 34.700001
v 2.774654 12.192214 34.700001
v 2.759192 12.178811 34.700001
v 2.743981 12.165283 34.700001
v 2.729249 12.151838 34.700001
v 2.715224 12.138686 34.700001
v 2.702138 12.126034 34.700001
v 2.690217 12.114089 34.700001
v 2.679693 12.103061 34.700001
v 2.627867 12.146655 34.700001
v 2.578832 12.193311 34.700001
v 2.532506 12.242842 34.700001
v 2.488803 12.295060 34.700001
v 2.447644 12.349780 34.700001
v 2.408942 12.406810 34.700001
v 2.372616 12.465966 34.700001
v 2.338582 12.527061 34.700001
v 2.306756 12.589905 34.700001
v 2.277054 12.654310 34.700001
v 2.249393 12.720092 34.700001
v 2.223692 12.787061 34.700001
v 2.144774 12.664202 34.700001
v 2.058095 12.557435 34.700001
v 1.963771 12.465732 34.700001
v 1.861915 12.388061 34.700001
v 1.752642 12.323388 34.700001
v 1.636067 12.270686 34.700001
v 1.512305 12.228919 34.700001
v 1.381471 12.197062 34.700001
v 1.243676 12.174075 34.700001
v 1.099040 12.158935 34.700001
v 0.947674 12.150608 34.700001
v 0.789692 12.148061 34.700001
v 0.141693 12.148061 34.700001
v 0.138149 12.164573 34.700001
v 0.133595 12.182408 34.700001
v 0.128145 12.201264 34.700001
v 0.121915 12.220839 34.700001
v 0.115016 12.240830 34.700001
v 0.107567 12.260936 34.700001
v 0.099680 12.280854 34.700001
v 0.091470 12.300283 34.700001
v 0.083052 12.318920 34.700001
v 0.074540 12.336463 34.700001
v 0.066049 12.352612 34.700001
v 0.057692 12.367061 34.700001
v 0.097757 12.366372 34.700001
v 0.150207 12.365797 34.700001
v 0.212427 12.365326 34.700001
v 0.281805 12.364950 34.700001
v 0.355723 12.364656 34.700001
v 0.431568 12.364436 34.700001
v 0.506726 12.364277 34.700001
v 0.578582 12.364172 34.700001
v 0.644521 12.364108 34.700001
v 0.701929 12.364075 34.700001
v 0.748191 12.364062 34.700001
v 0.780692 12.364060 34.700001
v 0.830689 12.364318 34.700001
v 0.880165 12.365116 34.700001
v 0.929099 12.366498 34.700001
v 0.977470 12.368505 34.700001
v 1.025259 12.371179 34.700001
v 1.072442 12.374561 34.700001
v 1.119002 12.378693 34.700001
v 1.164915 12.383615 34.700001
v 1.210162 12.389374 34.700001
v 1.254720 12.396006 34.700001
v 1.298571 12.403554 34.700001
v 1.341692 12.412061 34.700001
v 1.341693 13.003061 34.700001
v 0.336693 13.003061 34.700001
v 0.336693 13.207061 34.700001
v 1.341692 13.207061 34.700001
v 1.341692 13.684060 34.700001
v 0.141693 13.684060 34.700001
v 0.141693 13.894061 34.700001
v 1.341692 13.894061 34.700001
v 1.341693 14.308062 34.700001
v 0.360692 14.308062 34.700001
v 0.360692 14.518061 34.700001
v 1.341693 14.518061 34.700001
v 1.341693 14.866061 34.700001
v 1.572692 14.866060 34.700001
v 1.572692 14.518061 34.700001
v 2.499693 14.518061 34.700001
v -0.560307 12.112060 35.000000
v -0.785308 12.112060 35.000000
v -0.785308 14.869061 35.000000
v -0.560307 14.869061 35.000000
v -0.284374 14.227626 35.000000
v -0.277086 14.162325 35.000000
v -0.268464 14.094920 35.000000
v -0.258530 14.026172 35.000000
v -0.247304 13.956841 35.000000
v -0.234807 13.887686 35.000000
v -0.221061 13.819468 35.000000
v -0.206085 13.752950 35.000000
v -0.189901 13.688890 35.000000
v -0.172530 13.628047 35.000000
v -0.153992 13.571184 35.000000
v -0.134307 13.519061 35.000000
v -0.311308 13.456061 35.000000
v -0.330989 13.513363 35.000000
v -0.349502 13.575228 35.000000
v -0.366808 13.640842 35.000000
v -0.382864 13.709394 35.000000
v -0.397627 13.780070 35.000000
v -0.411058 13.852061 35.000000
v -0.423114 13.924551 35.000000
v -0.433752 13.996728 35.000000
v -0.442933 14.067780 35.000000
v -0.450613 14.136893 35.000000
v -0.456753 14.203259 35.000000
v -0.461308 14.266062 35.000000
v -0.290308 14.290061 35.000000
v -0.791308 14.317061 35.000000
v -0.813894 14.270960 35.000000
v -0.836502 14.223006 35.000000
v -0.858901 14.173717 35.000000
v -0.880864 14.123616 35.000000
v -0.902159 14.073224 35.000000
v -0.922558 14.023061 35.000000
v -0.941832 13.973648 35.000000
v -0.959752 13.925506 35.000000
v -0.976089 13.879155 35.000000
v -0.990613 13.835116 35.000000
v -1.003096 13.793912 35.000000
v -1.013308 13.756062 35.000000
v -1.181307 13.840060 35.000000
v -1.170976 13.877101 35.000000
v -1.158154 13.917381 35.000000
v -1.143105 13.960389 35.000000
v -1.126085 14.005617 35.000000
v -1.107357 14.052552 35.000000
v -1.087182 14.100685 35.000000
v -1.065820 14.149508 35.000000
v -1.043530 14.198505 35.000000
v -1.020574 14.247170 35.000000
v -0.997211 14.294991 35.000000
v -0.973702 14.341457 35.000000
v -0.950307 14.386062 35.000000
v -2.465308 14.179061 35.000000
v -2.465308 13.492062 35.000000
v -2.000308 13.492062 35.000000
v -2.003124 13.524249 35.000000
v -2.005585 13.556312 35.000000
v -2.007714 13.588248 35.000000
v -2.009530 13.620061 35.000000
v -2.011056 13.651749 35.000000
v -2.012308 13.683310 35.000000
v -2.013311 13.714748 35.000000
v -2.014086 13.746061 35.000000
v -2.014652 13.777248 35.000000
v -2.015030 13.808311 35.000000
v -2.015242 13.839248 35.000000
v -2.015307 13.870061 35.000000
v -2.015307 14.179061 35.000000
v -1.782713 13.588671 35.000000
v -1.780585 13.556519 35.000000
v -1.778123 13.524304 35.000000
v -1.775308 13.492062 35.000000
v -1.040308 13.492062 35.000000
v -1.040308 13.273061 35.000000
v -1.745308 13.273061 35.000000
v -1.723186 13.180872 35.000000
v -1.695336 13.089047 35.000000
v -1.661027 12.997952 35.000000
v -1.619530 12.907949 35.000000
v -1.570117 12.819406 35.000000
v -1.512058 12.732686 35.000000
v -1.444623 12.648153 35.000000
v -1.367085 12.566172 35.000000
v -1.278714 12.487106 35.000000
v -1.178780 12.411325 35.000000
v -1.066553 12.339188 35.000000
v -0.941308 12.271061 35.000000
v -0.954576 12.259731 35.000000
v -0.968711 12.246922 35.000000
v -0.983448 12.232904 35.000000
v -0.998530 12.217950 35.000000
v -1.013694 12.202328 35.000000
v -1.028682 12.186312 35.000000
v -1.043233 12.170169 35.000000
v -1.057086 12.154172 35.000000
v -1.069980 12.138592 35.000000
v -1.081656 12.123700 35.000000
v -1.091852 12.109765 35.000000
v -1.100307 12.097060 35.000000
v -1.220645 12.168700 35.000000
v -1.330002 12.243922 35.000000
v -1.428902 12.322434 35.000000
v -1.517862 12.403950 35.000000
v -1.597408 12.488173 35.000000
v -1.668057 12.574811 35.000000
v -1.730332 12.663575 35.000000
v -1.784752 12.754172 35.000000
v -1.831839 12.846312 35.000000
v -1.872113 12.939700 35.000000
v -1.906096 13.034047 35.000000
v -1.934308 13.129061 35.000000
v -1.980017 13.013423 35.000000
v -2.030238 12.902214 35.000000
v -2.085104 12.795733 35.000000
v -2.144752 12.694283 35.000000
v -2.209317 12.598166 35.000000
v -2.278932 12.507686 35.000000
v -2.353736 12.423143 35.000000
v -2.433863 12.344838 35.000000
v -2.519448 12.273077 35.000000
v -2.610627 12.208158 35.000000
v -2.707535 12.150386 35.000000
v -2.810308 12.100061 35.000000
v -2.819396 12.117141 35.000000
v -2.830016 12.135200 35.000000
v -2.841949 12.153966 35.000000
v -2.854974 12.173172 35.000000
v -2.868875 12.192543 35.000000
v -2.883433 12.211811 35.000000
v -2.898427 12.230703 35.000000
v -2.913640 12.248950 35.000000
v -2.928854 12.266279 35.000000
v -2.943849 12.282422 35.000000
v -2.958407 12.297107 35.000000
v -2.972307 12.310060 35.000000
v -2.870054 12.352671 35.000000
v -2.773279 12.403685 35.000000
v -2.681965 12.462640 35.000000
v -2.596086 12.529061 35.000000
v -2.515623 12.602483 35.000000
v -2.440556 12.682436 35.000000
v -2.370865 12.768452 35.000000
v -2.306530 12.860062 35.000000
v -2.247524 12.956795 35.000000
v -2.193835 13.058187 35.000000
v -2.145437 13.163764 35.000000
v -2.102308 13.273061 35.000000
v -2.945308 13.273061 35.000000
v -2.945308 13.492062 35.000000
v -2.687307 13.492062 35.000000
v -2.687307 14.392061 35.000000
v -2.015307 14.392061 35.000000
v -2.015307 14.869061 35.000000
v -1.790308 14.869061 35.000000
v -1.790308 14.392061 35.000000
v -1.202308 14.392061 35.000000
v -1.202308 14.179061 35.000000
v -1.790308 14.179061 35.000000
v -1.790308 13.870061 35.000000
v -1.790242 13.839878 35.000000
v -1.790030 13.809353 35.000000
v -1.789652 13.778514 35.000000
v -1.789086 13.747395 35.000000
v -1.788311 13.716024 35.000000
v -1.787308 13.684436 35.000000
v -1.786054 13.652660 35.000000
v -1.784531 13.620727 35.000000
v 2.499693 14.308062 35.000000
v 1.572692 14.308062 35.000000
v 1.572692 13.894061 35.000000
v 2.760693 13.894061 35.000000
v 2.760693 13.684060 35.000000
v 1.572692 13.684060 35.000000
v 1.572692 12.481060 35.000000
v 1.633062 12.507463 35.000000
v 1.691151 12.537283 35.000000
v 1.746927 12.570686 35.000000
v 1.800359 12.607839 35.000000
v 1.851417 12.648909 35.000000
v 1.900068 12.694061 35.000000
v 1.946280 12.743463 35.000000
v 1.990026 12.797283 35.000000
v 2.031271 12.855685 35.000000
v 2.069984 12.918839 35.000000
v 2.106135 12.986907 35.000000
v 2.139692 13.060061 35.000000
v 2.130880 13.094560 35.000000
v 2.122442 13.129047 35.000000
v 2.114380 13.163514 35.000000
v 2.106692 13.197949 35.000000
v 2.099380 13.232345 35.000000
v 2.092442 13.266686 35.000000
v 2.085879 13.300965 35.000000
v 2.079692 13.335173 35.000000
v 2.073879 13.369295 35.000000
v 2.068442 13.403325 35.000000
v 2.063380 13.437249 35.000000
v 2.058692 13.471061 35.000000
v 2.292692 13.501060 35.000000
v 2.306076 13.389132 35.000000
v 2.324012 13.274644 35.000000
v 2.346926 13.158779 35.000000
v 2.375248 13.042727 35.000000
v 2.409403 12.927675 35.000000
v 2.449818 12.814811 35.000000
v 2.496920 12.705321 35.000000
v 2.551137 12.600394 35.000000
v 2.612896 12.501218 35.000000
v 2.682623 12.408978 35.000000
v 2.760746 12.324863 35.000000
v 2.847692 12.250060 35.000000
v 2.834419 12.240408 35.000000
v 2.820248 12.229588 35.000000
v 2.805412 12.217810 35.000000
v 2.790137 12.205282 35.000000
v 2.774654 12.192214 35.000000
v 2.759192 12.178811 35.000000
v 2.743981 12.165283 35.000000
v 2.729249 12.151838 35.000000
v 2.715224 12.138686 35.000000
v 2.702138 12.126034 35.000000
v 2.690217 12.114089 35.000000
v 2.679693 12.103061 35.000000
v 2.627867 12.146655 35.000000
v 2.578832 12.193311 35.000000
v 2.532506 12.242842 35.000000
v 2.488803 12.295060 35.000000
v 2.447644 12.349780 35.000000
v 2.408942 12.406810 35.000000
v 2.372616 12.465966 35.000000
v 2.338582 12.527061 35.000000
v 2.306756 12.589905 35.000000
v 2.277054 12.654310 35.000000
v 2.249393 12.720092 35.000000
v 2.223692 12.787061 35.000000
v 2.144774 12.664202 35.000000
v 2.058095 12.557435 35.000000
v 1.963771 12.465732 35.000000
v 1.861915 12.388061 35.000000
v 1.752642 12.323388 35.000000
v 1.636067 12.270686 35.000000
v 1.512305 12.228919 35.000000
v 1.381471 12.197062 35.000000
v 1.243676 12.174075 35.000000
v 1.099040 12.158935 35.000000
v 0.947674 12.150608 35.000000
v 0.789692 12.148061 35.000000
v 0.141693 12.148061 35.000000
v 0.138149 12.164573 35.000000
v 0.133595 12.182408 35.000000
v 0.128145 12.201264 35.000000
v 0.121915 12.220839 35.000000
v 0.115016 12.240830 35.000000
v 0.107567 12.260936 35.000000
v 0.099680 12.280854 35.000000
v 0.091470 12.300283 35.000000
v 0.083052 12.318920 35.000000
v 0.074540 12.336463 35.000000
v 0.066049 12.352612 35.000000
v 0.057692 12.367061 35.000000
v 0.097757 12.366372 35.000000
v 0.150207 12.365797 35.000000
v 0.212427 12.365326 35.000000
v 0.281805 12.364950 35.000000
v 0.355723 12.364656 35.000000
v 0.431568 12.364436 35.000000
v 0.506726 12.364277 35.000000
v 0.578582 12.364172 35.000000
v 0.644521 12.364108 35.000000
v 0.701929 12.364075 35.000000
v 0.748191 12.364062 35.000000
v 0.780692 12.364060 35.000000
v 0.830689 12.364318 35.000000
v 0.880165 12.365116 35.000000
v 0.929099 12.366498 35.000000
v 0.977470 12.368505 35.000000
v 1.025259 12.371179 35.000000
v 1.072442 12.374561 35.000000
v 1.119002 12.378693 35.000000
v 1.164915 12.383615 35.000000
v 1.210162 12.389374 35.000000
v 1.254720 12.396006 35.000000
v 1.298571 12.403554 35.000000
v 1.341692 12.412061 35.000000
v 1.341693 13.003061 35.000000
v 0.336693 13.003061 35.000000
v 0.336693 13.207061 35.000000
v 1.341692 13.207061 35.000000
v 1.341692 13.684060 35.000000
v 0.141693 13.684060 35.000000
v 0.141693 13.894061 35.000000
v 1.341692 13.894061 35.000000
v 1.341693 14.308062 35.000000
v 0.360692 14.308062 35.000000
v 0.360692 14.518061 35.000000
v 1.341693 14.518061 35.000000
v 1.341693 14.866061 35.000000
v 1.572692 14.866060 35.000000
v 1.572692 14.518061 35.000000
v 2.499693 14.518061 35.000000
vn -0.0000 -0.0000 -1.0000
vn -0.0000 0.0001 -1.0000
vn -0.0000 -0.0000 1.0000
vn 0.6218 -0.7832 -0.0000
vn -0.9408 -0.3389 -0.0000
vn 0.9841 0.1778 -0.0000
vn 0.6341 -0.7732 -0.0000
vn -0.9586 -0.2846 -0.0000
vn 0.9803 0.1975 -0.0000
vn 0.6450 -0.7642 -0.0000
vn 0.9300 -0.3676 -0.0000
vn 0.9756 0.2196 -0.0000
vn 0.6550 -0.7556 -0.0000
vn 0.9114 -0.4116 -0.0000
vn 0.9695 0.2449 -0.0000
vn 0.6646 -0.7472 -0.0000
vn 0.8889 -0.4580 -0.0000
vn 0.9616 0.2745 -0.0000
vn 0.6741 -0.7386 -0.0000
vn 0.8620 -0.5068 -0.0000
vn 0.9508 0.3099 -0.0000
vn 0.6841 -0.7294 -0.0000
vn 0.8301 -0.5576 -0.0000
vn 0.9355 0.3533 -0.0000
vn 0.6950 -0.7190 -0.0000
vn 0.7926 -0.6098 -0.0000
vn 0.3353 -0.9421 -0.0000
vn 0.7078 -0.7064 -0.0000
vn 0.7489 -0.6626 -0.0000
vn -0.9458 -0.3248 -0.0000
vn 0.7235 -0.6903 -0.0000
vn 0.6989 -0.7152 -0.0000
vn -0.9580 -0.2867 -0.0000
vn -0.6437 -0.7653 -0.0000
vn 0.6425 -0.7663 -0.0000
vn -0.9669 -0.2550 -0.0000
vn -0.6893 -0.7245 -0.0000
vn 0.5800 -0.8146 -0.0000
vn -0.9736 -0.2280 -0.0000
vn -0.7303 -0.6831 -0.0000
vn 0.5121 -0.8589 -0.0000
vn -0.9789 -0.2045 -0.0000
vn -0.7669 -0.6418 -0.0000
vn 0.4398 -0.8981 -0.0000
vn -0.9830 -0.1834 -0.0000
vn -0.7992 -0.6011 -0.0000
vn -0.8828 -0.4697 -0.0000
vn -0.9865 -0.1641 -0.0000
vn -0.8275 -0.5615 -0.0000
vn -0.8620 -0.5070 -0.0000
vn -0.9893 -0.1458 -0.0000
vn -0.8522 -0.5233 -0.0000
vn -0.8439 -0.5365 -0.0000
vn -0.9918 -0.1281 -0.0000
vn -0.8736 -0.4867 -0.0000
vn -0.8276 -0.5613 -0.0000
vn -0.9939 -0.1104 -0.0000
vn -0.8921 -0.4518 -0.0000
vn -0.8124 -0.5830 -0.0000
vn -0.9957 -0.0921 -0.0000
vn -0.9081 -0.4188 -0.0000
vn -0.7979 -0.6028 -0.0000
vn -0.9974 -0.0723 -0.0000
vn -0.9218 -0.3876 -0.0000
vn -0.7833 -0.6217 -0.0000
vn -0.1390 0.9903 -0.0000
vn -0.9336 -0.3583 -0.0000
vn -0.7680 -0.6404 -0.0000
vn 0.9955 0.0946 -0.0000
vn 0.8414 -0.5405 -0.0000
vn -0.7515 -0.6597 -0.0000
vn 0.8980 -0.4400 -0.0000
vn 0.7764 -0.6303 -0.0000
vn -0.7327 -0.6806 -0.0000
vn 0.9045 -0.4264 -0.0000
vn 0.6971 -0.7170 -0.0000
vn -0.7102 -0.7040 -0.0000
vn 0.9104 -0.4137 -0.0000
vn 0.6064 -0.7952 -0.0000
vn -0.6817 -0.7316 -0.0000
vn 0.9159 -0.4015 -0.0000
vn 0.5093 -0.8606 -0.0000
vn -0.3847 0.9231 -0.0000
vn 0.9211 -0.3893 -0.0000
vn 0.4120 -0.9112 -0.0000
vn -0.4663 0.8846 -0.0000
vn 0.9263 -0.3767 -0.0000
vn 0.3198 -0.9475 -0.0000
vn -0.5424 0.8401 -0.0000
vn 0.9316 -0.3634 -0.0000
vn 0.2366 -0.9716 -0.0000
vn -0.6118 0.7910 -0.0000
vn 0.9372 -0.3488 -0.0000
vn 0.1645 -0.9864 -0.0000
vn -0.6740 0.7387 -0.0000
vn 0.9431 -0.3324 -0.0000
vn 0.1041 -0.9946 -0.0000
vn -0.7290 0.6845 -0.0000
vn 0.9497 -0.3132 -0.0000
vn 0.0549 -0.9985 -0.0000
vn -0.7770 0.6295 -0.0000
vn 0.9570 -0.2899 -0.0000
vn 0.0161 -0.9999 -0.0000
vn -0.8184 0.5747 -0.0000
vn 0.9655 -0.2605 -0.0000
vn -0.0000 -1.0000 -0.0000
vn -0.8537 0.5207 -0.0000
vn -0.4472 -0.8944 -0.0000
vn -0.9777 -0.2098 -0.0000
vn -0.8838 0.4680 -0.0000
vn -0.9632 0.2687 -0.0000
vn -0.9689 -0.2474 -0.0000
vn -0.9090 0.4167 -0.0000
vn -0.9529 0.3033 -0.0000
vn -0.9607 -0.2777 -0.0000
vn -0.9302 0.3671 -0.0000
vn -0.9439 0.3303 -0.0000
vn -0.9529 -0.3033 -0.0000
vn -0.9359 0.3522 -0.0000
vn -0.9453 -0.3262 -0.0000
vn -1.0000 -0.0000 -0.0000
vn -0.9288 0.3706 -0.0000
vn -0.9377 -0.3474 -0.0000
vn -0.0000 1.0000 -0.0000
vn -0.9223 0.3866 -0.0000
vn -0.9298 -0.3681 -0.0000
vn -0.9162 0.4008 -0.0000
vn -0.9211 -0.3892 -0.0000
vn -0.9102 0.4141 -0.0000
vn -0.9113 -0.4117 -0.0000
vn -0.9044 0.4266 -0.0000
vn -0.8997 -0.4365 -0.0000
vn -0.8985 0.4390 -0.0000
vn -0.8851 -0.4654 -0.0000
vn 1.0000 -0.0000 -0.0000
vn -0.8923 0.4514 -0.0000
vn -0.8657 -0.5006 -0.0000
vn -0.8856 0.4645 -0.0000
vn 0.0172 0.9999 -0.0000
vn 0.3981 0.9173 -0.0000
vn 0.0110 0.9999 -0.0000
vn 0.0076 1.0000 -0.0000
vn 0.0054 1.0000 -0.0000
vn 1.0000 0.0022 -0.0000
vn -0.9962 -0.0872 -0.0000
vn 0.0040 1.0000 -0.0000
vn 1.0000 0.0070 -0.0000
vn -0.9971 -0.0765 -0.0000
vn 0.0029 1.0000 -0.0000
vn 0.9999 0.0122 -0.0000
vn -0.9978 -0.0665 -0.0000
vn 0.0021 1.0000 -0.0000
vn 0.9998 0.0182 -0.0000
vn -0.9984 -0.0570 -0.0000
vn 0.0015 1.0000 -0.0000
vn 0.9997 0.0247 -0.0000
vn -0.9988 -0.0481 -0.0000
vn 0.0010 1.0000 -0.0000
vn 0.9995 0.0317 -0.0000
vn -0.9992 -0.0396 -0.0000
vn 0.0006 1.0000 -0.0000
vn 0.9992 0.0394 -0.0000
vn -0.9995 -0.0319 -0.0000
vn 0.0002 1.0000 -0.0000
vn 0.9989 0.0477 -0.0000
vn -0.9997 -0.0247 -0.0000
vn 0.9984 0.0566 -0.0000
vn -0.9998 -0.0182 -0.0000
vn -0.0052 1.0000 -0.0000
vn -0.9999 -0.0122 -0.0000
vn -0.0162 0.9999 -0.0000
vn -1.0000 -0.0068 -0.0000
vn -0.0282 0.9996 -0.0000
vn -1.0000 -0.0021 -0.0000
vn -0.0414 0.9991 -0.0000
vn -0.0559 0.9984 -0.0000
vn -0.0715 0.9974 -0.0000
vn 0.9978 0.0660 -0.0000
vn -0.0884 0.9961 -0.0000
vn -0.4007 0.9162 -0.0000
vn 0.9971 0.0762 -0.0000
vn -0.1066 0.9943 -0.0000
vn -0.4567 0.8896 -0.0000
vn 0.9962 0.0870 -0.0000
vn -0.1263 0.9920 -0.0000
vn -0.5138 0.8579 -0.0000
vn -0.1472 0.9891 -0.0000
vn -0.5709 0.8210 -0.0000
vn -0.1697 0.9855 -0.0000
vn -0.6268 0.7792 -0.0000
vn -0.1935 0.9811 -0.0000
vn -0.6803 0.7330 -0.0000
vn 0.9724 0.2333 -0.0000
vn -0.7303 0.6831 -0.0000
vn 0.9570 0.2902 -0.0000
vn -0.7760 0.6307 -0.0000
vn 0.9358 0.3524 -0.0000
vn -0.8168 0.5769 -0.0000
vn 0.9081 0.4187 -0.0000
vn -0.8526 0.5226 -0.0000
vn 0.8732 0.4873 -0.0000
vn -0.8832 0.4690 -0.0000
vn 0.8310 0.5563 -0.0000
vn -0.9089 0.4169 -0.0000
vn 0.7817 0.6236 -0.0000
vn -0.9689 -0.2475 -0.0000
vn 0.7265 0.6871 -0.0000
vn -0.9713 -0.2377 -0.0000
vn 0.6668 0.7453 -0.0000
vn -0.9737 -0.2278 -0.0000
vn 0.6042 0.7968 -0.0000
vn -0.9760 -0.2179 -0.0000
vn 0.5407 0.8412 -0.0000
vn -0.9781 -0.2079 -0.0000
vn 0.4778 0.8784 -0.0000
vn -0.9802 -0.1980 -0.0000
vn 0.6494 -0.7605 -0.0000
vn -0.9822 -0.1880 -0.0000
vn 0.6715 -0.7410 -0.0000
vn -0.9840 -0.1780 -0.0000
vn 0.6892 -0.7246 -0.0000
vn -0.9858 -0.1679 -0.0000
vn 0.7041 -0.7101 -0.0000
vn -0.9875 -0.1578 -0.0000
vn 0.7176 -0.6965 -0.0000
vn -0.9890 -0.1476 -0.0000
vn 0.7302 -0.6832 -0.0000
vn -0.9905 -0.1373 -0.0000
vn 0.7428 -0.6695 -0.0000
vn -0.1272 0.9919 -0.0000
vn 0.7560 -0.6546 -0.0000
vn 0.9929 0.1187 -0.0000
vn 0.7704 -0.6375 -0.0000
vn 0.9879 0.1548 -0.0000
vn 0.7870 -0.6170 -0.0000
vn 0.9810 0.1940 -0.0000
vn 0.8070 -0.5905 -0.0000
vn 0.9715 0.2371 -0.0000
vn 0.8325 -0.5540 -0.0000
vn 0.9587 0.2846 -0.0000
vn -0.5115 -0.8593 -0.0000
vn 0.9415 0.3371 -0.0000
vn -0.5667 -0.8239 -0.0000
vn 0.9186 0.3952 -0.0000
vn -0.6218 -0.7832 -0.0000
vn 0.8884 0.4590 -0.0000
vn -0.6756 -0.7373 -0.0000
vn 0.8489 0.5286 -0.0000
vn -0.7270 -0.6866 -0.0000
vn 0.7977 0.6030 -0.0000
vn -0.7750 -0.6320 -0.0000
vn 0.7327 0.6805 -0.0000
vn -0.8186 -0.5743 -0.0000
vn 0.9938 0.1109 -0.0000
vn 0.6522 0.7581 -0.0000
vn -0.8572 -0.5149 -0.0000
vn 0.9919 0.1269 -0.0000
vn 0.5882 -0.8087 -0.0000
vn -0.8905 -0.4551 -0.0000
vn 0.9897 0.1430 -0.0000
vn 0.6068 -0.7948 -0.0000
vn -0.9183 -0.3960 -0.0000
vn 0.9871 0.1598 -0.0000
vn -0.0000 -0.0001 -1.0000
vn -0.0000 0.0004 -1.0000
vn -0.0000 0.0002 -1.0000
vn -0.0000 -0.0006 -1.0000
vn -0.0000 -0.0002 -1.0000
vn -0.0000 0.0003 -1.0000
vn -0.0000 -0.0004 -1.0000
vn -0.0000 -0.0003 1.0000
vn -0.0000 0.0001 1.0000
vn -0.0000 0.0003 1.0000
vn -0.0000 -0.0001 1.0000
vn 0.6342 -0.7732 -0.0000
vn 0.6645 -0.7473 -0.0000
vn 0.9507 0.3100 -0.0000
vn 0.6840 -0.7295 -0.0000
vn 0.6951 -0.7189 -0.0000
vn 0.7489 -0.6627 -0.0000
vn 0.7234 -0.6904 -0.0000
vn -0.9737 -0.2280 -0.0000
vn 0.5120 -0.8590 -0.0000
vn -0.8620 -0.5069 -0.0000
vn -0.8439 -0.5366 -0.0000
vn -0.9918 -0.1282 -0.0000
vn -0.8125 -0.5830 -0.0000
vn -0.7681 -0.6403 -0.0000
vn -0.7326 -0.6806 -0.0000
vn -0.3846 0.9231 -0.0000
vn 0.4119 -0.9112 -0.0000
vn -0.8537 0.5208 -0.0000
vn -0.8837 0.4680 -0.0000
vn -0.9607 -0.2776 -0.0000
vn -0.9161 0.4009 -0.0000
vn -0.9211 -0.3893 -0.0000
vn -0.8997 -0.4366 -0.0000
vn -0.8656 -0.5007 -0.0000
vn 0.0009 1.0000 -0.0000
vn 0.0003 1.0000 -0.0000
vn -0.0051 1.0000 -0.0000
vn -0.0161 0.9999 -0.0000
vn -0.0415 0.9991 -0.0000
vn -0.1262 0.9920 -0.0000
vn -0.1696 0.9855 -0.0000
vn 0.9358 0.3525 -0.0000
vn -0.8832 0.4691 -0.0000
vn -0.9714 -0.2376 -0.0000
vn -0.9781 -0.2080 -0.0000
vn 0.4778 0.8785 -0.0000
vn 0.6716 -0.7409 -0.0000
vn 0.7175 -0.6965 -0.0000
vn -0.9891 -0.1476 -0.0000
vn 0.7301 -0.6833 -0.0000
vn 0.7428 -0.6696 -0.0000
vn 0.7559 -0.6546 -0.0000
vn 0.7704 -0.6376 -0.0000
vn 0.7869 -0.6170 -0.0000
vn 0.9586 0.2846 -0.0000
vn -0.6217 -0.7832 -0.0000
vn 0.8884 0.4591 -0.0000
vn 0.5881 -0.8088 -0.0000
vn 0.6069 -0.7948 -0.0000
vn -0.9182 -0.3960 -0.0000
vt 0.452067 0.815728
vt 0.457793 0.817337
vt 0.447431 0.821381
vt 0.536765 0.852978
vt 0.533615 0.852446
vt 0.538383 0.848354
vt 0.540230 0.830242
vt 0.520917 0.830242
vt 0.540230 0.824617
vt 0.583355 0.860992
vt 0.411042 0.855367
vt 0.583355 0.855367
vt 0.453230 0.930592
vt 0.461466 0.926750
vt 0.465720 0.927653
vt 0.526341 0.868817
vt 0.522019 0.869130
vt 0.524323 0.864422
vt 0.455252 0.835747
vt 0.460786 0.834512
vt 0.451174 0.830381
vt 0.529390 0.846848
vt 0.524383 0.851006
vt 0.527392 0.851454
vt 0.507273 0.824724
vt 0.507330 0.830349
vt 0.509316 0.830317
vt 0.453869 0.924751
vt 0.450505 0.923657
vt 0.445551 0.928619
vt 0.418388 0.945506
vt 0.417652 0.945135
vt 0.462770 0.828197
vt 0.468667 0.827348
vt 0.416869 0.944753
vt 0.474605 0.826642
vt 0.517755 0.869473
vt 0.416052 0.944366
vt 0.467378 0.825500
vt 0.513598 0.869848
vt 0.415214 0.943980
vt 0.460427 0.824244
vt 0.509594 0.870252
vt 0.414369 0.943600
vt 0.453772 0.822872
vt 0.505792 0.870687
vt 0.413529 0.943231
vt 0.502238 0.871150
vt 0.412707 0.942881
vt 0.441424 0.819767
vt 0.498980 0.871642
vt 0.411916 0.942553
vt 0.435769 0.818027
vt 0.495042 0.867217
vt 0.411169 0.942255
vt 0.430485 0.816157
vt 0.498624 0.866725
vt 0.410480 0.941992
vt 0.425591 0.814153
vt 0.502490 0.866262
vt 0.413205 0.940697
vt 0.421106 0.812014
vt 0.506591 0.865830
vt 0.416121 0.939471
vt 0.417049 0.809734
vt 0.510876 0.865428
vt 0.419216 0.938313
vt 0.413438 0.807312
vt 0.515293 0.865059
vt 0.422480 0.937220
vt 0.410293 0.804742
vt 0.519792 0.864724
vt 0.425900 0.936191
vt 0.411360 0.804515
vt 0.429464 0.935224
vt 0.412489 0.804250
vt 0.528834 0.864156
vt 0.433162 0.934315
vt 0.413662 0.803951
vt 0.533275 0.863927
vt 0.436980 0.933465
vt 0.414862 0.803626
vt 0.537594 0.863735
vt 0.440908 0.932669
vt 0.416073 0.803278
vt 0.541742 0.863581
vt 0.444933 0.931926
vt 0.417277 0.802914
vt 0.545668 0.863467
vt 0.449044 0.931235
vt 0.418458 0.802539
vt 0.547167 0.867742
vt 0.419598 0.802159
vt 0.543265 0.867891
vt 0.420681 0.801779
vt 0.548855 0.855217
vt 0.545974 0.854653
vt 0.438878 0.926452
vt 0.421690 0.801404
vt 0.542977 0.854087
vt 0.433147 0.924094
vt 0.422608 0.801040
vt 0.539896 0.853527
vt 0.428292 0.921548
vt 0.423417 0.800692
vt 0.424250 0.918816
vt 0.426081 0.803249
vt 0.420957 0.915902
vt 0.429269 0.805668
vt 0.530480 0.851936
vt 0.418346 0.912808
vt 0.432954 0.807951
vt 0.416355 0.909537
vt 0.437105 0.810098
vt 0.414918 0.906092
vt 0.441694 0.812109
vt 0.521486 0.850598
vt 0.413972 0.902476
vt 0.446691 0.813986
vt 0.518733 0.850235
vt 0.413452 0.898692
vt 0.516158 0.849923
vt 0.413292 0.894742
vt 0.513793 0.849667
vt 0.413292 0.878542
vt 0.463838 0.818812
vt 0.519042 0.845467
vt 0.414324 0.878454
vt 0.470175 0.820154
vt 0.521357 0.845726
vt 0.415439 0.878340
vt 0.476774 0.821364
vt 0.523875 0.846046
vt 0.416618 0.878204
vt 0.483605 0.822442
vt 0.526563 0.846422
vt 0.417841 0.878048
vt 0.483605 0.801367
vt 0.419091 0.877875
vt 0.497293 0.801367
vt 0.532323 0.847316
vt 0.420347 0.877689
vt 0.497292 0.807817
vt 0.535331 0.847820
vt 0.421592 0.877492
vt 0.553542 0.807817
vt 0.422806 0.877287
vt 0.553542 0.824617
vt 0.541445 0.848912
vt 0.423971 0.877076
vt 0.583355 0.824617
vt 0.544487 0.849486
vt 0.425068 0.876863
vt 0.583355 0.830242
vt 0.547476 0.850070
vt 0.426077 0.876651
vt 0.553542 0.830242
vt 0.550380 0.850657
vt 0.426980 0.876442
vt 0.553542 0.844942
vt 0.553168 0.851242
vt 0.426937 0.877444
vt 0.540230 0.844942
vt 0.426901 0.878755
vt 0.540230 0.813367
vt 0.497293 0.813367
vt 0.426872 0.880311
vt 0.497293 0.824992
vt 0.426848 0.882045
vt 0.519031 0.830244
vt 0.499304 0.824922
vt 0.426830 0.883893
vt 0.517123 0.830249
vt 0.501308 0.824860
vt 0.426816 0.885789
vt 0.515196 0.830259
vt 0.503304 0.824807
vt 0.426806 0.887668
vt 0.513251 0.830273
vt 0.505292 0.824762
vt 0.426799 0.889465
vt 0.511290 0.830292
vt 0.426795 0.891113
vt 0.509246 0.824692
vt 0.426793 0.892548
vt 0.511210 0.824667
vt 0.426793 0.893705
vt 0.505334 0.830387
vt 0.513168 0.824648
vt 0.426792 0.894517
vt 0.503331 0.830432
vt 0.515117 0.824634
vt 0.426809 0.895767
vt 0.548293 0.937492
vt 0.548293 0.914317
vt 0.517058 0.824624
vt 0.426858 0.897004
vt 0.522417 0.914317
vt 0.518992 0.824619
vt 0.426945 0.898228
vt 0.522417 0.944017
vt 0.520917 0.824617
vt 0.427070 0.899437
vt 0.509292 0.944017
vt 0.427237 0.900631
vt 0.509292 0.914317
vt 0.427449 0.901811
vt 0.434105 0.914317
vt 0.501321 0.830485
vt 0.427707 0.902975
vt 0.435755 0.915827
vt 0.499308 0.830547
vt 0.428015 0.904123
vt 0.437619 0.917279
vt 0.497292 0.830617
vt 0.428375 0.905254
vt 0.439707 0.918673
vt 0.497293 0.848992
vt 0.428789 0.906368
vt 0.442029 0.920009
vt 0.483605 0.848992
vt 0.429261 0.907464
vt 0.444595 0.921285
vt 0.483605 0.831367
vt 0.429792 0.908542
vt 0.447417 0.922502
vt 0.477843 0.831920
vt 0.466730 0.908542
vt 0.472104 0.832617
vt 0.466730 0.883417
vt 0.466411 0.833474
vt 0.479480 0.883417
vt 0.457519 0.925782
vt 0.479480 0.908542
vt 0.509292 0.908542
vt 0.449832 0.837199
vt 0.509292 0.878542
vt 0.470293 0.928492
vt 0.444548 0.838884
vt 0.522417 0.878542
vt 0.472449 0.928272
vt 0.439424 0.840823
vt 0.522417 0.908542
vt 0.474604 0.928061
vt 0.434483 0.843032
vt 0.548293 0.908542
vt 0.476758 0.927860
vt 0.429746 0.845530
vt 0.548292 0.884017
vt 0.478911 0.927667
vt 0.425238 0.848336
vt 0.561417 0.884017
vt 0.481060 0.927484
vt 0.420980 0.851467
vt 0.561417 0.908542
vt 0.483207 0.927311
vt 0.420272 0.851136
vt 0.583167 0.908542
vt 0.485349 0.927147
vt 0.419471 0.850782
vt 0.583167 0.914317
vt 0.487487 0.926992
vt 0.418595 0.850414
vt 0.561417 0.914317
vt 0.489620 0.926847
vt 0.417661 0.850037
vt 0.561417 0.937492
vt 0.491746 0.926711
vt 0.416684 0.849658
vt 0.493867 0.926584
vt 0.415683 0.849283
vt 0.495980 0.926467
vt 0.414674 0.848919
vt 0.497855 0.932317
vt 0.413674 0.848573
vt 0.490859 0.932652
vt 0.412701 0.848251
vt 0.483704 0.933100
vt 0.411770 0.847959
vt 0.476462 0.933673
vt 0.410899 0.847704
vt 0.469209 0.934381
vt 0.410105 0.847492
vt 0.462018 0.935235
vt 0.414582 0.844484
vt 0.454964 0.936245
vt 0.419284 0.841750
vt 0.448121 0.937423
vt 0.424191 0.839278
vt 0.411042 0.860992
vt 0.441563 0.938778
vt 0.429286 0.837053
vt 0.435365 0.940322
vt 0.434549 0.835065
vt 0.429600 0.942066
vt 0.439964 0.833299
vt 0.424343 0.944019
vt 0.445512 0.831742
vt 0.539184 0.868073
vt 0.419667 0.946192
vt 0.534971 0.868288
vt 0.419064 0.945861
vt 0.456933 0.829204
vt 0.530674 0.868537
s 0
usemtl Material
f 164/15/9 165/16/9 137/17/9
f 53/18/9 54/19/9 69/20/9
f 180/21/9 181/22/9 90/23/9
f 22/24/9 20/25/9 21/26/9
f 257/27/9 206/28/9 207/29/9
f 27/30/10 28/31/10 42/32/10
f 406/33/11 405/34/11 433/35/11
f 370/36/11 361/37/11 360/38/11
f 386/39/11 492/40/11 491/41/11
f 324/25/11 326/24/11 325/26/11
f 508/42/11 507/43/11 562/44/11
f 332/31/11 331/30/11 346/32/11
f 539/45/12 236/46/12 235/45/12
f 435/47/13 132/48/13 131/47/13
f 331/30/14 28/31/14 27/30/14
f 540/46/15 237/49/15 236/46/15
f 436/48/16 133/50/16 132/48/16
f 332/31/17 29/51/17 28/31/17
f 541/49/18 238/52/18 237/49/18
f 437/50/19 134/53/19 133/50/19
f 333/51/20 30/54/20 29/51/20
f 542/52/21 239/55/21 238/52/21
f 438/53/22 135/56/22 134/53/22
f 334/54/23 31/57/23 30/54/23
f 543/55/24 240/58/24 239/55/24
f 439/56/25 136/59/25 135/56/25
f 335/57/26 32/60/26 31/57/26
f 544/58/27 241/61/27 240/58/27
f 440/59/28 137/17/28 136/59/28
f 336/60/29 33/62/29 32/60/29
f 545/61/30 242/63/30 241/61/30
f 441/17/31 138/64/31 137/17/31
f 337/62/32 34/65/32 33/62/32
f 546/63/33 243/66/33 242/63/33
f 442/64/34 139/67/34 138/64/34
f 338/65/35 35/68/35 34/65/35
f 547/66/36 244/69/36 243/66/36
f 443/67/37 140/70/37 139/67/37
f 339/68/38 36/71/38 35/68/38
f 548/69/39 245/72/39 244/69/39
f 444/70/40 141/73/40 140/70/40
f 340/71/41 37/74/41 36/71/41
f 549/72/42 246/75/42 245/72/42
f 445/73/43 142/76/43 141/73/43
f 341/74/44 38/77/44 37/74/44
f 550/75/45 247/78/45 246/75/45
f 446/76/46 143/79/46 142/76/46
f 342/77/47 39/80/47 38/77/47
f 551/78/48 248/81/48 247/78/48
f 447/79/49 144/82/49 143/79/49
f 343/80/50 40/83/50 39/80/50
f 552/81/51 249/84/51 248/81/51
f 448/82/52 145/85/52 144/82/52
f 344/83/53 41/86/53 40/83/53
f 553/84/54 250/87/54 249/84/54
f 449/85/55 146/88/55 145/85/55
f 345/86/56 42/32/56 41/86/56
f 554/87/57 251/89/57 250/87/57
f 450/88/58 147/90/58 146/88/58
f 346/32/59 43/91/59 42/32/59
f 555/89/60 252/92/60 251/89/60
f 451/90/61 148/93/61 147/90/61
f 347/91/62 44/94/62 43/91/62
f 556/92/63 253/95/63 252/92/63
f 452/93/64 149/96/64 148/93/64
f 348/94/65 45/97/65 44/94/65
f 557/95/66 254/98/66 253/95/66
f 453/96/67 150/99/67 149/96/67
f 349/97/68 46/100/68 45/97/68
f 558/98/69 255/101/69 254/98/69
f 454/99/70 151/102/70 150/99/70
f 350/100/71 47/103/71 46/100/71
f 559/101/72 256/104/72 255/101/72
f 455/102/73 152/105/73 151/102/73
f 351/103/74 48/106/74 47/103/74
f 560/104/75 257/27/75 256/104/75
f 456/105/76 153/107/76 152/105/76
f 352/106/77 23/108/77 48/106/77
f 561/27/78 258/44/78 257/27/78
f 457/107/79 154/109/79 153/107/79
f 353/110/80 50/111/80 49/110/80
f 562/44/81 259/112/81 258/44/81
f 458/109/82 155/113/82 154/109/82
f 354/111/83 51/114/83 50/111/83
f 563/112/84 260/115/84 259/112/84
f 459/113/85 156/116/85 155/113/85
f 355/114/86 52/117/86 51/114/86
f 564/115/87 261/118/87 260/115/87
f 460/116/88 157/119/88 156/116/88
f 356/117/89 53/18/89 52/117/89
f 565/118/90 262/120/90 261/118/90
f 461/119/91 158/121/91 157/119/91
f 357/18/92 54/19/92 53/18/92
f 566/120/93 263/122/93 262/120/93
f 462/121/94 159/123/94 158/121/94
f 358/19/95 55/124/95 54/19/95
f 567/122/96 264/125/96 263/122/96
f 463/123/97 160/126/97 159/123/97
f 359/124/98 56/38/98 55/124/98
f 568/125/99 265/127/99 264/125/99
f 464/126/100 161/128/100 160/126/100
f 360/38/101 57/37/101 56/38/101
f 569/127/102 266/129/102 265/127/102
f 465/128/103 162/130/103 161/128/103
f 361/37/104 58/131/104 57/37/104
f 570/129/105 267/132/105 266/129/105
f 466/130/106 163/133/106 162/130/106
f 362/131/107 59/134/107 58/131/107
f 571/132/108 268/135/108 267/132/108
f 467/133/109 164/15/109 163/133/109
f 363/134/110 60/136/110 59/134/110
f 572/135/111 269/137/111 268/135/111
f 468/15/112 165/16/112 164/15/112
f 364/136/113 61/138/113 60/136/113
f 573/137/114 270/139/114 269/137/114
f 469/16/115 166/140/115 165/16/115
f 365/138/116 62/141/116 61/138/116
f 574/139/117 271/142/117 270/139/117
f 470/140/118 167/143/118 166/140/118
f 366/141/119 63/144/119 62/141/119
f 575/142/120 272/145/120 271/142/120
f 471/143/121 168/146/121 167/143/121
f 367/144/122 64/147/122 63/144/122
f 576/145/123 273/148/123 272/145/123
f 472/146/124 169/149/124 168/146/124
f 368/147/125 65/150/125 64/147/125
f 577/148/126 274/151/126 273/148/126
f 473/149/114 170/152/114 169/149/114
f 369/150/127 66/36/127 65/150/127
f 578/151/128 275/153/128 274/151/128
f 474/152/129 171/154/129 170/152/129
f 370/36/130 67/155/130 66/36/130
f 579/153/131 276/156/131 275/153/131
f 475/154/132 172/157/132 171/154/132
f 371/155/133 68/158/133 67/155/133
f 580/156/134 277/159/134 276/156/134
f 476/157/129 173/160/129 172/157/129
f 372/158/135 69/20/135 68/158/135
f 581/159/136 278/161/136 277/159/136
f 477/160/132 174/162/132 173/160/132
f 373/20/137 70/163/137 69/20/137
f 582/161/138 279/164/138 278/161/138
f 478/162/129 175/165/129 174/162/129
f 374/163/139 71/166/139 70/163/139
f 583/164/140 280/167/140 279/164/140
f 479/165/132 176/168/132 175/165/132
f 375/166/141 72/169/141 71/166/141
f 584/167/142 281/170/142 280/167/142
f 480/168/143 177/171/143 176/168/143
f 376/169/144 73/172/144 72/169/144
f 585/170/145 282/173/145 281/170/145
f 481/171/132 178/174/132 177/171/132
f 377/172/146 74/175/146 73/172/146
f 586/173/147 283/176/147 282/173/147
f 482/174/143 179/177/143 178/174/143
f 378/175/148 49/110/148 74/175/148
f 587/176/149 284/178/149 283/176/149
f 483/177/114 180/21/114 179/177/114
f 379/179/143 76/180/143 75/179/143
f 588/178/150 285/181/150 284/178/150
f 484/21/143 181/22/143 180/21/143
f 380/180/132 77/182/132 76/180/132
f 589/181/151 286/183/151 285/181/151
f 485/22/152 182/184/152 181/22/152
f 381/182/153 78/185/153 77/182/153
f 590/183/154 287/186/154 286/183/154
f 486/184/155 183/187/155 182/184/155
f 382/185/156 79/188/156 78/185/156
f 591/186/157 288/189/157 287/186/157
f 487/187/158 184/190/158 183/187/158
f 383/188/159 80/191/159 79/188/159
f 592/189/160 289/192/160 288/189/160
f 488/190/161 185/193/161 184/190/161
f 384/191/162 81/194/162 80/191/162
f 593/192/163 290/195/163 289/192/163
f 489/193/164 186/196/164 185/193/164
f 385/194/165 82/39/165 81/194/165
f 594/195/166 291/197/166 290/195/166
f 490/196/167 187/41/167 186/196/167
f 386/39/168 83/198/168 82/39/168
f 595/197/169 292/199/169 291/197/169
f 491/41/170 188/40/170 187/41/170
f 387/198/171 84/200/171 83/198/171
f 596/199/172 293/201/172 292/199/172
f 492/40/173 189/202/173 188/40/173
f 388/200/174 85/203/174 84/200/174
f 597/201/132 294/204/132 293/201/132
f 493/202/175 91/205/175 189/202/175
f 389/203/176 86/206/176 85/203/176
f 598/204/177 295/207/177 294/204/177
f 494/208/114 191/209/114 190/208/114
f 390/206/178 87/210/178 86/206/178
f 599/207/179 296/211/179 295/207/179
f 495/209/143 192/212/143 191/209/143
f 391/210/180 88/213/180 87/210/180
f 600/211/181 297/214/181 296/211/181
f 496/212/132 193/215/132 192/212/132
f 392/213/182 89/216/182 88/213/182
f 601/214/183 298/217/183 297/214/183
f 497/215/143 194/218/143 193/215/143
f 393/216/129 90/23/129 89/216/129
f 602/217/184 299/219/184 298/217/184
f 498/218/114 195/220/114 194/218/114
f 394/23/114 75/179/114 90/23/114
f 603/219/185 300/221/185 299/219/185
f 499/220/143 196/222/143 195/220/143
f 395/205/186 92/223/186 91/205/186
f 604/221/187 301/224/187 300/221/187
f 500/222/188 197/225/188 196/222/188
f 396/223/189 93/226/189 92/223/189
f 605/224/190 302/227/190 301/224/190
f 501/225/191 198/228/191 197/225/191
f 397/226/192 94/229/192 93/226/192
f 606/227/193 303/230/193 302/227/193
f 502/228/194 199/231/194 198/228/194
f 398/229/132 95/232/132 94/229/132
f 607/230/195 304/233/195 303/230/195
f 503/231/196 200/234/196 199/231/196
f 399/232/143 96/235/143 95/232/143
f 608/233/197 305/236/197 304/233/197
f 504/234/198 201/237/198 200/234/198
f 400/235/114 97/238/114 96/235/114
f 609/236/199 306/239/199 305/236/199
f 505/237/200 202/240/200 201/237/200
f 401/238/201 98/241/201 97/238/201
f 610/239/129 307/242/129 306/239/129
f 506/240/202 203/43/202 202/240/202
f 402/241/203 99/243/203 98/241/203
f 611/242/114 308/244/114 307/242/114
f 507/43/204 204/42/204 203/43/204
f 403/243/205 100/245/205 99/243/205
f 612/244/129 309/246/129 308/244/129
f 508/42/206 205/247/206 204/42/206
f 404/245/207 101/34/207 100/245/207
f 613/246/132 310/248/132 309/246/132
f 509/247/208 206/28/208 205/247/208
f 405/34/209 102/33/209 101/34/209
f 614/248/129 311/249/129 310/248/129
f 510/28/210 207/29/210 206/28/210
f 406/33/211 103/250/211 102/33/211
f 615/249/114 312/251/114 311/249/114
f 511/29/212 208/252/212 207/29/212
f 407/250/213 104/253/213 103/250/213
f 616/251/129 313/254/129 312/251/129
f 512/252/214 209/255/214 208/252/214
f 408/253/215 105/256/215 104/253/215
f 617/254/132 314/257/132 313/254/132
f 513/255/216 210/258/216 209/255/216
f 409/256/217 106/259/217 105/256/217
f 618/257/129 315/260/129 314/257/129
f 514/258/218 211/261/218 210/258/218
f 410/259/219 107/262/219 106/259/219
f 619/260/114 316/263/114 315/260/114
f 515/261/220 212/264/220 211/261/220
f 411/262/221 108/265/221 107/262/221
f 620/263/129 317/266/129 316/263/129
f 516/264/222 213/267/222 212/264/222
f 412/265/223 109/268/223 108/265/223
f 621/266/132 318/269/132 317/266/132
f 517/267/224 214/270/224 213/267/224
f 413/268/225 110/271/225 109/268/225
f 622/269/129 319/272/129 318/269/129
f 518/270/226 215/273/226 214/270/226
f 414/271/227 111/274/227 110/271/227
f 623/272/132 320/275/132 319/272/132
f 519/273/228 216/276/228 215/273/228
f 415/274/229 112/277/229 111/274/229
f 624/275/143 321/278/143 320/275/143
f 520/276/230 217/279/230 216/276/230
f 416/277/231 113/280/231 112/277/231
f 625/278/132 322/281/132 321/278/132
f 521/279/232 218/282/232 217/279/232
f 417/280/233 114/283/233 113/280/233
f 626/281/143 190/208/143 322/281/143
f 522/282/234 219/284/234 218/282/234
f 418/283/235 115/285/235 114/283/235
f 523/284/236 220/286/236 219/284/236
f 419/285/237 116/287/237 115/285/237
f 524/286/238 221/288/238 220/286/238
f 420/287/239 117/289/239 116/287/239
f 525/288/240 222/290/240 221/288/240
f 421/289/241 118/291/241 117/289/241
f 526/290/242 223/292/242 222/290/242
f 422/291/243 119/293/243 118/291/243
f 527/292/244 224/294/244 223/292/244
f 423/293/245 120/295/245 119/293/245
f 528/294/246 225/296/246 224/294/246
f 424/295/247 121/297/247 120/295/247
f 529/296/248 226/298/248 225/296/248
f 425/297/249 122/299/249 121/297/249
f 530/298/250 227/300/250 226/298/250
f 426/299/251 123/301/251 122/299/251
f 531/300/252 228/302/252 227/300/252
f 427/301/253 124/303/253 123/301/253
f 323/304/114 20/25/114 19/304/114
f 532/302/254 229/305/254 228/302/254
f 428/303/255 125/306/255 124/303/255
f 324/25/129 21/26/129 20/25/129
f 533/305/256 230/307/256 229/305/256
f 429/306/257 126/308/257 125/306/257
f 325/26/132 22/24/132 21/26/132
f 534/307/258 231/309/258 230/307/258
f 430/308/259 127/310/259 126/308/259
f 326/24/143 19/304/143 22/24/143
f 535/309/260 232/311/260 231/309/260
f 431/310/261 128/312/261 127/310/261
f 327/108/262 24/313/262 23/108/262
f 536/311/263 233/314/263 232/311/263
f 432/312/264 129/35/264 128/312/264
f 328/313/265 25/315/265 24/313/265
f 537/314/266 234/316/266 233/314/266
f 433/35/267 130/317/267 129/35/267
f 329/315/268 26/318/268 25/315/268
f 538/316/269 235/45/269 234/316/269
f 434/317/270 131/47/270 130/317/270
f 330/318/271 27/30/271 26/318/271
f 169/149/9 170/152/9 76/180/9
f 170/152/9 171/154/9 172/157/9
f 172/157/9 173/160/9 75/179/9
f 170/152/9 172/157/9 76/180/9
f 172/157/9 75/179/9 76/180/9
f 77/182/10 93/226/10 94/229/10
f 169/149/9 76/180/9 77/182/9
f 168/146/9 169/149/9 133/50/9
f 169/149/9 77/182/9 97/238/9
f 94/229/9 95/232/9 97/238/9
f 95/232/9 96/235/9 97/238/9
f 169/149/9 97/238/9 133/50/9
f 77/182/9 94/229/9 97/238/9
f 167/143/9 168/146/9 134/53/9
f 166/140/9 167/143/9 135/56/9
f 168/146/9 133/50/9 134/53/9
f 165/16/9 166/140/9 136/59/9
f 135/56/9 167/143/9 134/53/9
f 108/265/10 109/268/10 110/271/10
f 108/265/9 110/271/9 111/274/9
f 107/262/9 108/265/9 122/299/9
f 108/265/272 111/274/272 112/277/272
f 108/265/9 112/277/9 113/280/9
f 106/259/9 107/262/9 123/301/9
f 108/265/9 113/280/9 114/283/9
f 108/265/9 114/283/9 115/285/9
f 105/256/9 106/259/9 124/303/9
f 108/265/9 115/285/9 116/287/9
f 122/299/9 108/265/9 116/287/9
f 107/262/9 122/299/9 123/301/9
f 104/253/9 105/256/9 126/308/9
f 106/259/9 123/301/9 124/303/9
f 116/287/9 117/289/9 122/299/9
f 103/250/9 104/253/9 127/310/9
f 117/289/9 118/291/9 122/299/9
f 118/291/9 119/293/9 122/299/9
f 120/295/273 121/297/273 122/299/273
f 119/293/9 120/295/9 122/299/9
f 125/306/9 105/256/9 124/303/9
f 125/306/9 126/308/9 105/256/9
f 104/253/9 126/308/9 127/310/9
f 127/310/9 128/312/9 103/250/9
f 128/312/9 129/35/9 102/33/9
f 129/35/9 130/317/9 101/34/9
f 130/317/9 131/47/9 100/245/9
f 131/47/9 132/48/9 99/243/9
f 100/245/9 131/47/9 99/243/9
f 132/48/9 133/50/9 98/241/9
f 129/35/9 101/34/9 102/33/9
f 102/33/9 103/250/9 128/312/9
f 135/56/9 136/59/9 166/140/9
f 101/34/9 130/317/9 100/245/9
f 136/59/9 137/17/9 165/16/9
f 137/17/9 138/64/9 164/15/9
f 138/64/9 139/67/9 163/133/9
f 139/67/272 140/70/272 162/130/272
f 140/70/10 141/73/10 161/128/10
f 162/130/9 140/70/9 161/128/9
f 141/73/9 142/76/9 161/128/9
f 142/76/9 143/79/9 160/126/9
f 143/79/9 144/82/9 159/123/9
f 144/82/274 145/85/274 146/88/274
f 144/82/272 146/88/272 147/90/272
f 138/64/9 163/133/9 164/15/9
f 163/133/9 139/67/9 162/130/9
f 99/243/9 132/48/9 98/241/9
f 144/82/10 147/90/10 148/93/10
f 144/82/272 148/93/272 149/96/272
f 161/128/9 142/76/9 160/126/9
f 144/82/9 149/96/9 150/99/9
f 144/82/9 150/99/9 159/123/9
f 97/238/9 98/241/9 133/50/9
f 156/116/9 157/119/9 158/121/9
f 155/113/9 156/116/9 158/121/9
f 155/113/9 158/121/9 154/109/9
f 158/121/9 159/123/9 150/99/9
f 154/109/9 158/121/9 153/107/9
f 153/107/9 158/121/9 152/105/9
f 159/123/9 160/126/9 143/79/9
f 152/105/9 158/121/9 151/102/9
f 151/102/9 158/121/9 150/99/9
f 60/136/272 61/138/272 62/141/272
f 62/141/9 63/144/9 60/136/9
f 63/144/9 64/147/9 59/134/9
f 59/134/9 64/147/9 58/131/9
f 64/147/9 65/150/9 58/131/9
f 65/150/272 66/36/272 57/37/272
f 58/131/10 65/150/10 57/37/10
f 66/36/9 67/155/9 56/38/9
f 67/155/9 68/158/9 55/124/9
f 66/36/9 56/38/9 57/37/9
f 68/158/9 69/20/9 54/19/9
f 69/20/9 70/163/9 53/18/9
f 68/158/9 54/19/9 55/124/9
f 70/163/9 71/166/9 52/117/9
f 71/166/272 72/169/272 52/117/272
f 52/117/9 72/169/9 51/114/9
f 72/169/9 73/172/9 51/114/9
f 73/172/9 74/175/9 50/111/9
f 51/114/9 73/172/9 50/111/9
f 74/175/9 49/110/9 50/111/9
f 59/134/9 60/136/9 63/144/9
f 56/38/9 67/155/9 55/124/9
f 70/163/9 52/117/9 53/18/9
f 92/223/9 93/226/9 78/185/9
f 93/226/9 77/182/9 78/185/9
f 78/185/9 79/188/9 92/223/9
f 79/188/9 80/191/9 91/205/9
f 80/191/9 81/194/9 189/202/9
f 189/202/9 81/194/9 188/40/9
f 81/194/272 82/39/272 188/40/272
f 82/39/9 83/198/9 187/41/9
f 188/40/9 82/39/9 187/41/9
f 83/198/272 84/200/272 186/196/272
f 84/200/9 85/203/9 185/193/9
f 85/203/272 86/206/272 184/190/272
f 86/206/9 87/210/9 183/187/9
f 87/210/9 88/213/9 182/184/9
f 88/213/9 89/216/9 181/22/9
f 90/23/9 75/179/9 174/162/9
f 75/179/9 173/160/9 174/162/9
f 183/187/9 87/210/9 182/184/9
f 89/216/9 90/23/9 181/22/9
f 84/200/9 185/193/9 186/196/9
f 187/41/10 83/198/10 186/196/10
f 185/193/9 85/203/9 184/190/9
f 91/205/9 92/223/9 79/188/9
f 189/202/9 91/205/9 80/191/9
f 90/23/9 174/162/9 180/21/9
f 174/162/9 175/165/9 176/168/9
f 177/171/9 178/174/9 179/177/9
f 174/162/9 176/168/9 177/171/9
f 184/190/9 86/206/9 183/187/9
f 174/162/9 177/171/9 180/21/9
f 177/171/9 179/177/9 180/21/9
f 182/184/9 88/213/9 181/22/9
f 22/24/9 19/304/9 20/25/9
f 246/75/274 247/78/274 240/58/274
f 247/78/9 248/81/9 231/309/9
f 246/75/275 240/58/275 241/61/275
f 248/81/9 249/84/9 231/309/9
f 249/84/9 250/87/9 230/307/9
f 231/309/9 249/84/9 230/307/9
f 250/87/9 251/89/9 230/307/9
f 251/89/9 252/92/9 229/305/9
f 230/307/9 251/89/9 229/305/9
f 252/92/10 253/95/10 229/305/10
f 253/95/272 254/98/272 228/302/272
f 229/305/9 253/95/9 228/302/9
f 254/98/10 255/101/10 228/302/10
f 255/101/272 256/104/272 227/300/272
f 228/302/9 255/101/9 227/300/9
f 257/27/9 258/44/9 205/247/9
f 258/44/9 259/112/9 203/43/9
f 203/43/9 259/112/9 202/240/9
f 256/104/9 257/27/9 227/300/9
f 247/78/9 231/309/9 232/311/9
f 244/69/276 245/72/276 246/75/276
f 243/66/9 244/69/9 246/75/9
f 259/112/9 260/115/9 201/237/9
f 201/237/9 260/115/9 200/234/9
f 242/63/9 243/66/9 246/75/9
f 241/61/273 242/63/273 246/75/273
f 260/115/9 261/118/9 200/234/9
f 199/231/9 261/118/9 198/228/9
f 240/58/9 247/78/9 232/311/9
f 261/118/9 199/231/9 200/234/9
f 261/118/9 262/120/9 198/228/9
f 198/228/10 262/120/10 197/225/10
f 262/120/9 263/122/9 197/225/9
f 263/122/9 264/125/9 196/222/9
f 197/225/9 263/122/9 196/222/9
f 264/125/9 265/127/9 306/239/9
f 265/127/9 266/129/9 304/233/9
f 266/129/9 267/132/9 302/227/9
f 267/132/9 268/135/9 299/219/9
f 268/135/9 269/137/9 296/211/9
f 269/137/9 270/139/9 288/189/9
f 289/192/9 269/137/9 288/189/9
f 269/137/9 289/192/9 290/195/9
f 270/139/9 271/142/9 286/183/9
f 196/222/9 264/125/9 306/239/9
f 265/127/9 304/233/9 305/236/9
f 239/55/9 240/58/9 232/311/9
f 238/52/9 239/55/9 232/311/9
f 271/142/9 272/145/9 286/183/9
f 270/139/10 287/186/10 288/189/10
f 287/186/272 270/139/272 286/183/272
f 272/145/9 273/148/9 286/183/9
f 237/49/9 238/52/9 232/311/9
f 273/148/276 274/151/276 285/181/276
f 274/151/9 275/153/9 285/181/9
f 236/46/272 237/49/272 232/311/272
f 286/183/9 273/148/9 285/181/9
f 275/153/9 276/156/9 285/181/9
f 276/156/9 277/159/9 284/178/9
f 235/45/9 236/46/9 232/311/9
f 277/159/9 278/161/9 284/178/9
f 276/156/272 284/178/272 285/181/272
f 278/161/277 279/164/277 284/178/277
f 234/316/276 235/45/276 232/311/276
f 279/164/276 280/167/276 283/176/276
f 284/178/272 279/164/272 283/176/272
f 281/170/278 282/173/278 283/176/278
f 280/167/9 281/170/9 283/176/9
f 269/137/9 290/195/9 291/197/9
f 269/137/9 291/197/9 292/199/9
f 269/137/9 292/199/9 293/201/9
f 269/137/9 293/201/9 294/204/9
f 269/137/9 294/204/9 295/207/9
f 269/137/9 295/207/9 296/211/9
f 268/135/9 296/211/9 297/214/9
f 268/135/9 297/214/9 298/217/9
f 268/135/9 298/217/9 299/219/9
f 299/219/9 300/221/9 267/132/9
f 300/221/9 301/224/9 267/132/9
f 301/224/9 302/227/9 267/132/9
f 302/227/9 303/230/9 266/129/9
f 303/230/9 304/233/9 266/129/9
f 305/236/9 306/239/9 265/127/9
f 307/242/9 308/244/9 310/248/9
f 308/244/9 309/246/9 310/248/9
f 307/242/9 310/248/9 195/220/9
f 310/248/9 311/249/9 195/220/9
f 311/249/9 312/251/9 313/254/9
f 311/249/9 313/254/9 314/257/9
f 311/249/9 314/257/9 192/212/9
f 315/260/9 316/263/9 317/266/9
f 311/249/9 192/212/9 195/220/9
f 314/257/9 315/260/9 192/212/9
f 315/260/9 317/266/9 318/269/9
f 318/269/9 319/272/9 320/275/9
f 321/278/9 322/281/9 190/208/9
f 318/269/9 320/275/9 321/278/9
f 315/260/9 318/269/9 321/278/9
f 321/278/9 190/208/9 191/209/9
f 192/212/9 193/215/9 194/218/9
f 315/260/9 321/278/9 191/209/9
f 192/212/9 194/218/9 195/220/9
f 315/260/9 191/209/9 192/212/9
f 306/239/9 307/242/9 196/222/9
f 307/242/9 195/220/9 196/222/9
f 232/311/10 233/314/10 234/316/10
f 226/298/9 227/300/9 257/27/9
f 225/296/9 226/298/9 207/29/9
f 226/298/9 257/27/9 207/29/9
f 259/112/9 201/237/9 202/240/9
f 224/294/10 225/296/10 208/252/10
f 208/252/272 225/296/272 207/29/272
f 223/292/272 224/294/272 211/261/272
f 258/44/9 203/43/9 204/42/9
f 258/44/9 204/42/9 205/247/9
f 222/290/9 223/292/9 215/273/9
f 224/294/9 208/252/9 209/255/9
f 210/258/9 224/294/9 209/255/9
f 220/286/9 221/288/9 219/284/9
f 221/288/10 222/290/10 218/282/10
f 218/282/9 219/284/9 221/288/9
f 216/276/9 217/279/9 222/290/9
f 217/279/276 218/282/276 222/290/276
f 214/270/9 215/273/9 223/292/9
f 215/273/9 216/276/9 222/290/9
f 212/264/9 213/267/9 223/292/9
f 213/267/9 214/270/9 223/292/9
f 210/258/274 211/261/274 224/294/274
f 211/261/9 212/264/9 223/292/9
f 257/27/9 205/247/9 206/28/9
f 34/65/9 35/68/9 33/62/9
f 35/68/9 36/71/9 33/62/9
f 36/71/272 37/74/272 33/62/272
f 37/74/9 38/77/9 32/60/9
f 33/62/9 37/74/9 32/60/9
f 38/77/9 39/80/9 31/57/9
f 39/80/9 40/83/9 30/54/9
f 31/57/9 39/80/9 30/54/9
f 40/83/9 41/86/9 29/51/9
f 41/86/9 42/32/9 28/31/9
f 29/51/9 41/86/9 28/31/9
f 42/32/9 43/91/9 27/30/9
f 43/91/9 44/94/9 26/318/9
f 27/30/272 43/91/272 26/318/272
f 44/94/9 45/97/9 25/315/9
f 45/97/9 46/100/9 24/313/9
f 25/315/272 45/97/272 24/313/272
f 46/100/9 47/103/9 23/108/9
f 47/103/9 48/106/9 23/108/9
f 32/60/9 38/77/9 31/57/9
f 46/100/9 23/108/9 24/313/9
f 25/315/9 26/318/9 44/94/9
f 30/54/9 40/83/9 29/51/9
f 462/121/11 461/119/11 460/116/11
f 462/121/11 460/116/11 459/113/11
f 463/123/11 462/121/11 454/99/11
f 462/121/11 459/113/11 458/109/11
f 462/121/11 458/109/11 457/107/11
f 464/126/11 463/123/11 447/79/11
f 462/121/11 457/107/11 456/105/11
f 462/121/11 456/105/11 455/102/11
f 465/128/11 464/126/11 446/76/11
f 462/121/11 455/102/11 454/99/11
f 447/79/11 463/123/11 448/82/11
f 466/130/11 465/128/11 444/70/11
f 464/126/11 447/79/11 446/76/11
f 463/123/11 454/99/11 448/82/11
f 454/99/11 453/96/11 448/82/11
f 467/133/11 466/130/11 443/67/11
f 453/96/11 452/93/11 448/82/11
f 468/15/11 467/133/11 442/64/11
f 445/73/11 465/128/11 446/76/11
f 465/128/11 445/73/11 444/70/11
f 452/93/11 451/90/11 448/82/11
f 451/90/11 450/88/11 448/82/11
f 450/88/11 449/85/11 448/82/11
f 466/130/11 444/70/11 443/67/11
f 443/67/11 442/64/11 467/133/11
f 442/64/11 441/17/11 468/15/11
f 441/17/11 440/59/11 469/16/11
f 440/59/11 439/56/11 470/140/11
f 439/56/11 438/53/11 471/143/11
f 470/140/11 439/56/11 471/143/11
f 437/50/11 436/48/11 402/241/11
f 436/48/11 435/47/11 403/243/11
f 403/243/11 435/47/11 404/245/11
f 438/53/11 437/50/11 472/146/11
f 441/17/11 469/16/11 468/15/11
f 435/47/11 434/317/11 404/245/11
f 470/140/11 469/16/11 440/59/11
f 471/143/11 438/53/11 472/146/11
f 434/317/11 433/35/11 405/34/11
f 433/35/11 432/312/11 406/33/11
f 432/312/11 431/310/11 407/250/11
f 431/310/11 430/308/11 408/253/11
f 430/308/11 429/306/11 409/256/11
f 429/306/11 428/303/11 409/256/11
f 428/303/11 427/301/11 410/259/11
f 409/256/11 428/303/11 410/259/11
f 427/301/11 426/299/11 411/262/11
f 426/299/11 425/297/11 424/295/11
f 426/299/11 424/295/11 423/293/11
f 430/308/11 409/256/11 408/253/11
f 434/317/11 405/34/11 404/245/11
f 432/312/11 407/250/11 406/33/11
f 426/299/11 423/293/11 422/291/11
f 426/299/11 422/291/11 421/289/11
f 473/149/11 472/146/11 437/50/11
f 426/299/11 421/289/11 420/287/11
f 426/299/11 420/287/11 412/265/11
f 475/154/11 474/152/11 476/157/11
f 474/152/11 473/149/11 380/180/11
f 476/157/11 474/152/11 380/180/11
f 426/299/11 412/265/11 411/262/11
f 420/287/11 419/285/11 412/265/11
f 419/285/11 418/283/11 412/265/11
f 379/179/11 477/160/11 476/157/11
f 380/180/11 379/179/11 476/157/11
f 398/229/11 397/226/11 381/182/11
f 381/182/11 380/180/11 473/149/11
f 381/182/11 473/149/11 401/238/11
f 473/149/11 437/50/11 401/238/11
f 400/235/11 399/232/11 401/238/11
f 399/232/11 398/229/11 401/238/11
f 398/229/11 381/182/11 401/238/11
f 414/271/11 413/268/11 412/265/11
f 414/271/11 412/265/11 415/274/11
f 415/274/11 412/265/11 416/277/11
f 416/277/11 412/265/11 417/280/11
f 411/262/11 410/259/11 427/301/11
f 417/280/11 412/265/11 418/283/11
f 402/241/11 401/238/11 437/50/11
f 403/243/11 402/241/11 436/48/11
f 431/310/11 408/253/11 407/250/11
f 354/111/11 353/110/11 378/175/11
f 378/175/11 377/172/11 354/111/11
f 377/172/11 376/169/11 355/114/11
f 376/169/11 375/166/11 356/117/11
f 375/166/11 374/163/11 356/117/11
f 374/163/11 373/20/11 357/18/11
f 373/20/11 372/158/11 358/19/11
f 357/18/11 373/20/11 358/19/11
f 372/158/11 371/155/11 359/124/11
f 371/155/11 370/36/11 360/38/11
f 359/124/11 371/155/11 360/38/11
f 370/36/11 369/150/11 361/37/11
f 369/150/11 368/147/11 362/131/11
f 362/131/11 368/147/11 363/134/11
f 368/147/11 367/144/11 363/134/11
f 367/144/11 366/141/11 364/136/11
f 363/134/11 367/144/11 364/136/11
f 366/141/11 365/138/11 364/136/11
f 377/172/11 355/114/11 354/111/11
f 356/117/11 355/114/11 376/169/11
f 356/117/11 374/163/11 357/18/11
f 369/150/11 362/131/11 361/37/11
f 358/19/11 372/158/11 359/124/11
f 484/21/11 483/177/11 482/174/11
f 481/171/11 480/168/11 479/165/11
f 484/21/11 482/174/11 481/171/11
f 484/21/11 481/171/11 478/162/11
f 481/171/11 479/165/11 478/162/11
f 478/162/11 477/160/11 379/179/11
f 485/22/11 484/21/11 394/23/11
f 484/21/11 478/162/11 394/23/11
f 478/162/11 379/179/11 394/23/11
f 394/23/11 393/216/11 485/22/11
f 393/216/11 392/213/11 485/22/11
f 485/22/11 392/213/11 486/184/11
f 392/213/11 391/210/11 486/184/11
f 391/210/11 390/206/11 487/187/11
f 486/184/11 391/210/11 487/187/11
f 390/206/11 389/203/11 488/190/11
f 389/203/11 388/200/11 489/193/11
f 390/206/11 488/190/11 487/187/11
f 388/200/11 387/198/11 490/196/11
f 387/198/11 386/39/11 491/41/11
f 388/200/11 490/196/11 489/193/11
f 386/39/11 385/194/11 492/40/11
f 385/194/11 384/191/11 493/202/11
f 493/202/11 384/191/11 395/205/11
f 384/191/11 383/188/11 395/205/11
f 383/188/11 382/185/11 396/223/11
f 382/185/11 381/182/11 397/226/11
f 382/185/11 397/226/11 396/223/11
f 383/188/11 396/223/11 395/205/11
f 488/190/11 389/203/11 489/193/11
f 385/194/11 493/202/11 492/40/11
f 490/196/11 387/198/11 491/41/11
f 324/25/11 323/304/11 326/24/11
f 552/81/11 551/78/11 535/309/11
f 551/78/11 550/75/11 544/58/11
f 545/61/11 550/75/11 546/63/11
f 550/75/11 549/72/11 548/69/11
f 550/75/11 548/69/11 547/66/11
f 553/84/11 552/81/11 535/309/11
f 550/75/11 545/61/11 544/58/11
f 555/89/11 554/87/11 534/307/11
f 554/87/11 553/84/11 534/307/11
f 557/95/11 556/92/11 533/305/11
f 556/92/11 555/89/11 533/305/11
f 533/305/11 555/89/11 534/307/11
f 559/101/11 558/98/11 532/302/11
f 558/98/11 557/95/11 532/302/11
f 561/27/11 560/104/11 531/300/11
f 560/104/11 559/101/11 531/300/11
f 563/112/11 562/44/11 507/43/11
f 562/44/11 561/27/11 509/247/11
f 563/112/11 505/237/11 564/115/11
f 565/118/11 564/115/11 504/234/11
f 504/234/11 564/115/11 505/237/11
f 567/122/11 566/120/11 501/225/11
f 566/120/11 565/118/11 502/228/11
f 503/231/11 565/118/11 504/234/11
f 569/127/11 568/125/11 610/239/11
f 568/125/11 567/122/11 500/222/11
f 571/132/11 570/129/11 606/227/11
f 570/129/11 569/127/11 608/233/11
f 573/137/11 600/211/11 599/207/11
f 573/137/11 572/135/11 600/211/11
f 572/135/11 571/132/11 603/219/11
f 573/137/11 596/199/11 595/197/11
f 575/142/11 574/139/11 590/183/11
f 574/139/11 573/137/11 592/189/11
f 592/189/11 573/137/11 593/192/11
f 576/145/279 575/142/279 590/183/279
f 596/199/11 573/137/11 597/201/11
f 597/201/11 573/137/11 598/204/11
f 568/125/11 500/222/11 610/239/11
f 565/118/11 503/231/11 502/228/11
f 505/237/11 563/112/11 506/240/11
f 550/75/11 547/66/11 546/63/11
f 535/309/11 551/78/11 536/311/11
f 559/101/11 532/302/11 531/300/11
f 574/139/11 592/189/11 591/186/11
f 593/192/280 573/137/280 594/195/280
f 577/148/281 576/145/281 590/183/281
f 553/84/11 535/309/11 534/307/11
f 578/151/11 577/148/11 589/181/11
f 574/139/11 591/186/11 590/183/11
f 579/153/11 578/151/11 589/181/11
f 580/156/11 579/153/11 589/181/11
f 589/181/11 577/148/11 590/183/11
f 581/159/11 580/156/11 588/178/11
f 551/78/11 544/58/11 536/311/11
f 582/161/11 581/159/11 588/178/11
f 583/164/11 582/161/11 588/178/11
f 580/156/11 589/181/11 588/178/11
f 544/58/11 543/55/11 536/311/11
f 584/167/11 583/164/11 587/176/11
f 587/176/11 586/173/11 585/170/11
f 585/170/11 584/167/11 587/176/11
f 583/164/11 588/178/11 587/176/11
f 543/55/11 542/52/11 536/311/11
f 542/52/11 541/49/11 536/311/11
f 541/49/11 540/46/11 536/311/11
f 540/46/11 539/45/11 536/311/11
f 594/195/11 573/137/11 595/197/11
f 539/45/11 538/316/11 536/311/11
f 598/204/11 573/137/11 599/207/11
f 600/211/11 572/135/11 601/214/11
f 601/214/11 572/135/11 602/217/11
f 602/217/11 572/135/11 603/219/11
f 603/219/11 571/132/11 604/221/11
f 604/221/11 571/132/11 605/224/11
f 605/224/11 571/132/11 606/227/11
f 606/227/11 570/129/11 607/230/11
f 607/230/11 570/129/11 608/233/11
f 609/236/11 608/233/11 569/127/11
f 610/239/11 609/236/11 569/127/11
f 611/242/11 610/239/11 500/222/11
f 613/246/11 612/244/11 614/248/11
f 612/244/11 611/242/11 614/248/11
f 538/316/11 537/314/11 536/311/11
f 614/248/11 611/242/11 499/220/11
f 617/254/11 616/251/11 615/249/11
f 615/249/11 614/248/11 499/220/11
f 611/242/11 500/222/11 499/220/11
f 557/95/11 533/305/11 532/302/11
f 618/257/11 617/254/11 615/249/11
f 621/266/11 620/263/11 619/260/11
f 619/260/11 618/257/11 496/212/11
f 618/257/11 615/249/11 496/212/11
f 496/212/11 615/249/11 499/220/11
f 622/269/11 621/266/11 619/260/11
f 624/275/11 623/272/11 622/269/11
f 494/208/11 626/281/11 625/278/11
f 625/278/11 624/275/11 622/269/11
f 622/269/11 619/260/11 625/278/11
f 625/278/11 619/260/11 495/209/11
f 561/27/11 531/300/11 530/298/11
f 495/209/11 619/260/11 496/212/11
f 495/209/11 494/208/11 625/278/11
f 498/218/11 497/215/11 496/212/11
f 499/220/11 498/218/11 496/212/11
f 561/27/11 530/298/11 511/29/11
f 511/29/11 530/298/11 529/296/11
f 506/240/11 563/112/11 507/43/11
f 526/290/11 525/288/11 522/282/11
f 525/288/282 524/286/282 523/284/282
f 522/282/11 525/288/11 523/284/11
f 522/282/11 521/279/11 526/290/11
f 521/279/11 520/276/11 526/290/11
f 520/276/11 519/273/11 526/290/11
f 519/273/11 518/270/11 527/292/11
f 518/270/11 517/267/11 527/292/11
f 517/267/11 516/264/11 527/292/11
f 516/264/11 515/261/11 527/292/11
f 515/261/280 514/258/280 528/294/280
f 514/258/11 513/255/11 528/294/11
f 513/255/11 512/252/11 528/294/11
f 515/261/11 528/294/11 527/292/11
f 519/273/11 527/292/11 526/290/11
f 529/296/11 528/294/11 512/252/11
f 501/225/11 500/222/11 567/122/11
f 502/228/11 501/225/11 566/120/11
f 529/296/282 512/252/282 511/29/282
f 511/29/11 510/28/11 561/27/11
f 510/28/280 509/247/280 561/27/280
f 509/247/11 508/42/11 562/44/11
f 340/71/11 339/68/11 337/62/11
f 339/68/11 338/65/11 337/62/11
f 342/77/11 341/74/11 336/60/11
f 341/74/11 340/71/11 337/62/11
f 344/83/11 343/80/11 334/54/11
f 343/80/11 342/77/11 335/57/11
f 346/32/11 345/86/11 332/31/11
f 345/86/11 344/83/11 333/51/11
f 348/94/11 347/91/11 330/318/11
f 347/91/11 346/32/11 331/30/11
f 350/100/11 349/97/11 328/313/11
f 349/97/11 348/94/11 329/315/11
f 352/106/11 351/103/11 327/108/11
f 351/103/11 350/100/11 327/108/11
f 349/97/11 329/315/11 328/313/11
f 347/91/11 331/30/11 330/318/11
f 345/86/11 333/51/11 332/31/11
f 343/80/11 335/57/11 334/54/11
f 335/57/11 342/77/11 336/60/11
f 341/74/11 337/62/11 336/60/11
f 328/313/11 327/108/11 350/100/11
f 344/83/11 334/54/11 333/51/11
f 330/318/11 329/315/11 348/94/11
f 539/45/12 540/46/12 236/46/12
f 435/47/13 436/48/13 132/48/13
f 331/30/14 332/31/14 28/31/14
f 540/46/283 541/49/283 237/49/283
f 436/48/16 437/50/16 133/50/16
f 332/31/17 333/51/17 29/51/17
f 541/49/18 542/52/18 238/52/18
f 437/50/19 438/53/19 134/53/19
f 333/51/20 334/54/20 30/54/20
f 542/52/21 543/55/21 239/55/21
f 438/53/22 439/56/22 135/56/22
f 334/54/23 335/57/23 31/57/23
f 543/55/284 544/58/284 240/58/284
f 439/56/25 440/59/25 136/59/25
f 335/57/26 336/60/26 32/60/26
f 544/58/27 545/61/27 241/61/27
f 440/59/28 441/17/28 137/17/28
f 336/60/285 337/62/285 33/62/285
f 545/61/286 546/63/286 242/63/286
f 441/17/31 442/64/31 138/64/31
f 337/62/32 338/65/32 34/65/32
f 546/63/287 547/66/287 243/66/287
f 442/64/34 443/67/34 139/67/34
f 338/65/35 339/68/35 35/68/35
f 547/66/36 548/69/36 244/69/36
f 443/67/288 444/70/288 140/70/288
f 339/68/38 340/71/38 36/71/38
f 548/69/289 549/72/289 245/72/289
f 444/70/40 445/73/40 141/73/40
f 340/71/41 341/74/41 37/74/41
f 549/72/42 550/75/42 246/75/42
f 445/73/43 446/76/43 142/76/43
f 341/74/44 342/77/44 38/77/44
f 550/75/45 551/78/45 247/78/45
f 446/76/46 447/79/46 143/79/46
f 342/77/290 343/80/290 39/80/290
f 551/78/48 552/81/48 248/81/48
f 447/79/291 448/82/291 144/82/291
f 343/80/50 344/83/50 40/83/50
f 552/81/51 553/84/51 249/84/51
f 448/82/52 449/85/52 145/85/52
f 344/83/53 345/86/53 41/86/53
f 553/84/54 554/87/54 250/87/54
f 449/85/55 450/88/55 146/88/55
f 345/86/56 346/32/56 42/32/56
f 554/87/57 555/89/57 251/89/57
f 450/88/292 451/90/292 147/90/292
f 346/32/59 347/91/59 43/91/59
f 555/89/60 556/92/60 252/92/60
f 451/90/293 452/93/293 148/93/293
f 347/91/294 348/94/294 44/94/294
f 556/92/63 557/95/63 253/95/63
f 452/93/64 453/96/64 149/96/64
f 348/94/65 349/97/65 45/97/65
f 557/95/66 558/98/66 254/98/66
f 453/96/295 454/99/295 150/99/295
f 349/97/68 350/100/68 46/100/68
f 558/98/69 559/101/69 255/101/69
f 454/99/70 455/102/70 151/102/70
f 350/100/71 351/103/71 47/103/71
f 559/101/72 560/104/72 256/104/72
f 455/102/73 456/105/73 152/105/73
f 351/103/74 352/106/74 48/106/74
f 560/104/75 561/27/75 257/27/75
f 456/105/296 457/107/296 153/107/296
f 352/106/77 327/108/77 23/108/77
f 561/27/78 562/44/78 258/44/78
f 457/107/79 458/109/79 154/109/79
f 353/110/80 354/111/80 50/111/80
f 562/44/81 563/112/81 259/112/81
f 458/109/297 459/113/297 155/113/297
f 354/111/83 355/114/83 51/114/83
f 563/112/84 564/115/84 260/115/84
f 459/113/85 460/116/85 156/116/85
f 355/114/86 356/117/86 52/117/86
f 564/115/87 565/118/87 261/118/87
f 460/116/88 461/119/88 157/119/88
f 356/117/89 357/18/89 53/18/89
f 565/118/90 566/120/90 262/120/90
f 461/119/298 462/121/298 158/121/298
f 357/18/92 358/19/92 54/19/92
f 566/120/299 567/122/299 263/122/299
f 462/121/94 463/123/94 159/123/94
f 358/19/95 359/124/95 55/124/95
f 567/122/96 568/125/96 264/125/96
f 463/123/97 464/126/97 160/126/97
f 359/124/98 360/38/98 56/38/98
f 568/125/99 569/127/99 265/127/99
f 464/126/100 465/128/100 161/128/100
f 360/38/101 361/37/101 57/37/101
f 569/127/102 570/129/102 266/129/102
f 465/128/103 466/130/103 162/130/103
f 361/37/104 362/131/104 58/131/104
f 570/129/105 571/132/105 267/132/105
f 466/130/106 467/133/106 163/133/106
f 362/131/107 363/134/107 59/134/107
f 571/132/108 572/135/108 268/135/108
f 467/133/109 468/15/109 164/15/109
f 363/134/110 364/136/110 60/136/110
f 572/135/111 573/137/111 269/137/111
f 468/15/112 469/16/112 165/16/112
f 364/136/113 365/138/113 61/138/113
f 573/137/114 574/139/114 270/139/114
f 469/16/300 470/140/300 166/140/300
f 365/138/116 366/141/116 62/141/116
f 574/139/117 575/142/117 271/142/117
f 470/140/301 471/143/301 167/143/301
f 366/141/119 367/144/119 63/144/119
f 575/142/120 576/145/120 272/145/120
f 471/143/121 472/146/121 168/146/121
f 367/144/122 368/147/122 64/147/122
f 576/145/302 577/148/302 273/148/302
f 472/146/124 473/149/124 169/149/124
f 368/147/125 369/150/125 65/150/125
f 577/148/126 578/151/126 274/151/126
f 473/149/114 474/152/114 170/152/114
f 369/150/127 370/36/127 66/36/127
f 578/151/128 579/153/128 275/153/128
f 474/152/129 475/154/129 171/154/129
f 370/36/130 371/155/130 67/155/130
f 579/153/131 580/156/131 276/156/131
f 475/154/132 476/157/132 172/157/132
f 371/155/133 372/158/133 68/158/133
f 580/156/134 581/159/134 277/159/134
f 476/157/129 477/160/129 173/160/129
f 372/158/303 373/20/303 69/20/303
f 581/159/304 582/161/304 278/161/304
f 477/160/132 478/162/132 174/162/132
f 373/20/137 374/163/137 70/163/137
f 582/161/138 583/164/138 279/164/138
f 478/162/129 479/165/129 175/165/129
f 374/163/139 375/166/139 71/166/139
f 583/164/305 584/167/305 280/167/305
f 479/165/132 480/168/132 176/168/132
f 375/166/141 376/169/141 72/169/141
f 584/167/142 585/170/142 281/170/142
f 480/168/143 481/171/143 177/171/143
f 376/169/144 377/172/144 73/172/144
f 585/170/306 586/173/306 282/173/306
f 481/171/132 482/174/132 178/174/132
f 377/172/146 378/175/146 74/175/146
f 586/173/147 587/176/147 283/176/147
f 482/174/143 483/177/143 179/177/143
f 378/175/148 353/110/148 49/110/148
f 587/176/149 588/178/149 284/178/149
f 483/177/114 484/21/114 180/21/114
f 379/179/143 380/180/143 76/180/143
f 588/178/150 589/181/150 285/181/150
f 484/21/143 485/22/143 181/22/143
f 380/180/132 381/182/132 77/182/132
f 589/181/151 590/183/151 286/183/151
f 485/22/152 486/184/152 182/184/152
f 381/182/153 382/185/153 78/185/153
f 590/183/154 591/186/154 287/186/154
f 486/184/155 487/187/155 183/187/155
f 382/185/156 383/188/156 79/188/156
f 591/186/157 592/189/157 288/189/157
f 487/187/158 488/190/158 184/190/158
f 383/188/159 384/191/159 80/191/159
f 592/189/160 593/192/160 289/192/160
f 488/190/161 489/193/161 185/193/161
f 384/191/162 385/194/162 81/194/162
f 593/192/163 594/195/163 290/195/163
f 489/193/164 490/196/164 186/196/164
f 385/194/165 386/39/165 82/39/165
f 594/195/307 595/197/307 291/197/307
f 490/196/167 491/41/167 187/41/167
f 386/39/168 387/198/168 83/198/168
f 595/197/169 596/199/169 292/199/169
f 491/41/170 492/40/170 188/40/170
f 387/198/171 388/200/171 84/200/171
f 596/199/308 597/201/308 293/201/308
f 492/40/173 493/202/173 189/202/173
f 388/200/174 389/203/174 85/203/174
f 597/201/132 598/204/132 294/204/132
f 493/202/175 395/205/175 91/205/175
f 389/203/176 390/206/176 86/206/176
f 598/204/309 599/207/309 295/207/309
f 494/208/114 495/209/114 191/209/114
f 390/206/178 391/210/178 87/210/178
f 599/207/310 600/211/310 296/211/310
f 495/209/143 496/212/143 192/212/143
f 391/210/180 392/213/180 88/213/180
f 600/211/181 601/214/181 297/214/181
f 496/212/132 497/215/132 193/215/132
f 392/213/182 393/216/182 89/216/182
f 601/214/311 602/217/311 298/217/311
f 497/215/143 498/218/143 194/218/143
f 393/216/129 394/23/129 90/23/129
f 602/217/184 603/219/184 299/219/184
f 498/218/114 499/220/114 195/220/114
f 394/23/114 379/179/114 75/179/114
f 603/219/185 604/221/185 300/221/185
f 499/220/143 500/222/143 196/222/143
f 395/205/186 396/223/186 92/223/186
f 604/221/187 605/224/187 301/224/187
f 500/222/188 501/225/188 197/225/188
f 396/223/189 397/226/189 93/226/189
f 605/224/190 606/227/190 302/227/190
f 501/225/191 502/228/191 198/228/191
f 397/226/192 398/229/192 94/229/192
f 606/227/312 607/230/312 303/230/312
f 502/228/194 503/231/194 199/231/194
f 398/229/132 399/232/132 95/232/132
f 607/230/195 608/233/195 304/233/195
f 503/231/196 504/234/196 200/234/196
f 399/232/143 400/235/143 96/235/143
f 608/233/313 609/236/313 305/236/313
f 504/234/198 505/237/198 201/237/198
f 400/235/114 401/238/114 97/238/114
f 609/236/199 610/239/199 306/239/199
f 505/237/200 506/240/200 202/240/200
f 401/238/201 402/241/201 98/241/201
f 610/239/129 611/242/129 307/242/129
f 506/240/202 507/43/202 203/43/202
f 402/241/203 403/243/203 99/243/203
f 611/242/114 612/244/114 308/244/114
f 507/43/204 508/42/204 204/42/204
f 403/243/314 404/245/314 100/245/314
f 612/244/129 613/246/129 309/246/129
f 508/42/206 509/247/206 205/247/206
f 404/245/207 405/34/207 101/34/207
f 613/246/132 614/248/132 310/248/132
f 509/247/208 510/28/208 206/28/208
f 405/34/209 406/33/209 102/33/209
f 614/248/129 615/249/129 311/249/129
f 510/28/315 511/29/315 207/29/315
f 406/33/211 407/250/211 103/250/211
f 615/249/114 616/251/114 312/251/114
f 511/29/212 512/252/212 208/252/212
f 407/250/213 408/253/213 104/253/213
f 616/251/129 617/254/129 313/254/129
f 512/252/214 513/255/214 209/255/214
f 408/253/215 409/256/215 105/256/215
f 617/254/132 618/257/132 314/257/132
f 513/255/316 514/258/316 210/258/316
f 409/256/217 410/259/217 106/259/217
f 618/257/129 619/260/129 315/260/129
f 514/258/218 515/261/218 211/261/218
f 410/259/219 411/262/219 107/262/219
f 619/260/114 620/263/114 316/263/114
f 515/261/220 516/264/220 212/264/220
f 411/262/221 412/265/221 108/265/221
f 620/263/129 621/266/129 317/266/129
f 516/264/317 517/267/317 213/267/317
f 412/265/318 413/268/318 109/268/318
f 621/266/132 622/269/132 318/269/132
f 517/267/224 518/270/224 214/270/224
f 413/268/225 414/271/225 110/271/225
f 622/269/129 623/272/129 319/272/129
f 518/270/226 519/273/226 215/273/226
f 414/271/319 415/274/319 111/274/319
f 623/272/132 624/275/132 320/275/132
f 519/273/228 520/276/228 216/276/228
f 415/274/229 416/277/229 112/277/229
f 624/275/143 625/278/143 321/278/143
f 520/276/230 521/279/230 217/279/230
f 416/277/231 417/280/231 113/280/231
f 625/278/132 626/281/132 322/281/132
f 521/279/232 522/282/232 218/282/232
f 417/280/320 418/283/320 114/283/320
f 626/281/143 494/208/143 190/208/143
f 522/282/321 523/284/321 219/284/321
f 418/283/322 419/285/322 115/285/322
f 523/284/236 524/286/236 220/286/236
f 419/285/323 420/287/323 116/287/323
f 524/286/238 525/288/238 221/288/238
f 420/287/324 421/289/324 117/289/324
f 525/288/240 526/290/240 222/290/240
f 421/289/325 422/291/325 118/291/325
f 526/290/242 527/292/242 223/292/242
f 422/291/326 423/293/326 119/293/326
f 527/292/244 528/294/244 224/294/244
f 423/293/245 424/295/245 120/295/245
f 528/294/246 529/296/246 225/296/246
f 424/295/247 425/297/247 121/297/247
f 529/296/327 530/298/327 226/298/327
f 425/297/249 426/299/249 122/299/249
f 530/298/250 531/300/250 227/300/250
f 426/299/251 427/301/251 123/301/251
f 531/300/252 532/302/252 228/302/252
f 427/301/328 428/303/328 124/303/328
f 323/304/114 324/25/114 20/25/114
f 532/302/329 533/305/329 229/305/329
f 428/303/255 429/306/255 125/306/255
f 324/25/129 325/26/129 21/26/129
f 533/305/256 534/307/256 230/307/256
f 429/306/257 430/308/257 126/308/257
f 325/26/132 326/24/132 22/24/132
f 534/307/258 535/309/258 231/309/258
f 430/308/259 431/310/259 127/310/259
f 326/24/143 323/304/143 19/304/143
f 535/309/260 536/311/260 232/311/260
f 431/310/261 432/312/261 128/312/261
f 327/108/262 328/313/262 24/313/262
f 536/311/263 537/314/263 233/314/263
f 432/312/264 433/35/264 129/35/264
f 328/313/265 329/315/265 25/315/265
f 537/314/330 538/316/330 234/316/330
f 433/35/267 434/317/267 130/317/267
f 329/315/268 330/318/268 26/318/268
f 538/316/331 539/45/331 235/45/331
f 434/317/332 435/47/332 131/47/332
f 330/318/271 331/30/271 27/30/271
o 立方体.002
v 21.384542 -2.000000 16.381395
v 21.384542 20.500000 16.381395
v 21.384542 -2.000000 26.381395
v 21.384542 20.500000 26.381395
v 11.384542 -2.000000 16.381395
v 11.384542 20.500000 16.381395
v 11.384542 -2.000000 26.381395
v 11.384542 20.500000 26.381395
vn 1.0000 -0.0000 -0.0000
vn -1.0000 -0.0000 -0.0000
vn -0.0000 -0.0000 -1.0000
vt 1.001698 -0.003395
vt 0.001403 1.000000
vt -0.000147 -0.003395
vt 1.000147 1.001550
s 0
usemtl マテリアル
f 628/319/333 629/320/333 627/321/333
f 634/319/334 631/320/334 633/321/334
f 632/319/335 627/320/335 631/321/335
f 628/319/333 630/322/333 629/320/333
f 634/319/334 632/322/334 631/320/334
f 632/319/335 628/322/335 627/320/335
o 立方体.003
v -8.575764 -2.000000 16.381397
v -8.575764 18.000000 16.381397
v -8.575764 -2.000000 26.381397
v -8.575764 18.000000 26.381397
v -18.575764 -2.000000 16.381397
v -18.575764 18.000000 16.381397
v -18.575764 -2.000000 26.381397
v -18.575764 18.000000 26.381397
vn 1.0000 -0.0000 -0.0000
vn -1.0000 -0.0000 -0.0000
vn -0.0000 -0.0000 -1.0000
vt 1.001698 -0.003395
vt 0.001403 1.000000
vt -0.000147 -0.003395
vt 1.000147 1.001550
s 0
usemtl マテリアル
f 636/323/336 637/324/336 635/325/336
f 642/323/337 639/324/337 641/325/337
f 640/323/338 635/324/338 639/325/338
f 636/323/336 638/326/336 637/324/336
f 642/323/337 640/326/337 639/324/337
f 640/323/338 636/326/338 635/324/338
o 立方体.004
v -8.575764 -2.000000 33.420063
v -8.575764 10.000000 33.420063
v -8.575764 -2.000000 43.420063
v -8.575764 10.000000 43.420063
v -18.575764 -2.000000 33.420063
v -18.575764 10.000000 33.420063
v -18.575764 -2.000000 43.420063
v -18.575764 10.000000 43.420063
vn 1.0000 -0.0000 -0.0000
vn -1.0000 -0.0000 -0.0000
vn -0.0000 -0.0000 -1.0000
vt 1.001698 -0.003395
vt 0.001403 1.000000
vt -0.000147 -0.003395
vt 1.000147 1.001550
s 0
usemtl マテリアル
f 644/327/339 645/328/339 643/329/339
f 650/327/340 647/328/340 649/329/340
f 648/327/341 643/328/341 647/329/341
f 644/327/339 646/330/339 645/328/339
f 650/327/340 648/330/340 647/328/340
f 648/327/341 644/330/341 643/328/341
o 立方体.005
v 21.384542 -2.000000 33.420063
v 21.384542 13.500000 33.420063
v 21.384542 -2.000000 43.420063
v 21.384542 13.500000 43.420063
v 11.384542 -2.000000 33.420063
v 11.384542 13.500000 33.420063
v 11.384542 -2.000000 43.420063
v 11.384542 13.500000 43.420063
vn 1.0000 -0.0000 -0.0000
vn -1.0000 -0.0000 -0.0000
vn -0.0000 -0.0000 -1.0000
vt 1.001698 -0.003395
vt 0.001403 1.000000
vt -0.000147 -0.003395
vt 1.000147 1.001550
s 0
usemtl マテリアル
f 652/331/342 653/332/342 651/333/342
f 658/331/343 655/332/343 657/333/343
f 656/331/344 651/332/344 655/333/344
f 652/331/342 654/334/342 653/332/342
f 658/331/343 656/334/343 655/332/343
f 656/331/344 652/334/344 651/332/344
