# Blender 4.2.2 LTS
# www.blender.org
mtllib Title.mtl
o 立方体.001
v -0.397066 -0.956649 -0.150051
v -0.622067 -0.956649 -0.150051
v -0.622067 1.800352 -0.150051
v -0.397066 1.800352 -0.150051
v -0.121133 1.158917 -0.150051
v -0.113846 1.093616 -0.150051
v -0.105223 1.026212 -0.150051
v -0.095289 0.957463 -0.150051
v -0.084064 0.888132 -0.150051
v -0.071567 0.818977 -0.150051
v -0.057820 0.750760 -0.150051
v -0.042844 0.684241 -0.150051
v -0.026660 0.620181 -0.150051
v -0.009290 0.559339 -0.150051
v 0.009248 0.502476 -0.150051
v 0.028934 0.450353 -0.150051
v -0.148067 0.387353 -0.150051
v -0.167748 0.444654 -0.150051
v -0.186261 0.506519 -0.150051
v -0.203567 0.572134 -0.150051
v -0.219623 0.640685 -0.150051
v -0.234387 0.711362 -0.150051
v -0.247817 0.783353 -0.150051
v -0.259873 0.855843 -0.150051
v -0.270511 0.928020 -0.150051
v -0.279692 0.999071 -0.150051
v -0.287373 1.068185 -0.150051
v -0.293512 1.134550 -0.150051
v -0.298067 1.197353 -0.150051
v -0.127067 1.221353 -0.150051
v -0.628067 1.248353 -0.150051
v -0.650653 1.202251 -0.150051
v -0.673261 1.154298 -0.150051
v -0.695660 1.105008 -0.150051
v -0.717623 1.054908 -0.150051
v -0.738918 1.004516 -0.150051
v -0.759318 0.954352 -0.150051
v -0.778591 0.904940 -0.150051
v -0.796511 0.856797 -0.150051
v -0.812849 0.810447 -0.150051
v -0.827373 0.766408 -0.150051
v -0.839855 0.725204 -0.150051
v -0.850067 0.687353 -0.150051
v -1.018067 0.771352 -0.150051
v -1.007735 0.808393 -0.150051
v -0.994913 0.848673 -0.150051
v -0.979864 0.891681 -0.150051
v -0.962845 0.936909 -0.150051
v -0.944116 0.983844 -0.150051
v -0.923941 1.031977 -0.150051
v -0.902579 1.080799 -0.150051
v -0.880289 1.129797 -0.150051
v -0.857333 1.178462 -0.150051
v -0.833970 1.226283 -0.150051
v -0.810462 1.272749 -0.150051
v -0.787067 1.317353 -0.150051
v -2.302067 1.110353 -0.150051
v -2.302067 0.423353 -0.150051
v -1.837067 0.423353 -0.150051
v -1.839884 0.455541 -0.150051
v -1.842344 0.487603 -0.150051
v -1.844474 0.519540 -0.150051
v -1.846289 0.551353 -0.150051
v -1.847815 0.583040 -0.150051
v -1.849067 0.614601 -0.150051
v -1.850071 0.646040 -0.150051
v -1.850845 0.677353 -0.150051
v -1.851412 0.708540 -0.150051
v -1.851790 0.739603 -0.150051
v -1.852001 0.770539 -0.150051
v -1.852067 0.801353 -0.150051
v -1.852067 1.110353 -0.150051
v -1.619473 0.519962 -0.150051
v -1.617345 0.487810 -0.150051
v -1.614883 0.455596 -0.150051
v -1.612067 0.423353 -0.150051
v -0.877067 0.423353 -0.150051
v -0.877067 0.204352 -0.150051
v -1.582067 0.204352 -0.150051
v -1.559945 0.112164 -0.150051
v -1.532096 0.020339 -0.150051
v -1.497786 -0.070757 -0.150051
v -1.456289 -0.160759 -0.150051
v -1.406876 -0.249303 -0.150051
v -1.348818 -0.336022 -0.150051
v -1.281382 -0.420555 -0.150051
v -1.203845 -0.502537 -0.150051
v -1.115473 -0.581602 -0.150051
v -1.015539 -0.657384 -0.150051
v -0.903312 -0.729521 -0.150051
v -0.778067 -0.797647 -0.150051
v -0.791336 -0.808977 -0.150051
v -0.805470 -0.821787 -0.150051
v -0.820207 -0.835804 -0.150051
v -0.835290 -0.850759 -0.150051
v -0.850454 -0.866381 -0.150051
v -0.865441 -0.882397 -0.150051
v -0.879993 -0.898540 -0.150051
v -0.893845 -0.914536 -0.150051
v -0.906739 -0.930117 -0.150051
v -0.918415 -0.945008 -0.150051
v -0.928612 -0.958943 -0.150051
v -0.937067 -0.971648 -0.150051
v -1.057404 -0.900008 -0.150051
v -1.166761 -0.824786 -0.150051
v -1.265661 -0.746274 -0.150051
v -1.354622 -0.664759 -0.150051
v -1.434168 -0.580536 -0.150051
v -1.504816 -0.493897 -0.150051
v -1.567091 -0.405133 -0.150051
v -1.621512 -0.314536 -0.150051
v -1.668598 -0.222397 -0.150051
v -1.708872 -0.129008 -0.150051
v -1.742855 -0.034661 -0.150051
v -1.771067 0.060352 -0.150051
v -1.816776 -0.055285 -0.150051
v -1.866997 -0.166494 -0.150051
v -1.921863 -0.272975 -0.150051
v -1.981511 -0.374426 -0.150051
v -2.046076 -0.470542 -0.150051
v -2.115691 -0.561023 -0.150051
v -2.190495 -0.645565 -0.150051
v -2.270622 -0.723870 -0.150051
v -2.356208 -0.795631 -0.150051
v -2.447387 -0.860550 -0.150051
v -2.544295 -0.918323 -0.150051
v -2.647067 -0.968647 -0.150051
v -2.656155 -0.951568 -0.150051
v -2.666775 -0.933509 -0.150051
v -2.678708 -0.914742 -0.150051
v -2.691733 -0.895536 -0.150051
v -2.705634 -0.876165 -0.150051
v -2.720192 -0.856897 -0.150051
v -2.735186 -0.838005 -0.150051
v -2.750400 -0.819758 -0.150051
v -2.765613 -0.802429 -0.150051
v -2.780608 -0.786286 -0.150051
v -2.795166 -0.771602 -0.150051
v -2.809067 -0.758649 -0.150051
v -2.706814 -0.716038 -0.150051
v -2.610039 -0.665024 -0.150051
v -2.518724 -0.606069 -0.150051
v -2.432845 -0.539647 -0.150051
v -2.352382 -0.466226 -0.150051
v -2.277315 -0.386272 -0.150051
v -2.207625 -0.300257 -0.150051
v -2.143290 -0.208647 -0.150051
v -2.084284 -0.111914 -0.150051
v -2.030595 -0.010522 -0.150051
v -1.982196 0.095056 -0.150051
v -1.939067 0.204352 -0.150051
v -2.782067 0.204352 -0.150051
v -2.782067 0.423353 -0.150051
v -2.524067 0.423353 -0.150051
v -2.524067 1.323353 -0.150051
v -1.852067 1.323353 -0.150051
v -1.852067 1.800352 -0.150051
v -1.627067 1.800352 -0.150051
v -1.627067 1.323353 -0.150051
v -1.039067 1.323353 -0.150051
v -1.039067 1.110353 -0.150051
v -1.627067 1.110353 -0.150051
v -1.627067 0.801353 -0.150051
v -1.627002 0.771170 -0.150051
v -1.626789 0.740644 -0.150051
v -1.626411 0.709805 -0.150051
v -1.625846 0.678686 -0.150051
v -1.625070 0.647316 -0.150051
v -1.624067 0.615727 -0.150051
v -1.622813 0.583952 -0.150051
v -1.621290 0.552018 -0.150051
v 2.662933 1.239353 -0.150051
v 1.735933 1.239353 -0.150051
v 1.735933 0.825353 -0.150051
v 2.923934 0.825353 -0.150051
v 2.923934 0.615352 -0.150051
v 1.735933 0.615352 -0.150051
v 1.735933 -0.587648 -0.150051
v 1.796303 -0.561246 -0.150051
v 1.854392 -0.531425 -0.150051
v 1.910168 -0.498022 -0.150051
v 1.963599 -0.460870 -0.150051
v 2.014657 -0.419800 -0.150051
v 2.063308 -0.374647 -0.150051
v 2.109521 -0.325246 -0.150051
v 2.153267 -0.271425 -0.150051
v 2.194511 -0.213023 -0.150051
v 2.233224 -0.149870 -0.150051
v 2.269375 -0.081801 -0.150051
v 2.302933 -0.008647 -0.150051
v 2.294121 0.025851 -0.150051
v 2.285683 0.060339 -0.150051
v 2.277621 0.094806 -0.150051
v 2.269933 0.129241 -0.150051
v 2.262620 0.163636 -0.150051
v 2.255683 0.197978 -0.150051
v 2.249120 0.232257 -0.150051
v 2.242933 0.266464 -0.150051
v 2.237120 0.300587 -0.150051
v 2.231683 0.334617 -0.150051
v 2.226621 0.368541 -0.150051
v 2.221933 0.402352 -0.150051
v 2.455933 0.432352 -0.150051
v 2.469316 0.320424 -0.150051
v 2.487252 0.205935 -0.150051
v 2.510167 0.090071 -0.150051
v 2.538489 -0.025981 -0.150051
v 2.572644 -0.141033 -0.150051
v 2.613058 -0.253898 -0.150051
v 2.660160 -0.363387 -0.150051
v 2.714378 -0.468314 -0.150051
v 2.776137 -0.567491 -0.150051
v 2.845864 -0.659731 -0.150051
v 2.923987 -0.743845 -0.150051
v 3.010933 -0.818648 -0.150051
v 2.997660 -0.828300 -0.150051
v 2.983489 -0.839121 -0.150051
v 2.968652 -0.850899 -0.150051
v 2.953377 -0.863426 -0.150051
v 2.937895 -0.876494 -0.150051
v 2.922433 -0.889897 -0.150051
v 2.907222 -0.903425 -0.150051
v 2.892489 -0.916870 -0.150051
v 2.878465 -0.930022 -0.150051
v 2.865379 -0.942675 -0.150051
v 2.853458 -0.954619 -0.150051
v 2.842933 -0.965648 -0.150051
v 2.791107 -0.922053 -0.150051
v 2.742073 -0.875398 -0.150051
v 2.695746 -0.825867 -0.150051
v 2.652044 -0.773648 -0.150051
v 2.610885 -0.718928 -0.150051
v 2.572183 -0.661899 -0.150051
v 2.535856 -0.602742 -0.150051
v 2.501822 -0.541647 -0.150051
v 2.469996 -0.478804 -0.150051
v 2.440295 -0.414398 -0.150051
v 2.412634 -0.348617 -0.150051
v 2.386933 -0.281648 -0.150051
v 2.308015 -0.404507 -0.150051
v 2.221336 -0.511273 -0.150051
v 2.127012 -0.602977 -0.150051
v 2.025155 -0.680648 -0.150051
v 1.915882 -0.745320 -0.150051
v 1.799308 -0.798022 -0.150051
v 1.675546 -0.839789 -0.150051
v 1.544712 -0.871647 -0.150051
v 1.406917 -0.894633 -0.150051
v 1.262280 -0.909774 -0.150051
v 1.110914 -0.918100 -0.150051
v 0.952933 -0.920648 -0.150051
v 0.304933 -0.920648 -0.150051
v 0.301390 -0.904136 -0.150051
v 0.296835 -0.886300 -0.150051
v 0.291386 -0.867444 -0.150051
v 0.285156 -0.847870 -0.150051
v 0.278257 -0.827878 -0.150051
v 0.270808 -0.807773 -0.150051
v 0.262921 -0.787854 -0.150051
v 0.254711 -0.768425 -0.150051
v 0.246293 -0.749788 -0.150051
v 0.237781 -0.732245 -0.150051
v 0.229289 -0.716097 -0.150051
v 0.220932 -0.701648 -0.150051
v 0.260998 -0.702336 -0.150051
v 0.313448 -0.702911 -0.150051
v 0.375668 -0.703382 -0.150051
v 0.445045 -0.703758 -0.150051
v 0.518963 -0.704052 -0.150051
v 0.594808 -0.704272 -0.150051
v 0.669966 -0.704432 -0.150051
v 0.741822 -0.704536 -0.150051
v 0.807761 -0.704600 -0.150051
v 0.865170 -0.704634 -0.150051
v 0.911432 -0.704646 -0.150051
v 0.943933 -0.704648 -0.150051
v 0.993930 -0.704391 -0.150051
v 1.043406 -0.703592 -0.150051
v 1.092339 -0.702210 -0.150051
v 1.140711 -0.700204 -0.150051
v 1.188499 -0.697530 -0.150051
v 1.235683 -0.694147 -0.150051
v 1.282243 -0.690016 -0.150051
v 1.328156 -0.685093 -0.150051
v 1.373402 -0.679335 -0.150051
v 1.417961 -0.672703 -0.150051
v 1.461811 -0.665154 -0.150051
v 1.504933 -0.656648 -0.150051
v 1.504934 -0.065647 -0.150051
v 0.499934 -0.065647 -0.150051
v 0.499933 0.138352 -0.150051
v 1.504933 0.138352 -0.150051
v 1.504933 0.615352 -0.150051
v 0.304933 0.615352 -0.150051
v 0.304933 0.825353 -0.150051
v 1.504933 0.825353 -0.150051
v 1.504934 1.239353 -0.150051
v 0.523933 1.239353 -0.150051
v 0.523933 1.449352 -0.150051
v 1.504934 1.449352 -0.150051
v 1.504934 1.797353 -0.150051
v 1.735933 1.797352 -0.150051
v 1.735933 1.449352 -0.150051
v 2.662934 1.449352 -0.150051
v -0.397066 -0.956649 0.149948
v -0.622067 -0.956649 0.149948
v -0.622067 1.800352 0.149948
v -0.397066 1.800352 0.149948
v -0.121133 1.158917 0.149948
v -0.113846 1.093616 0.149948
v -0.105223 1.026212 0.149948
v -0.095289 0.957463 0.149948
v -0.084064 0.888132 0.149948
v -0.071567 0.818977 0.149948
v -0.057820 0.750760 0.149948
v -0.042844 0.684241 0.149948
v -0.026660 0.620181 0.149948
v -0.009290 0.559339 0.149948
v 0.009248 0.502476 0.149948
v 0.028934 0.450353 0.149948
v -0.148067 0.387353 0.149948
v -0.167748 0.444654 0.149948
v -0.186261 0.506519 0.149948
v -0.203567 0.572134 0.149948
v -0.219623 0.640685 0.149948
v -0.234387 0.711362 0.149948
v -0.247817 0.783353 0.149948
v -0.259873 0.855843 0.149948
v -0.270511 0.928020 0.149948
v -0.279692 0.999071 0.149948
v -0.287373 1.068185 0.149948
v -0.293512 1.134550 0.149948
v -0.298067 1.197353 0.149948
v -0.127067 1.221353 0.149948
v -0.628067 1.248353 0.149948
v -0.650653 1.202251 0.149948
v -0.673261 1.154298 0.149948
v -0.695660 1.105008 0.149948
v -0.717623 1.054908 0.149948
v -0.738918 1.004516 0.149948
v -0.759318 0.954352 0.149948
v -0.778591 0.904940 0.149948
v -0.796511 0.856797 0.149948
v -0.812849 0.810447 0.149948
v -0.827373 0.766408 0.149948
v -0.839855 0.725204 0.149948
v -0.850067 0.687353 0.149948
v -1.018067 0.771352 0.149948
v -1.007735 0.808393 0.149948
v -0.994913 0.848673 0.149948
v -0.979864 0.891681 0.149948
v -0.962845 0.936909 0.149948
v -0.944116 0.983844 0.149948
v -0.923941 1.031977 0.149948
v -0.902579 1.080799 0.149948
v -0.880289 1.129797 0.149948
v -0.857333 1.178462 0.149948
v -0.833970 1.226283 0.149948
v -0.810462 1.272749 0.149948
v -0.787067 1.317353 0.149948
v -2.302067 1.110353 0.149948
v -2.302067 0.423353 0.149948
v -1.837067 0.423353 0.149948
v -1.839884 0.455541 0.149948
v -1.842344 0.487603 0.149948
v -1.844474 0.519540 0.149948
v -1.846289 0.551353 0.149948
v -1.847815 0.583040 0.149948
v -1.849067 0.614601 0.149948
v -1.850071 0.646040 0.149948
v -1.850845 0.677353 0.149948
v -1.851412 0.708540 0.149948
v -1.851790 0.739603 0.149948
v -1.852001 0.770539 0.149948
v -1.852067 0.801353 0.149948
v -1.852067 1.110353 0.149948
v -1.619473 0.519962 0.149948
v -1.617345 0.487810 0.149948
v -1.614883 0.455596 0.149948
v -1.612067 0.423353 0.149948
v -0.877067 0.423353 0.149948
v -0.877067 0.204352 0.149948
v -1.582067 0.204352 0.149948
v -1.559945 0.112164 0.149948
v -1.532096 0.020339 0.149948
v -1.497786 -0.070757 0.149948
v -1.456289 -0.160759 0.149948
v -1.406876 -0.249303 0.149948
v -1.348818 -0.336022 0.149948
v -1.281382 -0.420555 0.149948
v -1.203845 -0.502537 0.149948
v -1.115473 -0.581602 0.149948
v -1.015539 -0.657384 0.149948
v -0.903312 -0.729521 0.149948
v -0.778067 -0.797647 0.149948
v -0.791336 -0.808977 0.149948
v -0.805470 -0.821787 0.149948
v -0.820207 -0.835804 0.149948
v -0.835290 -0.850759 0.149948
v -0.850454 -0.866381 0.149948
v -0.865441 -0.882397 0.149948
v -0.879993 -0.898540 0.149948
v -0.893845 -0.914536 0.149948
v -0.906739 -0.930117 0.149948
v -0.918415 -0.945008 0.149948
v -0.928612 -0.958943 0.149948
v -0.937067 -0.971648 0.149948
v -1.057404 -0.900008 0.149948
v -1.166761 -0.824786 0.149948
v -1.265661 -0.746274 0.149948
v -1.354622 -0.664759 0.149948
v -1.434168 -0.580536 0.149948
v -1.504816 -0.493897 0.149948
v -1.567091 -0.405133 0.149948
v -1.621512 -0.314536 0.149948
v -1.668598 -0.222397 0.149948
v -1.708872 -0.129008 0.149948
v -1.742855 -0.034661 0.149948
v -1.771067 0.060352 0.149948
v -1.816776 -0.055285 0.149948
v -1.866997 -0.166494 0.149948
v -1.921863 -0.272975 0.149948
v -1.981511 -0.374426 0.149948
v -2.046076 -0.470542 0.149948
v -2.115691 -0.561023 0.149948
v -2.190495 -0.645565 0.149948
v -2.270622 -0.723870 0.149948
v -2.356208 -0.795631 0.149948
v -2.447387 -0.860550 0.149948
v -2.544295 -0.918323 0.149948
v -2.647067 -0.968647 0.149948
v -2.656155 -0.951568 0.149948
v -2.666775 -0.933509 0.149948
v -2.678708 -0.914742 0.149948
v -2.691733 -0.895536 0.149948
v -2.705634 -0.876165 0.149948
v -2.720192 -0.856897 0.149948
v -2.735186 -0.838005 0.149948
v -2.750400 -0.819758 0.149948
v -2.765613 -0.802429 0.149948
v -2.780608 -0.786286 0.149948
v -2.795166 -0.771602 0.149948
v -2.809067 -0.758649 0.149948
v -2.706814 -0.716038 0.149948
v -2.610039 -0.665024 0.149948
v -2.518724 -0.606069 0.149948
v -2.432845 -0.539647 0.149948
v -2.352382 -0.466226 0.149948
v -2.277315 -0.386272 0.149948
v -2.207625 -0.300257 0.149948
v -2.143290 -0.208647 0.149948
v -2.084284 -0.111914 0.149948
v -2.030595 -0.010522 0.149948
v -1.982196 0.095056 0.149948
v -1.939067 0.204352 0.149948
v -2.782067 0.204352 0.149948
v -2.782067 0.423353 0.149948
v -2.524067 0.423353 0.149948
v -2.524067 1.323353 0.149948
v -1.852067 1.323353 0.149948
v -1.852067 1.800352 0.149948
v -1.627067 1.800352 0.149948
v -1.627067 1.323353 0.149948
v -1.039067 1.323353 0.149948
v -1.039067 1.110353 0.149948
v -1.627067 1.110353 0.149948
v -1.627067 0.801353 0.149948
v -1.627002 0.771170 0.149948
v -1.626789 0.740644 0.149948
v -1.626411 0.709805 0.149948
v -1.625846 0.678686 0.149948
v -1.625070 0.647316 0.149948
v -1.624067 0.615727 0.149948
v -1.622813 0.583952 0.149948
v -1.621290 0.552018 0.149948
v 2.662933 1.239353 0.149948
v 1.735933 1.239353 0.149948
v 1.735933 0.825353 0.149948
v 2.923934 0.825353 0.149948
v 2.923934 0.615352 0.149948
v 1.735933 0.615352 0.149948
v 1.735933 -0.587648 0.149948
v 1.796303 -0.561246 0.149948
v 1.854392 -0.531425 0.149948
v 1.910168 -0.498022 0.149948
v 1.963599 -0.460870 0.149948
v 2.014657 -0.419800 0.149948
v 2.063308 -0.374647 0.149948
v 2.109521 -0.325246 0.149948
v 2.153267 -0.271425 0.149948
v 2.194511 -0.213023 0.149948
v 2.233224 -0.149870 0.149948
v 2.269375 -0.081801 0.149948
v 2.302933 -0.008647 0.149948
v 2.294121 0.025851 0.149948
v 2.285683 0.060339 0.149948
v 2.277621 0.094806 0.149948
v 2.269933 0.129241 0.149948
v 2.262620 0.163636 0.149948
v 2.255683 0.197978 0.149948
v 2.249120 0.232257 0.149948
v 2.242933 0.266464 0.149948
v 2.237120 0.300587 0.149948
v 2.231683 0.334617 0.149948
v 2.226621 0.368541 0.149948
v 2.221933 0.402352 0.149948
v 2.455933 0.432352 0.149948
v 2.469316 0.320424 0.149948
v 2.487252 0.205935 0.149948
v 2.510167 0.090071 0.149948
v 2.538489 -0.025981 0.149948
v 2.572644 -0.141033 0.149948
v 2.613058 -0.253898 0.149948
v 2.660160 -0.363387 0.149948
v 2.714378 -0.468314 0.149948
v 2.776137 -0.567491 0.149948
v 2.845864 -0.659731 0.149948
v 2.923987 -0.743845 0.149948
v 3.010933 -0.818648 0.149948
v 2.997660 -0.828300 0.149948
v 2.983489 -0.839121 0.149948
v 2.968652 -0.850899 0.149948
v 2.953377 -0.863426 0.149948
v 2.937895 -0.876494 0.149948
v 2.922433 -0.889897 0.149948
v 2.907222 -0.903425 0.149948
v 2.892489 -0.916870 0.149948
v 2.878465 -0.930022 0.149948
v 2.865379 -0.942675 0.149948
v 2.853458 -0.954619 0.149948
v 2.842933 -0.965648 0.149948
v 2.791107 -0.922053 0.149948
v 2.742073 -0.875398 0.149948
v 2.695746 -0.825867 0.149948
v 2.652044 -0.773648 0.149948
v 2.610885 -0.718928 0.149948
v 2.572183 -0.661899 0.149948
v 2.535856 -0.602742 0.149948
v 2.501822 -0.541647 0.149948
v 2.469996 -0.478804 0.149948
v 2.440295 -0.414398 0.149948
v 2.412634 -0.348617 0.149948
v 2.386933 -0.281648 0.149948
v 2.308015 -0.404507 0.149948
v 2.221336 -0.511273 0.149948
v 2.127012 -0.602977 0.149948
v 2.025155 -0.680648 0.149948
v 1.915882 -0.745320 0.149948
v 1.799308 -0.798022 0.149948
v 1.675546 -0.839789 0.149948
v 1.544712 -0.871647 0.149948
v 1.406917 -0.894633 0.149948
v 1.262280 -0.909774 0.149948
v 1.110914 -0.918100 0.149948
v 0.952933 -0.920648 0.149948
v 0.304933 -0.920648 0.149948
v 0.301390 -0.904136 0.149948
v 0.296835 -0.886300 0.149948
v 0.291386 -0.867444 0.149948
v 0.285156 -0.847870 0.149948
v 0.278257 -0.827878 0.149948
v 0.270808 -0.807773 0.149948
v 0.262921 -0.787854 0.149948
v 0.254711 -0.768425 0.149948
v 0.246293 -0.749788 0.149948
v 0.237781 -0.732245 0.149948
v 0.229289 -0.716097 0.149948
v 0.220932 -0.701648 0.149948
v 0.260998 -0.702336 0.149948
v 0.313448 -0.702911 0.149948
v 0.375668 -0.703382 0.149948
v 0.445045 -0.703758 0.149948
v 0.518963 -0.704052 0.149948
v 0.594808 -0.704272 0.149948
v 0.669966 -0.704432 0.149948
v 0.741822 -0.704536 0.149948
v 0.807761 -0.704600 0.149948
v 0.865170 -0.704634 0.149948
v 0.911432 -0.704646 0.149948
v 0.943933 -0.704648 0.149948
v 0.993930 -0.704391 0.149948
v 1.043406 -0.703592 0.149948
v 1.092339 -0.702210 0.149948
v 1.140711 -0.700204 0.149948
v 1.188499 -0.697530 0.149948
v 1.235683 -0.694147 0.149948
v 1.282243 -0.690016 0.149948
v 1.328156 -0.685093 0.149948
v 1.373402 -0.679335 0.149948
v 1.417961 -0.672703 0.149948
v 1.461811 -0.665154 0.149948
v 1.504933 -0.656648 0.149948
v 1.504934 -0.065647 0.149948
v 0.499934 -0.065647 0.149948
v 0.499933 0.138352 0.149948
v 1.504933 0.138352 0.149948
v 1.504933 0.615352 0.149948
v 0.304933 0.615352 0.149948
v 0.304933 0.825353 0.149948
v 1.504933 0.825353 0.149948
v 1.504934 1.239353 0.149948
v 0.523933 1.239353 0.149948
v 0.523933 1.449352 0.149948
v 1.504934 1.449352 0.149948
v 1.504934 1.797353 0.149948
v 1.735933 1.797352 0.149948
v 1.735933 1.449352 0.149948
v 2.662934 1.449352 0.149948
vn -0.0000 -0.0000 -1.0000
vn -0.0000 0.0001 -1.0000
vn -0.0000 -0.0000 1.0000
vn 0.6218 -0.7832 -0.0000
vn -0.9408 -0.3389 -0.0000
vn 0.9841 0.1778 -0.0000
vn 0.6341 -0.7732 -0.0000
vn -0.9586 -0.2846 -0.0000
vn 0.9803 0.1975 -0.0000
vn 0.6450 -0.7642 -0.0000
vn 0.9300 -0.3676 -0.0000
vn 0.9756 0.2196 -0.0000
vn 0.6550 -0.7556 -0.0000
vn 0.9114 -0.4116 -0.0000
vn 0.9695 0.2449 -0.0000
vn 0.6646 -0.7472 -0.0000
vn 0.8889 -0.4580 -0.0000
vn 0.9616 0.2745 -0.0000
vn 0.6741 -0.7386 -0.0000
vn 0.8620 -0.5068 -0.0000
vn 0.9508 0.3099 -0.0000
vn 0.6841 -0.7294 -0.0000
vn 0.8301 -0.5576 -0.0000
vn 0.9355 0.3533 -0.0000
vn 0.6950 -0.7190 -0.0000
vn 0.7926 -0.6098 -0.0000
vn 0.3353 -0.9421 -0.0000
vn 0.7078 -0.7064 -0.0000
vn 0.7489 -0.6626 -0.0000
vn -0.9458 -0.3248 -0.0000
vn 0.7235 -0.6903 -0.0000
vn 0.6989 -0.7152 -0.0000
vn -0.9580 -0.2867 -0.0000
vn -0.6437 -0.7653 -0.0000
vn 0.6425 -0.7663 -0.0000
vn -0.9669 -0.2550 -0.0000
vn -0.6893 -0.7245 -0.0000
vn 0.5800 -0.8146 -0.0000
vn -0.9736 -0.2280 -0.0000
vn -0.7303 -0.6831 -0.0000
vn 0.5121 -0.8589 -0.0000
vn -0.9789 -0.2045 -0.0000
vn -0.7669 -0.6418 -0.0000
vn 0.4398 -0.8981 -0.0000
vn -0.9830 -0.1834 -0.0000
vn -0.7992 -0.6011 -0.0000
vn -0.8828 -0.4697 -0.0000
vn -0.9865 -0.1641 -0.0000
vn -0.8275 -0.5615 -0.0000
vn -0.8620 -0.5070 -0.0000
vn -0.9893 -0.1458 -0.0000
vn -0.8522 -0.5233 -0.0000
vn -0.8439 -0.5365 -0.0000
vn -0.9918 -0.1281 -0.0000
vn -0.8736 -0.4867 -0.0000
vn -0.8276 -0.5613 -0.0000
vn -0.9939 -0.1104 -0.0000
vn -0.8921 -0.4518 -0.0000
vn -0.8124 -0.5830 -0.0000
vn -0.9957 -0.0921 -0.0000
vn -0.9081 -0.4188 -0.0000
vn -0.7979 -0.6028 -0.0000
vn -0.9974 -0.0723 -0.0000
vn -0.9218 -0.3876 -0.0000
vn -0.7833 -0.6217 -0.0000
vn -0.1390 0.9903 -0.0000
vn -0.9336 -0.3583 -0.0000
vn -0.7680 -0.6404 -0.0000
vn 0.9955 0.0946 -0.0000
vn 0.8414 -0.5405 -0.0000
vn -0.7515 -0.6597 -0.0000
vn 0.8980 -0.4400 -0.0000
vn 0.7764 -0.6303 -0.0000
vn -0.7327 -0.6806 -0.0000
vn 0.9045 -0.4264 -0.0000
vn 0.6971 -0.7170 -0.0000
vn -0.7102 -0.7040 -0.0000
vn 0.9104 -0.4137 -0.0000
vn 0.6064 -0.7952 -0.0000
vn -0.6817 -0.7316 -0.0000
vn 0.9159 -0.4015 -0.0000
vn 0.5093 -0.8606 -0.0000
vn -0.3847 0.9231 -0.0000
vn 0.9211 -0.3893 -0.0000
vn 0.4120 -0.9112 -0.0000
vn -0.4663 0.8846 -0.0000
vn 0.9263 -0.3767 -0.0000
vn 0.3198 -0.9475 -0.0000
vn -0.5424 0.8401 -0.0000
vn 0.9316 -0.3634 -0.0000
vn 0.2366 -0.9716 -0.0000
vn -0.6118 0.7910 -0.0000
vn 0.9372 -0.3488 -0.0000
vn 0.1645 -0.9864 -0.0000
vn -0.6740 0.7387 -0.0000
vn 0.9431 -0.3324 -0.0000
vn 0.1041 -0.9946 -0.0000
vn -0.7290 0.6845 -0.0000
vn 0.9497 -0.3132 -0.0000
vn 0.0549 -0.9985 -0.0000
vn -0.7770 0.6295 -0.0000
vn 0.9570 -0.2899 -0.0000
vn 0.0161 -0.9999 -0.0000
vn -0.8184 0.5747 -0.0000
vn 0.9655 -0.2605 -0.0000
vn -0.0000 -1.0000 -0.0000
vn -0.8537 0.5207 -0.0000
vn -0.4472 -0.8944 -0.0000
vn -0.9777 -0.2098 -0.0000
vn -0.8838 0.4680 -0.0000
vn -0.9632 0.2687 -0.0000
vn -0.9689 -0.2474 -0.0000
vn -0.9090 0.4167 -0.0000
vn -0.9529 0.3033 -0.0000
vn -0.9607 -0.2777 -0.0000
vn -0.9302 0.3671 -0.0000
vn -0.9439 0.3303 -0.0000
vn -0.9529 -0.3033 -0.0000
vn -0.9359 0.3522 -0.0000
vn -0.9453 -0.3262 -0.0000
vn -1.0000 -0.0000 -0.0000
vn -0.9288 0.3706 -0.0000
vn -0.9377 -0.3474 -0.0000
vn -0.0000 1.0000 -0.0000
vn -0.9223 0.3866 -0.0000
vn -0.9298 -0.3681 -0.0000
vn -0.9162 0.4008 -0.0000
vn -0.9211 -0.3892 -0.0000
vn -0.9102 0.4141 -0.0000
vn -0.9113 -0.4117 -0.0000
vn -0.9044 0.4266 -0.0000
vn -0.8997 -0.4365 -0.0000
vn -0.8985 0.4390 -0.0000
vn -0.8851 -0.4654 -0.0000
vn 1.0000 -0.0000 -0.0000
vn -0.8923 0.4514 -0.0000
vn -0.8657 -0.5006 -0.0000
vn -0.8856 0.4645 -0.0000
vn 0.0172 0.9999 -0.0000
vn 0.3981 0.9173 -0.0000
vn 0.0110 0.9999 -0.0000
vn 0.0076 1.0000 -0.0000
vn 0.0054 1.0000 -0.0000
vn 1.0000 0.0022 -0.0000
vn -0.9962 -0.0872 -0.0000
vn 0.0040 1.0000 -0.0000
vn 1.0000 0.0070 -0.0000
vn -0.9971 -0.0765 -0.0000
vn 0.0029 1.0000 -0.0000
vn 0.9999 0.0122 -0.0000
vn -0.9978 -0.0665 -0.0000
vn 0.0021 1.0000 -0.0000
vn 0.9998 0.0182 -0.0000
vn -0.9984 -0.0570 -0.0000
vn 0.0015 1.0000 -0.0000
vn 0.9997 0.0247 -0.0000
vn -0.9988 -0.0481 -0.0000
vn 0.0010 1.0000 -0.0000
vn 0.9995 0.0317 -0.0000
vn -0.9992 -0.0396 -0.0000
vn 0.0006 1.0000 -0.0000
vn 0.9992 0.0394 -0.0000
vn -0.9995 -0.0319 -0.0000
vn 0.0002 1.0000 -0.0000
vn 0.9989 0.0477 -0.0000
vn -0.9997 -0.0247 -0.0000
vn 0.9984 0.0566 -0.0000
vn -0.9998 -0.0182 -0.0000
vn -0.0052 1.0000 -0.0000
vn -0.9999 -0.0122 -0.0000
vn -0.0162 0.9999 -0.0000
vn -1.0000 -0.0068 -0.0000
vn -0.0282 0.9996 -0.0000
vn -1.0000 -0.0021 -0.0000
vn -0.0414 0.9991 -0.0000
vn -0.0559 0.9984 -0.0000
vn -0.0715 0.9974 -0.0000
vn 0.9978 0.0660 -0.0000
vn -0.0884 0.9961 -0.0000
vn -0.4007 0.9162 -0.0000
vn 0.9971 0.0762 -0.0000
vn -0.1066 0.9943 -0.0000
vn -0.4567 0.8896 -0.0000
vn 0.9962 0.0870 -0.0000
vn -0.1263 0.9920 -0.0000
vn -0.5138 0.8579 -0.0000
vn -0.1472 0.9891 -0.0000
vn -0.5709 0.8210 -0.0000
vn -0.1697 0.9855 -0.0000
vn -0.6268 0.7792 -0.0000
vn -0.1935 0.9811 -0.0000
vn -0.6803 0.7330 -0.0000
vn 0.9724 0.2333 -0.0000
vn -0.7303 0.6831 -0.0000
vn 0.9570 0.2902 -0.0000
vn -0.7760 0.6307 -0.0000
vn 0.9358 0.3524 -0.0000
vn -0.8168 0.5769 -0.0000
vn 0.9081 0.4187 -0.0000
vn -0.8526 0.5226 -0.0000
vn 0.8732 0.4873 -0.0000
vn -0.8832 0.4690 -0.0000
vn 0.8310 0.5563 -0.0000
vn -0.9089 0.4169 -0.0000
vn 0.7817 0.6236 -0.0000
vn -0.9689 -0.2475 -0.0000
vn 0.7265 0.6871 -0.0000
vn -0.9713 -0.2377 -0.0000
vn 0.6668 0.7453 -0.0000
vn -0.9737 -0.2278 -0.0000
vn 0.6042 0.7968 -0.0000
vn -0.9760 -0.2179 -0.0000
vn 0.5407 0.8412 -0.0000
vn -0.9781 -0.2079 -0.0000
vn 0.4778 0.8784 -0.0000
vn -0.9802 -0.1980 -0.0000
vn 0.6494 -0.7605 -0.0000
vn -0.9822 -0.1880 -0.0000
vn 0.6715 -0.7410 -0.0000
vn -0.9840 -0.1780 -0.0000
vn 0.6892 -0.7246 -0.0000
vn -0.9858 -0.1679 -0.0000
vn 0.7041 -0.7101 -0.0000
vn -0.9875 -0.1578 -0.0000
vn 0.7176 -0.6965 -0.0000
vn -0.9890 -0.1476 -0.0000
vn 0.7302 -0.6832 -0.0000
vn -0.9905 -0.1373 -0.0000
vn 0.7428 -0.6695 -0.0000
vn -0.1272 0.9919 -0.0000
vn 0.7560 -0.6546 -0.0000
vn 0.9929 0.1187 -0.0000
vn 0.7704 -0.6375 -0.0000
vn 0.9879 0.1548 -0.0000
vn 0.7870 -0.6170 -0.0000
vn 0.9810 0.1940 -0.0000
vn 0.8070 -0.5905 -0.0000
vn 0.9715 0.2371 -0.0000
vn 0.8325 -0.5540 -0.0000
vn 0.9587 0.2846 -0.0000
vn -0.5115 -0.8593 -0.0000
vn 0.9415 0.3371 -0.0000
vn -0.5667 -0.8239 -0.0000
vn 0.9186 0.3952 -0.0000
vn -0.6218 -0.7832 -0.0000
vn 0.8884 0.4590 -0.0000
vn -0.6756 -0.7373 -0.0000
vn 0.8489 0.5286 -0.0000
vn -0.7270 -0.6866 -0.0000
vn 0.7977 0.6030 -0.0000
vn -0.7750 -0.6320 -0.0000
vn 0.7327 0.6805 -0.0000
vn -0.8186 -0.5743 -0.0000
vn 0.9938 0.1109 -0.0000
vn 0.6522 0.7581 -0.0000
vn -0.8572 -0.5149 -0.0000
vn 0.9919 0.1269 -0.0000
vn 0.5882 -0.8087 -0.0000
vn -0.8905 -0.4551 -0.0000
vn 0.9897 0.1430 -0.0000
vn 0.6068 -0.7948 -0.0000
vn -0.9183 -0.3960 -0.0000
vn 0.9871 0.1598 -0.0000
vn -0.0000 -0.0001 -1.0000
vn -0.0000 0.0004 -1.0000
vn -0.0000 0.0002 -1.0000
vn -0.0000 -0.0006 -1.0000
vn -0.0000 -0.0002 -1.0000
vn -0.0000 0.0003 -1.0000
vn -0.0000 -0.0004 -1.0000
vn -0.0000 -0.0003 1.0000
vn -0.0000 0.0001 1.0000
vn -0.0000 0.0003 1.0000
vn -0.0000 -0.0001 1.0000
vn 0.6342 -0.7732 -0.0000
vn 0.6645 -0.7473 -0.0000
vn 0.9507 0.3100 -0.0000
vn 0.6840 -0.7295 -0.0000
vn 0.6951 -0.7189 -0.0000
vn 0.7489 -0.6627 -0.0000
vn 0.7234 -0.6904 -0.0000
vn -0.9737 -0.2280 -0.0000
vn 0.5120 -0.8590 -0.0000
vn -0.8620 -0.5069 -0.0000
vn -0.8439 -0.5366 -0.0000
vn -0.9918 -0.1282 -0.0000
vn -0.8125 -0.5830 -0.0000
vn -0.7681 -0.6403 -0.0000
vn -0.7326 -0.6806 -0.0000
vn -0.3846 0.9231 -0.0000
vn 0.4119 -0.9112 -0.0000
vn -0.8537 0.5208 -0.0000
vn -0.8837 0.4680 -0.0000
vn -0.9607 -0.2776 -0.0000
vn -0.9161 0.4009 -0.0000
vn -0.9211 -0.3893 -0.0000
vn -0.8997 -0.4366 -0.0000
vn -0.8656 -0.5007 -0.0000
vn 0.0009 1.0000 -0.0000
vn 0.0003 1.0000 -0.0000
vn -0.0051 1.0000 -0.0000
vn -0.0161 0.9999 -0.0000
vn -0.0415 0.9991 -0.0000
vn -0.1262 0.9920 -0.0000
vn -0.1696 0.9855 -0.0000
vn 0.9358 0.3525 -0.0000
vn -0.8832 0.4691 -0.0000
vn -0.9714 -0.2376 -0.0000
vn -0.9781 -0.2080 -0.0000
vn 0.4778 0.8785 -0.0000
vn 0.6716 -0.7409 -0.0000
vn 0.7175 -0.6965 -0.0000
vn -0.9891 -0.1476 -0.0000
vn 0.7301 -0.6833 -0.0000
vn 0.7428 -0.6696 -0.0000
vn 0.7559 -0.6546 -0.0000
vn 0.7704 -0.6376 -0.0000
vn 0.7869 -0.6170 -0.0000
vn 0.9586 0.2846 -0.0000
vn -0.6217 -0.7832 -0.0000
vn 0.8884 0.4591 -0.0000
vn 0.5881 -0.8088 -0.0000
vn 0.6069 -0.7948 -0.0000
vn -0.9182 -0.3960 -0.0000
vt 0.452067 0.815728
vt 0.457793 0.817337
vt 0.447431 0.821381
vt 0.536765 0.852978
vt 0.533615 0.852446
vt 0.538383 0.848354
vt 0.540230 0.830242
vt 0.520917 0.830242
vt 0.540230 0.824617
vt 0.583355 0.860992
vt 0.411042 0.855367
vt 0.583355 0.855367
vt 0.453230 0.930592
vt 0.461466 0.926750
vt 0.465720 0.927653
vt 0.526341 0.868817
vt 0.522019 0.869130
vt 0.524323 0.864422
vt 0.455252 0.835747
vt 0.460786 0.834512
vt 0.451174 0.830381
vt 0.529390 0.846848
vt 0.524383 0.851006
vt 0.527392 0.851454
vt 0.507273 0.824724
vt 0.507330 0.830349
vt 0.509316 0.830317
vt 0.453869 0.924751
vt 0.450505 0.923657
vt 0.445551 0.928619
vt 0.418388 0.945506
vt 0.417652 0.945135
vt 0.462770 0.828197
vt 0.468667 0.827348
vt 0.416869 0.944753
vt 0.474605 0.826642
vt 0.517755 0.869473
vt 0.416052 0.944366
vt 0.467378 0.825500
vt 0.513598 0.869848
vt 0.415214 0.943980
vt 0.460427 0.824244
vt 0.509594 0.870252
vt 0.414369 0.943600
vt 0.453772 0.822872
vt 0.505792 0.870687
vt 0.413529 0.943231
vt 0.502238 0.871150
vt 0.412707 0.942881
vt 0.441424 0.819767
vt 0.498980 0.871642
vt 0.411916 0.942553
vt 0.435769 0.818027
vt 0.495042 0.867217
vt 0.411169 0.942255
vt 0.430485 0.816157
vt 0.498624 0.866725
vt 0.410480 0.941992
vt 0.425591 0.814153
vt 0.502490 0.866262
vt 0.413205 0.940697
vt 0.421106 0.812014
vt 0.506591 0.865830
vt 0.416121 0.939471
vt 0.417049 0.809734
vt 0.510876 0.865428
vt 0.419216 0.938313
vt 0.413438 0.807312
vt 0.515293 0.865059
vt 0.422480 0.937220
vt 0.410293 0.804742
vt 0.519792 0.864724
vt 0.425900 0.936191
vt 0.411360 0.804515
vt 0.429464 0.935224
vt 0.412489 0.804250
vt 0.528834 0.864156
vt 0.433162 0.934315
vt 0.413662 0.803951
vt 0.533275 0.863927
vt 0.436980 0.933465
vt 0.414862 0.803626
vt 0.537594 0.863735
vt 0.440908 0.932669
vt 0.416073 0.803278
vt 0.541742 0.863581
vt 0.444933 0.931926
vt 0.417277 0.802914
vt 0.545668 0.863467
vt 0.449044 0.931235
vt 0.418458 0.802539
vt 0.547167 0.867742
vt 0.419598 0.802159
vt 0.543265 0.867891
vt 0.420681 0.801779
vt 0.548855 0.855217
vt 0.545974 0.854653
vt 0.438878 0.926452
vt 0.421690 0.801404
vt 0.542977 0.854087
vt 0.433147 0.924094
vt 0.422608 0.801040
vt 0.539896 0.853527
vt 0.428292 0.921548
vt 0.423417 0.800692
vt 0.424250 0.918816
vt 0.426081 0.803249
vt 0.420957 0.915902
vt 0.429269 0.805668
vt 0.530480 0.851936
vt 0.418346 0.912808
vt 0.432954 0.807951
vt 0.416355 0.909537
vt 0.437105 0.810098
vt 0.414918 0.906092
vt 0.441694 0.812109
vt 0.521486 0.850598
vt 0.413972 0.902476
vt 0.446691 0.813986
vt 0.518733 0.850235
vt 0.413452 0.898692
vt 0.516158 0.849923
vt 0.413292 0.894742
vt 0.513793 0.849667
vt 0.413292 0.878542
vt 0.463838 0.818812
vt 0.519042 0.845467
vt 0.414324 0.878454
vt 0.470175 0.820154
vt 0.521357 0.845726
vt 0.415439 0.878340
vt 0.476774 0.821364
vt 0.523875 0.846046
vt 0.416618 0.878204
vt 0.483605 0.822442
vt 0.526563 0.846422
vt 0.417841 0.878048
vt 0.483605 0.801367
vt 0.419091 0.877875
vt 0.497293 0.801367
vt 0.532323 0.847316
vt 0.420347 0.877689
vt 0.497292 0.807817
vt 0.535331 0.847820
vt 0.421592 0.877492
vt 0.553542 0.807817
vt 0.422806 0.877287
vt 0.553542 0.824617
vt 0.541445 0.848912
vt 0.423971 0.877076
vt 0.583355 0.824617
vt 0.544487 0.849486
vt 0.425068 0.876863
vt 0.583355 0.830242
vt 0.547476 0.850070
vt 0.426077 0.876651
vt 0.553542 0.830242
vt 0.550380 0.850657
vt 0.426980 0.876442
vt 0.553542 0.844942
vt 0.553168 0.851242
vt 0.426937 0.877444
vt 0.540230 0.844942
vt 0.426901 0.878755
vt 0.540230 0.813367
vt 0.497293 0.813367
vt 0.426872 0.880311
vt 0.497293 0.824992
vt 0.426848 0.882045
vt 0.519031 0.830244
vt 0.499304 0.824922
vt 0.426830 0.883893
vt 0.517123 0.830249
vt 0.501308 0.824860
vt 0.426816 0.885789
vt 0.515196 0.830259
vt 0.503304 0.824807
vt 0.426806 0.887668
vt 0.513251 0.830273
vt 0.505292 0.824762
vt 0.426799 0.889465
vt 0.511290 0.830292
vt 0.426795 0.891113
vt 0.509246 0.824692
vt 0.426793 0.892548
vt 0.511210 0.824667
vt 0.426793 0.893705
vt 0.505334 0.830387
vt 0.513168 0.824648
vt 0.426792 0.894517
vt 0.503331 0.830432
vt 0.515117 0.824634
vt 0.426809 0.895767
vt 0.548293 0.937492
vt 0.548293 0.914317
vt 0.517058 0.824624
vt 0.426858 0.897004
vt 0.522417 0.914317
vt 0.518992 0.824619
vt 0.426945 0.898228
vt 0.522417 0.944017
vt 0.520917 0.824617
vt 0.427070 0.899437
vt 0.509292 0.944017
vt 0.427237 0.900631
vt 0.509292 0.914317
vt 0.427449 0.901811
vt 0.434105 0.914317
vt 0.501321 0.830485
vt 0.427707 0.902975
vt 0.435755 0.915827
vt 0.499308 0.830547
vt 0.428015 0.904123
vt 0.437619 0.917279
vt 0.497292 0.830617
vt 0.428375 0.905254
vt 0.439707 0.918673
vt 0.497293 0.848992
vt 0.428789 0.906368
vt 0.442029 0.920009
vt 0.483605 0.848992
vt 0.429261 0.907464
vt 0.444595 0.921285
vt 0.483605 0.831367
vt 0.429792 0.908542
vt 0.447417 0.922502
vt 0.477843 0.831920
vt 0.466730 0.908542
vt 0.472104 0.832617
vt 0.466730 0.883417
vt 0.466411 0.833474
vt 0.479480 0.883417
vt 0.457519 0.925782
vt 0.479480 0.908542
vt 0.509292 0.908542
vt 0.449832 0.837199
vt 0.509292 0.878542
vt 0.470293 0.928492
vt 0.444548 0.838884
vt 0.522417 0.878542
vt 0.472449 0.928272
vt 0.439424 0.840823
vt 0.522417 0.908542
vt 0.474604 0.928061
vt 0.434483 0.843032
vt 0.548293 0.908542
vt 0.476758 0.927860
vt 0.429746 0.845530
vt 0.548292 0.884017
vt 0.478911 0.927667
vt 0.425238 0.848336
vt 0.561417 0.884017
vt 0.481060 0.927484
vt 0.420980 0.851467
vt 0.561417 0.908542
vt 0.483207 0.927311
vt 0.420272 0.851136
vt 0.583167 0.908542
vt 0.485349 0.927147
vt 0.419471 0.850782
vt 0.583167 0.914317
vt 0.487487 0.926992
vt 0.418595 0.850414
vt 0.561417 0.914317
vt 0.489620 0.926847
vt 0.417661 0.850037
vt 0.561417 0.937492
vt 0.491746 0.926711
vt 0.416684 0.849658
vt 0.493867 0.926584
vt 0.415683 0.849283
vt 0.495980 0.926467
vt 0.414674 0.848919
vt 0.497855 0.932317
vt 0.413674 0.848573
vt 0.490859 0.932652
vt 0.412701 0.848251
vt 0.483704 0.933100
vt 0.411770 0.847959
vt 0.476462 0.933673
vt 0.410899 0.847704
vt 0.469209 0.934381
vt 0.410105 0.847492
vt 0.462018 0.935235
vt 0.414582 0.844484
vt 0.454964 0.936245
vt 0.419284 0.841750
vt 0.448121 0.937423
vt 0.424191 0.839278
vt 0.411042 0.860992
vt 0.441563 0.938778
vt 0.429286 0.837053
vt 0.435365 0.940322
vt 0.434549 0.835065
vt 0.429600 0.942066
vt 0.439964 0.833299
vt 0.424343 0.944019
vt 0.445512 0.831742
vt 0.539184 0.868073
vt 0.419667 0.946192
vt 0.534971 0.868288
vt 0.419064 0.945861
vt 0.456933 0.829204
vt 0.530674 0.868537
s 0
usemtl Material
f 146/1/1 147/2/1 119/3/1
f 35/4/1 36/5/1 51/6/1
f 162/7/1 163/8/1 72/9/1
f 4/10/1 2/11/1 3/12/1
f 239/13/1 188/14/1 189/15/1
f 9/16/2 10/17/2 24/18/2
f 388/19/3 387/20/3 415/21/3
f 352/22/3 343/23/3 342/24/3
f 368/25/3 474/26/3 473/27/3
f 306/11/3 308/10/3 307/12/3
f 490/28/3 489/29/3 544/30/3
f 314/17/3 313/16/3 328/18/3
f 521/31/4 218/32/4 217/31/4
f 417/33/5 114/34/5 113/33/5
f 313/16/6 10/17/6 9/16/6
f 522/32/7 219/35/7 218/32/7
f 418/34/8 115/36/8 114/34/8
f 314/17/9 11/37/9 10/17/9
f 523/35/10 220/38/10 219/35/10
f 419/36/11 116/39/11 115/36/11
f 315/37/12 12/40/12 11/37/12
f 524/38/13 221/41/13 220/38/13
f 420/39/14 117/42/14 116/39/14
f 316/40/15 13/43/15 12/40/15
f 525/41/16 222/44/16 221/41/16
f 421/42/17 118/45/17 117/42/17
f 317/43/18 14/46/18 13/43/18
f 526/44/19 223/47/19 222/44/19
f 422/45/20 119/3/20 118/45/20
f 318/46/21 15/48/21 14/46/21
f 527/47/22 224/49/22 223/47/22
f 423/3/23 120/50/23 119/3/23
f 319/48/24 16/51/24 15/48/24
f 528/49/25 225/52/25 224/49/25
f 424/50/26 121/53/26 120/50/26
f 320/51/27 17/54/27 16/51/27
f 529/52/28 226/55/28 225/52/28
f 425/53/29 122/56/29 121/53/29
f 321/54/30 18/57/30 17/54/30
f 530/55/31 227/58/31 226/55/31
f 426/56/32 123/59/32 122/56/32
f 322/57/33 19/60/33 18/57/33
f 531/58/34 228/61/34 227/58/34
f 427/59/35 124/62/35 123/59/35
f 323/60/36 20/63/36 19/60/36
f 532/61/37 229/64/37 228/61/37
f 428/62/38 125/65/38 124/62/38
f 324/63/39 21/66/39 20/63/39
f 533/64/40 230/67/40 229/64/40
f 429/65/41 126/68/41 125/65/41
f 325/66/42 22/69/42 21/66/42
f 534/67/43 231/70/43 230/67/43
f 430/68/44 127/71/44 126/68/44
f 326/69/45 23/72/45 22/69/45
f 535/70/46 232/73/46 231/70/46
f 431/71/47 128/74/47 127/71/47
f 327/72/48 24/18/48 23/72/48
f 536/73/49 233/75/49 232/73/49
f 432/74/50 129/76/50 128/74/50
f 328/18/51 25/77/51 24/18/51
f 537/75/52 234/78/52 233/75/52
f 433/76/53 130/79/53 129/76/53
f 329/77/54 26/80/54 25/77/54
f 538/78/55 235/81/55 234/78/55
f 434/79/56 131/82/56 130/79/56
f 330/80/57 27/83/57 26/80/57
f 539/81/58 236/84/58 235/81/58
f 435/82/59 132/85/59 131/82/59
f 331/83/60 28/86/60 27/83/60
f 540/84/61 237/87/61 236/84/61
f 436/85/62 133/88/62 132/85/62
f 332/86/63 29/89/63 28/86/63
f 541/87/64 238/90/64 237/87/64
f 437/88/65 134/91/65 133/88/65
f 333/89/66 30/92/66 29/89/66
f 542/90/67 239/13/67 238/90/67
f 438/91/68 135/93/68 134/91/68
f 334/92/69 5/94/69 30/92/69
f 543/13/70 240/30/70 239/13/70
f 439/93/71 136/95/71 135/93/71
f 335/96/72 32/97/72 31/96/72
f 544/30/73 241/98/73 240/30/73
f 440/95/74 137/99/74 136/95/74
f 336/97/75 33/100/75 32/97/75
f 545/98/76 242/101/76 241/98/76
f 441/99/77 138/102/77 137/99/77
f 337/100/78 34/103/78 33/100/78
f 546/101/79 243/104/79 242/101/79
f 442/102/80 139/105/80 138/102/80
f 338/103/81 35/4/81 34/103/81
f 547/104/82 244/106/82 243/104/82
f 443/105/83 140/107/83 139/105/83
f 339/4/84 36/5/84 35/4/84
f 548/106/85 245/108/85 244/106/85
f 444/107/86 141/109/86 140/107/86
f 340/5/87 37/110/87 36/5/87
f 549/108/88 246/111/88 245/108/88
f 445/109/89 142/112/89 141/109/89
f 341/110/90 38/24/90 37/110/90
f 550/111/91 247/113/91 246/111/91
f 446/112/92 143/114/92 142/112/92
f 342/24/93 39/23/93 38/24/93
f 551/113/94 248/115/94 247/113/94
f 447/114/95 144/116/95 143/114/95
f 343/23/96 40/117/96 39/23/96
f 552/115/97 249/118/97 248/115/97
f 448/116/98 145/119/98 144/116/98
f 344/117/99 41/120/99 40/117/99
f 553/118/100 250/121/100 249/118/100
f 449/119/101 146/1/101 145/119/101
f 345/120/102 42/122/102 41/120/102
f 554/121/103 251/123/103 250/121/103
f 450/1/104 147/2/104 146/1/104
f 346/122/105 43/124/105 42/122/105
f 555/123/106 252/125/106 251/123/106
f 451/2/107 148/126/107 147/2/107
f 347/124/108 44/127/108 43/124/108
f 556/125/109 253/128/109 252/125/109
f 452/126/110 149/129/110 148/126/110
f 348/127/111 45/130/111 44/127/111
f 557/128/112 254/131/112 253/128/112
f 453/129/113 150/132/113 149/129/113
f 349/130/114 46/133/114 45/130/114
f 558/131/115 255/134/115 254/131/115
f 454/132/116 151/135/116 150/132/116
f 350/133/117 47/136/117 46/133/117
f 559/134/118 256/137/118 255/134/118
f 455/135/106 152/138/106 151/135/106
f 351/136/119 48/22/119 47/136/119
f 560/137/120 257/139/120 256/137/120
f 456/138/121 153/140/121 152/138/121
f 352/22/122 49/141/122 48/22/122
f 561/139/123 258/142/123 257/139/123
f 457/140/124 154/143/124 153/140/124
f 353/141/125 50/144/125 49/141/125
f 562/142/126 259/145/126 258/142/126
f 458/143/121 155/146/121 154/143/121
f 354/144/127 51/6/127 50/144/127
f 563/145/128 260/147/128 259/145/128
f 459/146/124 156/148/124 155/146/124
f 355/6/129 52/149/129 51/6/129
f 564/147/130 261/150/130 260/147/130
f 460/148/121 157/151/121 156/148/121
f 356/149/131 53/152/131 52/149/131
f 565/150/132 262/153/132 261/150/132
f 461/151/124 158/154/124 157/151/124
f 357/152/133 54/155/133 53/152/133
f 566/153/134 263/156/134 262/153/134
f 462/154/135 159/157/135 158/154/135
f 358/155/136 55/158/136 54/155/136
f 567/156/137 264/159/137 263/156/137
f 463/157/124 160/160/124 159/157/124
f 359/158/138 56/161/138 55/158/138
f 568/159/139 265/162/139 264/159/139
f 464/160/135 161/163/135 160/160/135
f 360/161/140 31/96/140 56/161/140
f 569/162/141 266/164/141 265/162/141
f 465/163/106 162/7/106 161/163/106
f 361/165/135 58/166/135 57/165/135
f 570/164/142 267/167/142 266/164/142
f 466/7/135 163/8/135 162/7/135
f 362/166/124 59/168/124 58/166/124
f 571/167/143 268/169/143 267/167/143
f 467/8/144 164/170/144 163/8/144
f 363/168/145 60/171/145 59/168/145
f 572/169/146 269/172/146 268/169/146
f 468/170/147 165/173/147 164/170/147
f 364/171/148 61/174/148 60/171/148
f 573/172/149 270/175/149 269/172/149
f 469/173/150 166/176/150 165/173/150
f 365/174/151 62/177/151 61/174/151
f 574/175/152 271/178/152 270/175/152
f 470/176/153 167/179/153 166/176/153
f 366/177/154 63/180/154 62/177/154
f 575/178/155 272/181/155 271/178/155
f 471/179/156 168/182/156 167/179/156
f 367/180/157 64/25/157 63/180/157
f 576/181/158 273/183/158 272/181/158
f 472/182/159 169/27/159 168/182/159
f 368/25/160 65/184/160 64/25/160
f 577/183/161 274/185/161 273/183/161
f 473/27/162 170/26/162 169/27/162
f 369/184/163 66/186/163 65/184/163
f 578/185/164 275/187/164 274/185/164
f 474/26/165 171/188/165 170/26/165
f 370/186/166 67/189/166 66/186/166
f 579/187/124 276/190/124 275/187/124
f 475/188/167 73/191/167 171/188/167
f 371/189/168 68/192/168 67/189/168
f 580/190/169 277/193/169 276/190/169
f 476/194/106 173/195/106 172/194/106
f 372/192/170 69/196/170 68/192/170
f 581/193/171 278/197/171 277/193/171
f 477/195/135 174/198/135 173/195/135
f 373/196/172 70/199/172 69/196/172
f 582/197/173 279/200/173 278/197/173
f 478/198/124 175/201/124 174/198/124
f 374/199/174 71/202/174 70/199/174
f 583/200/175 280/203/175 279/200/175
f 479/201/135 176/204/135 175/201/135
f 375/202/121 72/9/121 71/202/121
f 584/203/176 281/205/176 280/203/176
f 480/204/106 177/206/106 176/204/106
f 376/9/106 57/165/106 72/9/106
f 585/205/177 282/207/177 281/205/177
f 481/206/135 178/208/135 177/206/135
f 377/191/178 74/209/178 73/191/178
f 586/207/179 283/210/179 282/207/179
f 482/208/180 179/211/180 178/208/180
f 378/209/181 75/212/181 74/209/181
f 587/210/182 284/213/182 283/210/182
f 483/211/183 180/214/183 179/211/183
f 379/212/184 76/215/184 75/212/184
f 588/213/185 285/216/185 284/213/185
f 484/214/186 181/217/186 180/214/186
f 380/215/124 77/218/124 76/215/124
f 589/216/187 286/219/187 285/216/187
f 485/217/188 182/220/188 181/217/188
f 381/218/135 78/221/135 77/218/135
f 590/219/189 287/222/189 286/219/189
f 486/220/190 183/223/190 182/220/190
f 382/221/106 79/224/106 78/221/106
f 591/222/191 288/225/191 287/222/191
f 487/223/192 184/226/192 183/223/192
f 383/224/193 80/227/193 79/224/193
f 592/225/121 289/228/121 288/225/121
f 488/226/194 185/29/194 184/226/194
f 384/227/195 81/229/195 80/227/195
f 593/228/106 290/230/106 289/228/106
f 489/29/196 186/28/196 185/29/196
f 385/229/197 82/231/197 81/229/197
f 594/230/121 291/232/121 290/230/121
f 490/28/198 187/233/198 186/28/198
f 386/231/199 83/20/199 82/231/199
f 595/232/124 292/234/124 291/232/124
f 491/233/200 188/14/200 187/233/200
f 387/20/201 84/19/201 83/20/201
f 596/234/121 293/235/121 292/234/121
f 492/14/202 189/15/202 188/14/202
f 388/19/203 85/236/203 84/19/203
f 597/235/106 294/237/106 293/235/106
f 493/15/204 190/238/204 189/15/204
f 389/236/205 86/239/205 85/236/205
f 598/237/121 295/240/121 294/237/121
f 494/238/206 191/241/206 190/238/206
f 390/239/207 87/242/207 86/239/207
f 599/240/124 296/243/124 295/240/124
f 495/241/208 192/244/208 191/241/208
f 391/242/209 88/245/209 87/242/209
f 600/243/121 297/246/121 296/243/121
f 496/244/210 193/247/210 192/244/210
f 392/245/211 89/248/211 88/245/211
f 601/246/106 298/249/106 297/246/106
f 497/247/212 194/250/212 193/247/212
f 393/248/213 90/251/213 89/248/213
f 602/249/121 299/252/121 298/249/121
f 498/250/214 195/253/214 194/250/214
f 394/251/215 91/254/215 90/251/215
f 603/252/124 300/255/124 299/252/124
f 499/253/216 196/256/216 195/253/216
f 395/254/217 92/257/217 91/254/217
f 604/255/121 301/258/121 300/255/121
f 500/256/218 197/259/218 196/256/218
f 396/257/219 93/260/219 92/257/219
f 605/258/124 302/261/124 301/258/124
f 501/259/220 198/262/220 197/259/220
f 397/260/221 94/263/221 93/260/221
f 606/261/135 303/264/135 302/261/135
f 502/262/222 199/265/222 198/262/222
f 398/263/223 95/266/223 94/263/223
f 607/264/124 304/267/124 303/264/124
f 503/265/224 200/268/224 199/265/224
f 399/266/225 96/269/225 95/266/225
f 608/267/135 172/194/135 304/267/135
f 504/268/226 201/270/226 200/268/226
f 400/269/227 97/271/227 96/269/227
f 505/270/228 202/272/228 201/270/228
f 401/271/229 98/273/229 97/271/229
f 506/272/230 203/274/230 202/272/230
f 402/273/231 99/275/231 98/273/231
f 507/274/232 204/276/232 203/274/232
f 403/275/233 100/277/233 99/275/233
f 508/276/234 205/278/234 204/276/234
f 404/277/235 101/279/235 100/277/235
f 509/278/236 206/280/236 205/278/236
f 405/279/237 102/281/237 101/279/237
f 510/280/238 207/282/238 206/280/238
f 406/281/239 103/283/239 102/281/239
f 511/282/240 208/284/240 207/282/240
f 407/283/241 104/285/241 103/283/241
f 512/284/242 209/286/242 208/284/242
f 408/285/243 105/287/243 104/285/243
f 513/286/244 210/288/244 209/286/244
f 409/287/245 106/289/245 105/287/245
f 305/290/106 2/11/106 1/290/106
f 514/288/246 211/291/246 210/288/246
f 410/289/247 107/292/247 106/289/247
f 306/11/121 3/12/121 2/11/121
f 515/291/248 212/293/248 211/291/248
f 411/292/249 108/294/249 107/292/249
f 307/12/124 4/10/124 3/12/124
f 516/293/250 213/295/250 212/293/250
f 412/294/251 109/296/251 108/294/251
f 308/10/135 1/290/135 4/10/135
f 517/295/252 214/297/252 213/295/252
f 413/296/253 110/298/253 109/296/253
f 309/94/254 6/299/254 5/94/254
f 518/297/255 215/300/255 214/297/255
f 414/298/256 111/21/256 110/298/256
f 310/299/257 7/301/257 6/299/257
f 519/300/258 216/302/258 215/300/258
f 415/21/259 112/303/259 111/21/259
f 311/301/260 8/304/260 7/301/260
f 520/302/261 217/31/261 216/302/261
f 416/303/262 113/33/262 112/303/262
f 312/304/263 9/16/263 8/304/263
f 151/135/1 152/138/1 58/166/1
f 152/138/1 153/140/1 154/143/1
f 154/143/1 155/146/1 57/165/1
f 152/138/1 154/143/1 58/166/1
f 154/143/1 57/165/1 58/166/1
f 59/168/2 75/212/2 76/215/2
f 151/135/1 58/166/1 59/168/1
f 150/132/1 151/135/1 115/36/1
f 151/135/1 59/168/1 79/224/1
f 76/215/1 77/218/1 79/224/1
f 77/218/1 78/221/1 79/224/1
f 151/135/1 79/224/1 115/36/1
f 59/168/1 76/215/1 79/224/1
f 149/129/1 150/132/1 116/39/1
f 148/126/1 149/129/1 117/42/1
f 150/132/1 115/36/1 116/39/1
f 147/2/1 148/126/1 118/45/1
f 117/42/1 149/129/1 116/39/1
f 90/251/2 91/254/2 92/257/2
f 90/251/1 92/257/1 93/260/1
f 89/248/1 90/251/1 104/285/1
f 90/251/264 93/260/264 94/263/264
f 90/251/1 94/263/1 95/266/1
f 88/245/1 89/248/1 105/287/1
f 90/251/1 95/266/1 96/269/1
f 90/251/1 96/269/1 97/271/1
f 87/242/1 88/245/1 106/289/1
f 90/251/1 97/271/1 98/273/1
f 104/285/1 90/251/1 98/273/1
f 89/248/1 104/285/1 105/287/1
f 86/239/1 87/242/1 108/294/1
f 88/245/1 105/287/1 106/289/1
f 98/273/1 99/275/1 104/285/1
f 85/236/1 86/239/1 109/296/1
f 99/275/1 100/277/1 104/285/1
f 100/277/1 101/279/1 104/285/1
f 102/281/265 103/283/265 104/285/265
f 101/279/1 102/281/1 104/285/1
f 107/292/1 87/242/1 106/289/1
f 107/292/1 108/294/1 87/242/1
f 86/239/1 108/294/1 109/296/1
f 109/296/1 110/298/1 85/236/1
f 110/298/1 111/21/1 84/19/1
f 111/21/1 112/303/1 83/20/1
f 112/303/1 113/33/1 82/231/1
f 113/33/1 114/34/1 81/229/1
f 82/231/1 113/33/1 81/229/1
f 114/34/1 115/36/1 80/227/1
f 111/21/1 83/20/1 84/19/1
f 84/19/1 85/236/1 110/298/1
f 117/42/1 118/45/1 148/126/1
f 83/20/1 112/303/1 82/231/1
f 118/45/1 119/3/1 147/2/1
f 119/3/1 120/50/1 146/1/1
f 120/50/1 121/53/1 145/119/1
f 121/53/264 122/56/264 144/116/264
f 122/56/2 123/59/2 143/114/2
f 144/116/1 122/56/1 143/114/1
f 123/59/1 124/62/1 143/114/1
f 124/62/1 125/65/1 142/112/1
f 125/65/1 126/68/1 141/109/1
f 126/68/266 127/71/266 128/74/266
f 126/68/264 128/74/264 129/76/264
f 120/50/1 145/119/1 146/1/1
f 145/119/1 121/53/1 144/116/1
f 81/229/1 114/34/1 80/227/1
f 126/68/2 129/76/2 130/79/2
f 126/68/264 130/79/264 131/82/264
f 143/114/1 124/62/1 142/112/1
f 126/68/1 131/82/1 132/85/1
f 126/68/1 132/85/1 141/109/1
f 79/224/1 80/227/1 115/36/1
f 138/102/1 139/105/1 140/107/1
f 137/99/1 138/102/1 140/107/1
f 137/99/1 140/107/1 136/95/1
f 140/107/1 141/109/1 132/85/1
f 136/95/1 140/107/1 135/93/1
f 135/93/1 140/107/1 134/91/1
f 141/109/1 142/112/1 125/65/1
f 134/91/1 140/107/1 133/88/1
f 133/88/1 140/107/1 132/85/1
f 42/122/264 43/124/264 44/127/264
f 44/127/1 45/130/1 42/122/1
f 45/130/1 46/133/1 41/120/1
f 41/120/1 46/133/1 40/117/1
f 46/133/1 47/136/1 40/117/1
f 47/136/264 48/22/264 39/23/264
f 40/117/2 47/136/2 39/23/2
f 48/22/1 49/141/1 38/24/1
f 49/141/1 50/144/1 37/110/1
f 48/22/1 38/24/1 39/23/1
f 50/144/1 51/6/1 36/5/1
f 51/6/1 52/149/1 35/4/1
f 50/144/1 36/5/1 37/110/1
f 52/149/1 53/152/1 34/103/1
f 53/152/264 54/155/264 34/103/264
f 34/103/1 54/155/1 33/100/1
f 54/155/1 55/158/1 33/100/1
f 55/158/1 56/161/1 32/97/1
f 33/100/1 55/158/1 32/97/1
f 56/161/1 31/96/1 32/97/1
f 41/120/1 42/122/1 45/130/1
f 38/24/1 49/141/1 37/110/1
f 52/149/1 34/103/1 35/4/1
f 74/209/1 75/212/1 60/171/1
f 75/212/1 59/168/1 60/171/1
f 60/171/1 61/174/1 74/209/1
f 61/174/1 62/177/1 73/191/1
f 62/177/1 63/180/1 171/188/1
f 171/188/1 63/180/1 170/26/1
f 63/180/264 64/25/264 170/26/264
f 64/25/1 65/184/1 169/27/1
f 170/26/1 64/25/1 169/27/1
f 65/184/264 66/186/264 168/182/264
f 66/186/1 67/189/1 167/179/1
f 67/189/264 68/192/264 166/176/264
f 68/192/1 69/196/1 165/173/1
f 69/196/1 70/199/1 164/170/1
f 70/199/1 71/202/1 163/8/1
f 72/9/1 57/165/1 156/148/1
f 57/165/1 155/146/1 156/148/1
f 165/173/1 69/196/1 164/170/1
f 71/202/1 72/9/1 163/8/1
f 66/186/1 167/179/1 168/182/1
f 169/27/2 65/184/2 168/182/2
f 167/179/1 67/189/1 166/176/1
f 73/191/1 74/209/1 61/174/1
f 171/188/1 73/191/1 62/177/1
f 72/9/1 156/148/1 162/7/1
f 156/148/1 157/151/1 158/154/1
f 159/157/1 160/160/1 161/163/1
f 156/148/1 158/154/1 159/157/1
f 166/176/1 68/192/1 165/173/1
f 156/148/1 159/157/1 162/7/1
f 159/157/1 161/163/1 162/7/1
f 164/170/1 70/199/1 163/8/1
f 4/10/1 1/290/1 2/11/1
f 228/61/266 229/64/266 222/44/266
f 229/64/1 230/67/1 213/295/1
f 228/61/267 222/44/267 223/47/267
f 230/67/1 231/70/1 213/295/1
f 231/70/1 232/73/1 212/293/1
f 213/295/1 231/70/1 212/293/1
f 232/73/1 233/75/1 212/293/1
f 233/75/1 234/78/1 211/291/1
f 212/293/1 233/75/1 211/291/1
f 234/78/2 235/81/2 211/291/2
f 235/81/264 236/84/264 210/288/264
f 211/291/1 235/81/1 210/288/1
f 236/84/2 237/87/2 210/288/2
f 237/87/264 238/90/264 209/286/264
f 210/288/1 237/87/1 209/286/1
f 239/13/1 240/30/1 187/233/1
f 240/30/1 241/98/1 185/29/1
f 185/29/1 241/98/1 184/226/1
f 238/90/1 239/13/1 209/286/1
f 229/64/1 213/295/1 214/297/1
f 226/55/268 227/58/268 228/61/268
f 225/52/1 226/55/1 228/61/1
f 241/98/1 242/101/1 183/223/1
f 183/223/1 242/101/1 182/220/1
f 224/49/1 225/52/1 228/61/1
f 223/47/265 224/49/265 228/61/265
f 242/101/1 243/104/1 182/220/1
f 181/217/1 243/104/1 180/214/1
f 222/44/1 229/64/1 214/297/1
f 243/104/1 181/217/1 182/220/1
f 243/104/1 244/106/1 180/214/1
f 180/214/2 244/106/2 179/211/2
f 244/106/1 245/108/1 179/211/1
f 245/108/1 246/111/1 178/208/1
f 179/211/1 245/108/1 178/208/1
f 246/111/1 247/113/1 288/225/1
f 247/113/1 248/115/1 286/219/1
f 248/115/1 249/118/1 284/213/1
f 249/118/1 250/121/1 281/205/1
f 250/121/1 251/123/1 278/197/1
f 251/123/1 252/125/1 270/175/1
f 271/178/1 251/123/1 270/175/1
f 251/123/1 271/178/1 272/181/1
f 252/125/1 253/128/1 268/169/1
f 178/208/1 246/111/1 288/225/1
f 247/113/1 286/219/1 287/222/1
f 221/41/1 222/44/1 214/297/1
f 220/38/1 221/41/1 214/297/1
f 253/128/1 254/131/1 268/169/1
f 252/125/2 269/172/2 270/175/2
f 269/172/264 252/125/264 268/169/264
f 254/131/1 255/134/1 268/169/1
f 219/35/1 220/38/1 214/297/1
f 255/134/268 256/137/268 267/167/268
f 256/137/1 257/139/1 267/167/1
f 218/32/264 219/35/264 214/297/264
f 268/169/1 255/134/1 267/167/1
f 257/139/1 258/142/1 267/167/1
f 258/142/1 259/145/1 266/164/1
f 217/31/1 218/32/1 214/297/1
f 259/145/1 260/147/1 266/164/1
f 258/142/264 266/164/264 267/167/264
f 260/147/269 261/150/269 266/164/269
f 216/302/268 217/31/268 214/297/268
f 261/150/268 262/153/268 265/162/268
f 266/164/264 261/150/264 265/162/264
f 263/156/270 264/159/270 265/162/270
f 262/153/1 263/156/1 265/162/1
f 251/123/1 272/181/1 273/183/1
f 251/123/1 273/183/1 274/185/1
f 251/123/1 274/185/1 275/187/1
f 251/123/1 275/187/1 276/190/1
f 251/123/1 276/190/1 277/193/1
f 251/123/1 277/193/1 278/197/1
f 250/121/1 278/197/1 279/200/1
f 250/121/1 279/200/1 280/203/1
f 250/121/1 280/203/1 281/205/1
f 281/205/1 282/207/1 249/118/1
f 282/207/1 283/210/1 249/118/1
f 283/210/1 284/213/1 249/118/1
f 284/213/1 285/216/1 248/115/1
f 285/216/1 286/219/1 248/115/1
f 287/222/1 288/225/1 247/113/1
f 289/228/1 290/230/1 292/234/1
f 290/230/1 291/232/1 292/234/1
f 289/228/1 292/234/1 177/206/1
f 292/234/1 293/235/1 177/206/1
f 293/235/1 294/237/1 295/240/1
f 293/235/1 295/240/1 296/243/1
f 293/235/1 296/243/1 174/198/1
f 297/246/1 298/249/1 299/252/1
f 293/235/1 174/198/1 177/206/1
f 296/243/1 297/246/1 174/198/1
f 297/246/1 299/252/1 300/255/1
f 300/255/1 301/258/1 302/261/1
f 303/264/1 304/267/1 172/194/1
f 300/255/1 302/261/1 303/264/1
f 297/246/1 300/255/1 303/264/1
f 303/264/1 172/194/1 173/195/1
f 174/198/1 175/201/1 176/204/1
f 297/246/1 303/264/1 173/195/1
f 174/198/1 176/204/1 177/206/1
f 297/246/1 173/195/1 174/198/1
f 288/225/1 289/228/1 178/208/1
f 289/228/1 177/206/1 178/208/1
f 214/297/2 215/300/2 216/302/2
f 208/284/1 209/286/1 239/13/1
f 207/282/1 208/284/1 189/15/1
f 208/284/1 239/13/1 189/15/1
f 241/98/1 183/223/1 184/226/1
f 206/280/2 207/282/2 190/238/2
f 190/238/264 207/282/264 189/15/264
f 205/278/264 206/280/264 193/247/264
f 240/30/1 185/29/1 186/28/1
f 240/30/1 186/28/1 187/233/1
f 204/276/1 205/278/1 197/259/1
f 206/280/1 190/238/1 191/241/1
f 192/244/1 206/280/1 191/241/1
f 202/272/1 203/274/1 201/270/1
f 203/274/2 204/276/2 200/268/2
f 200/268/1 201/270/1 203/274/1
f 198/262/1 199/265/1 204/276/1
f 199/265/268 200/268/268 204/276/268
f 196/256/1 197/259/1 205/278/1
f 197/259/1 198/262/1 204/276/1
f 194/250/1 195/253/1 205/278/1
f 195/253/1 196/256/1 205/278/1
f 192/244/266 193/247/266 206/280/266
f 193/247/1 194/250/1 205/278/1
f 239/13/1 187/233/1 188/14/1
f 16/51/1 17/54/1 15/48/1
f 17/54/1 18/57/1 15/48/1
f 18/57/264 19/60/264 15/48/264
f 19/60/1 20/63/1 14/46/1
f 15/48/1 19/60/1 14/46/1
f 20/63/1 21/66/1 13/43/1
f 21/66/1 22/69/1 12/40/1
f 13/43/1 21/66/1 12/40/1
f 22/69/1 23/72/1 11/37/1
f 23/72/1 24/18/1 10/17/1
f 11/37/1 23/72/1 10/17/1
f 24/18/1 25/77/1 9/16/1
f 25/77/1 26/80/1 8/304/1
f 9/16/264 25/77/264 8/304/264
f 26/80/1 27/83/1 7/301/1
f 27/83/1 28/86/1 6/299/1
f 7/301/264 27/83/264 6/299/264
f 28/86/1 29/89/1 5/94/1
f 29/89/1 30/92/1 5/94/1
f 14/46/1 20/63/1 13/43/1
f 28/86/1 5/94/1 6/299/1
f 7/301/1 8/304/1 26/80/1
f 12/40/1 22/69/1 11/37/1
f 444/107/3 443/105/3 442/102/3
f 444/107/3 442/102/3 441/99/3
f 445/109/3 444/107/3 436/85/3
f 444/107/3 441/99/3 440/95/3
f 444/107/3 440/95/3 439/93/3
f 446/112/3 445/109/3 429/65/3
f 444/107/3 439/93/3 438/91/3
f 444/107/3 438/91/3 437/88/3
f 447/114/3 446/112/3 428/62/3
f 444/107/3 437/88/3 436/85/3
f 429/65/3 445/109/3 430/68/3
f 448/116/3 447/114/3 426/56/3
f 446/112/3 429/65/3 428/62/3
f 445/109/3 436/85/3 430/68/3
f 436/85/3 435/82/3 430/68/3
f 449/119/3 448/116/3 425/53/3
f 435/82/3 434/79/3 430/68/3
f 450/1/3 449/119/3 424/50/3
f 427/59/3 447/114/3 428/62/3
f 447/114/3 427/59/3 426/56/3
f 434/79/3 433/76/3 430/68/3
f 433/76/3 432/74/3 430/68/3
f 432/74/3 431/71/3 430/68/3
f 448/116/3 426/56/3 425/53/3
f 425/53/3 424/50/3 449/119/3
f 424/50/3 423/3/3 450/1/3
f 423/3/3 422/45/3 451/2/3
f 422/45/3 421/42/3 452/126/3
f 421/42/3 420/39/3 453/129/3
f 452/126/3 421/42/3 453/129/3
f 419/36/3 418/34/3 384/227/3
f 418/34/3 417/33/3 385/229/3
f 385/229/3 417/33/3 386/231/3
f 420/39/3 419/36/3 454/132/3
f 423/3/3 451/2/3 450/1/3
f 417/33/3 416/303/3 386/231/3
f 452/126/3 451/2/3 422/45/3
f 453/129/3 420/39/3 454/132/3
f 416/303/3 415/21/3 387/20/3
f 415/21/3 414/298/3 388/19/3
f 414/298/3 413/296/3 389/236/3
f 413/296/3 412/294/3 390/239/3
f 412/294/3 411/292/3 391/242/3
f 411/292/3 410/289/3 391/242/3
f 410/289/3 409/287/3 392/245/3
f 391/242/3 410/289/3 392/245/3
f 409/287/3 408/285/3 393/248/3
f 408/285/3 407/283/3 406/281/3
f 408/285/3 406/281/3 405/279/3
f 412/294/3 391/242/3 390/239/3
f 416/303/3 387/20/3 386/231/3
f 414/298/3 389/236/3 388/19/3
f 408/285/3 405/279/3 404/277/3
f 408/285/3 404/277/3 403/275/3
f 455/135/3 454/132/3 419/36/3
f 408/285/3 403/275/3 402/273/3
f 408/285/3 402/273/3 394/251/3
f 457/140/3 456/138/3 458/143/3
f 456/138/3 455/135/3 362/166/3
f 458/143/3 456/138/3 362/166/3
f 408/285/3 394/251/3 393/248/3
f 402/273/3 401/271/3 394/251/3
f 401/271/3 400/269/3 394/251/3
f 361/165/3 459/146/3 458/143/3
f 362/166/3 361/165/3 458/143/3
f 380/215/3 379/212/3 363/168/3
f 363/168/3 362/166/3 455/135/3
f 363/168/3 455/135/3 383/224/3
f 455/135/3 419/36/3 383/224/3
f 382/221/3 381/218/3 383/224/3
f 381/218/3 380/215/3 383/224/3
f 380/215/3 363/168/3 383/224/3
f 396/257/3 395/254/3 394/251/3
f 396/257/3 394/251/3 397/260/3
f 397/260/3 394/251/3 398/263/3
f 398/263/3 394/251/3 399/266/3
f 393/248/3 392/245/3 409/287/3
f 399/266/3 394/251/3 400/269/3
f 384/227/3 383/224/3 419/36/3
f 385/229/3 384/227/3 418/34/3
f 413/296/3 390/239/3 389/236/3
f 336/97/3 335/96/3 360/161/3
f 360/161/3 359/158/3 336/97/3
f 359/158/3 358/155/3 337/100/3
f 358/155/3 357/152/3 338/103/3
f 357/152/3 356/149/3 338/103/3
f 356/149/3 355/6/3 339/4/3
f 355/6/3 354/144/3 340/5/3
f 339/4/3 355/6/3 340/5/3
f 354/144/3 353/141/3 341/110/3
f 353/141/3 352/22/3 342/24/3
f 341/110/3 353/141/3 342/24/3
f 352/22/3 351/136/3 343/23/3
f 351/136/3 350/133/3 344/117/3
f 344/117/3 350/133/3 345/120/3
f 350/133/3 349/130/3 345/120/3
f 349/130/3 348/127/3 346/122/3
f 345/120/3 349/130/3 346/122/3
f 348/127/3 347/124/3 346/122/3
f 359/158/3 337/100/3 336/97/3
f 338/103/3 337/100/3 358/155/3
f 338/103/3 356/149/3 339/4/3
f 351/136/3 344/117/3 343/23/3
f 340/5/3 354/144/3 341/110/3
f 466/7/3 465/163/3 464/160/3
f 463/157/3 462/154/3 461/151/3
f 466/7/3 464/160/3 463/157/3
f 466/7/3 463/157/3 460/148/3
f 463/157/3 461/151/3 460/148/3
f 460/148/3 459/146/3 361/165/3
f 467/8/3 466/7/3 376/9/3
f 466/7/3 460/148/3 376/9/3
f 460/148/3 361/165/3 376/9/3
f 376/9/3 375/202/3 467/8/3
f 375/202/3 374/199/3 467/8/3
f 467/8/3 374/199/3 468/170/3
f 374/199/3 373/196/3 468/170/3
f 373/196/3 372/192/3 469/173/3
f 468/170/3 373/196/3 469/173/3
f 372/192/3 371/189/3 470/176/3
f 371/189/3 370/186/3 471/179/3
f 372/192/3 470/176/3 469/173/3
f 370/186/3 369/184/3 472/182/3
f 369/184/3 368/25/3 473/27/3
f 370/186/3 472/182/3 471/179/3
f 368/25/3 367/180/3 474/26/3
f 367/180/3 366/177/3 475/188/3
f 475/188/3 366/177/3 377/191/3
f 366/177/3 365/174/3 377/191/3
f 365/174/3 364/171/3 378/209/3
f 364/171/3 363/168/3 379/212/3
f 364/171/3 379/212/3 378/209/3
f 365/174/3 378/209/3 377/191/3
f 470/176/3 371/189/3 471/179/3
f 367/180/3 475/188/3 474/26/3
f 472/182/3 369/184/3 473/27/3
f 306/11/3 305/290/3 308/10/3
f 534/67/3 533/64/3 517/295/3
f 533/64/3 532/61/3 526/44/3
f 527/47/3 532/61/3 528/49/3
f 532/61/3 531/58/3 530/55/3
f 532/61/3 530/55/3 529/52/3
f 535/70/3 534/67/3 517/295/3
f 532/61/3 527/47/3 526/44/3
f 537/75/3 536/73/3 516/293/3
f 536/73/3 535/70/3 516/293/3
f 539/81/3 538/78/3 515/291/3
f 538/78/3 537/75/3 515/291/3
f 515/291/3 537/75/3 516/293/3
f 541/87/3 540/84/3 514/288/3
f 540/84/3 539/81/3 514/288/3
f 543/13/3 542/90/3 513/286/3
f 542/90/3 541/87/3 513/286/3
f 545/98/3 544/30/3 489/29/3
f 544/30/3 543/13/3 491/233/3
f 545/98/3 487/223/3 546/101/3
f 547/104/3 546/101/3 486/220/3
f 486/220/3 546/101/3 487/223/3
f 549/108/3 548/106/3 483/211/3
f 548/106/3 547/104/3 484/214/3
f 485/217/3 547/104/3 486/220/3
f 551/113/3 550/111/3 592/225/3
f 550/111/3 549/108/3 482/208/3
f 553/118/3 552/115/3 588/213/3
f 552/115/3 551/113/3 590/219/3
f 555/123/3 582/197/3 581/193/3
f 555/123/3 554/121/3 582/197/3
f 554/121/3 553/118/3 585/205/3
f 555/123/3 578/185/3 577/183/3
f 557/128/3 556/125/3 572/169/3
f 556/125/3 555/123/3 574/175/3
f 574/175/3 555/123/3 575/178/3
f 558/131/271 557/128/271 572/169/271
f 578/185/3 555/123/3 579/187/3
f 579/187/3 555/123/3 580/190/3
f 550/111/3 482/208/3 592/225/3
f 547/104/3 485/217/3 484/214/3
f 487/223/3 545/98/3 488/226/3
f 532/61/3 529/52/3 528/49/3
f 517/295/3 533/64/3 518/297/3
f 541/87/3 514/288/3 513/286/3
f 556/125/3 574/175/3 573/172/3
f 575/178/272 555/123/272 576/181/272
f 559/134/273 558/131/273 572/169/273
f 535/70/3 517/295/3 516/293/3
f 560/137/3 559/134/3 571/167/3
f 556/125/3 573/172/3 572/169/3
f 561/139/3 560/137/3 571/167/3
f 562/142/3 561/139/3 571/167/3
f 571/167/3 559/134/3 572/169/3
f 563/145/3 562/142/3 570/164/3
f 533/64/3 526/44/3 518/297/3
f 564/147/3 563/145/3 570/164/3
f 565/150/3 564/147/3 570/164/3
f 562/142/3 571/167/3 570/164/3
f 526/44/3 525/41/3 518/297/3
f 566/153/3 565/150/3 569/162/3
f 569/162/3 568/159/3 567/156/3
f 567/156/3 566/153/3 569/162/3
f 565/150/3 570/164/3 569/162/3
f 525/41/3 524/38/3 518/297/3
f 524/38/3 523/35/3 518/297/3
f 523/35/3 522/32/3 518/297/3
f 522/32/3 521/31/3 518/297/3
f 576/181/3 555/123/3 577/183/3
f 521/31/3 520/302/3 518/297/3
f 580/190/3 555/123/3 581/193/3
f 582/197/3 554/121/3 583/200/3
f 583/200/3 554/121/3 584/203/3
f 584/203/3 554/121/3 585/205/3
f 585/205/3 553/118/3 586/207/3
f 586/207/3 553/118/3 587/210/3
f 587/210/3 553/118/3 588/213/3
f 588/213/3 552/115/3 589/216/3
f 589/216/3 552/115/3 590/219/3
f 591/222/3 590/219/3 551/113/3
f 592/225/3 591/222/3 551/113/3
f 593/228/3 592/225/3 482/208/3
f 595/232/3 594/230/3 596/234/3
f 594/230/3 593/228/3 596/234/3
f 520/302/3 519/300/3 518/297/3
f 596/234/3 593/228/3 481/206/3
f 599/240/3 598/237/3 597/235/3
f 597/235/3 596/234/3 481/206/3
f 593/228/3 482/208/3 481/206/3
f 539/81/3 515/291/3 514/288/3
f 600/243/3 599/240/3 597/235/3
f 603/252/3 602/249/3 601/246/3
f 601/246/3 600/243/3 478/198/3
f 600/243/3 597/235/3 478/198/3
f 478/198/3 597/235/3 481/206/3
f 604/255/3 603/252/3 601/246/3
f 606/261/3 605/258/3 604/255/3
f 476/194/3 608/267/3 607/264/3
f 607/264/3 606/261/3 604/255/3
f 604/255/3 601/246/3 607/264/3
f 607/264/3 601/246/3 477/195/3
f 543/13/3 513/286/3 512/284/3
f 477/195/3 601/246/3 478/198/3
f 477/195/3 476/194/3 607/264/3
f 480/204/3 479/201/3 478/198/3
f 481/206/3 480/204/3 478/198/3
f 543/13/3 512/284/3 493/15/3
f 493/15/3 512/284/3 511/282/3
f 488/226/3 545/98/3 489/29/3
f 508/276/3 507/274/3 504/268/3
f 507/274/274 506/272/274 505/270/274
f 504/268/3 507/274/3 505/270/3
f 504/268/3 503/265/3 508/276/3
f 503/265/3 502/262/3 508/276/3
f 502/262/3 501/259/3 508/276/3
f 501/259/3 500/256/3 509/278/3
f 500/256/3 499/253/3 509/278/3
f 499/253/3 498/250/3 509/278/3
f 498/250/3 497/247/3 509/278/3
f 497/247/272 496/244/272 510/280/272
f 496/244/3 495/241/3 510/280/3
f 495/241/3 494/238/3 510/280/3
f 497/247/3 510/280/3 509/278/3
f 501/259/3 509/278/3 508/276/3
f 511/282/3 510/280/3 494/238/3
f 483/211/3 482/208/3 549/108/3
f 484/214/3 483/211/3 548/106/3
f 511/282/274 494/238/274 493/15/274
f 493/15/3 492/14/3 543/13/3
f 492/14/272 491/233/272 543/13/272
f 491/233/3 490/28/3 544/30/3
f 322/57/3 321/54/3 319/48/3
f 321/54/3 320/51/3 319/48/3
f 324/63/3 323/60/3 318/46/3
f 323/60/3 322/57/3 319/48/3
f 326/69/3 325/66/3 316/40/3
f 325/66/3 324/63/3 317/43/3
f 328/18/3 327/72/3 314/17/3
f 327/72/3 326/69/3 315/37/3
f 330/80/3 329/77/3 312/304/3
f 329/77/3 328/18/3 313/16/3
f 332/86/3 331/83/3 310/299/3
f 331/83/3 330/80/3 311/301/3
f 334/92/3 333/89/3 309/94/3
f 333/89/3 332/86/3 309/94/3
f 331/83/3 311/301/3 310/299/3
f 329/77/3 313/16/3 312/304/3
f 327/72/3 315/37/3 314/17/3
f 325/66/3 317/43/3 316/40/3
f 317/43/3 324/63/3 318/46/3
f 323/60/3 319/48/3 318/46/3
f 310/299/3 309/94/3 332/86/3
f 326/69/3 316/40/3 315/37/3
f 312/304/3 311/301/3 330/80/3
f 521/31/4 522/32/4 218/32/4
f 417/33/5 418/34/5 114/34/5
f 313/16/6 314/17/6 10/17/6
f 522/32/275 523/35/275 219/35/275
f 418/34/8 419/36/8 115/36/8
f 314/17/9 315/37/9 11/37/9
f 523/35/10 524/38/10 220/38/10
f 419/36/11 420/39/11 116/39/11
f 315/37/12 316/40/12 12/40/12
f 524/38/13 525/41/13 221/41/13
f 420/39/14 421/42/14 117/42/14
f 316/40/15 317/43/15 13/43/15
f 525/41/276 526/44/276 222/44/276
f 421/42/17 422/45/17 118/45/17
f 317/43/18 318/46/18 14/46/18
f 526/44/19 527/47/19 223/47/19
f 422/45/20 423/3/20 119/3/20
f 318/46/277 319/48/277 15/48/277
f 527/47/278 528/49/278 224/49/278
f 423/3/23 424/50/23 120/50/23
f 319/48/24 320/51/24 16/51/24
f 528/49/279 529/52/279 225/52/279
f 424/50/26 425/53/26 121/53/26
f 320/51/27 321/54/27 17/54/27
f 529/52/28 530/55/28 226/55/28
f 425/53/280 426/56/280 122/56/280
f 321/54/30 322/57/30 18/57/30
f 530/55/281 531/58/281 227/58/281
f 426/56/32 427/59/32 123/59/32
f 322/57/33 323/60/33 19/60/33
f 531/58/34 532/61/34 228/61/34
f 427/59/35 428/62/35 124/62/35
f 323/60/36 324/63/36 20/63/36
f 532/61/37 533/64/37 229/64/37
f 428/62/38 429/65/38 125/65/38
f 324/63/282 325/66/282 21/66/282
f 533/64/40 534/67/40 230/67/40
f 429/65/283 430/68/283 126/68/283
f 325/66/42 326/69/42 22/69/42
f 534/67/43 535/70/43 231/70/43
f 430/68/44 431/71/44 127/71/44
f 326/69/45 327/72/45 23/72/45
f 535/70/46 536/73/46 232/73/46
f 431/71/47 432/74/47 128/74/47
f 327/72/48 328/18/48 24/18/48
f 536/73/49 537/75/49 233/75/49
f 432/74/284 433/76/284 129/76/284
f 328/18/51 329/77/51 25/77/51
f 537/75/52 538/78/52 234/78/52
f 433/76/285 434/79/285 130/79/285
f 329/77/286 330/80/286 26/80/286
f 538/78/55 539/81/55 235/81/55
f 434/79/56 435/82/56 131/82/56
f 330/80/57 331/83/57 27/83/57
f 539/81/58 540/84/58 236/84/58
f 435/82/287 436/85/287 132/85/287
f 331/83/60 332/86/60 28/86/60
f 540/84/61 541/87/61 237/87/61
f 436/85/62 437/88/62 133/88/62
f 332/86/63 333/89/63 29/89/63
f 541/87/64 542/90/64 238/90/64
f 437/88/65 438/91/65 134/91/65
f 333/89/66 334/92/66 30/92/66
f 542/90/67 543/13/67 239/13/67
f 438/91/288 439/93/288 135/93/288
f 334/92/69 309/94/69 5/94/69
f 543/13/70 544/30/70 240/30/70
f 439/93/71 440/95/71 136/95/71
f 335/96/72 336/97/72 32/97/72
f 544/30/73 545/98/73 241/98/73
f 440/95/289 441/99/289 137/99/289
f 336/97/75 337/100/75 33/100/75
f 545/98/76 546/101/76 242/101/76
f 441/99/77 442/102/77 138/102/77
f 337/100/78 338/103/78 34/103/78
f 546/101/79 547/104/79 243/104/79
f 442/102/80 443/105/80 139/105/80
f 338/103/81 339/4/81 35/4/81
f 547/104/82 548/106/82 244/106/82
f 443/105/290 444/107/290 140/107/290
f 339/4/84 340/5/84 36/5/84
f 548/106/291 549/108/291 245/108/291
f 444/107/86 445/109/86 141/109/86
f 340/5/87 341/110/87 37/110/87
f 549/108/88 550/111/88 246/111/88
f 445/109/89 446/112/89 142/112/89
f 341/110/90 342/24/90 38/24/90
f 550/111/91 551/113/91 247/113/91
f 446/112/92 447/114/92 143/114/92
f 342/24/93 343/23/93 39/23/93
f 551/113/94 552/115/94 248/115/94
f 447/114/95 448/116/95 144/116/95
f 343/23/96 344/117/96 40/117/96
f 552/115/97 553/118/97 249/118/97
f 448/116/98 449/119/98 145/119/98
f 344/117/99 345/120/99 41/120/99
f 553/118/100 554/121/100 250/121/100
f 449/119/101 450/1/101 146/1/101
f 345/120/102 346/122/102 42/122/102
f 554/121/103 555/123/103 251/123/103
f 450/1/104 451/2/104 147/2/104
f 346/122/105 347/124/105 43/124/105
f 555/123/106 556/125/106 252/125/106
f 451/2/292 452/126/292 148/126/292
f 347/124/108 348/127/108 44/127/108
f 556/125/109 557/128/109 253/128/109
f 452/126/293 453/129/293 149/129/293
f 348/127/111 349/130/111 45/130/111
f 557/128/112 558/131/112 254/131/112
f 453/129/113 454/132/113 150/132/113
f 349/130/114 350/133/114 46/133/114
f 558/131/294 559/134/294 255/134/294
f 454/132/116 455/135/116 151/135/116
f 350/133/117 351/136/117 47/136/117
f 559/134/118 560/137/118 256/137/118
f 455/135/106 456/138/106 152/138/106
f 351/136/119 352/22/119 48/22/119
f 560/137/120 561/139/120 257/139/120
f 456/138/121 457/140/121 153/140/121
f 352/22/122 353/141/122 49/141/122
f 561/139/123 562/142/123 258/142/123
f 457/140/124 458/143/124 154/143/124
f 353/141/125 354/144/125 50/144/125
f 562/142/126 563/145/126 259/145/126
f 458/143/121 459/146/121 155/146/121
f 354/144/295 355/6/295 51/6/295
f 563/145/296 564/147/296 260/147/296
f 459/146/124 460/148/124 156/148/124
f 355/6/129 356/149/129 52/149/129
f 564/147/130 565/150/130 261/150/130
f 460/148/121 461/151/121 157/151/121
f 356/149/131 357/152/131 53/152/131
f 565/150/297 566/153/297 262/153/297
f 461/151/124 462/154/124 158/154/124
f 357/152/133 358/155/133 54/155/133
f 566/153/134 567/156/134 263/156/134
f 462/154/135 463/157/135 159/157/135
f 358/155/136 359/158/136 55/158/136
f 567/156/298 568/159/298 264/159/298
f 463/157/124 464/160/124 160/160/124
f 359/158/138 360/161/138 56/161/138
f 568/159/139 569/162/139 265/162/139
f 464/160/135 465/163/135 161/163/135
f 360/161/140 335/96/140 31/96/140
f 569/162/141 570/164/141 266/164/141
f 465/163/106 466/7/106 162/7/106
f 361/165/135 362/166/135 58/166/135
f 570/164/142 571/167/142 267/167/142
f 466/7/135 467/8/135 163/8/135
f 362/166/124 363/168/124 59/168/124
f 571/167/143 572/169/143 268/169/143
f 467/8/144 468/170/144 164/170/144
f 363/168/145 364/171/145 60/171/145
f 572/169/146 573/172/146 269/172/146
f 468/170/147 469/173/147 165/173/147
f 364/171/148 365/174/148 61/174/148
f 573/172/149 574/175/149 270/175/149
f 469/173/150 470/176/150 166/176/150
f 365/174/151 366/177/151 62/177/151
f 574/175/152 575/178/152 271/178/152
f 470/176/153 471/179/153 167/179/153
f 366/177/154 367/180/154 63/180/154
f 575/178/155 576/181/155 272/181/155
f 471/179/156 472/182/156 168/182/156
f 367/180/157 368/25/157 64/25/157
f 576/181/299 577/183/299 273/183/299
f 472/182/159 473/27/159 169/27/159
f 368/25/160 369/184/160 65/184/160
f 577/183/161 578/185/161 274/185/161
f 473/27/162 474/26/162 170/26/162
f 369/184/163 370/186/163 66/186/163
f 578/185/300 579/187/300 275/187/300
f 474/26/165 475/188/165 171/188/165
f 370/186/166 371/189/166 67/189/166
f 579/187/124 580/190/124 276/190/124
f 475/188/167 377/191/167 73/191/167
f 371/189/168 372/192/168 68/192/168
f 580/190/301 581/193/301 277/193/301
f 476/194/106 477/195/106 173/195/106
f 372/192/170 373/196/170 69/196/170
f 581/193/302 582/197/302 278/197/302
f 477/195/135 478/198/135 174/198/135
f 373/196/172 374/199/172 70/199/172
f 582/197/173 583/200/173 279/200/173
f 478/198/124 479/201/124 175/201/124
f 374/199/174 375/202/174 71/202/174
f 583/200/303 584/203/303 280/203/303
f 479/201/135 480/204/135 176/204/135
f 375/202/121 376/9/121 72/9/121
f 584/203/176 585/205/176 281/205/176
f 480/204/106 481/206/106 177/206/106
f 376/9/106 361/165/106 57/165/106
f 585/205/177 586/207/177 282/207/177
f 481/206/135 482/208/135 178/208/135
f 377/191/178 378/209/178 74/209/178
f 586/207/179 587/210/179 283/210/179
f 482/208/180 483/211/180 179/211/180
f 378/209/181 379/212/181 75/212/181
f 587/210/182 588/213/182 284/213/182
f 483/211/183 484/214/183 180/214/183
f 379/212/184 380/215/184 76/215/184
f 588/213/304 589/216/304 285/216/304
f 484/214/186 485/217/186 181/217/186
f 380/215/124 381/218/124 77/218/124
f 589/216/187 590/219/187 286/219/187
f 485/217/188 486/220/188 182/220/188
f 381/218/135 382/221/135 78/221/135
f 590/219/305 591/222/305 287/222/305
f 486/220/190 487/223/190 183/223/190
f 382/221/106 383/224/106 79/224/106
f 591/222/191 592/225/191 288/225/191
f 487/223/192 488/226/192 184/226/192
f 383/224/193 384/227/193 80/227/193
f 592/225/121 593/228/121 289/228/121
f 488/226/194 489/29/194 185/29/194
f 384/227/195 385/229/195 81/229/195
f 593/228/106 594/230/106 290/230/106
f 489/29/196 490/28/196 186/28/196
f 385/229/306 386/231/306 82/231/306
f 594/230/121 595/232/121 291/232/121
f 490/28/198 491/233/198 187/233/198
f 386/231/199 387/20/199 83/20/199
f 595/232/124 596/234/124 292/234/124
f 491/233/200 492/14/200 188/14/200
f 387/20/201 388/19/201 84/19/201
f 596/234/121 597/235/121 293/235/121
f 492/14/307 493/15/307 189/15/307
f 388/19/203 389/236/203 85/236/203
f 597/235/106 598/237/106 294/237/106
f 493/15/204 494/238/204 190/238/204
f 389/236/205 390/239/205 86/239/205
f 598/237/121 599/240/121 295/240/121
f 494/238/206 495/241/206 191/241/206
f 390/239/207 391/242/207 87/242/207
f 599/240/124 600/243/124 296/243/124
f 495/241/308 496/244/308 192/244/308
f 391/242/209 392/245/209 88/245/209
f 600/243/121 601/246/121 297/246/121
f 496/244/210 497/247/210 193/247/210
f 392/245/211 393/248/211 89/248/211
f 601/246/106 602/249/106 298/249/106
f 497/247/212 498/250/212 194/250/212
f 393/248/213 394/251/213 90/251/213
f 602/249/121 603/252/121 299/252/121
f 498/250/309 499/253/309 195/253/309
f 394/251/310 395/254/310 91/254/310
f 603/252/124 604/255/124 300/255/124
f 499/253/216 500/256/216 196/256/216
f 395/254/217 396/257/217 92/257/217
f 604/255/121 605/258/121 301/258/121
f 500/256/218 501/259/218 197/259/218
f 396/257/311 397/260/311 93/260/311
f 605/258/124 606/261/124 302/261/124
f 501/259/220 502/262/220 198/262/220
f 397/260/221 398/263/221 94/263/221
f 606/261/135 607/264/135 303/264/135
f 502/262/222 503/265/222 199/265/222
f 398/263/223 399/266/223 95/266/223
f 607/264/124 608/267/124 304/267/124
f 503/265/224 504/268/224 200/268/224
f 399/266/312 400/269/312 96/269/312
f 608/267/135 476/194/135 172/194/135
f 504/268/313 505/270/313 201/270/313
f 400/269/314 401/271/314 97/271/314
f 505/270/228 506/272/228 202/272/228
f 401/271/315 402/273/315 98/273/315
f 506/272/230 507/274/230 203/274/230
f 402/273/316 403/275/316 99/275/316
f 507/274/232 508/276/232 204/276/232
f 403/275/317 404/277/317 100/277/317
f 508/276/234 509/278/234 205/278/234
f 404/277/318 405/279/318 101/279/318
f 509/278/236 510/280/236 206/280/236
f 405/279/237 406/281/237 102/281/237
f 510/280/238 511/282/238 207/282/238
f 406/281/239 407/283/239 103/283/239
f 511/282/319 512/284/319 208/284/319
f 407/283/241 408/285/241 104/285/241
f 512/284/242 513/286/242 209/286/242
f 408/285/243 409/287/243 105/287/243
f 513/286/244 514/288/244 210/288/244
f 409/287/320 410/289/320 106/289/320
f 305/290/106 306/11/106 2/11/106
f 514/288/321 515/291/321 211/291/321
f 410/289/247 411/292/247 107/292/247
f 306/11/121 307/12/121 3/12/121
f 515/291/248 516/293/248 212/293/248
f 411/292/249 412/294/249 108/294/249
f 307/12/124 308/10/124 4/10/124
f 516/293/250 517/295/250 213/295/250
f 412/294/251 413/296/251 109/296/251
f 308/10/135 305/290/135 1/290/135
f 517/295/252 518/297/252 214/297/252
f 413/296/253 414/298/253 110/298/253
f 309/94/254 310/299/254 6/299/254
f 518/297/255 519/300/255 215/300/255
f 414/298/256 415/21/256 111/21/256
f 310/299/257 311/301/257 7/301/257
f 519/300/322 520/302/322 216/302/322
f 415/21/259 416/303/259 112/303/259
f 311/301/260 312/304/260 8/304/260
f 520/302/323 521/31/323 217/31/323
f 416/303/324 417/33/324 113/33/324
f 312/304/263 313/16/263 9/16/263
