# Blender 4.2.2 LTS
# www.blender.org
mtllib TitleScene_01.mtl
o 立方体.009
v 1.600000 -1.200000 -0.930000
v 1.600000 1.600000 -0.930000
v 1.600000 -1.200000 1.070000
v 1.600000 1.600000 1.070000
v 1.400000 -1.200000 -0.930000
v 1.400000 1.600000 -0.930000
v 1.400000 -1.200000 1.070000
v 1.400000 1.600000 1.070000
vn -0.0000 -1.0000 -0.0000
vn -0.0000 1.0000 -0.0000
vn 1.0000 -0.0000 -0.0000
vn -0.0000 -0.0000 1.0000
vn -1.0000 -0.0000 -0.0000
vn -0.0000 -0.0000 -1.0000
vt 0.125000 0.750000
vt 0.375000 0.500000
vt 0.375000 0.750000
vt 0.625000 0.750000
vt 0.875000 0.500000
vt 0.875000 0.750000
vt 0.375000 0.250000
vt 0.625000 0.000000
vt 0.625000 0.250000
vt 0.625000 0.500000
vt -0.003906 1.005859
vt 0.996094 -0.001953
vt 0.998047 1.005859
vt -0.003906 0.361328
vt 0.998047 0.361328
vt 0.125000 0.500000
vt 0.375000 0.000000
vt 0.003906 0.001953
s 0
usemtl Material
f 1/1/1 7/2/1 5/3/1
f 6/4/2 4/5/2 2/6/2
f 3/7/3 2/8/3 4/9/3
f 7/2/4 4/9/4 8/10/4
f 5/11/5 8/12/5 6/13/5
f 1/14/6 6/12/6 2/15/6
f 1/1/1 3/16/1 7/2/1
f 6/4/2 8/10/2 4/5/2
f 3/7/3 1/17/3 2/8/3
f 7/2/4 3/7/4 4/9/4
f 5/11/5 7/18/5 8/12/5
f 1/14/6 5/18/6 6/12/6
o 平面
v 3.400000 0.400000 1.070000
v -0.600000 0.400000 1.070000
v 3.400000 0.400000 3.070000
v -0.600000 0.400000 3.070000
vn -0.0000 1.0000 -0.0000
vt 0.000000 1.000000
vt 1.000000 0.000000
vt 1.000000 1.000000
vt 0.000000 0.000000
s 0
usemtl Material
f 11/19/7 10/20/7 12/21/7
f 11/19/7 9/22/7 10/20/7
o 立方体.010
v 1.400000 0.400000 1.270000
v 1.400000 1.600000 1.270000
v 3.400000 0.400000 1.070000
v 3.400000 1.600000 1.070000
v 1.400000 0.400000 1.070000
v 1.400000 1.600000 1.070000
vn -0.0000 -0.0000 -1.0000
vn -1.0000 -0.0000 -0.0000
vt 0.625000 0.500000
vt 0.375000 0.750000
vt 0.375000 0.500000
vt 0.625000 0.250000
vt 0.625000 0.750000
vt 0.375000 0.250000
s 0
usemtl Material
f 18/23/8 15/24/8 17/25/8
f 17/25/9 14/26/9 18/23/9
f 18/23/8 16/27/8 15/24/8
f 17/25/9 13/28/9 14/26/9
o 平面.001
v 4.000000 0.400000 3.070000
v -0.600000 0.400000 3.070000
v 4.000000 2.600000 3.070000
v -0.600000 2.600000 3.070000
v 0.400000 0.400000 3.070000
v 0.400000 2.600000 3.070000
v 4.000000 2.380000 3.070000
v -0.600000 2.380000 3.070000
v 0.400000 2.380000 3.070000
v 0.400000 0.400000 3.170001
v -0.600000 0.400000 3.170001
v -0.600000 2.380000 3.170000
v 0.400000 2.380000 3.170000
v 0.350000 1.281225 3.170001
v -0.600000 2.238193 3.170000
v 0.400000 2.238193 3.170000
v 0.350000 0.400000 3.170001
v 0.350000 2.238193 3.170000
v -0.552500 1.281225 3.170001
v -0.552500 0.400000 3.170001
v -0.552500 2.238193 3.170000
v 0.350000 1.436735 3.170001
v -0.552500 1.436735 3.170001
v -0.509011 1.378590 3.120000
v -0.504538 1.386957 3.120000
v -0.498519 1.394292 3.120000
v -0.491185 1.400311 3.120000
v -0.482817 1.404783 3.120000
v -0.473737 1.407538 3.120000
v -0.473737 1.407538 3.150000
v -0.482817 1.404783 3.150000
v -0.491185 1.400311 3.150000
v -0.498519 1.394292 3.150000
v -0.504538 1.386957 3.150000
v -0.509011 1.378590 3.150000
v -0.511765 1.369510 3.150000
v -0.512695 1.360068 3.150000
v -0.511765 1.350625 3.150000
v -0.509011 1.341546 3.150000
v -0.504538 1.333178 3.150000
v -0.498519 1.325844 3.150000
v -0.491185 1.319825 3.150000
v -0.482817 1.315352 3.150000
v -0.473737 1.312598 3.150000
v -0.464295 1.311668 3.150000
v -0.454853 1.312598 3.150000
v -0.445773 1.315352 3.150000
v -0.437406 1.319825 3.150000
v -0.430071 1.325844 3.150000
v -0.424052 1.333178 3.150000
v -0.419579 1.341546 3.150000
v -0.416825 1.350625 3.150000
v -0.415895 1.360068 3.150000
v -0.416825 1.369510 3.150000
v -0.419579 1.378590 3.150000
v -0.424052 1.386957 3.150000
v -0.430071 1.394292 3.150000
v -0.437406 1.400311 3.150000
v -0.445773 1.404783 3.150000
v -0.454853 1.407538 3.150000
v -0.464295 1.408468 3.150000
v -0.464295 1.400068 3.155725
v -0.456492 1.399299 3.155725
v -0.448988 1.397023 3.155725
v -0.442072 1.393327 3.155725
v -0.436011 1.388352 3.155725
v -0.431036 1.382291 3.155725
v -0.427340 1.375375 3.155725
v -0.425064 1.367871 3.155725
v -0.424295 1.360068 3.155725
v -0.425064 1.352264 3.155725
v -0.427340 1.344760 3.155725
v -0.431036 1.337845 3.155725
v -0.436011 1.331784 3.155725
v -0.442072 1.326809 3.155725
v -0.448988 1.323113 3.155725
v -0.456492 1.320836 3.155725
v -0.464295 1.320068 3.155725
v -0.472099 1.320836 3.155725
v -0.479602 1.323113 3.155725
v -0.486518 1.326809 3.155725
v -0.492579 1.331784 3.155725
v -0.464295 1.408468 3.120000
v -0.454853 1.407538 3.120000
v -0.497554 1.337845 3.155725
v -0.501250 1.344760 3.155725
v -0.503527 1.352264 3.155725
v -0.445773 1.404783 3.120000
v -0.437406 1.400311 3.120000
v -0.430071 1.394292 3.120000
v -0.424052 1.386957 3.120000
v -0.419579 1.378590 3.120000
v -0.416825 1.369510 3.120000
v -0.415895 1.360068 3.120000
v -0.416825 1.350625 3.120000
v -0.419579 1.341546 3.120000
v -0.424052 1.333178 3.120000
v -0.504295 1.360068 3.155725
v -0.503527 1.367871 3.155725
v -0.501250 1.375375 3.155725
v -0.497554 1.382291 3.155725
v -0.492579 1.388352 3.155725
v -0.430071 1.325844 3.120000
v -0.437406 1.319825 3.120000
v -0.445773 1.315352 3.120000
v -0.454853 1.312598 3.120000
v -0.464295 1.311668 3.120000
v -0.473737 1.312598 3.120000
v -0.486518 1.393327 3.155725
v -0.479602 1.397023 3.155725
v -0.472099 1.399299 3.155725
v -0.472099 1.399299 3.170001
v -0.479602 1.397023 3.170001
v -0.486518 1.393327 3.170001
v -0.492579 1.388352 3.170001
v -0.497554 1.382291 3.170001
v -0.501250 1.375375 3.170001
v -0.482817 1.315352 3.120000
v -0.491185 1.319825 3.120000
v -0.498519 1.325844 3.120000
v -0.503527 1.367871 3.170001
v -0.504295 1.360068 3.170001
v -0.503527 1.352264 3.170001
v -0.501250 1.344760 3.170001
v -0.497554 1.337845 3.170001
v -0.492579 1.331784 3.170001
v -0.486518 1.326809 3.170001
v -0.479602 1.323113 3.170001
v -0.472099 1.320836 3.170001
v -0.464295 1.320068 3.170001
v -0.456492 1.320836 3.170001
v -0.448988 1.323113 3.170001
v -0.504538 1.333178 3.120000
v -0.509011 1.341546 3.120000
v -0.442072 1.326809 3.170001
v -0.436011 1.331784 3.170001
v -0.431036 1.337845 3.170001
v -0.427340 1.344760 3.170001
v -0.511765 1.350625 3.120000
v -0.425064 1.352264 3.170001
v -0.424295 1.360068 3.170001
v -0.425064 1.367871 3.170001
v -0.512695 1.360068 3.120000
v -0.427340 1.375375 3.170001
v -0.511765 1.369510 3.120000
v -0.431036 1.382291 3.170001
v -0.436011 1.388352 3.170001
v -0.442072 1.393327 3.170001
v -0.448988 1.397023 3.170001
v -0.456492 1.399299 3.170001
v -0.464295 1.400068 3.170001
v -0.504539 1.376737 3.120000
v -0.500514 1.384268 3.120000
v -0.495097 1.390869 3.120000
v -0.488496 1.396287 3.120000
v -0.480965 1.400312 3.120000
v -0.472793 1.402791 3.120000
v -0.464295 1.403628 3.120000
v -0.455797 1.402791 3.120000
v -0.447626 1.400312 3.120000
v -0.440094 1.396287 3.120000
v -0.433494 1.390869 3.120000
v -0.428076 1.384268 3.120000
v -0.424051 1.376737 3.120000
v -0.421572 1.368566 3.120000
v -0.420735 1.360068 3.120000
v -0.421572 1.351570 3.120000
v -0.424051 1.343398 3.120000
v -0.428076 1.335867 3.120000
v -0.433494 1.329266 3.120000
v -0.440094 1.323849 3.120000
v -0.447626 1.319824 3.120000
v -0.455797 1.317345 3.120000
v -0.464295 1.316508 3.120000
v -0.472793 1.317345 3.120000
v -0.480965 1.319824 3.120000
v -0.488496 1.323849 3.120000
v -0.495097 1.329266 3.120000
v -0.500514 1.335867 3.120000
v -0.504539 1.343398 3.120000
v -0.507018 1.351570 3.120000
v -0.507855 1.360068 3.120000
v -0.507018 1.368566 3.120000
v -0.501320 1.375404 3.140000
v -0.497616 1.382332 3.140000
v -0.492633 1.388405 3.140000
v -0.486560 1.393389 3.140000
v -0.479631 1.397092 3.140000
v -0.472113 1.399373 3.140000
v -0.464295 1.400143 3.140000
v -0.456477 1.399373 3.140000
v -0.448959 1.397092 3.140000
v -0.442031 1.393389 3.140000
v -0.435958 1.388405 3.140000
v -0.430974 1.382332 3.140000
v -0.427270 1.375404 3.140000
v -0.424990 1.367886 3.140000
v -0.424220 1.360068 3.140000
v -0.424990 1.352250 3.140000
v -0.427270 1.344732 3.140000
v -0.430974 1.337803 3.140000
v -0.435958 1.331730 3.140000
v -0.442031 1.326746 3.140000
v -0.448959 1.323043 3.140000
v -0.456477 1.320763 3.140000
v -0.464295 1.319993 3.140000
v -0.472113 1.320763 3.140000
v -0.479631 1.323043 3.140000
v -0.486560 1.326746 3.140000
v -0.492633 1.331730 3.140000
v -0.497616 1.337803 3.140000
v -0.501320 1.344732 3.140000
v -0.503600 1.352250 3.140000
v -0.504370 1.360068 3.140000
v -0.503600 1.367886 3.140000
v -0.464295 1.360068 3.140000
v -0.464295 1.360068 3.140000
v -0.464295 1.360068 3.140000
v -0.464295 1.360068 3.140000
v -0.464295 1.360068 3.140000
v -0.464295 1.360068 3.140000
v -0.464295 1.360068 3.140000
v -0.464295 1.360068 3.140000
v -0.464295 1.360068 3.140000
v -0.464295 1.360068 3.140000
v -0.464295 1.360068 3.140000
v -0.464295 1.360068 3.140000
v -0.464295 1.360068 3.140000
v -0.464295 1.360068 3.140000
v -0.464295 1.360068 3.140000
v -0.464295 1.360068 3.140000
v -0.464295 1.360068 3.140000
v -0.464295 1.360068 3.140000
v -0.464295 1.360068 3.140000
v -0.464295 1.360068 3.140000
v -0.464295 1.360068 3.140000
v -0.464295 1.360068 3.140000
v -0.464295 1.360068 3.140000
v -0.464295 1.360068 3.140000
v -0.464295 1.360068 3.140000
v -0.464295 1.360068 3.140000
v -0.464295 1.360068 3.140000
v -0.464295 1.360068 3.140000
v -0.464295 1.360068 3.140000
v -0.464295 1.360068 3.140000
v -0.464295 1.360068 3.140000
v -0.464295 1.360068 3.140000
vn -0.9952 -0.0980 -0.0000
vn 0.4714 0.8819 -0.0000
vn -1.0000 -0.0000 -0.0000
vn -0.0000 -0.0000 -1.0000
vn 0.2903 -0.9569 -0.0000
vn 1.0000 -0.0000 -0.0000
vn 0.9952 -0.0980 -0.0000
vn 0.8819 -0.4714 -0.0000
vn -0.4714 -0.8819 -0.0000
vn -0.0980 0.9952 -0.0000
vn -0.3585 -0.4368 -0.8251
vn -0.4368 0.3585 -0.8251
vn -0.5623 -0.0554 -0.8251
vn 0.2664 0.4983 -0.8251
vn 0.5623 0.0554 -0.8251
vn -0.0554 0.5623 -0.8251
vn 0.5407 0.1640 -0.8251
vn -0.0000 -0.0000 1.0000
vn -0.5407 0.1640 -0.8251
vn 0.1640 0.5407 -0.8251
vn -0.2664 0.4983 -0.8251
vn 0.4983 -0.2663 -0.8251
vn -0.4983 0.2663 -0.8251
vn 0.5623 -0.0554 -0.8251
vn 0.0554 0.5623 -0.8251
vn 0.2664 -0.4983 -0.8251
vn -0.4983 -0.2663 -0.8251
vn 0.1640 -0.5407 -0.8251
vn 0.0554 -0.5623 -0.8251
vn -0.0554 -0.5623 -0.8251
vn -0.1640 0.5407 -0.8251
vn 0.5407 -0.1641 -0.8250
vn -0.4368 -0.3585 -0.8251
vn -0.2664 -0.4983 -0.8251
vn -0.5623 0.0554 -0.8251
vn -0.1640 -0.5407 -0.8251
vn -0.5407 -0.1640 -0.8251
vn 0.3584 -0.4368 -0.8251
vn 0.4368 -0.3585 -0.8251
vn 0.4368 0.3585 -0.8251
vn 0.4983 0.2663 -0.8251
vn 0.4714 -0.8819 -0.0000
vn -0.9952 0.0980 -0.0000
vn 0.7730 -0.6344 -0.0000
vn -0.2903 0.9569 -0.0000
vn 0.9952 0.0980 -0.0000
vn 0.0980 -0.9952 -0.0000
vn -0.0000 -1.0000 -0.0000
vn -0.4714 0.8819 -0.0000
vn -0.6344 -0.7730 -0.0000
vn 0.9569 0.2903 -0.0000
vn 0.2903 0.9569 -0.0000
vn -0.9569 0.2903 -0.0000
vn -0.8819 0.4714 -0.0000
vn 0.9569 -0.2903 -0.0000
vn -0.6251 0.7616 0.1709
vn -0.7730 0.6344 -0.0000
vn 0.8819 0.4714 -0.0000
vn 0.0980 0.9952 -0.0000
vn -0.9569 -0.2903 -0.0000
vn -0.2903 -0.9569 -0.0000
vn 0.7730 0.6344 -0.0000
vn -0.6344 0.7730 -0.0000
vn 0.6344 -0.7730 -0.0000
vn -0.7730 -0.6344 -0.0000
vn 0.6344 0.7730 -0.0000
vn 0.6251 0.7616 0.1709
vn -0.0980 -0.9952 -0.0000
vn -0.8819 -0.4714 -0.0000
vn -0.0000 0.0001 1.0000
vn -0.0000 1.0000 -0.0000
vn -0.0000 -0.0001 1.0000
vn -0.7616 0.6251 0.1709
vn 0.9806 0.0966 0.1709
vn 0.7617 0.6251 0.1709
vn -0.3585 0.4368 -0.8251
vn 0.2860 0.9429 0.1709
vn -0.0966 -0.9806 0.1709
vn -0.6251 -0.7616 0.1709
vn 0.8690 0.4645 0.1709
vn -0.8690 -0.4645 0.1708
vn -0.2860 0.9429 0.1709
vn 0.9429 0.2860 0.1709
vn 0.3585 0.4367 -0.8251
vn 0.6251 -0.7617 0.1709
vn 0.4645 -0.8689 0.1708
vn 0.2861 -0.9429 0.1709
vn -0.4644 -0.8690 0.1709
vn -0.7616 -0.6251 0.1709
vn -0.0966 0.9806 0.1708
vn -0.9806 0.0966 0.1709
vn -0.9806 -0.0966 0.1709
vn 0.9806 -0.0966 0.1709
vn -0.8689 0.4645 0.1709
vn 0.7616 -0.6251 0.1709
vn 0.0966 0.9806 0.1709
vn 0.4645 0.8690 0.1708
vn -0.2860 -0.9429 0.1709
vn 0.9429 -0.2860 0.1709
vn -0.9429 -0.2860 0.1709
vn 0.0966 -0.9806 0.1709
vn -0.9429 0.2860 0.1709
vn -0.4644 0.8690 0.1708
vn 0.8690 -0.4645 0.1708
vn -0.2664 0.4984 -0.8250
vn 0.4983 -0.2664 -0.8251
vn -0.4983 0.2664 -0.8251
vn -0.4983 -0.2664 -0.8251
vn 0.5407 -0.1640 -0.8251
vn -0.2663 -0.4984 -0.8250
vn -0.5407 -0.1641 -0.8250
vn 0.3585 -0.4368 -0.8251
vn 0.4983 0.2664 -0.8251
vn 0.7616 0.6251 0.1709
vn -0.6251 -0.7617 0.1709
vn 0.8689 0.4645 0.1709
vn -0.2860 0.9429 0.1708
vn 0.3585 0.4368 -0.8251
vn 0.6251 -0.7616 0.1709
vn 0.4644 -0.8690 0.1709
vn 0.2860 -0.9429 0.1709
vn -0.4645 -0.8689 0.1708
vn -0.7617 -0.6251 0.1709
vn -0.0966 0.9806 0.1709
vn -0.8690 0.4645 0.1709
vn 0.0966 0.9806 0.1708
vn 0.4645 0.8690 0.1709
vn -0.2861 -0.9429 0.1709
vn -0.4645 0.8690 0.1709
vt 0.000000 0.000000
vt 0.500000 0.000000
vt 0.500000 0.450000
vt 0.525000 0.267750
vt 0.525000 0.315000
vt 0.000000 0.276953
vt 1.003906 0.000000
vt 1.001953 0.271094
vt 0.976250 0.000000
vt 0.976250 0.267750
vt 0.000000 1.005469
vt 1.001953 0.999609
vt 0.500000 1.000000
vt 1.000000 0.900000
vt 1.000000 1.000000
vt 0.976250 0.315000
vt 1.000000 0.450000
vt 0.525000 0.450000
vt 0.976250 0.450000
vt 0.500000 0.900000
vt 0.525000 0.000000
vt 1.000000 0.000000
s 0
usemtl Material
f 112/29/10 72/29/10 111/29/10
f 99/29/11 146/29/11 98/29/11
f 23/30/12 28/30/12 34/31/12
f 21/34/13 27/35/13 24/36/13
f 47/29/14 49/29/14 46/29/14
f 25/39/13 23/35/13 27/40/13
f 24/41/13 26/42/13 22/43/13
f 26/29/15 30/29/15 33/29/15
f 163/29/16 55/29/16 161/29/16
f 43/29/17 53/29/17 42/29/17
f 107/29/18 77/29/18 106/29/18
f 125/29/19 64/29/19 124/29/19
f 84/29/20 76/29/20 75/29/20
f 91/29/21 67/29/21 92/29/21
f 88/29/22 72/29/22 71/29/22
f 99/29/23 61/29/23 60/29/23
f 105/29/24 55/29/24 116/29/24
f 96/29/25 64/29/25 63/29/25
f 104/29/26 56/29/26 105/29/26
f 123/29/27 191/29/27 124/29/27
f 90/29/28 70/29/28 69/29/28
f 97/29/29 61/29/29 98/29/29
f 94/29/30 66/29/30 65/29/30
f 119/29/31 53/29/31 52/29/31
f 91/29/32 69/29/32 68/29/32
f 117/29/33 55/29/33 54/29/33
f 96/29/34 62/29/34 97/29/34
f 127/29/35 49/29/35 128/29/35
f 86/29/36 74/29/36 73/29/36
f 129/29/37 49/29/37 48/29/37
f 80/29/38 48/29/38 79/29/38
f 80/29/39 78/29/39 81/29/39
f 95/29/40 65/29/40 64/29/40
f 117/29/41 53/29/41 118/29/41
f 85/29/42 75/29/42 74/29/42
f 76/29/43 82/29/43 77/29/43
f 88/29/44 70/29/44 89/29/44
f 78/29/45 82/29/45 81/29/45
f 87/29/46 73/29/46 72/29/46
f 120/29/47 50/29/47 127/29/47
f 136/29/27 193/29/27 194/29/27
f 119/29/48 51/29/48 120/29/48
f 103/29/49 59/29/49 58/29/49
f 104/29/50 58/29/50 57/29/50
f 128/29/51 132/29/51 127/29/51
f 89/29/52 159/29/52 88/29/52
f 44/29/53 52/29/53 43/29/53
f 95/29/54 150/29/54 94/29/54
f 161/29/55 56/29/55 157/29/55
f 80/29/56 130/29/56 129/29/56
f 30/42/57 27/48/57 31/48/57
f 123/29/58 66/29/58 122/29/58
f 108/29/59 76/29/59 107/29/59
f 105/29/60 142/29/60 104/29/60
f 136/29/61 62/29/61 126/29/61
f 90/29/62 158/29/62 89/29/62
f 124/29/54 65/29/54 123/29/54
f 115/29/63 69/29/63 114/29/63
f 96/29/19 149/29/19 95/29/19
f 101/29/56 48/29/56 47/29/56
f 42/29/64 54/29/64 163/29/64
f 114/29/62 70/29/62 113/29/62
f 94/29/58 153/29/58 93/29/58
f 173/29/65 204/29/65 205/29/65
f 46/29/51 50/29/51 45/29/51
f 121/29/66 68/29/66 115/29/66
f 118/29/64 139/29/64 117/29/64
f 157/29/60 57/29/60 152/29/60
f 104/29/67 143/29/67 103/29/67
f 126/29/68 63/29/68 125/29/68
f 87/29/69 162/29/69 86/29/69
f 82/29/70 168/29/70 81/29/70
f 103/29/71 144/29/71 100/29/71
f 113/29/52 71/29/52 112/29/52
f 97/29/68 148/29/68 96/29/68
f 93/29/72 154/29/72 92/29/72
f 127/29/73 133/29/73 120/29/73
f 151/29/71 59/29/71 138/29/71
f 109/29/74 75/29/74 108/29/74
f 100/29/75 145/29/75 99/29/75
f 180/29/76 211/29/76 212/29/76
f 138/29/75 60/29/75 137/29/75
f 129/29/14 131/29/14 128/29/14
f 102/29/77 79/29/77 101/29/77
f 83/29/18 167/29/18 82/29/18
f 86/29/78 164/29/78 85/29/78
f 92/29/66 155/29/66 91/29/66
f 119/29/17 135/29/17 118/29/17
f 91/29/63 156/29/63 90/29/63
f 110/29/78 74/29/78 109/29/78
f 116/29/55 141/29/55 105/29/55
f 122/29/72 67/29/72 121/29/72
f 117/29/16 140/29/16 116/29/16
f 120/29/53 134/29/53 119/29/53
f 106/29/70 78/29/70 102/29/70
f 111/29/69 73/29/69 110/29/69
f 88/29/10 160/29/10 87/29/10
f 85/29/74 165/29/74 84/29/74
f 137/29/11 61/29/11 136/29/11
f 98/29/61 147/29/61 97/29/61
f 81/29/77 169/29/77 80/29/77
f 45/29/73 51/29/73 44/29/73
f 108/29/27 181/29/27 109/29/27
f 137/29/79 194/29/79 195/29/79
f 124/29/27 192/29/27 125/29/27
f 122/29/27 190/29/27 123/29/27
f 121/29/27 189/29/27 122/29/27
f 113/29/27 184/29/27 185/29/27
f 44/29/27 173/29/27 45/29/27
f 106/29/27 179/29/27 107/29/27
f 111/29/27 184/29/27 112/29/27
f 157/29/27 198/29/27 199/29/27
f 101/29/27 177/29/27 102/29/27
f 101/29/27 175/29/27 176/29/27
f 138/29/27 195/29/27 196/29/27
f 43/29/27 170/29/27 171/29/27
f 108/29/27 179/29/27 180/29/27
f 163/29/27 170/29/27 42/29/27
f 121/29/27 187/29/27 188/29/27
f 157/29/27 200/29/27 161/29/27
f 163/29/27 200/29/27 201/29/27
f 126/29/27 192/29/27 193/29/27
f 138/29/27 197/29/27 151/29/27
f 20/29/80 35/29/80 23/29/80
f 109/29/27 182/29/27 110/29/27
f 102/29/27 178/29/27 106/29/27
f 111/29/27 182/29/27 183/29/27
f 46/29/81 173/29/81 174/29/81
f 114/29/27 187/29/27 115/29/27
f 44/29/27 171/29/27 172/29/27
f 47/29/27 174/29/27 175/29/27
f 113/29/27 186/29/27 114/29/27
f 152/29/27 197/29/27 198/29/27
f 171/29/82 204/29/82 172/29/82
f 184/29/83 215/29/83 216/29/83
f 180/29/84 213/29/84 181/29/84
f 66/29/85 92/29/85 67/29/85
f 177/29/86 210/29/86 178/29/86
f 193/29/87 224/29/87 225/29/87
f 195/29/88 228/29/88 196/29/88
f 214/29/89 181/29/89 213/29/89
f 197/29/90 230/29/90 198/29/90
f 175/29/91 206/29/91 207/29/91
f 182/29/92 215/29/92 183/29/92
f 99/29/93 59/29/93 100/29/93
f 188/29/94 221/29/94 189/29/94
f 190/29/95 221/29/95 222/29/95
f 191/29/96 222/29/96 223/29/96
f 194/29/97 227/29/97 195/29/97
f 197/29/98 228/29/98 229/29/98
f 176/29/99 207/29/99 208/29/99
f 201/29/100 232/29/100 233/29/100
f 200/29/101 231/29/101 232/29/101
f 184/29/102 217/29/102 185/29/102
f 170/29/103 203/29/103 171/29/103
f 188/29/104 219/29/104 220/29/104
f 176/29/105 209/29/105 177/29/105
f 179/29/106 210/29/106 211/29/106
f 194/29/107 225/29/107 226/29/107
f 186/29/108 217/29/108 218/29/108
f 199/29/109 230/29/109 231/29/109
f 191/29/110 224/29/110 192/29/110
f 201/29/111 202/29/111 170/29/111
f 174/29/112 205/29/112 206/29/112
f 187/29/113 218/29/113 219/29/113
f 215/29/80 246/29/80 247/29/80
f 216/29/80 247/29/80 248/29/80
f 207/29/80 238/29/80 239/29/80
f 221/29/80 252/29/80 253/29/80
f 220/29/80 251/29/80 252/29/80
f 205/29/80 236/29/80 237/29/80
f 224/29/80 255/29/80 256/29/80
f 226/29/80 257/29/80 258/29/80
f 227/29/80 258/29/80 259/29/80
f 209/29/80 240/29/80 241/29/80
f 223/29/80 254/29/80 255/29/80
f 213/29/80 244/29/80 245/29/80
f 204/29/80 235/29/80 236/29/80
f 219/29/80 250/29/80 251/29/80
f 231/29/80 262/29/80 263/29/80
f 208/29/80 239/29/80 240/29/80
f 210/29/80 241/29/80 242/29/80
f 222/29/80 253/29/80 254/29/80
f 206/29/80 237/29/80 238/29/80
f 218/29/80 249/29/80 250/29/80
f 228/29/80 259/29/80 260/29/80
f 230/29/80 261/29/80 262/29/80
f 214/29/80 245/29/80 246/29/80
f 217/29/80 248/29/80 249/29/80
f 225/29/80 256/29/80 257/29/80
f 203/29/80 234/29/80 235/29/80
f 232/29/80 263/29/80 264/29/80
f 202/29/80 265/29/80 234/29/80
f 229/29/80 260/29/80 261/29/80
f 211/29/80 242/29/80 243/29/80
f 233/29/80 264/29/80 265/29/80
f 212/29/80 243/29/80 244/29/80
f 31/48/12 27/48/12 34/31/12
f 27/48/12 23/30/12 34/31/12
f 28/29/80 23/29/80 35/29/80
f 20/29/80 29/29/80 38/29/80
f 29/29/15 20/29/15 33/29/15
f 20/29/15 26/29/15 33/29/15
f 215/29/27 214/29/27 246/29/27
f 216/29/27 215/29/27 247/29/27
f 207/29/27 206/29/27 238/29/27
f 221/29/27 220/29/27 252/29/27
f 220/29/27 219/29/27 251/29/27
f 205/29/27 204/29/27 236/29/27
f 224/29/27 223/29/27 255/29/27
f 226/29/27 225/29/27 257/29/27
f 227/29/27 226/29/27 258/29/27
f 209/29/27 208/29/27 240/29/27
f 223/29/27 222/29/27 254/29/27
f 213/29/27 212/29/27 244/29/27
f 204/29/27 203/29/27 235/29/27
f 219/29/27 218/29/27 250/29/27
f 231/29/27 230/29/27 262/29/27
f 208/29/27 207/29/27 239/29/27
f 210/29/27 209/29/27 241/29/27
f 222/29/27 221/29/27 253/29/27
f 206/29/27 205/29/27 237/29/27
f 218/29/27 217/29/27 249/29/27
f 228/29/27 227/29/27 259/29/27
f 230/29/27 229/29/27 261/29/27
f 214/29/27 213/29/27 245/29/27
f 217/29/27 216/29/27 248/29/27
f 225/29/27 224/29/27 256/29/27
f 203/29/27 202/29/27 234/29/27
f 232/29/27 231/29/27 263/29/27
f 202/29/27 233/29/27 265/29/27
f 229/29/27 228/29/27 260/29/27
f 211/29/27 210/29/27 242/29/27
f 233/29/27 232/29/27 264/29/27
f 212/29/27 211/29/27 243/29/27
f 152/29/67 58/29/67 151/29/67
f 84/29/59 166/29/59 83/29/59
f 112/29/10 71/29/10 72/29/10
f 99/29/11 145/29/11 146/29/11
f 21/34/13 25/29/13 27/35/13
f 47/29/14 48/29/14 49/29/14
f 25/39/13 19/29/13 23/35/13
f 24/41/13 27/48/13 26/42/13
f 163/29/16 54/29/16 55/29/16
f 43/29/17 52/29/17 53/29/17
f 107/29/18 76/29/18 77/29/18
f 125/29/19 63/29/19 64/29/19
f 84/29/20 83/29/20 76/29/20
f 91/29/21 68/29/21 67/29/21
f 88/29/22 87/29/22 72/29/22
f 99/29/23 98/29/23 61/29/23
f 105/29/24 56/29/24 55/29/24
f 96/29/25 95/29/25 64/29/25
f 104/29/26 57/29/26 56/29/26
f 123/29/27 190/29/27 191/29/27
f 90/29/28 89/29/28 70/29/28
f 97/29/29 62/29/29 61/29/29
f 94/29/114 93/29/114 66/29/114
f 119/29/115 118/29/115 53/29/115
f 91/29/116 90/29/116 69/29/116
f 117/29/33 116/29/33 55/29/33
f 96/29/34 63/29/34 62/29/34
f 127/29/35 50/29/35 49/29/35
f 86/29/117 85/29/117 74/29/117
f 129/29/37 128/29/37 49/29/37
f 80/29/38 129/29/38 48/29/38
f 80/29/39 79/29/39 78/29/39
f 95/29/40 94/29/40 65/29/40
f 117/29/118 54/29/118 53/29/118
f 85/29/42 84/29/42 75/29/42
f 76/29/119 83/29/119 82/29/119
f 88/29/44 71/29/44 70/29/44
f 78/29/45 77/29/45 82/29/45
f 87/29/120 86/29/120 73/29/120
f 120/29/121 51/29/121 50/29/121
f 136/29/27 126/29/27 193/29/27
f 119/29/48 52/29/48 51/29/48
f 103/29/49 100/29/49 59/29/49
f 104/29/122 103/29/122 58/29/122
f 128/29/51 131/29/51 132/29/51
f 89/29/52 158/29/52 159/29/52
f 44/29/53 51/29/53 52/29/53
f 95/29/54 149/29/54 150/29/54
f 161/29/55 55/29/55 56/29/55
f 80/29/56 169/29/56 130/29/56
f 30/42/57 26/42/57 27/48/57
f 123/29/58 65/29/58 66/29/58
f 108/29/59 75/29/59 76/29/59
f 105/29/60 141/29/60 142/29/60
f 136/29/61 61/29/61 62/29/61
f 90/29/62 156/29/62 158/29/62
f 124/29/54 64/29/54 65/29/54
f 115/29/63 68/29/63 69/29/63
f 96/29/19 148/29/19 149/29/19
f 101/29/56 79/29/56 48/29/56
f 42/29/64 53/29/64 54/29/64
f 114/29/62 69/29/62 70/29/62
f 94/29/58 150/29/58 153/29/58
f 173/29/65 172/29/65 204/29/65
f 46/29/51 49/29/51 50/29/51
f 121/29/66 67/29/66 68/29/66
f 118/29/64 135/29/64 139/29/64
f 157/29/60 56/29/60 57/29/60
f 104/29/67 142/29/67 143/29/67
f 126/29/68 62/29/68 63/29/68
f 87/29/69 160/29/69 162/29/69
f 82/29/70 167/29/70 168/29/70
f 103/29/71 143/29/71 144/29/71
f 113/29/52 70/29/52 71/29/52
f 97/29/68 147/29/68 148/29/68
f 93/29/72 153/29/72 154/29/72
f 127/29/73 132/29/73 133/29/73
f 151/29/71 58/29/71 59/29/71
f 109/29/74 74/29/74 75/29/74
f 100/29/75 144/29/75 145/29/75
f 180/29/76 179/29/76 211/29/76
f 138/29/75 59/29/75 60/29/75
f 129/29/14 130/29/14 131/29/14
f 102/29/77 78/29/77 79/29/77
f 83/29/18 166/29/18 167/29/18
f 86/29/78 162/29/78 164/29/78
f 92/29/66 154/29/66 155/29/66
f 119/29/17 134/29/17 135/29/17
f 91/29/63 155/29/63 156/29/63
f 110/29/78 73/29/78 74/29/78
f 116/29/55 140/29/55 141/29/55
f 122/29/72 66/29/72 67/29/72
f 117/29/16 139/29/16 140/29/16
f 120/29/53 133/29/53 134/29/53
f 106/29/70 77/29/70 78/29/70
f 111/29/69 72/29/69 73/29/69
f 88/29/10 159/29/10 160/29/10
f 85/29/74 164/29/74 165/29/74
f 137/29/11 60/29/11 61/29/11
f 98/29/61 146/29/61 147/29/61
f 81/29/77 168/29/77 169/29/77
f 45/29/73 50/29/73 51/29/73
f 108/29/27 180/29/27 181/29/27
f 137/29/27 136/29/27 194/29/27
f 124/29/27 191/29/27 192/29/27
f 122/29/79 189/29/79 190/29/79
f 121/29/27 188/29/27 189/29/27
f 113/29/27 112/29/27 184/29/27
f 44/29/27 172/29/27 173/29/27
f 106/29/81 178/29/81 179/29/81
f 111/29/27 183/29/27 184/29/27
f 157/29/27 152/29/27 198/29/27
f 101/29/27 176/29/27 177/29/27
f 101/29/27 47/29/27 175/29/27
f 138/29/27 137/29/27 195/29/27
f 43/29/27 42/29/27 170/29/27
f 108/29/27 107/29/27 179/29/27
f 163/29/27 201/29/27 170/29/27
f 121/29/27 115/29/27 187/29/27
f 157/29/27 199/29/27 200/29/27
f 163/29/27 161/29/27 200/29/27
f 126/29/27 125/29/27 192/29/27
f 138/29/27 196/29/27 197/29/27
f 20/29/80 38/29/80 35/29/80
f 109/29/27 181/29/27 182/29/27
f 102/29/27 177/29/27 178/29/27
f 111/29/27 110/29/27 182/29/27
f 46/29/27 45/29/27 173/29/27
f 114/29/27 186/29/27 187/29/27
f 44/29/27 43/29/27 171/29/27
f 47/29/27 46/29/27 174/29/27
f 113/29/27 185/29/27 186/29/27
f 152/29/27 151/29/27 197/29/27
f 171/29/82 203/29/82 204/29/82
f 184/29/83 183/29/83 215/29/83
f 180/29/123 212/29/123 213/29/123
f 66/29/85 93/29/85 92/29/85
f 177/29/86 209/29/86 210/29/86
f 193/29/87 192/29/87 224/29/87
f 195/29/124 227/29/124 228/29/124
f 214/29/125 182/29/125 181/29/125
f 197/29/90 229/29/90 230/29/90
f 175/29/126 174/29/126 206/29/126
f 182/29/92 214/29/92 215/29/92
f 99/29/127 60/29/127 59/29/127
f 188/29/128 220/29/128 221/29/128
f 190/29/129 189/29/129 221/29/129
f 191/29/130 190/29/130 222/29/130
f 194/29/131 226/29/131 227/29/131
f 197/29/132 196/29/132 228/29/132
f 176/29/133 175/29/133 207/29/133
f 201/29/100 200/29/100 232/29/100
f 200/29/101 199/29/101 231/29/101
f 184/29/102 216/29/102 217/29/102
f 170/29/134 202/29/134 203/29/134
f 188/29/104 187/29/104 219/29/104
f 176/29/135 208/29/135 209/29/135
f 179/29/136 178/29/136 210/29/136
f 194/29/137 193/29/137 225/29/137
f 186/29/108 185/29/108 217/29/108
f 199/29/109 198/29/109 230/29/109
f 191/29/110 223/29/110 224/29/110
f 201/29/111 233/29/111 202/29/111
f 174/29/138 173/29/138 205/29/138
f 187/29/113 186/29/113 218/29/113
f 152/29/67 57/29/67 58/29/67
f 84/29/59 165/29/59 166/29/59
usemtl glass
f 36/46/13 41/44/13 39/47/13
f 36/46/13 40/33/13 41/44/13
usemtl マテリアル
f 32/32/13 40/33/13 34/31/13
f 32/32/13 38/37/13 37/38/13
f 41/44/13 37/38/13 33/45/13
f 40/33/13 37/38/13 41/44/13
f 30/42/13 36/46/13 39/47/13
f 39/47/13 33/45/13 30/42/13
f 31/48/13 34/31/13 36/46/13
f 34/31/13 28/30/13 32/32/13
f 28/30/13 35/49/13 32/32/13
f 40/33/13 36/46/13 34/31/13
f 37/38/13 38/37/13 29/50/13
f 29/50/13 33/45/13 37/38/13
f 33/45/13 39/47/13 41/44/13
f 32/32/13 35/49/13 38/37/13
f 40/33/13 32/32/13 37/38/13
f 30/42/13 31/48/13 36/46/13
o 立方体.011
v 1.359987 -0.279000 -0.930000
v 1.359987 -0.121000 -0.930000
v 1.360000 1.121006 0.977988
v 1.360000 1.278994 0.977988
v 1.292000 -0.279000 -0.930000
v 1.292000 -0.121000 -0.930000
v 1.292013 1.121006 0.977988
v 1.292013 1.278994 0.977988
v 1.400000 -0.030000 -0.680000
v 1.400000 0.030000 -0.680000
v 1.400000 -0.030000 -0.620000
v 1.400000 0.030000 -0.620000
v 1.359987 -0.030000 -0.680000
v 1.359987 0.030000 -0.680000
v 1.359987 -0.030000 -0.620000
v 1.359987 0.030000 -0.620000
v 1.400000 0.968994 0.667988
v 1.400000 1.028994 0.667988
v 1.400000 0.968994 0.727988
v 1.400000 1.028994 0.727988
v 1.359987 0.968994 0.667988
v 1.359987 1.028994 0.667988
v 1.359987 0.968994 0.727988
v 1.359987 1.028994 0.727988
vn -0.0000 -0.0000 -1.0000
vn -1.0000 -0.0000 -0.0000
vn -0.0000 1.0000 -0.0000
vn -0.0000 -1.0000 -0.0000
vn 1.0000 -0.0000 -0.0000
vn -0.0000 0.8062 -0.5916
vn -0.0000 -0.0000 1.0000
vt 0.375000 1.000000
vt 0.625000 0.750000
vt 0.625000 1.000000
vt 0.375000 0.500000
vt 0.375000 0.750000
vt 0.875000 0.500000
vt 0.875000 0.750000
vt 0.125000 0.750000
vt 0.625000 0.500000
vt 0.625000 0.000000
vt 0.375000 0.250000
vt 0.375000 0.000000
vt 0.625000 0.250000
vt 0.125000 0.500000
s 0
usemtl Material
f 274/51/139 279/52/139 275/53/139
f 272/54/140 271/52/140 270/55/140
f 287/52/141 285/56/141 283/57/141
f 282/58/142 288/54/142 286/55/142
f 278/55/140 281/59/140 279/52/140
f 282/51/139 287/52/139 283/53/139
f 266/51/139 271/52/139 267/53/139
f 267/60/143 268/61/143 266/62/143
f 273/59/144 267/57/144 271/52/144
f 276/61/143 275/60/143 277/63/143
f 280/54/145 277/63/145 281/59/145
f 279/52/141 277/56/141 275/57/141
f 274/58/142 280/54/142 278/55/142
f 274/51/139 278/55/139 279/52/139
f 272/54/140 273/59/140 271/52/140
f 287/52/141 289/59/141 285/56/141
f 282/58/142 284/64/142 288/54/142
f 278/55/140 280/54/140 281/59/140
f 282/51/139 286/55/139 287/52/139
f 266/51/139 270/55/139 271/52/139
f 267/60/143 269/63/143 268/61/143
f 273/59/144 269/56/144 267/57/144
f 276/61/143 274/62/143 275/60/143
f 280/54/145 276/61/145 277/63/145
f 279/52/141 281/59/141 277/56/141
f 274/58/142 276/64/142 280/54/142
o 立方体
v 4.000000 2.600000 -4.000000
v 4.000000 -4.000000 4.000000
v 4.000000 2.600000 4.000000
v -0.600000 -4.000000 -4.000000
v -0.600000 2.600000 -4.000000
v -0.600000 -4.000000 4.000000
v -0.600000 2.600000 4.000000
vn 1.0000 -0.0000 -0.0000
vn -0.0000 -1.0000 -0.0000
vn -0.0000 -0.0000 -1.0000
vt 1.484753 -0.506151
vt -0.496472 1.490613
vt 1.484753 1.506151
vt 0.996094 0.003906
vt -0.001953 0.998047
vt 0.998047 1.001953
vt 0.625000 0.250000
vt 0.375000 0.500000
vt 0.625000 0.500000
vt -0.480933 -0.494497
vt 0.001953 0.005859
vt 0.375000 0.250000
s 0
usemtl Material
f 296/65/146 293/66/146 294/67/146
f 292/68/147 294/69/147 290/70/147
f 292/71/148 295/72/148 296/73/148
f 296/65/146 295/74/146 293/66/146
f 292/68/147 296/75/147 294/69/147
f 292/71/148 291/76/148 295/72/148
o 立方体.001
v 1.400000 -1.200000 -0.930000
v 1.400000 -1.000000 -0.930000
v 1.400000 -1.000000 -0.680000
v -0.600000 -1.200000 -0.930000
v -0.600000 -1.000000 -0.930000
v -0.600000 -1.000000 -0.680000
v 1.400000 -1.060000 -0.930000
v -0.600000 -1.060000 -0.930000
v -0.600000 -1.060000 -0.880000
v -0.600000 -1.200000 -0.880000
v 1.400000 -1.200000 -0.880000
v 1.400000 -1.060000 -0.880000
vn -0.0000 -0.0000 -1.0000
vn -0.0000 1.0000 -0.0000
vn -0.0000 -1.0000 -0.0000
vt 0.699414 1.000000
vt 0.994141 0.000000
vt 1.000000 1.000000
vt -0.001953 1.000000
vt 0.695312 0.000000
vt 0.000000 0.000000
vt -0.001953 1.000000
vt 0.994141 0.001953
vt 1.003906 0.996094
vt -0.001953 0.000000
vt -0.001953 -0.001953
s 0
usemtl Material.001
f 303/77/149 301/78/149 298/79/149
f 307/80/149 305/81/149 308/77/149
f 306/82/150 297/82/150 300/82/150
f 308/77/151 304/81/151 303/77/151
f 301/83/150 299/84/150 298/85/150
f 303/77/149 304/81/149 301/78/149
f 307/80/149 306/86/149 305/81/149
f 306/82/150 307/82/150 297/82/150
f 308/77/151 305/81/151 304/81/151
f 301/83/150 302/87/150 299/84/150
o 立方体.002
v 1.400000 -1.000000 -0.680000
v 1.400000 -0.800000 -0.680000
v 1.400000 -0.800000 -0.430000
v -0.600000 -1.000000 -0.680000
v -0.600000 -0.800000 -0.680000
v -0.600000 -0.800000 -0.430000
v 1.400000 -0.860000 -0.680000
v -0.600000 -0.860000 -0.680000
v -0.600000 -0.860000 -0.630000
v -0.600000 -1.000000 -0.630000
v 1.400000 -1.000000 -0.630000
v 1.400000 -0.860000 -0.630000
vn -0.0000 -0.0000 -1.0000
vn -0.0000 -1.0000 -0.0000
vn -0.0000 1.0000 -0.0000
vt -0.001953 1.000000
vt 0.695313 0.000000
vt 0.699414 1.000000
vt 0.000000 0.000000
vt -0.001953 1.000000
vt 0.994141 0.001953
vt 1.003906 0.996094
vt 0.994141 0.000000
vt 1.000000 1.000000
vt -0.001953 0.000000
vt -0.001953 -0.001953
s 0
usemtl Material.001
f 319/88/152 317/89/152 320/90/152
f 320/90/153 316/89/153 315/90/153
f 318/91/154 309/91/154 312/91/154
f 313/92/154 311/93/154 310/94/154
f 315/90/152 313/95/152 310/96/152
f 319/88/152 318/97/152 317/89/152
f 320/90/153 317/89/153 316/89/153
f 318/91/154 319/91/154 309/91/154
f 313/92/154 314/98/154 311/93/154
f 315/90/152 316/89/152 313/95/152
o 立方体.003
v 1.400000 -0.800000 -0.430000
v 1.400000 -0.600000 -0.430000
v 1.400000 -0.600000 -0.180000
v -0.600000 -0.800000 -0.430000
v -0.600000 -0.600000 -0.430000
v -0.600000 -0.600000 -0.180000
v 1.400000 -0.660000 -0.430000
v -0.600000 -0.660000 -0.430000
v -0.600000 -0.660000 -0.380000
v -0.600000 -0.800000 -0.380000
v 1.400000 -0.800000 -0.380000
v 1.400000 -0.660000 -0.380000
vn -0.0000 -0.0000 -1.0000
vn -0.0000 1.0000 -0.0000
vn -0.0000 -1.0000 -0.0000
vt 0.699414 1.000000
vt 0.994141 0.000000
vt 1.000000 1.000000
vt -0.001953 1.000000
vt 0.695313 0.000000
vt 0.000000 0.000000
vt -0.001953 1.000000
vt 0.994141 0.001953
vt 1.003906 0.996094
vt -0.001953 0.000000
vt -0.001953 -0.001953
s 0
usemtl Material.001
f 327/99/155 325/100/155 322/101/155
f 331/102/155 329/103/155 332/99/155
f 330/104/156 321/104/156 324/104/156
f 332/99/157 328/103/157 327/99/157
f 325/105/156 323/106/156 322/107/156
f 327/99/155 328/103/155 325/100/155
f 331/102/155 330/108/155 329/103/155
f 330/104/156 331/104/156 321/104/156
f 332/99/157 329/103/157 328/103/157
f 325/105/156 326/109/156 323/106/156
o 立方体.004
v 1.400000 -0.600000 -0.180000
v 1.400000 -0.400000 -0.180000
v 1.400000 -0.400000 0.070000
v -0.600000 -0.600000 -0.180000
v -0.600000 -0.400000 -0.180000
v -0.600000 -0.400000 0.070000
v 1.400000 -0.460000 -0.180000
v -0.600000 -0.460000 -0.180000
v -0.600000 -0.460000 -0.130000
v -0.600000 -0.600000 -0.130000
v 1.400000 -0.600000 -0.130000
v 1.400000 -0.460000 -0.130000
vn -0.0000 -0.0000 -1.0000
vn -0.0000 -1.0000 -0.0000
vn -0.0000 1.0000 -0.0000
vt -0.001953 1.000000
vt 0.695313 0.000000
vt 0.699414 1.000000
vt 0.000000 0.000000
vt -0.001953 1.000000
vt 0.994141 0.001953
vt 1.003906 0.996094
vt 0.994141 0.000000
vt 1.000000 1.000000
vt -0.001953 0.000000
vt -0.001953 -0.001953
s 0
usemtl Material.001
f 343/110/158 341/111/158 344/112/158
f 344/112/159 340/111/159 339/112/159
f 342/113/160 333/113/160 336/113/160
f 337/114/160 335/115/160 334/116/160
f 339/112/158 337/117/158 334/118/158
f 343/110/158 342/119/158 341/111/158
f 344/112/159 341/111/159 340/111/159
f 342/113/160 343/113/160 333/113/160
f 337/114/160 338/120/160 335/115/160
f 339/112/158 340/111/158 337/117/158
o 立方体.005
v 1.400000 -0.400000 0.070000
v 1.400000 -0.200000 0.070000
v 1.400000 -0.200000 0.320000
v -0.600000 -0.400000 0.070000
v -0.600000 -0.200000 0.070000
v -0.600000 -0.200000 0.320000
v 1.400000 -0.260000 0.070000
v -0.600000 -0.260000 0.070000
v -0.600000 -0.260000 0.120000
v -0.600000 -0.400000 0.120000
v 1.400000 -0.400000 0.120000
v 1.400000 -0.260000 0.120000
vn -0.0000 -0.0000 -1.0000
vn -0.0000 1.0000 -0.0000
vn -0.0000 -1.0000 -0.0000
vt 0.699414 1.000000
vt 0.994141 0.000000
vt 1.000000 1.000000
vt -0.001953 1.000000
vt 0.695313 0.000000
vt 0.000000 0.000000
vt -0.001953 1.000000
vt 0.994141 0.001953
vt 1.003906 0.996094
vt -0.001953 0.000000
vt -0.001953 -0.001953
s 0
usemtl Material.001
f 351/121/161 349/122/161 346/123/161
f 355/124/161 353/125/161 356/121/161
f 354/126/162 345/126/162 348/126/162
f 356/121/163 352/125/163 351/121/163
f 349/127/162 347/128/162 346/129/162
f 351/121/161 352/125/161 349/122/161
f 355/124/161 354/130/161 353/125/161
f 354/126/162 355/126/162 345/126/162
f 356/121/163 353/125/163 352/125/163
f 349/127/162 350/131/162 347/128/162
o 立方体.006
v 1.400000 -0.200000 0.320000
v 1.400000 0.000000 0.320000
v 1.400000 0.000000 0.570000
v -0.600000 -0.200000 0.320000
v -0.600000 0.000000 0.320000
v -0.600000 0.000000 0.570000
v 1.400000 -0.060000 0.320000
v -0.600000 -0.060000 0.320000
v -0.600000 -0.060000 0.370000
v -0.600000 -0.200000 0.370000
v 1.400000 -0.200000 0.370000
v 1.400000 -0.060000 0.370000
vn -0.0000 -0.0000 -1.0000
vn -0.0000 1.0000 -0.0000
vn -0.0000 -1.0000 -0.0000
vt 0.699414 1.000000
vt 0.994141 0.000000
vt 1.000000 1.000000
vt -0.001953 1.000000
vt 0.695313 0.000000
vt 0.000000 0.000000
vt -0.001953 1.000000
vt 0.994141 0.001953
vt 1.003906 0.996094
vt -0.001953 0.000000
vt -0.001953 -0.001953
s 0
usemtl Material.001
f 363/132/164 361/133/164 358/134/164
f 367/135/164 365/136/164 368/132/164
f 366/137/165 357/137/165 360/137/165
f 368/132/166 364/136/166 363/132/166
f 361/138/165 359/139/165 358/140/165
f 363/132/164 364/136/164 361/133/164
f 367/135/164 366/141/164 365/136/164
f 366/137/165 367/137/165 357/137/165
f 368/132/166 365/136/166 364/136/166
f 361/138/165 362/142/165 359/139/165
o 立方体.007
v 1.400000 0.000000 0.570000
v 1.400000 0.200000 0.570000
v 1.400000 0.200000 0.820000
v -0.600000 0.000000 0.570000
v -0.600000 0.200000 0.570000
v -0.600000 0.200000 0.820000
v 1.400000 0.140000 0.570000
v -0.600000 0.140000 0.570000
v -0.600000 0.140000 0.620000
v -0.600000 0.000000 0.620000
v 1.400000 0.000000 0.620000
v 1.400000 0.140000 0.620000
vn -0.0000 -0.0000 -1.0000
vn -0.0000 -1.0000 -0.0000
vn -0.0000 1.0000 -0.0000
vt 0.699414 1.000000
vt 0.994141 0.000000
vt 1.000000 1.000000
vt -0.001953 1.000000
vt 0.695312 0.000000
vt 0.000000 0.000000
vt -0.001953 1.000000
vt 0.994141 0.001953
vt 1.003906 0.996094
vt -0.001953 0.000000
vt -0.001953 -0.001953
s 0
usemtl Material.001
f 375/143/167 373/144/167 370/145/167
f 379/146/167 377/147/167 380/143/167
f 380/143/168 376/147/168 375/143/168
f 378/148/169 369/148/169 372/148/169
f 373/149/169 371/150/169 370/151/169
f 375/143/167 376/147/167 373/144/167
f 379/146/167 378/152/167 377/147/167
f 380/143/168 377/147/168 376/147/168
f 378/148/169 379/148/169 369/148/169
f 373/149/169 374/153/169 371/150/169
o 立方体.008
v 1.400000 0.200000 0.820000
v 1.400000 0.400000 0.820000
v 1.400000 0.400000 1.070000
v -0.600000 0.200000 0.820000
v -0.600000 0.400000 0.820000
v -0.600000 0.400000 1.070000
v 1.400000 0.340000 0.820000
v -0.600000 0.340000 0.820000
v -0.600000 0.340000 0.870000
v -0.600000 0.200000 0.870000
v 1.400000 0.200000 0.870000
v 1.400000 0.340000 0.870000
vn -0.0000 -0.0000 -1.0000
vn -0.0000 -1.0000 -0.0000
vn -0.0000 1.0000 -0.0000
vt -0.001953 1.000000
vt 0.695313 0.000000
vt 0.699414 1.000000
vt 0.000000 0.000000
vt -0.001953 1.000000
vt 0.994141 0.001953
vt 1.003906 0.996094
vt 0.994141 0.000000
vt 1.000000 1.000000
vt -0.001953 0.000000
vt -0.001953 -0.001953
s 0
usemtl Material.001
f 391/154/170 389/155/170 392/156/170
f 392/156/171 388/155/171 387/156/171
f 390/157/172 381/157/172 384/157/172
f 385/158/172 383/159/172 382/160/172
f 387/156/170 385/161/170 382/162/170
f 391/154/170 390/163/170 389/155/170
f 392/156/171 389/155/171 388/155/171
f 390/157/172 391/157/172 381/157/172
f 385/158/172 386/164/172 383/159/172
f 387/156/170 388/155/170 385/161/170
